%TF.GenerationSoftware,KiCad,Pcbnew,9.0.7*%
%TF.CreationDate,2026-03-08T16:32:35+05:30*%
%TF.ProjectId,KiCAD,4b694341-442e-46b6-9963-61645f706362,rev?*%
%TF.SameCoordinates,Original*%
%TF.FileFunction,Paste,Bot*%
%TF.FilePolarity,Positive*%
%FSLAX46Y46*%
G04 Gerber Fmt 4.6, Leading zero omitted, Abs format (unit mm)*
G04 Created by KiCad (PCBNEW 9.0.7) date 2026-03-08 16:32:35*
%MOMM*%
%LPD*%
G01*
G04 APERTURE LIST*
G04 Aperture macros list*
%AMRoundRect*
0 Rectangle with rounded corners*
0 $1 Rounding radius*
0 $2 $3 $4 $5 $6 $7 $8 $9 X,Y pos of 4 corners*
0 Add a 4 corners polygon primitive as box body*
4,1,4,$2,$3,$4,$5,$6,$7,$8,$9,$2,$3,0*
0 Add four circle primitives for the rounded corners*
1,1,$1+$1,$2,$3*
1,1,$1+$1,$4,$5*
1,1,$1+$1,$6,$7*
1,1,$1+$1,$8,$9*
0 Add four rect primitives between the rounded corners*
20,1,$1+$1,$2,$3,$4,$5,0*
20,1,$1+$1,$4,$5,$6,$7,0*
20,1,$1+$1,$6,$7,$8,$9,0*
20,1,$1+$1,$8,$9,$2,$3,0*%
G04 Aperture macros list end*
%ADD10RoundRect,0.250000X-1.025000X-1.000000X1.025000X-1.000000X1.025000X1.000000X-1.025000X1.000000X0*%
%ADD11RoundRect,0.250000X-0.459291X-1.356347X1.367272X-0.425666X0.459291X1.356347X-1.367272X0.425666X0*%
%ADD12RoundRect,0.250000X-1.248893X-0.700636X0.731255X-1.231215X1.248893X0.700636X-0.731255X1.231215X0*%
%ADD13RoundRect,0.250000X-1.367272X-0.425666X0.459291X-1.356347X1.367272X0.425666X-0.459291X1.356347X0*%
%ADD14RoundRect,0.250000X-0.731255X-1.231215X1.248893X-0.700636X0.731255X1.231215X-1.248893X0.700636X0*%
%ADD15RoundRect,0.225000X0.375000X-0.225000X0.375000X0.225000X-0.375000X0.225000X-0.375000X-0.225000X0*%
%ADD16RoundRect,0.225000X-0.375000X0.225000X-0.375000X-0.225000X0.375000X-0.225000X0.375000X0.225000X0*%
G04 APERTURE END LIST*
D10*
%TO.C,SW28*%
X104164890Y-50091927D03*
X116164890Y-52291927D03*
%TD*%
%TO.C,SW25*%
X119675000Y-73625000D03*
X131675000Y-75825000D03*
%TD*%
%TO.C,SW19*%
X135170000Y-51570000D03*
X147170000Y-53770000D03*
%TD*%
%TO.C,SW16*%
X206875000Y-72025000D03*
X218875000Y-74225000D03*
%TD*%
%TO.C,SW29*%
X104164890Y-65591927D03*
X116164890Y-67791927D03*
%TD*%
%TO.C,SW7*%
X175875000Y-73550000D03*
X187875000Y-75750000D03*
%TD*%
D11*
%TO.C,SW31*%
X53406998Y-113964876D03*
X65097856Y-110477204D03*
%TD*%
D10*
%TO.C,SW1*%
X160325000Y-51475000D03*
X172325000Y-53675000D03*
%TD*%
%TO.C,SW3*%
X160375000Y-82500000D03*
X172375000Y-84700000D03*
%TD*%
%TO.C,SW6*%
X175875000Y-58050000D03*
X187875000Y-60250000D03*
%TD*%
%TO.C,SW23*%
X119675000Y-42605000D03*
X131675000Y-44805000D03*
%TD*%
%TO.C,SW17*%
X206890000Y-87525000D03*
X218890000Y-89725000D03*
%TD*%
D12*
%TO.C,SW13*%
X226372174Y-101148578D03*
X237393882Y-106379444D03*
%TD*%
D10*
%TO.C,SW24*%
X119675000Y-58115000D03*
X131675000Y-60315000D03*
%TD*%
%TO.C,SW11*%
X191375000Y-65575000D03*
X203375000Y-67775000D03*
%TD*%
%TO.C,SW15*%
X206900000Y-56525000D03*
X218900000Y-58725000D03*
%TD*%
%TO.C,SW21*%
X135170000Y-82590000D03*
X147170000Y-84790000D03*
%TD*%
D13*
%TO.C,SW18*%
X242805420Y-110914994D03*
X252498718Y-118323094D03*
%TD*%
D10*
%TO.C,SW12*%
X191375000Y-81075000D03*
X203375000Y-83275000D03*
%TD*%
%TO.C,SW35*%
X88600000Y-87601001D03*
X100600000Y-89801001D03*
%TD*%
%TO.C,SW10*%
X191375000Y-50050000D03*
X203375000Y-52250000D03*
%TD*%
%TO.C,SW32*%
X88625000Y-41050000D03*
X100625000Y-43250000D03*
%TD*%
%TO.C,SW2*%
X160325000Y-66975000D03*
X172325000Y-69175000D03*
%TD*%
%TO.C,SW26*%
X119675000Y-89125000D03*
X131675000Y-91325000D03*
%TD*%
%TO.C,SW30*%
X104164890Y-81091927D03*
X116164890Y-83291927D03*
%TD*%
%TO.C,SW22*%
X135170000Y-98090000D03*
X147170000Y-100290000D03*
%TD*%
%TO.C,SW4*%
X160375000Y-98000000D03*
X172375000Y-100200000D03*
%TD*%
%TO.C,SW27*%
X104164890Y-34592927D03*
X116164890Y-36792927D03*
%TD*%
%TO.C,SW5*%
X175875000Y-42500000D03*
X187875000Y-44700000D03*
%TD*%
%TO.C,SW8*%
X175875000Y-89094285D03*
X187875000Y-91294285D03*
%TD*%
%TO.C,SW34*%
X88625000Y-72060000D03*
X100625000Y-74260000D03*
%TD*%
%TO.C,SW14*%
X206890000Y-41000000D03*
X218890000Y-43200000D03*
%TD*%
%TO.C,SW9*%
X191375000Y-34550000D03*
X203375000Y-36750000D03*
%TD*%
D14*
%TO.C,SW36*%
X69466345Y-103010312D03*
X81626857Y-102029520D03*
%TD*%
D10*
%TO.C,SW33*%
X88626236Y-56551007D03*
X100626236Y-58751007D03*
%TD*%
%TO.C,SW20*%
X135175522Y-67082816D03*
X147175522Y-69282816D03*
%TD*%
D15*
%TO.C,D6*%
X187600000Y-67900000D03*
X187600000Y-64600000D03*
%TD*%
%TO.C,D20*%
X146180000Y-77627500D03*
X146180000Y-74327500D03*
%TD*%
%TO.C,D26*%
X131375000Y-98025000D03*
X131375000Y-94725000D03*
%TD*%
%TO.C,D1*%
X172350000Y-60650000D03*
X172350000Y-57350000D03*
%TD*%
D16*
%TO.C,D31*%
X59025000Y-103125000D03*
X59025000Y-106425000D03*
%TD*%
D15*
%TO.C,D33*%
X100305000Y-65740000D03*
X100305000Y-62440000D03*
%TD*%
%TO.C,D27*%
X116770000Y-43140000D03*
X116770000Y-39840000D03*
%TD*%
%TO.C,D12*%
X202600000Y-90500000D03*
X202600000Y-87200000D03*
%TD*%
%TO.C,D25*%
X131250000Y-82675000D03*
X131250000Y-79375000D03*
%TD*%
%TO.C,D3*%
X172950000Y-90400000D03*
X172950000Y-87100000D03*
%TD*%
%TO.C,D4*%
X172922439Y-105850000D03*
X172922439Y-102550000D03*
%TD*%
D16*
%TO.C,D36*%
X81700000Y-96100000D03*
X81700000Y-99400000D03*
%TD*%
D15*
%TO.C,D19*%
X145940000Y-62910000D03*
X145940000Y-59610000D03*
%TD*%
%TO.C,D15*%
X217573324Y-68424651D03*
X217573324Y-65124651D03*
%TD*%
%TO.C,D30*%
X116780000Y-89510000D03*
X116780000Y-86210000D03*
%TD*%
%TO.C,D7*%
X187775000Y-82925000D03*
X187775000Y-79625000D03*
%TD*%
%TO.C,D16*%
X217638177Y-83978208D03*
X217638177Y-80678208D03*
%TD*%
%TO.C,D10*%
X202700000Y-59700000D03*
X202700000Y-56400000D03*
%TD*%
%TO.C,D29*%
X116970000Y-74090000D03*
X116970000Y-70790000D03*
%TD*%
%TO.C,D8*%
X187550000Y-98125000D03*
X187550000Y-94825000D03*
%TD*%
%TO.C,D21*%
X145960000Y-93770000D03*
X145960000Y-90470000D03*
%TD*%
%TO.C,D17*%
X219290000Y-96760000D03*
X219290000Y-93460000D03*
%TD*%
D16*
%TO.C,D13*%
X239150000Y-100200000D03*
X239150000Y-103500000D03*
%TD*%
D15*
%TO.C,D24*%
X131225000Y-67425000D03*
X131225000Y-64125000D03*
%TD*%
%TO.C,D34*%
X99905000Y-80970000D03*
X99905000Y-77670000D03*
%TD*%
%TO.C,D28*%
X116960000Y-58170000D03*
X116960000Y-54870000D03*
%TD*%
D16*
%TO.C,D18*%
X252500000Y-110020000D03*
X252500000Y-113320000D03*
%TD*%
D15*
%TO.C,D9*%
X202700000Y-43850000D03*
X202700000Y-40550000D03*
%TD*%
%TO.C,D35*%
X100300000Y-97975000D03*
X100300000Y-94675000D03*
%TD*%
%TO.C,D11*%
X202800000Y-74972064D03*
X202800000Y-71672064D03*
%TD*%
%TO.C,D23*%
X132130000Y-49180000D03*
X132130000Y-45880000D03*
%TD*%
%TO.C,D22*%
X146140000Y-109120000D03*
X146140000Y-105820000D03*
%TD*%
%TO.C,D2*%
X173050000Y-74700000D03*
X173050000Y-71400000D03*
%TD*%
%TO.C,D5*%
X187950000Y-51775000D03*
X187950000Y-48475000D03*
%TD*%
%TO.C,D32*%
X100035000Y-50460000D03*
X100035000Y-47160000D03*
%TD*%
%TO.C,D14*%
X217800000Y-52017500D03*
X217800000Y-48717500D03*
%TD*%
M02*
