%TF.GenerationSoftware,KiCad,Pcbnew,9.0.7*%
%TF.CreationDate,2026-03-08T16:32:35+05:30*%
%TF.ProjectId,KiCAD,4b694341-442e-46b6-9963-61645f706362,rev?*%
%TF.SameCoordinates,Original*%
%TF.FileFunction,Copper,L1,Top*%
%TF.FilePolarity,Positive*%
%FSLAX46Y46*%
G04 Gerber Fmt 4.6, Leading zero omitted, Abs format (unit mm)*
G04 Created by KiCad (PCBNEW 9.0.7) date 2026-03-08 16:32:35*
%MOMM*%
%LPD*%
G01*
G04 APERTURE LIST*
G04 Aperture macros list*
%AMRoundRect*
0 Rectangle with rounded corners*
0 $1 Rounding radius*
0 $2 $3 $4 $5 $6 $7 $8 $9 X,Y pos of 4 corners*
0 Add a 4 corners polygon primitive as box body*
4,1,4,$2,$3,$4,$5,$6,$7,$8,$9,$2,$3,0*
0 Add four circle primitives for the rounded corners*
1,1,$1+$1,$2,$3*
1,1,$1+$1,$4,$5*
1,1,$1+$1,$6,$7*
1,1,$1+$1,$8,$9*
0 Add four rect primitives between the rounded corners*
20,1,$1+$1,$2,$3,$4,$5,0*
20,1,$1+$1,$4,$5,$6,$7,0*
20,1,$1+$1,$6,$7,$8,$9,0*
20,1,$1+$1,$8,$9,$2,$3,0*%
G04 Aperture macros list end*
%TA.AperFunction,SMDPad,CuDef*%
%ADD10RoundRect,0.500000X-0.875000X-0.500000X0.875000X-0.500000X0.875000X0.500000X-0.875000X0.500000X0*%
%TD*%
%TA.AperFunction,SMDPad,CuDef*%
%ADD11RoundRect,0.275000X0.975000X0.275000X-0.975000X0.275000X-0.975000X-0.275000X0.975000X-0.275000X0*%
%TD*%
%TA.AperFunction,SMDPad,CuDef*%
%ADD12RoundRect,0.275000X-0.275000X0.975000X-0.275000X-0.975000X0.275000X-0.975000X0.275000X0.975000X0*%
%TD*%
%TA.AperFunction,SMDPad,CuDef*%
%ADD13C,1.700000*%
%TD*%
%TA.AperFunction,ViaPad*%
%ADD14C,0.600000*%
%TD*%
%TA.AperFunction,Conductor*%
%ADD15C,0.200000*%
%TD*%
%TA.AperFunction,Conductor*%
%ADD16C,0.500000*%
%TD*%
G04 APERTURE END LIST*
D10*
%TO.P,U1,1,P0.02_A0_D0*%
%TO.N,Col0*%
X227304500Y-75941800D03*
%TO.P,U1,2,P0.03_A1_D1*%
%TO.N,Col1*%
X227304500Y-78481800D03*
%TO.P,U1,3,P0.28_A2_D2*%
%TO.N,Col2*%
X227304500Y-81021800D03*
%TO.P,U1,4,P0.29_A3_D3*%
%TO.N,Col3*%
X227304500Y-83561800D03*
%TO.P,U1,5,P0.04_A4_D4_SDA*%
%TO.N,Row0*%
X227304500Y-86101800D03*
%TO.P,U1,6,P0.05_A5_D5_SCL*%
%TO.N,Row1*%
X227304500Y-88641800D03*
%TO.P,U1,7,P1.11_D6_TX*%
%TO.N,Row2*%
X227304500Y-91181800D03*
%TO.P,U1,8,P1.12_D7_RX*%
%TO.N,Row3*%
X243469500Y-91181800D03*
%TO.P,U1,9,P1.13_D8_SCK*%
%TO.N,Row4*%
X243469500Y-88641800D03*
%TO.P,U1,10,P1.14_D9_MISO*%
%TO.N,unconnected-(U1-P1.14_D9_MISO-Pad10)*%
X243469500Y-86101800D03*
%TO.P,U1,11,P1.15_D10_MOSI*%
%TO.N,unconnected-(U1-P1.15_D10_MOSI-Pad11)*%
X243469500Y-83561800D03*
%TO.P,U1,12,3V3*%
%TO.N,unconnected-(U1-3V3-Pad12)*%
X243469500Y-81021800D03*
%TO.P,U1,13,GND*%
%TO.N,GND*%
X243469500Y-78481800D03*
%TO.P,U1,14,5V*%
%TO.N,unconnected-(U1-5V-Pad14)*%
X243469500Y-75941800D03*
D11*
%TO.P,U1,15,BAT*%
%TO.N,VBAT*%
X230914500Y-83248300D03*
%TO.P,U1,16,GND*%
%TO.N,GND*%
X230914500Y-81343300D03*
D12*
%TO.P,U1,17,NFC1*%
%TO.N,unconnected-(U1-NFC1-Pad17)*%
X239169500Y-92798700D03*
%TO.P,U1,18,NFC2*%
%TO.N,unconnected-(U1-NFC2-Pad18)*%
X241074500Y-92798700D03*
D13*
%TO.P,U1,19,PA31_SWDIO*%
%TO.N,unconnected-(U1-PA31_SWDIO-Pad19)*%
X234089500Y-74993300D03*
%TO.P,U1,20,PA30_SWCLK*%
%TO.N,unconnected-(U1-PA30_SWCLK-Pad20)*%
X236629500Y-74993300D03*
%TO.P,U1,21,RESET*%
%TO.N,unconnected-(U1-RESET-Pad21)*%
X234089500Y-77533300D03*
%TO.P,U1,22,GND*%
%TO.N,unconnected-(U1-GND-Pad22)*%
X236629500Y-77533300D03*
%TD*%
D10*
%TO.P,U3,1,P0.02_A0_D0*%
%TO.N,Col4*%
X61776250Y-75945000D03*
%TO.P,U3,2,P0.03_A1_D1*%
%TO.N,Col5*%
X61776250Y-78485000D03*
%TO.P,U3,3,P0.28_A2_D2*%
%TO.N,Col6*%
X61776250Y-81025000D03*
%TO.P,U3,4,P0.29_A3_D3*%
%TO.N,Col7*%
X61776250Y-83565000D03*
%TO.P,U3,5,P0.04_A4_D4_SDA*%
%TO.N,Row5*%
X61776250Y-86105000D03*
%TO.P,U3,6,P0.05_A5_D5_SCL*%
%TO.N,Row6*%
X61776250Y-88645000D03*
%TO.P,U3,7,P1.11_D6_TX*%
%TO.N,Row7*%
X61776250Y-91185000D03*
%TO.P,U3,8,P1.12_D7_RX*%
%TO.N,Row8*%
X77941250Y-91185000D03*
%TO.P,U3,9,P1.13_D8_SCK*%
%TO.N,Row9*%
X77941250Y-88645000D03*
%TO.P,U3,10,P1.14_D9_MISO*%
%TO.N,unconnected-(U3-P1.14_D9_MISO-Pad10)*%
X77941250Y-86105000D03*
%TO.P,U3,11,P1.15_D10_MOSI*%
%TO.N,unconnected-(U3-P1.15_D10_MOSI-Pad11)*%
X77941250Y-83565000D03*
%TO.P,U3,12,3V3*%
%TO.N,unconnected-(U3-3V3-Pad12)*%
X77941250Y-81025000D03*
%TO.P,U3,13,GND*%
%TO.N,GND*%
X77941250Y-78485000D03*
%TO.P,U3,14,5V*%
%TO.N,unconnected-(U3-5V-Pad14)*%
X77941250Y-75945000D03*
D11*
%TO.P,U3,15,BAT*%
%TO.N,VBAT2*%
X65386250Y-83251500D03*
%TO.P,U3,16,GND*%
%TO.N,GND*%
X65386250Y-81346500D03*
D12*
%TO.P,U3,17,NFC1*%
%TO.N,unconnected-(U3-NFC1-Pad17)*%
X73641250Y-92801900D03*
%TO.P,U3,18,NFC2*%
%TO.N,unconnected-(U3-NFC2-Pad18)*%
X75546250Y-92801900D03*
D13*
%TO.P,U3,19,PA31_SWDIO*%
%TO.N,unconnected-(U3-PA31_SWDIO-Pad19)*%
X68561250Y-74996500D03*
%TO.P,U3,20,PA30_SWCLK*%
%TO.N,unconnected-(U3-PA30_SWCLK-Pad20)*%
X71101250Y-74996500D03*
%TO.P,U3,21,RESET*%
%TO.N,unconnected-(U3-RESET-Pad21)*%
X68561250Y-77536500D03*
%TO.P,U3,22,GND*%
%TO.N,unconnected-(U3-GND-Pad22)*%
X71101250Y-77536500D03*
%TD*%
D14*
%TO.N,Row0*%
X207490000Y-48950000D03*
X190775000Y-52825000D03*
X217800000Y-52017500D03*
X206290000Y-48950000D03*
X176561765Y-61425000D03*
X175361765Y-61400000D03*
X192650000Y-52825000D03*
%TO.N,Row1*%
X191975000Y-67900000D03*
X175361765Y-75350000D03*
X208375000Y-64425000D03*
X176561765Y-75350000D03*
X225590500Y-82513894D03*
X227304500Y-88641800D03*
X219075000Y-68775000D03*
X190775000Y-67900000D03*
X206300000Y-61675000D03*
%TO.N,Row2*%
X206290000Y-75450000D03*
X220850000Y-86701800D03*
X217638177Y-83978208D03*
X223525000Y-91700000D03*
X221675000Y-91700000D03*
%TO.N,Row3*%
X243469500Y-91181800D03*
%TO.N,Row4*%
X239150000Y-100200000D03*
X252500000Y-110020000D03*
X242205420Y-103454420D03*
%TO.N,Row5*%
X132130000Y-49180000D03*
X145940000Y-62910000D03*
X116770000Y-43140000D03*
X100075000Y-50460000D03*
X103564890Y-47825000D03*
%TO.N,Row6*%
X146180000Y-77627500D03*
X131225000Y-67425000D03*
X100305000Y-65740000D03*
X134570000Y-76050000D03*
X119075000Y-60925000D03*
X105800000Y-62325000D03*
%TO.N,Row7*%
X120275000Y-77350000D03*
X93175000Y-82075000D03*
X89200000Y-84250000D03*
X61776250Y-91185000D03*
X131250000Y-82675000D03*
X87850000Y-84250000D03*
X105000000Y-79325000D03*
X99905000Y-80970000D03*
X136650000Y-91400000D03*
X93200000Y-84225000D03*
X118925000Y-77375000D03*
%TO.N,Row8*%
X80450000Y-92100000D03*
%TO.N,Row9*%
X80763235Y-93261765D03*
X59025000Y-103125000D03*
X79950000Y-96425000D03*
X77941250Y-88645000D03*
%TO.N,Col0*%
X223675000Y-75900000D03*
X222275000Y-86701800D03*
X222275000Y-97360000D03*
%TO.N,Col1*%
X223400000Y-79800000D03*
X217250000Y-101675000D03*
X223475000Y-97360000D03*
X223450000Y-96160000D03*
X176300000Y-104425000D03*
X218975000Y-101650000D03*
X176025000Y-90575000D03*
%TO.N,Col2*%
X227304500Y-81021800D03*
X226372174Y-97360000D03*
X198702268Y-79152267D03*
X218250735Y-85799265D03*
X228350000Y-95450000D03*
%TO.N,Col3*%
X231425000Y-97625000D03*
X221675000Y-83225000D03*
%TO.N,Col4*%
X135170000Y-98090000D03*
%TO.N,Col5*%
X98775000Y-86900000D03*
X87699265Y-81825735D03*
X64600000Y-79350000D03*
%TO.N,Col6*%
X61776250Y-81025000D03*
X89425000Y-82725000D03*
X87725000Y-82700000D03*
%TO.N,Col7*%
X61776250Y-83565000D03*
%TO.N,VBAT*%
X232925000Y-87425000D03*
%TO.N,GND*%
X243469500Y-78481800D03*
X230914500Y-81343300D03*
X73525000Y-80024000D03*
X77941250Y-78485000D03*
X65386250Y-81625000D03*
X73450000Y-81625000D03*
%TO.N,VBAT2*%
X65386250Y-83251500D03*
%TD*%
D15*
%TO.N,Row0*%
X218475000Y-52692500D02*
X217800000Y-52017500D01*
X175386765Y-61425000D02*
X175361765Y-61400000D01*
X190775000Y-52825000D02*
X192650000Y-52825000D01*
X219401800Y-86101800D02*
X218475000Y-85175000D01*
X206290000Y-48950000D02*
X207490000Y-48950000D01*
X227304500Y-86101800D02*
X219401800Y-86101800D01*
X176561765Y-61425000D02*
X175386765Y-61425000D01*
X218475000Y-85175000D02*
X218475000Y-52692500D01*
%TO.N,Row1*%
X222125000Y-81500000D02*
X219075000Y-78450000D01*
X219075000Y-78450000D02*
X219075000Y-68775000D01*
X206300000Y-61675000D02*
X206300000Y-62050000D01*
X175361765Y-75350000D02*
X176561765Y-75350000D01*
X190775000Y-67900000D02*
X191975000Y-67900000D01*
X224576606Y-81500000D02*
X222125000Y-81500000D01*
X225590500Y-82513894D02*
X224576606Y-81500000D01*
X208375000Y-64125000D02*
X208375000Y-64425000D01*
X206300000Y-62050000D02*
X208375000Y-64125000D01*
%TO.N,Row2*%
X206290000Y-75450000D02*
X210800000Y-75450000D01*
X210800000Y-75450000D02*
X217638177Y-82288177D01*
X221075000Y-86926800D02*
X221075000Y-91225000D01*
X224918200Y-91181800D02*
X227304500Y-91181800D01*
X221550000Y-91700000D02*
X221675000Y-91700000D01*
X224400000Y-91700000D02*
X224918200Y-91181800D01*
X220850000Y-86701800D02*
X221075000Y-86926800D01*
X217638177Y-82288177D02*
X217638177Y-83978208D01*
X221075000Y-91225000D02*
X221550000Y-91700000D01*
X223525000Y-91700000D02*
X224400000Y-91700000D01*
%TO.N,Row4*%
X245934420Y-103454420D02*
X252500000Y-110020000D01*
X245145500Y-94204500D02*
X239150000Y-100200000D01*
X243469500Y-88641800D02*
X245145500Y-90317800D01*
X245145500Y-90317800D02*
X245145500Y-94204500D01*
X242205420Y-103454420D02*
X245934420Y-103454420D01*
%TO.N,Row5*%
X63445000Y-86105000D02*
X64600000Y-84950000D01*
X132410907Y-48375000D02*
X145940000Y-61904093D01*
X74725000Y-74650000D02*
X75774000Y-73601000D01*
X124809907Y-47304000D02*
X130254000Y-47304000D01*
X69994795Y-79930205D02*
X70450000Y-79475000D01*
X131325000Y-48375000D02*
X132130000Y-49180000D01*
X131325000Y-48375000D02*
X132410907Y-48375000D01*
X74325000Y-79000000D02*
X74425000Y-78900000D01*
X73750000Y-79325000D02*
X74000000Y-79325000D01*
X84150000Y-50550000D02*
X100250000Y-50550000D01*
X74425000Y-78900000D02*
X74425000Y-76150000D01*
X70025000Y-84075000D02*
X69994795Y-84044795D01*
X145940000Y-61904093D02*
X145940000Y-62910000D01*
X121185907Y-43680000D02*
X124809907Y-47304000D01*
X82600000Y-72975000D02*
X82600000Y-52100000D01*
X64600000Y-84950000D02*
X69150000Y-84950000D01*
X116230000Y-43680000D02*
X121185907Y-43680000D01*
X74425000Y-76150000D02*
X74425000Y-74950000D01*
X74000000Y-79325000D02*
X74325000Y-79000000D01*
X116230000Y-43680000D02*
X116770000Y-43140000D01*
X82600000Y-73249942D02*
X82600000Y-72975000D01*
X69994795Y-80183788D02*
X69994795Y-79930205D01*
X112085000Y-47825000D02*
X116230000Y-43680000D01*
X82248942Y-73601000D02*
X82600000Y-73249942D01*
X82875000Y-51825000D02*
X84150000Y-50550000D01*
X69150000Y-84950000D02*
X70025000Y-84075000D01*
X70450000Y-79475000D02*
X70600000Y-79325000D01*
X70600000Y-79325000D02*
X73750000Y-79325000D01*
X61776250Y-86105000D02*
X63445000Y-86105000D01*
X103564890Y-47825000D02*
X112085000Y-47825000D01*
X82600000Y-52100000D02*
X82875000Y-51825000D01*
X74425000Y-74950000D02*
X74725000Y-74650000D01*
X79324000Y-73601000D02*
X82248942Y-73601000D01*
X130254000Y-47304000D02*
X131325000Y-48375000D01*
X69994795Y-84044795D02*
X69994795Y-80183788D01*
X75774000Y-73601000D02*
X79324000Y-73601000D01*
%TO.N,Row6*%
X84575000Y-94125000D02*
X84575000Y-66775000D01*
X61776250Y-88645000D02*
X60100250Y-90321000D01*
X63151192Y-95075000D02*
X83625000Y-95075000D01*
X84575000Y-66775000D02*
X85600000Y-65750000D01*
X85600000Y-65750000D02*
X100295000Y-65750000D01*
X102385000Y-65740000D02*
X100305000Y-65740000D01*
X119075000Y-60925000D02*
X123645108Y-60925000D01*
X130145108Y-67425000D02*
X131225000Y-67425000D01*
X100295000Y-65750000D02*
X100305000Y-65740000D01*
X144602500Y-76050000D02*
X146180000Y-77627500D01*
X105800000Y-62325000D02*
X102385000Y-65740000D01*
X83625000Y-95075000D02*
X84575000Y-94125000D01*
X123645108Y-60925000D02*
X130145108Y-67425000D01*
X60100250Y-92024058D02*
X63151192Y-95075000D01*
X60100250Y-90321000D02*
X60100250Y-92024058D01*
X134570000Y-76050000D02*
X144602500Y-76050000D01*
%TO.N,Row7*%
X89200000Y-84250000D02*
X87850000Y-84250000D01*
X105000000Y-79325000D02*
X101550000Y-79325000D01*
X134750000Y-89500000D02*
X134750000Y-86175000D01*
X120275000Y-77350000D02*
X118950000Y-77350000D01*
X118950000Y-77350000D02*
X118925000Y-77375000D01*
X93175000Y-82075000D02*
X93175000Y-84200000D01*
X134750000Y-86175000D02*
X131250000Y-82675000D01*
X93175000Y-84200000D02*
X93200000Y-84225000D01*
X101550000Y-79325000D02*
X99905000Y-80970000D01*
X136650000Y-91400000D02*
X134750000Y-89500000D01*
%TO.N,Row8*%
X79535000Y-91185000D02*
X77941250Y-91185000D01*
X80450000Y-92100000D02*
X79535000Y-91185000D01*
%TO.N,Row9*%
X69900000Y-101600000D02*
X68125000Y-101600000D01*
X81051000Y-92974000D02*
X81051000Y-91754750D01*
X79950000Y-96425000D02*
X79575000Y-96425000D01*
X68125000Y-101600000D02*
X66600000Y-103125000D01*
X75825000Y-100175000D02*
X71325000Y-100175000D01*
X80763235Y-93261765D02*
X81051000Y-92974000D01*
X66600000Y-103125000D02*
X59025000Y-103125000D01*
X71325000Y-100175000D02*
X69900000Y-101600000D01*
X81051000Y-91754750D02*
X77941250Y-88645000D01*
X79575000Y-96425000D02*
X75825000Y-100175000D01*
%TO.N,Col0*%
X222275000Y-86701800D02*
X222275000Y-86552800D01*
X222275000Y-86552800D02*
X222275000Y-97360000D01*
X223675000Y-75900000D02*
X223716800Y-75941800D01*
X223716800Y-75941800D02*
X227304500Y-75941800D01*
%TO.N,Col1*%
X223475000Y-97360000D02*
X223475000Y-96185000D01*
X217250000Y-101675000D02*
X218950000Y-101675000D01*
X223475000Y-96185000D02*
X223450000Y-96160000D01*
X227304500Y-78481800D02*
X224718200Y-78481800D01*
X218950000Y-101675000D02*
X218975000Y-101650000D01*
X176025000Y-104150000D02*
X176300000Y-104425000D01*
X224718200Y-78481800D02*
X223400000Y-79800000D01*
X176025000Y-90575000D02*
X176025000Y-104150000D01*
%TO.N,Col2*%
X218175470Y-85724000D02*
X218250735Y-85799265D01*
X228282174Y-95450000D02*
X228350000Y-95450000D01*
X226372174Y-97360000D02*
X228282174Y-95450000D01*
X198702268Y-79152267D02*
X205274001Y-85724000D01*
X205274001Y-85724000D02*
X218175470Y-85724000D01*
%TO.N,Col3*%
X222025000Y-83225000D02*
X222361800Y-83561800D01*
X231425000Y-87682300D02*
X227304500Y-83561800D01*
X231425000Y-97625000D02*
X231425000Y-87682300D01*
X221675000Y-83225000D02*
X222025000Y-83225000D01*
X222361800Y-83561800D02*
X227304500Y-83561800D01*
%TO.N,Col4*%
X88450000Y-104325000D02*
X128935000Y-104325000D01*
X87200000Y-96775000D02*
X87200000Y-103075000D01*
X59575000Y-78146250D02*
X59575000Y-94025000D01*
X61776250Y-75945000D02*
X59575000Y-78146250D01*
X87200000Y-103075000D02*
X88450000Y-104325000D01*
X59575000Y-94025000D02*
X61075000Y-95525000D01*
X85950000Y-95525000D02*
X87200000Y-96775000D01*
X128935000Y-104325000D02*
X135170000Y-98090000D01*
X61075000Y-95525000D02*
X85950000Y-95525000D01*
%TO.N,Col5*%
X61776250Y-78485000D02*
X63735000Y-78485000D01*
X96975000Y-86850000D02*
X97125000Y-86850000D01*
X87699265Y-81825735D02*
X89449265Y-81825735D01*
X97125000Y-86850000D02*
X98725000Y-86850000D01*
X89850000Y-81425000D02*
X94825000Y-81425000D01*
X96375000Y-81850000D02*
X96375000Y-86250000D01*
X94825000Y-81425000D02*
X95950000Y-81425000D01*
X98725000Y-86850000D02*
X98775000Y-86900000D01*
X63735000Y-78485000D02*
X64600000Y-79350000D01*
X95950000Y-81425000D02*
X96350000Y-81825000D01*
X96375000Y-86250000D02*
X96975000Y-86850000D01*
X96350000Y-81825000D02*
X96375000Y-81850000D01*
X89449265Y-81825735D02*
X89850000Y-81425000D01*
%TO.N,Col6*%
X87750000Y-82725000D02*
X87725000Y-82700000D01*
X89425000Y-82725000D02*
X87750000Y-82725000D01*
D16*
%TO.N,VBAT*%
X230914500Y-83248300D02*
X232723300Y-83248300D01*
X232925000Y-83450000D02*
X232925000Y-87425000D01*
X232723300Y-83248300D02*
X232925000Y-83450000D01*
%TO.N,GND*%
X73450000Y-81625000D02*
X73450000Y-80099000D01*
D15*
X73450000Y-80099000D02*
X73525000Y-80024000D01*
%TD*%
M02*
