M48
; DRILL file {KiCad 9.0.7} date 2026-03-08T16:32:39+0530
; FORMAT={-:-/ absolute / metric / decimal}
; #@! TF.CreationDate,2026-03-08T16:32:39+05:30
; #@! TF.GenerationSoftware,Kicad,Pcbnew,9.0.7
; #@! TF.FileFunction,Plated,1,2,PTH
FMAT,2
METRIC
; #@! TA.AperFunction,Plated,PTH,ViaDrill
T1C0.300
%
G90
G05
T1
X59.025Y-103.125
X61.776Y-81.025
X61.776Y-83.565
X61.776Y-91.185
X64.6Y-79.35
X65.386Y-81.625
X65.386Y-83.251
X73.45Y-81.625
X73.525Y-80.024
X77.941Y-78.485
X77.941Y-88.645
X79.95Y-96.425
X80.45Y-92.1
X80.763Y-93.262
X87.699Y-81.826
X87.725Y-82.7
X87.85Y-84.25
X89.2Y-84.25
X89.425Y-82.725
X93.175Y-82.075
X93.2Y-84.225
X98.775Y-86.9
X99.905Y-80.97
X100.075Y-50.46
X100.305Y-65.74
X103.565Y-47.825
X105.0Y-79.325
X105.8Y-62.325
X116.77Y-43.14
X118.925Y-77.375
X119.075Y-60.925
X120.275Y-77.35
X131.225Y-67.425
X131.25Y-82.675
X132.13Y-49.18
X134.57Y-76.05
X135.17Y-98.09
X136.65Y-91.4
X145.94Y-62.91
X146.18Y-77.627
X175.362Y-61.4
X175.362Y-75.35
X176.025Y-90.575
X176.3Y-104.425
X176.562Y-61.425
X176.562Y-75.35
X190.775Y-52.825
X190.775Y-67.9
X191.975Y-67.9
X192.65Y-52.825
X198.702Y-79.152
X206.29Y-48.95
X206.29Y-75.45
X206.3Y-61.675
X207.49Y-48.95
X208.375Y-64.425
X217.25Y-101.675
X217.638Y-83.978
X217.8Y-52.017
X218.251Y-85.799
X218.975Y-101.65
X219.075Y-68.775
X220.85Y-86.702
X221.675Y-83.225
X221.675Y-91.7
X222.275Y-86.702
X222.275Y-97.36
X223.4Y-79.8
X223.45Y-96.16
X223.475Y-97.36
X223.525Y-91.7
X223.675Y-75.9
X225.59Y-82.514
X226.372Y-97.36
X227.304Y-81.022
X227.304Y-88.642
X228.35Y-95.45
X230.914Y-81.343
X231.425Y-97.625
X232.925Y-87.425
X239.15Y-100.2
X242.205Y-103.454
X243.469Y-78.482
X243.469Y-91.182
X252.5Y-110.02
M30
