%TF.GenerationSoftware,KiCad,Pcbnew,9.0.7*%
%TF.CreationDate,2026-03-08T16:32:35+05:30*%
%TF.ProjectId,KiCAD,4b694341-442e-46b6-9963-61645f706362,rev?*%
%TF.SameCoordinates,Original*%
%TF.FileFunction,Copper,L2,Bot*%
%TF.FilePolarity,Positive*%
%FSLAX46Y46*%
G04 Gerber Fmt 4.6, Leading zero omitted, Abs format (unit mm)*
G04 Created by KiCad (PCBNEW 9.0.7) date 2026-03-08 16:32:35*
%MOMM*%
%LPD*%
G01*
G04 APERTURE LIST*
G04 Aperture macros list*
%AMRoundRect*
0 Rectangle with rounded corners*
0 $1 Rounding radius*
0 $2 $3 $4 $5 $6 $7 $8 $9 X,Y pos of 4 corners*
0 Add a 4 corners polygon primitive as box body*
4,1,4,$2,$3,$4,$5,$6,$7,$8,$9,$2,$3,0*
0 Add four circle primitives for the rounded corners*
1,1,$1+$1,$2,$3*
1,1,$1+$1,$4,$5*
1,1,$1+$1,$6,$7*
1,1,$1+$1,$8,$9*
0 Add four rect primitives between the rounded corners*
20,1,$1+$1,$2,$3,$4,$5,0*
20,1,$1+$1,$4,$5,$6,$7,0*
20,1,$1+$1,$6,$7,$8,$9,0*
20,1,$1+$1,$8,$9,$2,$3,0*%
G04 Aperture macros list end*
%TA.AperFunction,SMDPad,CuDef*%
%ADD10RoundRect,0.250000X-1.025000X-1.000000X1.025000X-1.000000X1.025000X1.000000X-1.025000X1.000000X0*%
%TD*%
%TA.AperFunction,SMDPad,CuDef*%
%ADD11RoundRect,0.250000X-0.459291X-1.356347X1.367272X-0.425666X0.459291X1.356347X-1.367272X0.425666X0*%
%TD*%
%TA.AperFunction,SMDPad,CuDef*%
%ADD12RoundRect,0.250000X-1.248893X-0.700636X0.731255X-1.231215X1.248893X0.700636X-0.731255X1.231215X0*%
%TD*%
%TA.AperFunction,SMDPad,CuDef*%
%ADD13RoundRect,0.250000X-1.367272X-0.425666X0.459291X-1.356347X1.367272X0.425666X-0.459291X1.356347X0*%
%TD*%
%TA.AperFunction,SMDPad,CuDef*%
%ADD14RoundRect,0.250000X-0.731255X-1.231215X1.248893X-0.700636X0.731255X1.231215X-1.248893X0.700636X0*%
%TD*%
%TA.AperFunction,SMDPad,CuDef*%
%ADD15RoundRect,0.225000X0.375000X-0.225000X0.375000X0.225000X-0.375000X0.225000X-0.375000X-0.225000X0*%
%TD*%
%TA.AperFunction,SMDPad,CuDef*%
%ADD16C,2.000000*%
%TD*%
%TA.AperFunction,SMDPad,CuDef*%
%ADD17RoundRect,0.225000X-0.375000X0.225000X-0.375000X-0.225000X0.375000X-0.225000X0.375000X0.225000X0*%
%TD*%
%TA.AperFunction,ViaPad*%
%ADD18C,0.600000*%
%TD*%
%TA.AperFunction,Conductor*%
%ADD19C,0.200000*%
%TD*%
%TA.AperFunction,Conductor*%
%ADD20C,0.500000*%
%TD*%
G04 APERTURE END LIST*
D10*
%TO.P,SW28,1,1*%
%TO.N,Col6*%
X104164890Y-50091927D03*
%TO.P,SW28,2,2*%
%TO.N,Net-(D28-A)*%
X116164890Y-52291927D03*
%TD*%
%TO.P,SW25,1,1*%
%TO.N,Col5*%
X119675000Y-73625000D03*
%TO.P,SW25,2,2*%
%TO.N,Net-(D25-A)*%
X131675000Y-75825000D03*
%TD*%
%TO.P,SW19,1,1*%
%TO.N,Col4*%
X135170000Y-51570000D03*
%TO.P,SW19,2,2*%
%TO.N,Net-(D19-A)*%
X147170000Y-53770000D03*
%TD*%
%TO.P,SW16,1,1*%
%TO.N,Col3*%
X206875000Y-72025000D03*
%TO.P,SW16,2,2*%
%TO.N,Net-(D16-A)*%
X218875000Y-74225000D03*
%TD*%
%TO.P,SW29,1,1*%
%TO.N,Col6*%
X104164890Y-65591927D03*
%TO.P,SW29,2,2*%
%TO.N,Net-(D29-A)*%
X116164890Y-67791927D03*
%TD*%
%TO.P,SW7,1,1*%
%TO.N,Col1*%
X175875000Y-73550000D03*
%TO.P,SW7,2,2*%
%TO.N,Net-(D7-A)*%
X187875000Y-75750000D03*
%TD*%
D11*
%TO.P,SW31,1,1*%
%TO.N,Col6*%
X53406998Y-113964876D03*
%TO.P,SW31,2,2*%
%TO.N,Net-(D31-A)*%
X65097856Y-110477204D03*
%TD*%
D10*
%TO.P,SW1,1,1*%
%TO.N,Col0*%
X160325000Y-51475000D03*
%TO.P,SW1,2,2*%
%TO.N,Net-(D1-A)*%
X172325000Y-53675000D03*
%TD*%
%TO.P,SW3,1,1*%
%TO.N,Col0*%
X160375000Y-82500000D03*
%TO.P,SW3,2,2*%
%TO.N,Net-(D3-A)*%
X172375000Y-84700000D03*
%TD*%
%TO.P,SW6,1,1*%
%TO.N,Col1*%
X175875000Y-58050000D03*
%TO.P,SW6,2,2*%
%TO.N,Net-(D6-A)*%
X187875000Y-60250000D03*
%TD*%
%TO.P,SW23,1,1*%
%TO.N,Col5*%
X119675000Y-42605000D03*
%TO.P,SW23,2,2*%
%TO.N,Net-(D23-A)*%
X131675000Y-44805000D03*
%TD*%
%TO.P,SW17,1,1*%
%TO.N,Col3*%
X206890000Y-87525000D03*
%TO.P,SW17,2,2*%
%TO.N,Net-(D17-A)*%
X218890000Y-89725000D03*
%TD*%
D12*
%TO.P,SW13,1,1*%
%TO.N,Col2*%
X226372174Y-101148578D03*
%TO.P,SW13,2,2*%
%TO.N,Net-(D13-A)*%
X237393882Y-106379444D03*
%TD*%
D10*
%TO.P,SW24,1,1*%
%TO.N,Col5*%
X119675000Y-58115000D03*
%TO.P,SW24,2,2*%
%TO.N,Net-(D24-A)*%
X131675000Y-60315000D03*
%TD*%
%TO.P,SW11,1,1*%
%TO.N,Col2*%
X191375000Y-65575000D03*
%TO.P,SW11,2,2*%
%TO.N,Net-(D11-A)*%
X203375000Y-67775000D03*
%TD*%
%TO.P,SW15,1,1*%
%TO.N,Col3*%
X206900000Y-56525000D03*
%TO.P,SW15,2,2*%
%TO.N,Net-(D15-A)*%
X218900000Y-58725000D03*
%TD*%
%TO.P,SW21,1,1*%
%TO.N,Col4*%
X135170000Y-82590000D03*
%TO.P,SW21,2,2*%
%TO.N,Net-(D21-A)*%
X147170000Y-84790000D03*
%TD*%
D13*
%TO.P,SW18,1,1*%
%TO.N,Col3*%
X242805420Y-110914994D03*
%TO.P,SW18,2,2*%
%TO.N,Net-(D18-A)*%
X252498718Y-118323094D03*
%TD*%
D10*
%TO.P,SW12,1,1*%
%TO.N,Col2*%
X191375000Y-81075000D03*
%TO.P,SW12,2,2*%
%TO.N,Net-(D12-A)*%
X203375000Y-83275000D03*
%TD*%
%TO.P,SW35,1,1*%
%TO.N,Col7*%
X88600000Y-87601001D03*
%TO.P,SW35,2,2*%
%TO.N,Net-(D35-A)*%
X100600000Y-89801001D03*
%TD*%
%TO.P,SW10,1,1*%
%TO.N,Col2*%
X191375000Y-50050000D03*
%TO.P,SW10,2,2*%
%TO.N,Net-(D10-A)*%
X203375000Y-52250000D03*
%TD*%
%TO.P,SW32,1,1*%
%TO.N,Col7*%
X88625000Y-41050000D03*
%TO.P,SW32,2,2*%
%TO.N,Net-(D32-A)*%
X100625000Y-43250000D03*
%TD*%
%TO.P,SW2,1,1*%
%TO.N,Col0*%
X160325000Y-66975000D03*
%TO.P,SW2,2,2*%
%TO.N,Net-(D2-A)*%
X172325000Y-69175000D03*
%TD*%
%TO.P,SW26,1,1*%
%TO.N,Col5*%
X119675000Y-89125000D03*
%TO.P,SW26,2,2*%
%TO.N,Net-(D26-A)*%
X131675000Y-91325000D03*
%TD*%
%TO.P,SW30,1,1*%
%TO.N,Col6*%
X104164890Y-81091927D03*
%TO.P,SW30,2,2*%
%TO.N,Net-(D30-A)*%
X116164890Y-83291927D03*
%TD*%
%TO.P,SW22,1,1*%
%TO.N,Col4*%
X135170000Y-98090000D03*
%TO.P,SW22,2,2*%
%TO.N,Net-(D22-A)*%
X147170000Y-100290000D03*
%TD*%
%TO.P,SW4,1,1*%
%TO.N,Col0*%
X160375000Y-98000000D03*
%TO.P,SW4,2,2*%
%TO.N,Net-(D4-A)*%
X172375000Y-100200000D03*
%TD*%
%TO.P,SW27,1,1*%
%TO.N,Col6*%
X104164890Y-34592927D03*
%TO.P,SW27,2,2*%
%TO.N,Net-(D27-A)*%
X116164890Y-36792927D03*
%TD*%
%TO.P,SW5,1,1*%
%TO.N,Col1*%
X175875000Y-42500000D03*
%TO.P,SW5,2,2*%
%TO.N,Net-(D5-A)*%
X187875000Y-44700000D03*
%TD*%
%TO.P,SW8,1,1*%
%TO.N,Col1*%
X175875000Y-89094285D03*
%TO.P,SW8,2,2*%
%TO.N,Net-(D8-A)*%
X187875000Y-91294285D03*
%TD*%
%TO.P,SW34,1,1*%
%TO.N,Col7*%
X88625000Y-72060000D03*
%TO.P,SW34,2,2*%
%TO.N,Net-(D34-A)*%
X100625000Y-74260000D03*
%TD*%
%TO.P,SW14,1,1*%
%TO.N,Col3*%
X206890000Y-41000000D03*
%TO.P,SW14,2,2*%
%TO.N,Net-(D14-A)*%
X218890000Y-43200000D03*
%TD*%
%TO.P,SW9,1,1*%
%TO.N,Col2*%
X191375000Y-34550000D03*
%TO.P,SW9,2,2*%
%TO.N,Net-(D9-A)*%
X203375000Y-36750000D03*
%TD*%
D14*
%TO.P,SW36,1,1*%
%TO.N,Col7*%
X69466345Y-103010312D03*
%TO.P,SW36,2,2*%
%TO.N,Net-(D36-A)*%
X81626857Y-102029520D03*
%TD*%
D10*
%TO.P,SW33,1,1*%
%TO.N,Col7*%
X88626236Y-56551007D03*
%TO.P,SW33,2,2*%
%TO.N,Net-(D33-A)*%
X100626236Y-58751007D03*
%TD*%
%TO.P,SW20,1,1*%
%TO.N,Col4*%
X135175522Y-67082816D03*
%TO.P,SW20,2,2*%
%TO.N,Net-(D20-A)*%
X147175522Y-69282816D03*
%TD*%
D15*
%TO.P,D6,1,K*%
%TO.N,Row1*%
X187600000Y-67900000D03*
%TO.P,D6,2,A*%
%TO.N,Net-(D6-A)*%
X187600000Y-64600000D03*
%TD*%
%TO.P,D20,1,K*%
%TO.N,Row6*%
X146180000Y-77627500D03*
%TO.P,D20,2,A*%
%TO.N,Net-(D20-A)*%
X146180000Y-74327500D03*
%TD*%
D16*
%TO.P,Bat  -,1,1*%
%TO.N,GND*%
X70350000Y-86900000D03*
%TD*%
D15*
%TO.P,D26,1,K*%
%TO.N,Row8*%
X131375000Y-98025000D03*
%TO.P,D26,2,A*%
%TO.N,Net-(D26-A)*%
X131375000Y-94725000D03*
%TD*%
%TO.P,D1,1,K*%
%TO.N,Row0*%
X172350000Y-60650000D03*
%TO.P,D1,2,A*%
%TO.N,Net-(D1-A)*%
X172350000Y-57350000D03*
%TD*%
D17*
%TO.P,D31,1,K*%
%TO.N,Row9*%
X59025000Y-103125000D03*
%TO.P,D31,2,A*%
%TO.N,Net-(D31-A)*%
X59025000Y-106425000D03*
%TD*%
D15*
%TO.P,D33,1,K*%
%TO.N,Row6*%
X100305000Y-65740000D03*
%TO.P,D33,2,A*%
%TO.N,Net-(D33-A)*%
X100305000Y-62440000D03*
%TD*%
%TO.P,D27,1,K*%
%TO.N,Row5*%
X116770000Y-43140000D03*
%TO.P,D27,2,A*%
%TO.N,Net-(D27-A)*%
X116770000Y-39840000D03*
%TD*%
%TO.P,D12,1,K*%
%TO.N,Row3*%
X202600000Y-90500000D03*
%TO.P,D12,2,A*%
%TO.N,Net-(D12-A)*%
X202600000Y-87200000D03*
%TD*%
%TO.P,D25,1,K*%
%TO.N,Row7*%
X131250000Y-82675000D03*
%TO.P,D25,2,A*%
%TO.N,Net-(D25-A)*%
X131250000Y-79375000D03*
%TD*%
%TO.P,D3,1,K*%
%TO.N,Row2*%
X172950000Y-90400000D03*
%TO.P,D3,2,A*%
%TO.N,Net-(D3-A)*%
X172950000Y-87100000D03*
%TD*%
%TO.P,D4,1,K*%
%TO.N,Row3*%
X172922439Y-105850000D03*
%TO.P,D4,2,A*%
%TO.N,Net-(D4-A)*%
X172922439Y-102550000D03*
%TD*%
D17*
%TO.P,D36,1,K*%
%TO.N,Row9*%
X81700000Y-96100000D03*
%TO.P,D36,2,A*%
%TO.N,Net-(D36-A)*%
X81700000Y-99400000D03*
%TD*%
D15*
%TO.P,D19,1,K*%
%TO.N,Row5*%
X145940000Y-62910000D03*
%TO.P,D19,2,A*%
%TO.N,Net-(D19-A)*%
X145940000Y-59610000D03*
%TD*%
%TO.P,D15,1,K*%
%TO.N,Row1*%
X217573324Y-68424651D03*
%TO.P,D15,2,A*%
%TO.N,Net-(D15-A)*%
X217573324Y-65124651D03*
%TD*%
%TO.P,D30,1,K*%
%TO.N,Row8*%
X116780000Y-89510000D03*
%TO.P,D30,2,A*%
%TO.N,Net-(D30-A)*%
X116780000Y-86210000D03*
%TD*%
%TO.P,D7,1,K*%
%TO.N,Row2*%
X187775000Y-82925000D03*
%TO.P,D7,2,A*%
%TO.N,Net-(D7-A)*%
X187775000Y-79625000D03*
%TD*%
%TO.P,D16,1,K*%
%TO.N,Row2*%
X217638177Y-83978208D03*
%TO.P,D16,2,A*%
%TO.N,Net-(D16-A)*%
X217638177Y-80678208D03*
%TD*%
%TO.P,D10,1,K*%
%TO.N,Row1*%
X202700000Y-59700000D03*
%TO.P,D10,2,A*%
%TO.N,Net-(D10-A)*%
X202700000Y-56400000D03*
%TD*%
%TO.P,D29,1,K*%
%TO.N,Row7*%
X116970000Y-74090000D03*
%TO.P,D29,2,A*%
%TO.N,Net-(D29-A)*%
X116970000Y-70790000D03*
%TD*%
%TO.P,D8,1,K*%
%TO.N,Row3*%
X187550000Y-98125000D03*
%TO.P,D8,2,A*%
%TO.N,Net-(D8-A)*%
X187550000Y-94825000D03*
%TD*%
%TO.P,D21,1,K*%
%TO.N,Row7*%
X145960000Y-93770000D03*
%TO.P,D21,2,A*%
%TO.N,Net-(D21-A)*%
X145960000Y-90470000D03*
%TD*%
%TO.P,D17,1,K*%
%TO.N,Row3*%
X219290000Y-96760000D03*
%TO.P,D17,2,A*%
%TO.N,Net-(D17-A)*%
X219290000Y-93460000D03*
%TD*%
D16*
%TO.P,BAT -,1,1*%
%TO.N,GND*%
X236775000Y-87625000D03*
%TD*%
D17*
%TO.P,D13,1,K*%
%TO.N,Row4*%
X239150000Y-100200000D03*
%TO.P,D13,2,A*%
%TO.N,Net-(D13-A)*%
X239150000Y-103500000D03*
%TD*%
D15*
%TO.P,D24,1,K*%
%TO.N,Row6*%
X131225000Y-67425000D03*
%TO.P,D24,2,A*%
%TO.N,Net-(D24-A)*%
X131225000Y-64125000D03*
%TD*%
%TO.P,D34,1,K*%
%TO.N,Row7*%
X99905000Y-80970000D03*
%TO.P,D34,2,A*%
%TO.N,Net-(D34-A)*%
X99905000Y-77670000D03*
%TD*%
%TO.P,D28,1,K*%
%TO.N,Row6*%
X116960000Y-58170000D03*
%TO.P,D28,2,A*%
%TO.N,Net-(D28-A)*%
X116960000Y-54870000D03*
%TD*%
D16*
%TO.P,BAT +,1,1*%
%TO.N,VBAT*%
X232725000Y-87625000D03*
%TD*%
D17*
%TO.P,D18,1,K*%
%TO.N,Row4*%
X252500000Y-110020000D03*
%TO.P,D18,2,A*%
%TO.N,Net-(D18-A)*%
X252500000Y-113320000D03*
%TD*%
D15*
%TO.P,D9,1,K*%
%TO.N,Row0*%
X202700000Y-43850000D03*
%TO.P,D9,2,A*%
%TO.N,Net-(D9-A)*%
X202700000Y-40550000D03*
%TD*%
%TO.P,D35,1,K*%
%TO.N,Row8*%
X100300000Y-97975000D03*
%TO.P,D35,2,A*%
%TO.N,Net-(D35-A)*%
X100300000Y-94675000D03*
%TD*%
%TO.P,D11,1,K*%
%TO.N,Row2*%
X202800000Y-74972064D03*
%TO.P,D11,2,A*%
%TO.N,Net-(D11-A)*%
X202800000Y-71672064D03*
%TD*%
%TO.P,D23,1,K*%
%TO.N,Row5*%
X132130000Y-49180000D03*
%TO.P,D23,2,A*%
%TO.N,Net-(D23-A)*%
X132130000Y-45880000D03*
%TD*%
%TO.P,D22,1,K*%
%TO.N,Row8*%
X146140000Y-109120000D03*
%TO.P,D22,2,A*%
%TO.N,Net-(D22-A)*%
X146140000Y-105820000D03*
%TD*%
%TO.P,D2,1,K*%
%TO.N,Row1*%
X173050000Y-74700000D03*
%TO.P,D2,2,A*%
%TO.N,Net-(D2-A)*%
X173050000Y-71400000D03*
%TD*%
%TO.P,D5,1,K*%
%TO.N,Row0*%
X187950000Y-51775000D03*
%TO.P,D5,2,A*%
%TO.N,Net-(D5-A)*%
X187950000Y-48475000D03*
%TD*%
%TO.P,D32,1,K*%
%TO.N,Row5*%
X100035000Y-50460000D03*
%TO.P,D32,2,A*%
%TO.N,Net-(D32-A)*%
X100035000Y-47160000D03*
%TD*%
D16*
%TO.P,Bat +,1,1*%
%TO.N,VBAT2*%
X66450000Y-86850000D03*
%TD*%
D15*
%TO.P,D14,1,K*%
%TO.N,Row0*%
X217800000Y-52017500D03*
%TO.P,D14,2,A*%
%TO.N,Net-(D14-A)*%
X217800000Y-48717500D03*
%TD*%
D18*
%TO.N,Row0*%
X207490000Y-48950000D03*
X190775000Y-52825000D03*
X217800000Y-52017500D03*
X206290000Y-48950000D03*
X176561765Y-61425000D03*
X175361765Y-61400000D03*
X192650000Y-52825000D03*
%TO.N,Row1*%
X191975000Y-67900000D03*
X175361765Y-75350000D03*
X208375000Y-64425000D03*
X176561765Y-75350000D03*
X225590500Y-82513894D03*
X227304500Y-88641800D03*
X219075000Y-68775000D03*
X190775000Y-67900000D03*
X206300000Y-61675000D03*
%TO.N,Row2*%
X206290000Y-75450000D03*
X220850000Y-86701800D03*
X217638177Y-83978208D03*
X223525000Y-91700000D03*
X221675000Y-91700000D03*
%TO.N,Row3*%
X243469500Y-91181800D03*
%TO.N,Row4*%
X239150000Y-100200000D03*
X252500000Y-110020000D03*
X242205420Y-103454420D03*
%TO.N,Row5*%
X132130000Y-49180000D03*
X145940000Y-62910000D03*
X116770000Y-43140000D03*
X100075000Y-50460000D03*
X103564890Y-47825000D03*
%TO.N,Row6*%
X146180000Y-77627500D03*
X131225000Y-67425000D03*
X100305000Y-65740000D03*
X134570000Y-76050000D03*
X119075000Y-60925000D03*
X105800000Y-62325000D03*
%TO.N,Row7*%
X120275000Y-77350000D03*
X93175000Y-82075000D03*
X89200000Y-84250000D03*
X61776250Y-91185000D03*
X131250000Y-82675000D03*
X87850000Y-84250000D03*
X105000000Y-79325000D03*
X99905000Y-80970000D03*
X136650000Y-91400000D03*
X93200000Y-84225000D03*
X118925000Y-77375000D03*
%TO.N,Row8*%
X80450000Y-92100000D03*
%TO.N,Row9*%
X80763235Y-93261765D03*
X59025000Y-103125000D03*
X79950000Y-96425000D03*
X77941250Y-88645000D03*
%TO.N,Col0*%
X223675000Y-75900000D03*
X222275000Y-86701800D03*
X222275000Y-97360000D03*
%TO.N,Col1*%
X223400000Y-79800000D03*
X217250000Y-101675000D03*
X223475000Y-97360000D03*
X223450000Y-96160000D03*
X176300000Y-104425000D03*
X218975000Y-101650000D03*
X176025000Y-90575000D03*
%TO.N,Col2*%
X227304500Y-81021800D03*
X226372174Y-97360000D03*
X198702268Y-79152267D03*
X218250735Y-85799265D03*
X228350000Y-95450000D03*
%TO.N,Col3*%
X231425000Y-97625000D03*
X221675000Y-83225000D03*
%TO.N,Col4*%
X135170000Y-98090000D03*
%TO.N,Col5*%
X98775000Y-86900000D03*
X87699265Y-81825735D03*
X64600000Y-79350000D03*
%TO.N,Col6*%
X61776250Y-81025000D03*
X89425000Y-82725000D03*
X87725000Y-82700000D03*
%TO.N,Col7*%
X61776250Y-83565000D03*
%TO.N,VBAT*%
X232925000Y-87425000D03*
%TO.N,GND*%
X243469500Y-78481800D03*
X230914500Y-81343300D03*
X73525000Y-80024000D03*
X77941250Y-78485000D03*
X65386250Y-81625000D03*
X73450000Y-81625000D03*
%TO.N,VBAT2*%
X65386250Y-83251500D03*
%TD*%
D19*
%TO.N,Row0*%
X200850000Y-48050000D02*
X202700000Y-48050000D01*
X189000000Y-52825000D02*
X189400000Y-52825000D01*
X210557500Y-52017500D02*
X217800000Y-52017500D01*
X202700000Y-43850000D02*
X202700000Y-48050000D01*
X203600000Y-48950000D02*
X203850000Y-48950000D01*
X186050000Y-52025000D02*
X185075000Y-53000000D01*
X189400000Y-52825000D02*
X190775000Y-52825000D01*
X187950000Y-51775000D02*
X186300000Y-51775000D01*
X184375000Y-56975000D02*
X179925000Y-61425000D01*
X196075000Y-52825000D02*
X200850000Y-48050000D01*
X203850000Y-48950000D02*
X203864000Y-48964000D01*
X207490000Y-48950000D02*
X210557500Y-52017500D01*
X203864000Y-48964000D02*
X206276000Y-48964000D01*
X185075000Y-54550000D02*
X185075000Y-56275000D01*
X206276000Y-48964000D02*
X206290000Y-48950000D01*
X175361765Y-61400000D02*
X175361765Y-61201000D01*
X187950000Y-51775000D02*
X189000000Y-52825000D01*
X202700000Y-48050000D02*
X203600000Y-48950000D01*
X192650000Y-52825000D02*
X196075000Y-52825000D01*
X185075000Y-56275000D02*
X184375000Y-56975000D01*
X175361765Y-61201000D02*
X174810765Y-60650000D01*
X179925000Y-61425000D02*
X176561765Y-61425000D01*
X186300000Y-51775000D02*
X186050000Y-52025000D01*
X174810765Y-60650000D02*
X172350000Y-60650000D01*
X185075000Y-53000000D02*
X185075000Y-54550000D01*
%TO.N,Net-(D1-A)*%
X172450000Y-57250000D02*
X172350000Y-57350000D01*
X172450000Y-53700000D02*
X172450000Y-57250000D01*
%TO.N,Row1*%
X202700000Y-60503065D02*
X202700000Y-59700000D01*
X217923673Y-68775000D02*
X217573324Y-68424651D01*
X208375000Y-64425000D02*
X209025000Y-64425000D01*
X224525000Y-85862300D02*
X224525000Y-83579394D01*
X187600000Y-67900000D02*
X190775000Y-67900000D01*
X219075000Y-68775000D02*
X217923673Y-68775000D01*
X173050000Y-74700000D02*
X173700000Y-75350000D01*
X173700000Y-75350000D02*
X175361765Y-75350000D01*
X213024651Y-68424651D02*
X217573324Y-68424651D01*
X181228715Y-75546285D02*
X187600000Y-69175000D01*
X205128065Y-60503065D02*
X206300000Y-61675000D01*
X191975000Y-67900000D02*
X195303065Y-67900000D01*
X202700000Y-60503065D02*
X205128065Y-60503065D01*
X195303065Y-67900000D02*
X202700000Y-60503065D01*
X176758050Y-75546285D02*
X181228715Y-75546285D01*
X224525000Y-83579394D02*
X225590500Y-82513894D01*
X227304500Y-88641800D02*
X224525000Y-85862300D01*
X176561765Y-75350000D02*
X176758050Y-75546285D01*
X209025000Y-64425000D02*
X213024651Y-68424651D01*
X187600000Y-69175000D02*
X187600000Y-67900000D01*
%TO.N,Net-(D2-A)*%
X172450000Y-69200000D02*
X172450000Y-70800000D01*
X172450000Y-70800000D02*
X173050000Y-71400000D01*
%TO.N,Net-(D3-A)*%
X172450000Y-84700000D02*
X172450000Y-86600000D01*
X172450000Y-86600000D02*
X172950000Y-87100000D01*
%TO.N,Row2*%
X187775000Y-84000000D02*
X187775000Y-82925000D01*
X187775000Y-82925000D02*
X187901000Y-83051000D01*
X187901000Y-83051000D02*
X195652065Y-83051000D01*
X205812064Y-74972064D02*
X206290000Y-75450000D01*
X220075000Y-84025000D02*
X220850000Y-84800000D01*
X173725000Y-91175000D02*
X180600000Y-91175000D01*
X180600000Y-91175000D02*
X187775000Y-84000000D01*
X221675000Y-91700000D02*
X223525000Y-91700000D01*
X202800000Y-74972064D02*
X205812064Y-74972064D01*
X217638177Y-83978208D02*
X220028208Y-83978208D01*
X195652065Y-83051000D02*
X202800000Y-75903065D01*
X202800000Y-75903065D02*
X202800000Y-74972064D01*
X172950000Y-90400000D02*
X173725000Y-91175000D01*
X220028208Y-83978208D02*
X220075000Y-84025000D01*
X220850000Y-84800000D02*
X220850000Y-86701800D01*
%TO.N,Net-(D4-A)*%
X172450000Y-102077561D02*
X172922439Y-102550000D01*
X172450000Y-100200000D02*
X172450000Y-102077561D01*
%TO.N,Row3*%
X211020000Y-90520000D02*
X217280000Y-96780000D01*
X202600000Y-90500000D02*
X211050108Y-90500000D01*
X217310108Y-96760000D02*
X219290000Y-96760000D01*
X199575000Y-92325000D02*
X201400000Y-90500000D01*
X243469500Y-94244500D02*
X243469500Y-91181800D01*
X172922439Y-105850000D02*
X172922439Y-105177561D01*
X179975000Y-98125000D02*
X187550000Y-98125000D01*
X240965000Y-96760000D02*
X243475000Y-94250000D01*
X172922439Y-105177561D02*
X179975000Y-98125000D01*
X201400000Y-90500000D02*
X202600000Y-90500000D01*
X194075000Y-92325000D02*
X199575000Y-92325000D01*
X219290000Y-96760000D02*
X240965000Y-96760000D01*
X188275000Y-98125000D02*
X194075000Y-92325000D01*
X243475000Y-94250000D02*
X243469500Y-94244500D01*
X187550000Y-98125000D02*
X188275000Y-98125000D01*
%TO.N,Net-(D5-A)*%
X187963150Y-44742883D02*
X187963150Y-48461850D01*
X187963150Y-48461850D02*
X187950000Y-48475000D01*
%TO.N,Net-(D6-A)*%
X187961765Y-60269285D02*
X187961765Y-64238235D01*
X187961765Y-64238235D02*
X187600000Y-64600000D01*
%TO.N,Net-(D7-A)*%
X187961765Y-75770285D02*
X187961765Y-79438235D01*
X187961765Y-79438235D02*
X187775000Y-79625000D01*
%TO.N,Net-(D8-A)*%
X187961765Y-91269285D02*
X187961765Y-94413235D01*
X187961765Y-94413235D02*
X187550000Y-94825000D01*
%TO.N,Net-(D9-A)*%
X203450000Y-36750000D02*
X203450000Y-39800000D01*
X203450000Y-39800000D02*
X202700000Y-40550000D01*
%TO.N,Net-(D10-A)*%
X203471312Y-55628688D02*
X202700000Y-56400000D01*
X203471312Y-52261188D02*
X203471312Y-55628688D01*
%TO.N,Net-(D11-A)*%
X203375000Y-71097064D02*
X202800000Y-71672064D01*
X203375000Y-67775000D02*
X203375000Y-71097064D01*
%TO.N,Net-(D12-A)*%
X203375000Y-86425000D02*
X202600000Y-87200000D01*
X203375000Y-83275000D02*
X203375000Y-86425000D01*
%TO.N,Net-(D13-A)*%
X237393882Y-106379444D02*
X239150000Y-104623326D01*
X239150000Y-104623326D02*
X239150000Y-103500000D01*
%TO.N,Row4*%
X239150000Y-100200000D02*
X242205420Y-103255420D01*
X242205420Y-103255420D02*
X242205420Y-103454420D01*
%TO.N,Net-(D14-A)*%
X218890000Y-47627500D02*
X217800000Y-48717500D01*
X218890000Y-43200000D02*
X218890000Y-47627500D01*
%TO.N,Net-(D15-A)*%
X218900000Y-63797975D02*
X217573324Y-65124651D01*
X218900000Y-58725000D02*
X218900000Y-63797975D01*
%TO.N,Net-(D16-A)*%
X218890000Y-79426385D02*
X217638177Y-80678208D01*
X218890000Y-74200000D02*
X218890000Y-79426385D01*
%TO.N,Net-(D17-A)*%
X218890000Y-93060000D02*
X219290000Y-93460000D01*
X218890000Y-89700000D02*
X218890000Y-93060000D01*
%TO.N,Net-(D18-A)*%
X252498718Y-113321282D02*
X252500000Y-113320000D01*
X252498718Y-118323094D02*
X252498718Y-113321282D01*
%TO.N,Net-(D19-A)*%
X147170000Y-53770000D02*
X147170000Y-58380000D01*
X147170000Y-58380000D02*
X145940000Y-59610000D01*
%TO.N,Row5*%
X100929890Y-50460000D02*
X103564890Y-47825000D01*
X100035000Y-50460000D02*
X100929890Y-50460000D01*
%TO.N,Net-(D20-A)*%
X147175522Y-73331978D02*
X146180000Y-74327500D01*
X147175522Y-69282816D02*
X147175522Y-73331978D01*
%TO.N,Row6*%
X109955000Y-58170000D02*
X105800000Y-62325000D01*
X116960000Y-58170000D02*
X109955000Y-58170000D01*
X116960000Y-58170000D02*
X116960000Y-60010000D01*
X131225000Y-67425000D02*
X134769000Y-70969000D01*
X134769000Y-70969000D02*
X134769000Y-75851000D01*
X117875000Y-60925000D02*
X119075000Y-60925000D01*
X134769000Y-75851000D02*
X134570000Y-76050000D01*
X116960000Y-60010000D02*
X117875000Y-60925000D01*
%TO.N,Net-(D21-A)*%
X147170000Y-89260000D02*
X145960000Y-90470000D01*
X147170000Y-84790000D02*
X147170000Y-89260000D01*
%TO.N,Row7*%
X75950000Y-89150000D02*
X75650000Y-89450000D01*
X75950000Y-85150000D02*
X75950000Y-89150000D01*
X76300000Y-84800000D02*
X75950000Y-85150000D01*
X123835907Y-77350000D02*
X120275000Y-77350000D01*
X61786250Y-91175000D02*
X61776250Y-91185000D01*
X145960000Y-93770000D02*
X136895000Y-93770000D01*
X75650000Y-89450000D02*
X67175000Y-89450000D01*
X136625000Y-93500000D02*
X136625000Y-91425000D01*
X99905000Y-80970000D02*
X94280000Y-80970000D01*
X116970000Y-74090000D02*
X116970000Y-77105000D01*
X136895000Y-93770000D02*
X136625000Y-93500000D01*
X67175000Y-89450000D02*
X67000000Y-89625000D01*
X83125000Y-84250000D02*
X82575000Y-84800000D01*
X116970000Y-77105000D02*
X114525000Y-79550000D01*
X87850000Y-84250000D02*
X83125000Y-84250000D01*
X82575000Y-84800000D02*
X76300000Y-84800000D01*
X89225000Y-84225000D02*
X89200000Y-84250000D01*
X67000000Y-89625000D02*
X67000000Y-90725000D01*
X118925000Y-77375000D02*
X116970000Y-75420000D01*
X136625000Y-91425000D02*
X136650000Y-91400000D01*
X67000000Y-90725000D02*
X66550000Y-91175000D01*
X94280000Y-80970000D02*
X93175000Y-82075000D01*
X114525000Y-79550000D02*
X114290927Y-79315927D01*
X114290927Y-79315927D02*
X105009073Y-79315927D01*
X116970000Y-75420000D02*
X116970000Y-74090000D01*
X93200000Y-84225000D02*
X89225000Y-84225000D01*
X131250000Y-82675000D02*
X129160907Y-82675000D01*
X66550000Y-91175000D02*
X61786250Y-91175000D01*
X105009073Y-79315927D02*
X105000000Y-79325000D01*
X129160907Y-82675000D02*
X123835907Y-77350000D01*
%TO.N,Net-(D22-A)*%
X147170000Y-100290000D02*
X147170000Y-104790000D01*
X147170000Y-104790000D02*
X146140000Y-105820000D01*
%TO.N,Row8*%
X116780000Y-89510000D02*
X116780000Y-91665907D01*
X140764093Y-109120000D02*
X146140000Y-109120000D01*
X131375000Y-99730907D02*
X140764093Y-109120000D01*
X100300000Y-97975000D02*
X108315000Y-97975000D01*
X131375000Y-98025000D02*
X131375000Y-99730907D01*
X100300000Y-97975000D02*
X86325000Y-97975000D01*
X86325000Y-97975000D02*
X80450000Y-92100000D01*
X108315000Y-97975000D02*
X116780000Y-89510000D01*
X123139093Y-98025000D02*
X131375000Y-98025000D01*
X116780000Y-91665907D02*
X123139093Y-98025000D01*
%TO.N,Net-(D24-A)*%
X131675000Y-60315000D02*
X131675000Y-63675000D01*
X131675000Y-63675000D02*
X131225000Y-64125000D01*
%TO.N,Net-(D25-A)*%
X131675000Y-78950000D02*
X131250000Y-79375000D01*
X131675000Y-75825000D02*
X131675000Y-78950000D01*
%TO.N,Net-(D26-A)*%
X131675000Y-91325000D02*
X131675000Y-94425000D01*
X131675000Y-94425000D02*
X131375000Y-94725000D01*
%TO.N,Net-(D27-A)*%
X116164890Y-36792927D02*
X116164890Y-39234890D01*
X116164890Y-39234890D02*
X116770000Y-39840000D01*
%TO.N,Net-(D28-A)*%
X116164890Y-52291927D02*
X116164890Y-54074890D01*
X116164890Y-54074890D02*
X116960000Y-54870000D01*
%TO.N,Net-(D29-A)*%
X116164890Y-69984890D02*
X116970000Y-70790000D01*
X116164890Y-67791927D02*
X116164890Y-69984890D01*
%TO.N,Net-(D30-A)*%
X116164890Y-85594890D02*
X116780000Y-86210000D01*
X116164890Y-83291927D02*
X116164890Y-85594890D01*
%TO.N,Net-(D31-A)*%
X65097856Y-110477204D02*
X63077204Y-110477204D01*
X63077204Y-110477204D02*
X59025000Y-106425000D01*
%TO.N,Row9*%
X81700000Y-96100000D02*
X80275000Y-96100000D01*
X81700000Y-96100000D02*
X81700000Y-94198530D01*
X80275000Y-96100000D02*
X79950000Y-96425000D01*
X81700000Y-94198530D02*
X80763235Y-93261765D01*
%TO.N,Net-(D32-A)*%
X100625000Y-46570000D02*
X100035000Y-47160000D01*
X100625000Y-43250000D02*
X100625000Y-46570000D01*
%TO.N,Net-(D33-A)*%
X100626236Y-62118764D02*
X100305000Y-62440000D01*
X100626236Y-58751007D02*
X100626236Y-62118764D01*
%TO.N,Net-(D34-A)*%
X100625000Y-76950000D02*
X99905000Y-77670000D01*
X100625000Y-74260000D02*
X100625000Y-76950000D01*
%TO.N,Net-(D35-A)*%
X100600000Y-94375000D02*
X100300000Y-94675000D01*
X100600000Y-89801001D02*
X100600000Y-94375000D01*
%TO.N,Net-(D36-A)*%
X81626857Y-102029520D02*
X81626857Y-99473143D01*
X81626857Y-99473143D02*
X81700000Y-99400000D01*
%TO.N,Col0*%
X217850000Y-100000000D02*
X218700000Y-99150000D01*
X180925000Y-106200000D02*
X180925000Y-105179821D01*
X160450000Y-51500000D02*
X160450000Y-104100000D01*
X218700000Y-99150000D02*
X221775000Y-99150000D01*
X222275000Y-77300000D02*
X223675000Y-75900000D01*
X180524000Y-106601000D02*
X180925000Y-106200000D01*
X180925000Y-105179821D02*
X181581028Y-104523793D01*
X162951000Y-106601000D02*
X180524000Y-106601000D01*
X181581028Y-104523793D02*
X216984793Y-104523793D01*
X222225000Y-98700000D02*
X222225000Y-97410000D01*
X216984793Y-104523793D02*
X217000000Y-104539000D01*
X217850000Y-103689000D02*
X217850000Y-100000000D01*
X160450000Y-104100000D02*
X162951000Y-106601000D01*
X222275000Y-86701800D02*
X222275000Y-77300000D01*
X221775000Y-99150000D02*
X222225000Y-98700000D01*
X217000000Y-104539000D02*
X217850000Y-103689000D01*
X222225000Y-97410000D02*
X222275000Y-97360000D01*
%TO.N,Col1*%
X175961765Y-90511765D02*
X176025000Y-90575000D01*
X180943861Y-104593860D02*
X181414928Y-104122793D01*
X175961765Y-89069285D02*
X175961765Y-90511765D01*
X180762721Y-104775000D02*
X180943861Y-104593860D01*
X175963150Y-42542883D02*
X175963150Y-58067900D01*
X221575000Y-101650000D02*
X223000000Y-100225000D01*
X192550000Y-104122793D02*
X216849107Y-104122793D01*
X224125000Y-80525000D02*
X223400000Y-79800000D01*
X223450000Y-96160000D02*
X224125000Y-95485000D01*
X223000000Y-100225000D02*
X223475000Y-99750000D01*
X175961765Y-73570285D02*
X175961765Y-89069285D01*
X176300000Y-104425000D02*
X176650000Y-104775000D01*
X224125000Y-95485000D02*
X224125000Y-80525000D01*
X176650000Y-104775000D02*
X180762721Y-104775000D01*
X181414928Y-104122793D02*
X192550000Y-104122793D01*
X217250000Y-103721900D02*
X217250000Y-101675000D01*
X223475000Y-99750000D02*
X223475000Y-97360000D01*
X216849107Y-104122793D02*
X216973450Y-103998450D01*
X175963150Y-58067900D02*
X175961765Y-58069285D01*
X218975000Y-101650000D02*
X221575000Y-101650000D01*
X216973450Y-103998450D02*
X217250000Y-103721900D01*
X175961765Y-73570285D02*
X175961765Y-58069285D01*
%TO.N,Col2*%
X228950000Y-81000000D02*
X227326300Y-81000000D01*
X229325000Y-94475000D02*
X229325000Y-81375000D01*
X226372174Y-101148578D02*
X226372174Y-97360000D01*
X222799000Y-80048943D02*
X222799000Y-79551057D01*
X222747200Y-87302800D02*
X222999000Y-87051000D01*
X227326300Y-81000000D02*
X227304500Y-81021800D01*
X191375000Y-81075000D02*
X193297733Y-79152267D01*
X222999000Y-87051000D02*
X222999000Y-80248943D01*
X191375000Y-50157500D02*
X191471312Y-50061188D01*
X225481700Y-79199000D02*
X227304500Y-81021800D01*
X193297733Y-79152267D02*
X198702268Y-79152267D01*
X191375000Y-65575000D02*
X191375000Y-50157500D01*
X228350000Y-95450000D02*
X229325000Y-94475000D01*
X223151057Y-79199000D02*
X225481700Y-79199000D01*
X191450000Y-50039876D02*
X191471312Y-50061188D01*
X222799000Y-79551057D02*
X223151057Y-79199000D01*
X229325000Y-81375000D02*
X228950000Y-81000000D01*
X191450000Y-34550000D02*
X191450000Y-50039876D01*
X219754270Y-87302800D02*
X222747200Y-87302800D01*
X218250735Y-85799265D02*
X219754270Y-87302800D01*
X191375000Y-65575000D02*
X191375000Y-81075000D01*
X222999000Y-80248943D02*
X222799000Y-80048943D01*
%TO.N,Col3*%
X211165000Y-83225000D02*
X221675000Y-83225000D01*
X206890000Y-87500000D02*
X206890000Y-72000000D01*
X242805420Y-110914994D02*
X242805420Y-101105420D01*
X206900000Y-71990000D02*
X206890000Y-72000000D01*
X206890000Y-56515000D02*
X206900000Y-56525000D01*
X206890000Y-41000000D02*
X206890000Y-56515000D01*
X232725000Y-98925000D02*
X231425000Y-97625000D01*
X240625000Y-98925000D02*
X232725000Y-98925000D01*
X242805420Y-101105420D02*
X240625000Y-98925000D01*
X206890000Y-87500000D02*
X211165000Y-83225000D01*
X206900000Y-56525000D02*
X206900000Y-71990000D01*
%TO.N,Col4*%
X135170000Y-67077294D02*
X135175522Y-67082816D01*
X135170000Y-82590000D02*
X135170000Y-98090000D01*
X135170000Y-82590000D02*
X135170000Y-67088338D01*
X135170000Y-51570000D02*
X135170000Y-67077294D01*
X135170000Y-67088338D02*
X135175522Y-67082816D01*
%TO.N,Col5*%
X87625000Y-81900000D02*
X87699265Y-81825735D01*
X109248998Y-85015927D02*
X112992071Y-88759000D01*
X98775000Y-86900000D02*
X100659073Y-85015927D01*
X86349000Y-80624000D02*
X87625000Y-81900000D01*
X119675000Y-73625000D02*
X119675000Y-58115000D01*
X100659073Y-85015927D02*
X109248998Y-85015927D01*
X119675000Y-73625000D02*
X119675000Y-42605000D01*
X119309000Y-88759000D02*
X119675000Y-89125000D01*
X65874000Y-80624000D02*
X86349000Y-80624000D01*
X119675000Y-73625000D02*
X119675000Y-89125000D01*
X112992071Y-88759000D02*
X119309000Y-88759000D01*
X64600000Y-79350000D02*
X65874000Y-80624000D01*
%TO.N,Col6*%
X57476000Y-81025000D02*
X61776250Y-81025000D01*
X89475000Y-82675000D02*
X89425000Y-82725000D01*
X104164890Y-65591927D02*
X104164890Y-81091927D01*
X53406998Y-107392892D02*
X55601000Y-105198890D01*
X55601000Y-105198890D02*
X55601000Y-82900000D01*
X104164890Y-81091927D02*
X102581817Y-82675000D01*
X102581817Y-82675000D02*
X101550000Y-82675000D01*
X53406998Y-113964876D02*
X53406998Y-107392892D01*
X87725000Y-82700000D02*
X86050000Y-81025000D01*
X104164890Y-34592927D02*
X104164890Y-50091927D01*
X55601000Y-82900000D02*
X57476000Y-81025000D01*
X104164890Y-65591927D02*
X104164890Y-50091927D01*
X86050000Y-81025000D02*
X61776250Y-81025000D01*
X101550000Y-82675000D02*
X89475000Y-82675000D01*
%TO.N,Col7*%
X69466345Y-103010312D02*
X60635312Y-103010312D01*
X56775000Y-83575000D02*
X61766250Y-83575000D01*
X61766250Y-83575000D02*
X61776250Y-83565000D01*
X88600000Y-87601001D02*
X83581561Y-87601001D01*
X60450000Y-102825000D02*
X60450000Y-101725000D01*
X88600000Y-87601001D02*
X88600000Y-72085000D01*
X88600000Y-72085000D02*
X88625000Y-72060000D01*
X60450000Y-101725000D02*
X60250000Y-101525000D01*
X60250000Y-101525000D02*
X56450000Y-101525000D01*
X88626236Y-56551007D02*
X88626236Y-41051236D01*
X88626236Y-41051236D02*
X88625000Y-41050000D01*
X88625000Y-72060000D02*
X88625000Y-56552243D01*
X69466345Y-101716217D02*
X69466345Y-103010312D01*
X88625000Y-56552243D02*
X88626236Y-56551007D01*
X60635312Y-103010312D02*
X60450000Y-102825000D01*
X56002000Y-84348000D02*
X56775000Y-83575000D01*
X56450000Y-101525000D02*
X56002000Y-101077000D01*
X83581561Y-87601001D02*
X69466345Y-101716217D01*
X56002000Y-101077000D02*
X56002000Y-84348000D01*
D20*
%TO.N,GND*%
X73900000Y-78550000D02*
X77876250Y-78550000D01*
X70350000Y-86900000D02*
X70350000Y-82100000D01*
D19*
X77876250Y-78550000D02*
X77941250Y-78485000D01*
D20*
X73525000Y-78925000D02*
X73900000Y-78550000D01*
X70350000Y-82100000D02*
X69825000Y-81575000D01*
X72975000Y-82100000D02*
X73450000Y-81625000D01*
X236293300Y-81343300D02*
X230914500Y-81343300D01*
X236775000Y-81825000D02*
X236293300Y-81343300D01*
X73525000Y-80024000D02*
X73525000Y-78925000D01*
X236775000Y-87625000D02*
X236775000Y-81825000D01*
D19*
X65436250Y-81575000D02*
X65386250Y-81625000D01*
D20*
X236775000Y-79675000D02*
X237968200Y-78481800D01*
X70350000Y-82100000D02*
X72975000Y-82100000D01*
X236775000Y-81825000D02*
X236775000Y-79675000D01*
X69825000Y-81575000D02*
X65436250Y-81575000D01*
X237968200Y-78481800D02*
X243469500Y-78481800D01*
%TO.N,VBAT2*%
X66450000Y-83775000D02*
X65926500Y-83251500D01*
X65926500Y-83251500D02*
X65386250Y-83251500D01*
X66450000Y-86850000D02*
X66450000Y-83775000D01*
%TD*%
M02*
