%TF.GenerationSoftware,KiCad,Pcbnew,9.0.7*%
%TF.CreationDate,2026-03-08T16:32:35+05:30*%
%TF.ProjectId,KiCAD,4b694341-442e-46b6-9963-61645f706362,rev?*%
%TF.SameCoordinates,Original*%
%TF.FileFunction,Soldermask,Top*%
%TF.FilePolarity,Negative*%
%FSLAX46Y46*%
G04 Gerber Fmt 4.6, Leading zero omitted, Abs format (unit mm)*
G04 Created by KiCad (PCBNEW 9.0.7) date 2026-03-08 16:32:35*
%MOMM*%
%LPD*%
G01*
G04 APERTURE LIST*
G04 Aperture macros list*
%AMRoundRect*
0 Rectangle with rounded corners*
0 $1 Rounding radius*
0 $2 $3 $4 $5 $6 $7 $8 $9 X,Y pos of 4 corners*
0 Add a 4 corners polygon primitive as box body*
4,1,4,$2,$3,$4,$5,$6,$7,$8,$9,$2,$3,0*
0 Add four circle primitives for the rounded corners*
1,1,$1+$1,$2,$3*
1,1,$1+$1,$4,$5*
1,1,$1+$1,$6,$7*
1,1,$1+$1,$8,$9*
0 Add four rect primitives between the rounded corners*
20,1,$1+$1,$2,$3,$4,$5,0*
20,1,$1+$1,$4,$5,$6,$7,0*
20,1,$1+$1,$6,$7,$8,$9,0*
20,1,$1+$1,$8,$9,$2,$3,0*%
G04 Aperture macros list end*
%ADD10C,1.900000*%
%ADD11C,3.050000*%
%ADD12C,3.450000*%
%ADD13C,2.200000*%
%ADD14C,0.500000*%
%ADD15RoundRect,0.525400X-0.900400X-0.525400X0.900400X-0.525400X0.900400X0.525400X-0.900400X0.525400X0*%
%ADD16RoundRect,0.300400X1.000400X0.300400X-1.000400X0.300400X-1.000400X-0.300400X1.000400X-0.300400X0*%
%ADD17RoundRect,0.300400X-0.300400X1.000400X-0.300400X-1.000400X0.300400X-1.000400X0.300400X1.000400X0*%
%ADD18C,1.700000*%
G04 APERTURE END LIST*
D10*
%TO.C,SW28*%
X102164890Y-56091927D03*
D11*
X107664890Y-50191927D03*
D12*
X107664890Y-56091927D03*
D11*
X112664890Y-52291927D03*
D10*
X113164890Y-56091927D03*
%TD*%
%TO.C,SW25*%
X117675000Y-79625000D03*
D11*
X123175000Y-73725000D03*
D12*
X123175000Y-79625000D03*
D11*
X128175000Y-75825000D03*
D10*
X128675000Y-79625000D03*
%TD*%
%TO.C,SW19*%
X133170000Y-57570000D03*
D11*
X138670000Y-51670000D03*
D12*
X138670000Y-57570000D03*
D11*
X143670000Y-53770000D03*
D10*
X144170000Y-57570000D03*
%TD*%
%TO.C,SW16*%
X204875000Y-78025000D03*
D11*
X210375000Y-72125000D03*
D12*
X210375000Y-78025000D03*
D11*
X215375000Y-74225000D03*
D10*
X215875000Y-78025000D03*
%TD*%
%TO.C,SW29*%
X102164890Y-71591927D03*
D11*
X107664890Y-65691927D03*
D12*
X107664890Y-71591927D03*
D11*
X112664890Y-67791927D03*
D10*
X113164890Y-71591927D03*
%TD*%
%TO.C,SW7*%
X173875000Y-79550000D03*
D11*
X179375000Y-73650000D03*
D12*
X179375000Y-79550000D03*
D11*
X184375000Y-75750000D03*
D10*
X184875000Y-79550000D03*
%TD*%
%TO.C,SW31*%
X54348928Y-120218896D03*
D11*
X56570920Y-112465010D03*
D12*
X59249464Y-117721948D03*
D11*
X61979333Y-112066171D03*
D10*
X64150000Y-115225000D03*
%TD*%
D13*
%TO.C,H5*%
X154990014Y-115914900D03*
%TD*%
D14*
%TO.C,REF\u002A\u002A*%
X149740000Y-87230000D03*
X152240000Y-87230000D03*
X149740000Y-86380000D03*
X152240000Y-86380000D03*
X149740000Y-85530000D03*
X152240000Y-85530000D03*
X149740000Y-84680000D03*
X152240000Y-84680000D03*
X149740000Y-83830000D03*
X152240000Y-83830000D03*
X149740000Y-82980000D03*
X152240000Y-82980000D03*
X149740000Y-82130000D03*
X152240000Y-82130000D03*
%TD*%
D10*
%TO.C,SW1*%
X158325000Y-57475000D03*
D11*
X163825000Y-51575000D03*
D12*
X163825000Y-57475000D03*
D11*
X168825000Y-53675000D03*
D10*
X169325000Y-57475000D03*
%TD*%
%TO.C,SW3*%
X158375000Y-88500000D03*
D11*
X163875000Y-82600000D03*
D12*
X163875000Y-88500000D03*
D11*
X168875000Y-84700000D03*
D10*
X169375000Y-88500000D03*
%TD*%
%TO.C,SW6*%
X173875000Y-64050000D03*
D11*
X179375000Y-58150000D03*
D12*
X179375000Y-64050000D03*
D11*
X184375000Y-60250000D03*
D10*
X184875000Y-64050000D03*
%TD*%
%TO.C,SW23*%
X117675000Y-48605000D03*
D11*
X123175000Y-42705000D03*
D12*
X123175000Y-48605000D03*
D11*
X128175000Y-44805000D03*
D10*
X128675000Y-48605000D03*
%TD*%
%TO.C,SW17*%
X204890000Y-93525000D03*
D11*
X210390000Y-87625000D03*
D12*
X210390000Y-93525000D03*
D11*
X215390000Y-89725000D03*
D10*
X215890000Y-93525000D03*
%TD*%
%TO.C,SW13*%
X222887408Y-106426495D03*
D11*
X229727032Y-102151038D03*
D12*
X228200000Y-107850000D03*
D11*
X234013142Y-105473577D03*
D10*
X233512592Y-109273505D03*
%TD*%
D13*
%TO.C,H6*%
X219980014Y-126904900D03*
%TD*%
D10*
%TO.C,SW24*%
X117675000Y-64115000D03*
D11*
X123175000Y-58215000D03*
D12*
X123175000Y-64115000D03*
D11*
X128175000Y-60315000D03*
D10*
X128675000Y-64115000D03*
%TD*%
%TO.C,SW11*%
X189375000Y-71575000D03*
D11*
X194875000Y-65675000D03*
D12*
X194875000Y-71575000D03*
D11*
X199875000Y-67775000D03*
D10*
X200375000Y-71575000D03*
%TD*%
%TO.C,SW15*%
X204900000Y-62525000D03*
D11*
X210400000Y-56625000D03*
D12*
X210400000Y-62525000D03*
D11*
X215400000Y-58725000D03*
D10*
X215900000Y-62525000D03*
%TD*%
%TO.C,SW21*%
X133170000Y-88590000D03*
D11*
X138670000Y-82690000D03*
D12*
X138670000Y-88590000D03*
D11*
X143670000Y-84790000D03*
D10*
X144170000Y-88590000D03*
%TD*%
D15*
%TO.C,U1*%
X227304500Y-75941800D03*
X227304500Y-78481800D03*
X227304500Y-81021800D03*
X227304500Y-83561800D03*
X227304500Y-86101800D03*
X227304500Y-88641800D03*
X227304500Y-91181800D03*
X243469500Y-91181800D03*
X243469500Y-88641800D03*
X243469500Y-86101800D03*
X243469500Y-83561800D03*
X243469500Y-81021800D03*
X243469500Y-78481800D03*
X243469500Y-75941800D03*
D16*
X230914500Y-83248300D03*
X230914500Y-81343300D03*
D17*
X239169500Y-92798700D03*
X241074500Y-92798700D03*
D18*
X234089500Y-74993300D03*
X236629500Y-74993300D03*
X234089500Y-77533300D03*
X236629500Y-77533300D03*
%TD*%
D14*
%TO.C,REF\u002A\u002A*%
X149740000Y-105860000D03*
X152240000Y-105860000D03*
X149740000Y-105010000D03*
X152240000Y-105010000D03*
X149740000Y-104160000D03*
X152240000Y-104160000D03*
X149740000Y-103310000D03*
X152240000Y-103310000D03*
X149740000Y-102460000D03*
X152240000Y-102460000D03*
X149740000Y-101610000D03*
X152240000Y-101610000D03*
X149740000Y-100760000D03*
X152240000Y-100760000D03*
%TD*%
D10*
%TO.C,SW18*%
X238299464Y-115353052D03*
D11*
X245878544Y-112593062D03*
D12*
X243200000Y-117850000D03*
D11*
X249380197Y-116734128D03*
D10*
X248100536Y-120346948D03*
%TD*%
D13*
%TO.C,H8*%
X154980014Y-40844900D03*
%TD*%
%TO.C,H2*%
X82000000Y-126910000D03*
%TD*%
D10*
%TO.C,SW12*%
X189375000Y-87075000D03*
D11*
X194875000Y-81175000D03*
D12*
X194875000Y-87075000D03*
D11*
X199875000Y-83275000D03*
D10*
X200375000Y-87075000D03*
%TD*%
D15*
%TO.C,U3*%
X61776250Y-75945000D03*
X61776250Y-78485000D03*
X61776250Y-81025000D03*
X61776250Y-83565000D03*
X61776250Y-86105000D03*
X61776250Y-88645000D03*
X61776250Y-91185000D03*
X77941250Y-91185000D03*
X77941250Y-88645000D03*
X77941250Y-86105000D03*
X77941250Y-83565000D03*
X77941250Y-81025000D03*
X77941250Y-78485000D03*
X77941250Y-75945000D03*
D16*
X65386250Y-83251500D03*
X65386250Y-81346500D03*
D17*
X73641250Y-92801900D03*
X75546250Y-92801900D03*
D18*
X68561250Y-74996500D03*
X71101250Y-74996500D03*
X68561250Y-77536500D03*
X71101250Y-77536500D03*
%TD*%
D13*
%TO.C,H1*%
X50440000Y-103000000D03*
%TD*%
D10*
%TO.C,SW35*%
X86600000Y-93601001D03*
D11*
X92100000Y-87701001D03*
D12*
X92100000Y-93601001D03*
D11*
X97100000Y-89801001D03*
D10*
X97600000Y-93601001D03*
%TD*%
%TO.C,SW10*%
X189375000Y-56050000D03*
D11*
X194875000Y-50150000D03*
D12*
X194875000Y-56050000D03*
D11*
X199875000Y-52250000D03*
D10*
X200375000Y-56050000D03*
%TD*%
%TO.C,SW32*%
X86625000Y-47050000D03*
D11*
X92125000Y-41150000D03*
D12*
X92125000Y-47050000D03*
D11*
X97125000Y-43250000D03*
D10*
X97625000Y-47050000D03*
%TD*%
%TO.C,SW2*%
X158325000Y-72975000D03*
D11*
X163825000Y-67075000D03*
D12*
X163825000Y-72975000D03*
D11*
X168825000Y-69175000D03*
D10*
X169325000Y-72975000D03*
%TD*%
%TO.C,SW26*%
X117675000Y-95125000D03*
D11*
X123175000Y-89225000D03*
D12*
X123175000Y-95125000D03*
D11*
X128175000Y-91325000D03*
D10*
X128675000Y-95125000D03*
%TD*%
D13*
%TO.C,H9*%
X85000000Y-32000000D03*
%TD*%
D10*
%TO.C,SW30*%
X102164890Y-87091927D03*
D11*
X107664890Y-81191927D03*
D12*
X107664890Y-87091927D03*
D11*
X112664890Y-83291927D03*
D10*
X113164890Y-87091927D03*
%TD*%
%TO.C,SW22*%
X133170000Y-104090000D03*
D11*
X138670000Y-98190000D03*
D12*
X138670000Y-104090000D03*
D11*
X143670000Y-100290000D03*
D10*
X144170000Y-104090000D03*
%TD*%
%TO.C,SW4*%
X158375000Y-104000000D03*
D11*
X163875000Y-98100000D03*
D12*
X163875000Y-104000000D03*
D11*
X168875000Y-100200000D03*
D10*
X169375000Y-104000000D03*
%TD*%
D14*
%TO.C,REF\u002A\u002A*%
X149750000Y-63470000D03*
X152250000Y-63470000D03*
X149750000Y-62620000D03*
X152250000Y-62620000D03*
X149750000Y-61770000D03*
X152250000Y-61770000D03*
X149750000Y-60920000D03*
X152250000Y-60920000D03*
X149750000Y-60070000D03*
X152250000Y-60070000D03*
X149750000Y-59220000D03*
X152250000Y-59220000D03*
X149750000Y-58370000D03*
X152250000Y-58370000D03*
%TD*%
D13*
%TO.C,H10*%
X216980014Y-31994900D03*
%TD*%
%TO.C,H4*%
X146990000Y-115915570D03*
%TD*%
D10*
%TO.C,SW27*%
X102164890Y-40592927D03*
D11*
X107664890Y-34692927D03*
D12*
X107664890Y-40592927D03*
D11*
X112664890Y-36792927D03*
D10*
X113164890Y-40592927D03*
%TD*%
%TO.C,SW5*%
X173875000Y-48500000D03*
D11*
X179375000Y-42600000D03*
D12*
X179375000Y-48500000D03*
D11*
X184375000Y-44700000D03*
D10*
X184875000Y-48500000D03*
%TD*%
%TO.C,SW8*%
X173875000Y-95094285D03*
D11*
X179375000Y-89194285D03*
D12*
X179375000Y-95094285D03*
D11*
X184375000Y-91294285D03*
D10*
X184875000Y-95094285D03*
%TD*%
%TO.C,SW34*%
X86625000Y-78060000D03*
D11*
X92125000Y-72160000D03*
D12*
X92125000Y-78060000D03*
D11*
X97125000Y-74260000D03*
D10*
X97625000Y-78060000D03*
%TD*%
D13*
%TO.C,H7*%
X251540014Y-102994900D03*
%TD*%
%TO.C,H3*%
X147000000Y-40850000D03*
%TD*%
D10*
%TO.C,SW14*%
X204890000Y-47000000D03*
D11*
X210390000Y-41100000D03*
D12*
X210390000Y-47000000D03*
D11*
X215390000Y-43200000D03*
D10*
X215890000Y-47000000D03*
%TD*%
%TO.C,SW9*%
X189375000Y-40550000D03*
D11*
X194875000Y-34650000D03*
D12*
X194875000Y-40550000D03*
D11*
X199875000Y-36750000D03*
D10*
X200375000Y-40550000D03*
%TD*%
%TO.C,SW36*%
X69087408Y-109323505D03*
D11*
X72872968Y-102201038D03*
D12*
X74400000Y-107900000D03*
D11*
X78246117Y-102935387D03*
D10*
X79712592Y-106476495D03*
%TD*%
%TO.C,SW33*%
X86626236Y-62551007D03*
D11*
X92126236Y-56651007D03*
D12*
X92126236Y-62551007D03*
D11*
X97126236Y-58751007D03*
D10*
X97626236Y-62551007D03*
%TD*%
%TO.C,SW20*%
X133175522Y-73082816D03*
D11*
X138675522Y-67182816D03*
D12*
X138675522Y-73082816D03*
D11*
X143675522Y-69282816D03*
D10*
X144175522Y-73082816D03*
%TD*%
M02*
