M48
; DRILL file {KiCad 9.0.7} date 2026-03-08T16:32:39+0530
; FORMAT={-:-/ absolute / metric / decimal}
; #@! TF.CreationDate,2026-03-08T16:32:39+05:30
; #@! TF.GenerationSoftware,Kicad,Pcbnew,9.0.7
; #@! TF.FileFunction,NonPlated,1,2,NPTH
FMAT,2
METRIC
; #@! TA.AperFunction,NonPlated,NPTH,ComponentDrill
T1C0.500
; #@! TA.AperFunction,NonPlated,NPTH,ComponentDrill
T2C1.900
; #@! TA.AperFunction,NonPlated,NPTH,ComponentDrill
T3C2.200
; #@! TA.AperFunction,NonPlated,NPTH,ComponentDrill
T4C3.050
; #@! TA.AperFunction,NonPlated,NPTH,ComponentDrill
T5C3.450
%
G90
G05
T1
X149.74Y-82.13
X149.74Y-82.98
X149.74Y-83.83
X149.74Y-84.68
X149.74Y-85.53
X149.74Y-86.38
X149.74Y-87.23
X149.74Y-100.76
X149.74Y-101.61
X149.74Y-102.46
X149.74Y-103.31
X149.74Y-104.16
X149.74Y-105.01
X149.74Y-105.86
X149.75Y-58.37
X149.75Y-59.22
X149.75Y-60.07
X149.75Y-60.92
X149.75Y-61.77
X149.75Y-62.62
X149.75Y-63.47
X152.24Y-82.13
X152.24Y-82.98
X152.24Y-83.83
X152.24Y-84.68
X152.24Y-85.53
X152.24Y-86.38
X152.24Y-87.23
X152.24Y-100.76
X152.24Y-101.61
X152.24Y-102.46
X152.24Y-103.31
X152.24Y-104.16
X152.24Y-105.01
X152.24Y-105.86
X152.25Y-58.37
X152.25Y-59.22
X152.25Y-60.07
X152.25Y-60.92
X152.25Y-61.77
X152.25Y-62.62
X152.25Y-63.47
T2
X54.349Y-120.219
X64.15Y-115.225
X69.087Y-109.324
X79.713Y-106.476
X86.6Y-93.601
X86.625Y-47.05
X86.625Y-78.06
X86.626Y-62.551
X97.6Y-93.601
X97.625Y-47.05
X97.625Y-78.06
X97.626Y-62.551
X102.165Y-40.593
X102.165Y-56.092
X102.165Y-71.592
X102.165Y-87.092
X113.165Y-40.593
X113.165Y-56.092
X113.165Y-71.592
X113.165Y-87.092
X117.675Y-48.605
X117.675Y-64.115
X117.675Y-79.625
X117.675Y-95.125
X128.675Y-48.605
X128.675Y-64.115
X128.675Y-79.625
X128.675Y-95.125
X133.17Y-57.57
X133.17Y-88.59
X133.17Y-104.09
X133.176Y-73.083
X144.17Y-57.57
X144.17Y-88.59
X144.17Y-104.09
X144.176Y-73.083
X158.325Y-57.475
X158.325Y-72.975
X158.375Y-88.5
X158.375Y-104.0
X169.325Y-57.475
X169.325Y-72.975
X169.375Y-88.5
X169.375Y-104.0
X173.875Y-48.5
X173.875Y-64.05
X173.875Y-79.55
X173.875Y-95.094
X184.875Y-48.5
X184.875Y-64.05
X184.875Y-79.55
X184.875Y-95.094
X189.375Y-40.55
X189.375Y-56.05
X189.375Y-71.575
X189.375Y-87.075
X200.375Y-40.55
X200.375Y-56.05
X200.375Y-71.575
X200.375Y-87.075
X204.875Y-78.025
X204.89Y-47.0
X204.89Y-93.525
X204.9Y-62.525
X215.875Y-78.025
X215.89Y-47.0
X215.89Y-93.525
X215.9Y-62.525
X222.887Y-106.426
X233.513Y-109.274
X238.299Y-115.353
X248.101Y-120.347
T3
X50.44Y-103.0
X82.0Y-126.91
X85.0Y-32.0
X146.99Y-115.916
X147.0Y-40.85
X154.98Y-40.845
X154.99Y-115.915
X216.98Y-31.995
X219.98Y-126.905
X251.54Y-102.995
T4
X56.571Y-112.465
X61.979Y-112.066
X72.873Y-102.201
X78.246Y-102.935
X92.1Y-87.701
X92.125Y-41.15
X92.125Y-72.16
X92.126Y-56.651
X97.1Y-89.801
X97.125Y-43.25
X97.125Y-74.26
X97.126Y-58.751
X107.665Y-34.693
X107.665Y-50.192
X107.665Y-65.692
X107.665Y-81.192
X112.665Y-36.793
X112.665Y-52.292
X112.665Y-67.792
X112.665Y-83.292
X123.175Y-42.705
X123.175Y-58.215
X123.175Y-73.725
X123.175Y-89.225
X128.175Y-44.805
X128.175Y-60.315
X128.175Y-75.825
X128.175Y-91.325
X138.67Y-51.67
X138.67Y-82.69
X138.67Y-98.19
X138.676Y-67.183
X143.67Y-53.77
X143.67Y-84.79
X143.67Y-100.29
X143.676Y-69.283
X163.825Y-51.575
X163.825Y-67.075
X163.875Y-82.6
X163.875Y-98.1
X168.825Y-53.675
X168.825Y-69.175
X168.875Y-84.7
X168.875Y-100.2
X179.375Y-42.6
X179.375Y-58.15
X179.375Y-73.65
X179.375Y-89.194
X184.375Y-44.7
X184.375Y-60.25
X184.375Y-75.75
X184.375Y-91.294
X194.875Y-34.65
X194.875Y-50.15
X194.875Y-65.675
X194.875Y-81.175
X199.875Y-36.75
X199.875Y-52.25
X199.875Y-67.775
X199.875Y-83.275
X210.375Y-72.125
X210.39Y-41.1
X210.39Y-87.625
X210.4Y-56.625
X215.375Y-74.225
X215.39Y-43.2
X215.39Y-89.725
X215.4Y-58.725
X229.727Y-102.151
X234.013Y-105.474
X245.879Y-112.593
X249.38Y-116.734
T5
X59.249Y-117.722
X74.4Y-107.9
X92.1Y-93.601
X92.125Y-47.05
X92.125Y-78.06
X92.126Y-62.551
X107.665Y-40.593
X107.665Y-56.092
X107.665Y-71.592
X107.665Y-87.092
X123.175Y-48.605
X123.175Y-64.115
X123.175Y-79.625
X123.175Y-95.125
X138.67Y-57.57
X138.67Y-88.59
X138.67Y-104.09
X138.676Y-73.083
X163.825Y-57.475
X163.825Y-72.975
X163.875Y-88.5
X163.875Y-104.0
X179.375Y-48.5
X179.375Y-64.05
X179.375Y-79.55
X179.375Y-95.094
X194.875Y-40.55
X194.875Y-56.05
X194.875Y-71.575
X194.875Y-87.075
X210.375Y-78.025
X210.39Y-47.0
X210.39Y-93.525
X210.4Y-62.525
X228.2Y-107.85
X243.2Y-117.85
M30
