%TF.GenerationSoftware,KiCad,Pcbnew,9.0.7*%
%TF.CreationDate,2026-03-08T16:32:35+05:30*%
%TF.ProjectId,KiCAD,4b694341-442e-46b6-9963-61645f706362,rev?*%
%TF.SameCoordinates,Original*%
%TF.FileFunction,Legend,Bot*%
%TF.FilePolarity,Positive*%
%FSLAX46Y46*%
G04 Gerber Fmt 4.6, Leading zero omitted, Abs format (unit mm)*
G04 Created by KiCad (PCBNEW 9.0.7) date 2026-03-08 16:32:35*
%MOMM*%
%LPD*%
G01*
G04 APERTURE LIST*
%ADD10C,0.100000*%
%ADD11C,0.150000*%
%ADD12C,0.120000*%
%ADD13C,0.000000*%
G04 APERTURE END LIST*
D10*
X115400000Y-39950000D02*
X130900000Y-39941617D01*
X115400000Y-102000000D02*
X115400000Y-94850000D01*
X130900000Y-102000000D02*
X115400000Y-102000000D01*
X115400000Y-94850000D02*
X99900000Y-94850000D01*
X130902554Y-49812431D02*
X146400000Y-49800000D01*
X146400000Y-49800000D02*
X146400000Y-111850000D01*
X84400000Y-101325000D02*
X84400000Y-39325000D01*
X84400000Y-39325000D02*
X99900000Y-39325000D01*
X146400000Y-111850000D02*
X130900000Y-111850000D01*
X130900000Y-39941617D02*
X130902554Y-49812431D01*
X115400000Y-32850000D02*
X115400000Y-39950000D01*
X99900000Y-94850000D02*
X99900000Y-101325000D01*
X99900000Y-39325000D02*
X99900000Y-32850000D01*
X130900000Y-111850000D02*
X130900000Y-102000000D01*
X99900000Y-101325000D02*
X84400000Y-101325000D01*
X99900000Y-32850000D02*
X115400000Y-32850000D01*
D11*
X190054819Y-65511905D02*
X189054819Y-65511905D01*
X189054819Y-65511905D02*
X189054819Y-65750000D01*
X189054819Y-65750000D02*
X189102438Y-65892857D01*
X189102438Y-65892857D02*
X189197676Y-65988095D01*
X189197676Y-65988095D02*
X189292914Y-66035714D01*
X189292914Y-66035714D02*
X189483390Y-66083333D01*
X189483390Y-66083333D02*
X189626247Y-66083333D01*
X189626247Y-66083333D02*
X189816723Y-66035714D01*
X189816723Y-66035714D02*
X189911961Y-65988095D01*
X189911961Y-65988095D02*
X190007200Y-65892857D01*
X190007200Y-65892857D02*
X190054819Y-65750000D01*
X190054819Y-65750000D02*
X190054819Y-65511905D01*
X189054819Y-66940476D02*
X189054819Y-66750000D01*
X189054819Y-66750000D02*
X189102438Y-66654762D01*
X189102438Y-66654762D02*
X189150057Y-66607143D01*
X189150057Y-66607143D02*
X189292914Y-66511905D01*
X189292914Y-66511905D02*
X189483390Y-66464286D01*
X189483390Y-66464286D02*
X189864342Y-66464286D01*
X189864342Y-66464286D02*
X189959580Y-66511905D01*
X189959580Y-66511905D02*
X190007200Y-66559524D01*
X190007200Y-66559524D02*
X190054819Y-66654762D01*
X190054819Y-66654762D02*
X190054819Y-66845238D01*
X190054819Y-66845238D02*
X190007200Y-66940476D01*
X190007200Y-66940476D02*
X189959580Y-66988095D01*
X189959580Y-66988095D02*
X189864342Y-67035714D01*
X189864342Y-67035714D02*
X189626247Y-67035714D01*
X189626247Y-67035714D02*
X189531009Y-66988095D01*
X189531009Y-66988095D02*
X189483390Y-66940476D01*
X189483390Y-66940476D02*
X189435771Y-66845238D01*
X189435771Y-66845238D02*
X189435771Y-66654762D01*
X189435771Y-66654762D02*
X189483390Y-66559524D01*
X189483390Y-66559524D02*
X189531009Y-66511905D01*
X189531009Y-66511905D02*
X189626247Y-66464286D01*
X148634819Y-74763214D02*
X147634819Y-74763214D01*
X147634819Y-74763214D02*
X147634819Y-75001309D01*
X147634819Y-75001309D02*
X147682438Y-75144166D01*
X147682438Y-75144166D02*
X147777676Y-75239404D01*
X147777676Y-75239404D02*
X147872914Y-75287023D01*
X147872914Y-75287023D02*
X148063390Y-75334642D01*
X148063390Y-75334642D02*
X148206247Y-75334642D01*
X148206247Y-75334642D02*
X148396723Y-75287023D01*
X148396723Y-75287023D02*
X148491961Y-75239404D01*
X148491961Y-75239404D02*
X148587200Y-75144166D01*
X148587200Y-75144166D02*
X148634819Y-75001309D01*
X148634819Y-75001309D02*
X148634819Y-74763214D01*
X147730057Y-75715595D02*
X147682438Y-75763214D01*
X147682438Y-75763214D02*
X147634819Y-75858452D01*
X147634819Y-75858452D02*
X147634819Y-76096547D01*
X147634819Y-76096547D02*
X147682438Y-76191785D01*
X147682438Y-76191785D02*
X147730057Y-76239404D01*
X147730057Y-76239404D02*
X147825295Y-76287023D01*
X147825295Y-76287023D02*
X147920533Y-76287023D01*
X147920533Y-76287023D02*
X148063390Y-76239404D01*
X148063390Y-76239404D02*
X148634819Y-75667976D01*
X148634819Y-75667976D02*
X148634819Y-76287023D01*
X147634819Y-76906071D02*
X147634819Y-77001309D01*
X147634819Y-77001309D02*
X147682438Y-77096547D01*
X147682438Y-77096547D02*
X147730057Y-77144166D01*
X147730057Y-77144166D02*
X147825295Y-77191785D01*
X147825295Y-77191785D02*
X148015771Y-77239404D01*
X148015771Y-77239404D02*
X148253866Y-77239404D01*
X148253866Y-77239404D02*
X148444342Y-77191785D01*
X148444342Y-77191785D02*
X148539580Y-77144166D01*
X148539580Y-77144166D02*
X148587200Y-77096547D01*
X148587200Y-77096547D02*
X148634819Y-77001309D01*
X148634819Y-77001309D02*
X148634819Y-76906071D01*
X148634819Y-76906071D02*
X148587200Y-76810833D01*
X148587200Y-76810833D02*
X148539580Y-76763214D01*
X148539580Y-76763214D02*
X148444342Y-76715595D01*
X148444342Y-76715595D02*
X148253866Y-76667976D01*
X148253866Y-76667976D02*
X148015771Y-76667976D01*
X148015771Y-76667976D02*
X147825295Y-76715595D01*
X147825295Y-76715595D02*
X147730057Y-76763214D01*
X147730057Y-76763214D02*
X147682438Y-76810833D01*
X147682438Y-76810833D02*
X147634819Y-76906071D01*
X72397619Y-89031009D02*
X72254762Y-89078628D01*
X72254762Y-89078628D02*
X72207143Y-89126247D01*
X72207143Y-89126247D02*
X72159524Y-89221485D01*
X72159524Y-89221485D02*
X72159524Y-89364342D01*
X72159524Y-89364342D02*
X72207143Y-89459580D01*
X72207143Y-89459580D02*
X72254762Y-89507200D01*
X72254762Y-89507200D02*
X72350000Y-89554819D01*
X72350000Y-89554819D02*
X72730952Y-89554819D01*
X72730952Y-89554819D02*
X72730952Y-88554819D01*
X72730952Y-88554819D02*
X72397619Y-88554819D01*
X72397619Y-88554819D02*
X72302381Y-88602438D01*
X72302381Y-88602438D02*
X72254762Y-88650057D01*
X72254762Y-88650057D02*
X72207143Y-88745295D01*
X72207143Y-88745295D02*
X72207143Y-88840533D01*
X72207143Y-88840533D02*
X72254762Y-88935771D01*
X72254762Y-88935771D02*
X72302381Y-88983390D01*
X72302381Y-88983390D02*
X72397619Y-89031009D01*
X72397619Y-89031009D02*
X72730952Y-89031009D01*
X71302381Y-89554819D02*
X71302381Y-89031009D01*
X71302381Y-89031009D02*
X71350000Y-88935771D01*
X71350000Y-88935771D02*
X71445238Y-88888152D01*
X71445238Y-88888152D02*
X71635714Y-88888152D01*
X71635714Y-88888152D02*
X71730952Y-88935771D01*
X71302381Y-89507200D02*
X71397619Y-89554819D01*
X71397619Y-89554819D02*
X71635714Y-89554819D01*
X71635714Y-89554819D02*
X71730952Y-89507200D01*
X71730952Y-89507200D02*
X71778571Y-89411961D01*
X71778571Y-89411961D02*
X71778571Y-89316723D01*
X71778571Y-89316723D02*
X71730952Y-89221485D01*
X71730952Y-89221485D02*
X71635714Y-89173866D01*
X71635714Y-89173866D02*
X71397619Y-89173866D01*
X71397619Y-89173866D02*
X71302381Y-89126247D01*
X70969047Y-88888152D02*
X70588095Y-88888152D01*
X70826190Y-88554819D02*
X70826190Y-89411961D01*
X70826190Y-89411961D02*
X70778571Y-89507200D01*
X70778571Y-89507200D02*
X70683333Y-89554819D01*
X70683333Y-89554819D02*
X70588095Y-89554819D01*
X68730951Y-89173866D02*
X67969047Y-89173866D01*
X133829819Y-95160714D02*
X132829819Y-95160714D01*
X132829819Y-95160714D02*
X132829819Y-95398809D01*
X132829819Y-95398809D02*
X132877438Y-95541666D01*
X132877438Y-95541666D02*
X132972676Y-95636904D01*
X132972676Y-95636904D02*
X133067914Y-95684523D01*
X133067914Y-95684523D02*
X133258390Y-95732142D01*
X133258390Y-95732142D02*
X133401247Y-95732142D01*
X133401247Y-95732142D02*
X133591723Y-95684523D01*
X133591723Y-95684523D02*
X133686961Y-95636904D01*
X133686961Y-95636904D02*
X133782200Y-95541666D01*
X133782200Y-95541666D02*
X133829819Y-95398809D01*
X133829819Y-95398809D02*
X133829819Y-95160714D01*
X132925057Y-96113095D02*
X132877438Y-96160714D01*
X132877438Y-96160714D02*
X132829819Y-96255952D01*
X132829819Y-96255952D02*
X132829819Y-96494047D01*
X132829819Y-96494047D02*
X132877438Y-96589285D01*
X132877438Y-96589285D02*
X132925057Y-96636904D01*
X132925057Y-96636904D02*
X133020295Y-96684523D01*
X133020295Y-96684523D02*
X133115533Y-96684523D01*
X133115533Y-96684523D02*
X133258390Y-96636904D01*
X133258390Y-96636904D02*
X133829819Y-96065476D01*
X133829819Y-96065476D02*
X133829819Y-96684523D01*
X132829819Y-97541666D02*
X132829819Y-97351190D01*
X132829819Y-97351190D02*
X132877438Y-97255952D01*
X132877438Y-97255952D02*
X132925057Y-97208333D01*
X132925057Y-97208333D02*
X133067914Y-97113095D01*
X133067914Y-97113095D02*
X133258390Y-97065476D01*
X133258390Y-97065476D02*
X133639342Y-97065476D01*
X133639342Y-97065476D02*
X133734580Y-97113095D01*
X133734580Y-97113095D02*
X133782200Y-97160714D01*
X133782200Y-97160714D02*
X133829819Y-97255952D01*
X133829819Y-97255952D02*
X133829819Y-97446428D01*
X133829819Y-97446428D02*
X133782200Y-97541666D01*
X133782200Y-97541666D02*
X133734580Y-97589285D01*
X133734580Y-97589285D02*
X133639342Y-97636904D01*
X133639342Y-97636904D02*
X133401247Y-97636904D01*
X133401247Y-97636904D02*
X133306009Y-97589285D01*
X133306009Y-97589285D02*
X133258390Y-97541666D01*
X133258390Y-97541666D02*
X133210771Y-97446428D01*
X133210771Y-97446428D02*
X133210771Y-97255952D01*
X133210771Y-97255952D02*
X133258390Y-97160714D01*
X133258390Y-97160714D02*
X133306009Y-97113095D01*
X133306009Y-97113095D02*
X133401247Y-97065476D01*
X174804819Y-58261905D02*
X173804819Y-58261905D01*
X173804819Y-58261905D02*
X173804819Y-58500000D01*
X173804819Y-58500000D02*
X173852438Y-58642857D01*
X173852438Y-58642857D02*
X173947676Y-58738095D01*
X173947676Y-58738095D02*
X174042914Y-58785714D01*
X174042914Y-58785714D02*
X174233390Y-58833333D01*
X174233390Y-58833333D02*
X174376247Y-58833333D01*
X174376247Y-58833333D02*
X174566723Y-58785714D01*
X174566723Y-58785714D02*
X174661961Y-58738095D01*
X174661961Y-58738095D02*
X174757200Y-58642857D01*
X174757200Y-58642857D02*
X174804819Y-58500000D01*
X174804819Y-58500000D02*
X174804819Y-58261905D01*
X174804819Y-59785714D02*
X174804819Y-59214286D01*
X174804819Y-59500000D02*
X173804819Y-59500000D01*
X173804819Y-59500000D02*
X173947676Y-59404762D01*
X173947676Y-59404762D02*
X174042914Y-59309524D01*
X174042914Y-59309524D02*
X174090533Y-59214286D01*
X57479819Y-103560714D02*
X56479819Y-103560714D01*
X56479819Y-103560714D02*
X56479819Y-103798809D01*
X56479819Y-103798809D02*
X56527438Y-103941666D01*
X56527438Y-103941666D02*
X56622676Y-104036904D01*
X56622676Y-104036904D02*
X56717914Y-104084523D01*
X56717914Y-104084523D02*
X56908390Y-104132142D01*
X56908390Y-104132142D02*
X57051247Y-104132142D01*
X57051247Y-104132142D02*
X57241723Y-104084523D01*
X57241723Y-104084523D02*
X57336961Y-104036904D01*
X57336961Y-104036904D02*
X57432200Y-103941666D01*
X57432200Y-103941666D02*
X57479819Y-103798809D01*
X57479819Y-103798809D02*
X57479819Y-103560714D01*
X56479819Y-104465476D02*
X56479819Y-105084523D01*
X56479819Y-105084523D02*
X56860771Y-104751190D01*
X56860771Y-104751190D02*
X56860771Y-104894047D01*
X56860771Y-104894047D02*
X56908390Y-104989285D01*
X56908390Y-104989285D02*
X56956009Y-105036904D01*
X56956009Y-105036904D02*
X57051247Y-105084523D01*
X57051247Y-105084523D02*
X57289342Y-105084523D01*
X57289342Y-105084523D02*
X57384580Y-105036904D01*
X57384580Y-105036904D02*
X57432200Y-104989285D01*
X57432200Y-104989285D02*
X57479819Y-104894047D01*
X57479819Y-104894047D02*
X57479819Y-104608333D01*
X57479819Y-104608333D02*
X57432200Y-104513095D01*
X57432200Y-104513095D02*
X57384580Y-104465476D01*
X57479819Y-106036904D02*
X57479819Y-105465476D01*
X57479819Y-105751190D02*
X56479819Y-105751190D01*
X56479819Y-105751190D02*
X56622676Y-105655952D01*
X56622676Y-105655952D02*
X56717914Y-105560714D01*
X56717914Y-105560714D02*
X56765533Y-105465476D01*
X102759819Y-62875714D02*
X101759819Y-62875714D01*
X101759819Y-62875714D02*
X101759819Y-63113809D01*
X101759819Y-63113809D02*
X101807438Y-63256666D01*
X101807438Y-63256666D02*
X101902676Y-63351904D01*
X101902676Y-63351904D02*
X101997914Y-63399523D01*
X101997914Y-63399523D02*
X102188390Y-63447142D01*
X102188390Y-63447142D02*
X102331247Y-63447142D01*
X102331247Y-63447142D02*
X102521723Y-63399523D01*
X102521723Y-63399523D02*
X102616961Y-63351904D01*
X102616961Y-63351904D02*
X102712200Y-63256666D01*
X102712200Y-63256666D02*
X102759819Y-63113809D01*
X102759819Y-63113809D02*
X102759819Y-62875714D01*
X101759819Y-63780476D02*
X101759819Y-64399523D01*
X101759819Y-64399523D02*
X102140771Y-64066190D01*
X102140771Y-64066190D02*
X102140771Y-64209047D01*
X102140771Y-64209047D02*
X102188390Y-64304285D01*
X102188390Y-64304285D02*
X102236009Y-64351904D01*
X102236009Y-64351904D02*
X102331247Y-64399523D01*
X102331247Y-64399523D02*
X102569342Y-64399523D01*
X102569342Y-64399523D02*
X102664580Y-64351904D01*
X102664580Y-64351904D02*
X102712200Y-64304285D01*
X102712200Y-64304285D02*
X102759819Y-64209047D01*
X102759819Y-64209047D02*
X102759819Y-63923333D01*
X102759819Y-63923333D02*
X102712200Y-63828095D01*
X102712200Y-63828095D02*
X102664580Y-63780476D01*
X101759819Y-64732857D02*
X101759819Y-65351904D01*
X101759819Y-65351904D02*
X102140771Y-65018571D01*
X102140771Y-65018571D02*
X102140771Y-65161428D01*
X102140771Y-65161428D02*
X102188390Y-65256666D01*
X102188390Y-65256666D02*
X102236009Y-65304285D01*
X102236009Y-65304285D02*
X102331247Y-65351904D01*
X102331247Y-65351904D02*
X102569342Y-65351904D01*
X102569342Y-65351904D02*
X102664580Y-65304285D01*
X102664580Y-65304285D02*
X102712200Y-65256666D01*
X102712200Y-65256666D02*
X102759819Y-65161428D01*
X102759819Y-65161428D02*
X102759819Y-64875714D01*
X102759819Y-64875714D02*
X102712200Y-64780476D01*
X102712200Y-64780476D02*
X102664580Y-64732857D01*
X119224819Y-40275714D02*
X118224819Y-40275714D01*
X118224819Y-40275714D02*
X118224819Y-40513809D01*
X118224819Y-40513809D02*
X118272438Y-40656666D01*
X118272438Y-40656666D02*
X118367676Y-40751904D01*
X118367676Y-40751904D02*
X118462914Y-40799523D01*
X118462914Y-40799523D02*
X118653390Y-40847142D01*
X118653390Y-40847142D02*
X118796247Y-40847142D01*
X118796247Y-40847142D02*
X118986723Y-40799523D01*
X118986723Y-40799523D02*
X119081961Y-40751904D01*
X119081961Y-40751904D02*
X119177200Y-40656666D01*
X119177200Y-40656666D02*
X119224819Y-40513809D01*
X119224819Y-40513809D02*
X119224819Y-40275714D01*
X118320057Y-41228095D02*
X118272438Y-41275714D01*
X118272438Y-41275714D02*
X118224819Y-41370952D01*
X118224819Y-41370952D02*
X118224819Y-41609047D01*
X118224819Y-41609047D02*
X118272438Y-41704285D01*
X118272438Y-41704285D02*
X118320057Y-41751904D01*
X118320057Y-41751904D02*
X118415295Y-41799523D01*
X118415295Y-41799523D02*
X118510533Y-41799523D01*
X118510533Y-41799523D02*
X118653390Y-41751904D01*
X118653390Y-41751904D02*
X119224819Y-41180476D01*
X119224819Y-41180476D02*
X119224819Y-41799523D01*
X118224819Y-42132857D02*
X118224819Y-42799523D01*
X118224819Y-42799523D02*
X119224819Y-42370952D01*
X205054819Y-87635714D02*
X204054819Y-87635714D01*
X204054819Y-87635714D02*
X204054819Y-87873809D01*
X204054819Y-87873809D02*
X204102438Y-88016666D01*
X204102438Y-88016666D02*
X204197676Y-88111904D01*
X204197676Y-88111904D02*
X204292914Y-88159523D01*
X204292914Y-88159523D02*
X204483390Y-88207142D01*
X204483390Y-88207142D02*
X204626247Y-88207142D01*
X204626247Y-88207142D02*
X204816723Y-88159523D01*
X204816723Y-88159523D02*
X204911961Y-88111904D01*
X204911961Y-88111904D02*
X205007200Y-88016666D01*
X205007200Y-88016666D02*
X205054819Y-87873809D01*
X205054819Y-87873809D02*
X205054819Y-87635714D01*
X205054819Y-89159523D02*
X205054819Y-88588095D01*
X205054819Y-88873809D02*
X204054819Y-88873809D01*
X204054819Y-88873809D02*
X204197676Y-88778571D01*
X204197676Y-88778571D02*
X204292914Y-88683333D01*
X204292914Y-88683333D02*
X204340533Y-88588095D01*
X204150057Y-89540476D02*
X204102438Y-89588095D01*
X204102438Y-89588095D02*
X204054819Y-89683333D01*
X204054819Y-89683333D02*
X204054819Y-89921428D01*
X204054819Y-89921428D02*
X204102438Y-90016666D01*
X204102438Y-90016666D02*
X204150057Y-90064285D01*
X204150057Y-90064285D02*
X204245295Y-90111904D01*
X204245295Y-90111904D02*
X204340533Y-90111904D01*
X204340533Y-90111904D02*
X204483390Y-90064285D01*
X204483390Y-90064285D02*
X205054819Y-89492857D01*
X205054819Y-89492857D02*
X205054819Y-90111904D01*
X133704819Y-79810714D02*
X132704819Y-79810714D01*
X132704819Y-79810714D02*
X132704819Y-80048809D01*
X132704819Y-80048809D02*
X132752438Y-80191666D01*
X132752438Y-80191666D02*
X132847676Y-80286904D01*
X132847676Y-80286904D02*
X132942914Y-80334523D01*
X132942914Y-80334523D02*
X133133390Y-80382142D01*
X133133390Y-80382142D02*
X133276247Y-80382142D01*
X133276247Y-80382142D02*
X133466723Y-80334523D01*
X133466723Y-80334523D02*
X133561961Y-80286904D01*
X133561961Y-80286904D02*
X133657200Y-80191666D01*
X133657200Y-80191666D02*
X133704819Y-80048809D01*
X133704819Y-80048809D02*
X133704819Y-79810714D01*
X132800057Y-80763095D02*
X132752438Y-80810714D01*
X132752438Y-80810714D02*
X132704819Y-80905952D01*
X132704819Y-80905952D02*
X132704819Y-81144047D01*
X132704819Y-81144047D02*
X132752438Y-81239285D01*
X132752438Y-81239285D02*
X132800057Y-81286904D01*
X132800057Y-81286904D02*
X132895295Y-81334523D01*
X132895295Y-81334523D02*
X132990533Y-81334523D01*
X132990533Y-81334523D02*
X133133390Y-81286904D01*
X133133390Y-81286904D02*
X133704819Y-80715476D01*
X133704819Y-80715476D02*
X133704819Y-81334523D01*
X132704819Y-82239285D02*
X132704819Y-81763095D01*
X132704819Y-81763095D02*
X133181009Y-81715476D01*
X133181009Y-81715476D02*
X133133390Y-81763095D01*
X133133390Y-81763095D02*
X133085771Y-81858333D01*
X133085771Y-81858333D02*
X133085771Y-82096428D01*
X133085771Y-82096428D02*
X133133390Y-82191666D01*
X133133390Y-82191666D02*
X133181009Y-82239285D01*
X133181009Y-82239285D02*
X133276247Y-82286904D01*
X133276247Y-82286904D02*
X133514342Y-82286904D01*
X133514342Y-82286904D02*
X133609580Y-82239285D01*
X133609580Y-82239285D02*
X133657200Y-82191666D01*
X133657200Y-82191666D02*
X133704819Y-82096428D01*
X133704819Y-82096428D02*
X133704819Y-81858333D01*
X133704819Y-81858333D02*
X133657200Y-81763095D01*
X133657200Y-81763095D02*
X133609580Y-81715476D01*
X175404819Y-88011905D02*
X174404819Y-88011905D01*
X174404819Y-88011905D02*
X174404819Y-88250000D01*
X174404819Y-88250000D02*
X174452438Y-88392857D01*
X174452438Y-88392857D02*
X174547676Y-88488095D01*
X174547676Y-88488095D02*
X174642914Y-88535714D01*
X174642914Y-88535714D02*
X174833390Y-88583333D01*
X174833390Y-88583333D02*
X174976247Y-88583333D01*
X174976247Y-88583333D02*
X175166723Y-88535714D01*
X175166723Y-88535714D02*
X175261961Y-88488095D01*
X175261961Y-88488095D02*
X175357200Y-88392857D01*
X175357200Y-88392857D02*
X175404819Y-88250000D01*
X175404819Y-88250000D02*
X175404819Y-88011905D01*
X174404819Y-88916667D02*
X174404819Y-89535714D01*
X174404819Y-89535714D02*
X174785771Y-89202381D01*
X174785771Y-89202381D02*
X174785771Y-89345238D01*
X174785771Y-89345238D02*
X174833390Y-89440476D01*
X174833390Y-89440476D02*
X174881009Y-89488095D01*
X174881009Y-89488095D02*
X174976247Y-89535714D01*
X174976247Y-89535714D02*
X175214342Y-89535714D01*
X175214342Y-89535714D02*
X175309580Y-89488095D01*
X175309580Y-89488095D02*
X175357200Y-89440476D01*
X175357200Y-89440476D02*
X175404819Y-89345238D01*
X175404819Y-89345238D02*
X175404819Y-89059524D01*
X175404819Y-89059524D02*
X175357200Y-88964286D01*
X175357200Y-88964286D02*
X175309580Y-88916667D01*
X175377258Y-103461905D02*
X174377258Y-103461905D01*
X174377258Y-103461905D02*
X174377258Y-103700000D01*
X174377258Y-103700000D02*
X174424877Y-103842857D01*
X174424877Y-103842857D02*
X174520115Y-103938095D01*
X174520115Y-103938095D02*
X174615353Y-103985714D01*
X174615353Y-103985714D02*
X174805829Y-104033333D01*
X174805829Y-104033333D02*
X174948686Y-104033333D01*
X174948686Y-104033333D02*
X175139162Y-103985714D01*
X175139162Y-103985714D02*
X175234400Y-103938095D01*
X175234400Y-103938095D02*
X175329639Y-103842857D01*
X175329639Y-103842857D02*
X175377258Y-103700000D01*
X175377258Y-103700000D02*
X175377258Y-103461905D01*
X174710591Y-104890476D02*
X175377258Y-104890476D01*
X174329639Y-104652381D02*
X175043924Y-104414286D01*
X175043924Y-104414286D02*
X175043924Y-105033333D01*
X80154819Y-96535714D02*
X79154819Y-96535714D01*
X79154819Y-96535714D02*
X79154819Y-96773809D01*
X79154819Y-96773809D02*
X79202438Y-96916666D01*
X79202438Y-96916666D02*
X79297676Y-97011904D01*
X79297676Y-97011904D02*
X79392914Y-97059523D01*
X79392914Y-97059523D02*
X79583390Y-97107142D01*
X79583390Y-97107142D02*
X79726247Y-97107142D01*
X79726247Y-97107142D02*
X79916723Y-97059523D01*
X79916723Y-97059523D02*
X80011961Y-97011904D01*
X80011961Y-97011904D02*
X80107200Y-96916666D01*
X80107200Y-96916666D02*
X80154819Y-96773809D01*
X80154819Y-96773809D02*
X80154819Y-96535714D01*
X79154819Y-97440476D02*
X79154819Y-98059523D01*
X79154819Y-98059523D02*
X79535771Y-97726190D01*
X79535771Y-97726190D02*
X79535771Y-97869047D01*
X79535771Y-97869047D02*
X79583390Y-97964285D01*
X79583390Y-97964285D02*
X79631009Y-98011904D01*
X79631009Y-98011904D02*
X79726247Y-98059523D01*
X79726247Y-98059523D02*
X79964342Y-98059523D01*
X79964342Y-98059523D02*
X80059580Y-98011904D01*
X80059580Y-98011904D02*
X80107200Y-97964285D01*
X80107200Y-97964285D02*
X80154819Y-97869047D01*
X80154819Y-97869047D02*
X80154819Y-97583333D01*
X80154819Y-97583333D02*
X80107200Y-97488095D01*
X80107200Y-97488095D02*
X80059580Y-97440476D01*
X79154819Y-98916666D02*
X79154819Y-98726190D01*
X79154819Y-98726190D02*
X79202438Y-98630952D01*
X79202438Y-98630952D02*
X79250057Y-98583333D01*
X79250057Y-98583333D02*
X79392914Y-98488095D01*
X79392914Y-98488095D02*
X79583390Y-98440476D01*
X79583390Y-98440476D02*
X79964342Y-98440476D01*
X79964342Y-98440476D02*
X80059580Y-98488095D01*
X80059580Y-98488095D02*
X80107200Y-98535714D01*
X80107200Y-98535714D02*
X80154819Y-98630952D01*
X80154819Y-98630952D02*
X80154819Y-98821428D01*
X80154819Y-98821428D02*
X80107200Y-98916666D01*
X80107200Y-98916666D02*
X80059580Y-98964285D01*
X80059580Y-98964285D02*
X79964342Y-99011904D01*
X79964342Y-99011904D02*
X79726247Y-99011904D01*
X79726247Y-99011904D02*
X79631009Y-98964285D01*
X79631009Y-98964285D02*
X79583390Y-98916666D01*
X79583390Y-98916666D02*
X79535771Y-98821428D01*
X79535771Y-98821428D02*
X79535771Y-98630952D01*
X79535771Y-98630952D02*
X79583390Y-98535714D01*
X79583390Y-98535714D02*
X79631009Y-98488095D01*
X79631009Y-98488095D02*
X79726247Y-98440476D01*
X148394819Y-60045714D02*
X147394819Y-60045714D01*
X147394819Y-60045714D02*
X147394819Y-60283809D01*
X147394819Y-60283809D02*
X147442438Y-60426666D01*
X147442438Y-60426666D02*
X147537676Y-60521904D01*
X147537676Y-60521904D02*
X147632914Y-60569523D01*
X147632914Y-60569523D02*
X147823390Y-60617142D01*
X147823390Y-60617142D02*
X147966247Y-60617142D01*
X147966247Y-60617142D02*
X148156723Y-60569523D01*
X148156723Y-60569523D02*
X148251961Y-60521904D01*
X148251961Y-60521904D02*
X148347200Y-60426666D01*
X148347200Y-60426666D02*
X148394819Y-60283809D01*
X148394819Y-60283809D02*
X148394819Y-60045714D01*
X148394819Y-61569523D02*
X148394819Y-60998095D01*
X148394819Y-61283809D02*
X147394819Y-61283809D01*
X147394819Y-61283809D02*
X147537676Y-61188571D01*
X147537676Y-61188571D02*
X147632914Y-61093333D01*
X147632914Y-61093333D02*
X147680533Y-60998095D01*
X148394819Y-62045714D02*
X148394819Y-62236190D01*
X148394819Y-62236190D02*
X148347200Y-62331428D01*
X148347200Y-62331428D02*
X148299580Y-62379047D01*
X148299580Y-62379047D02*
X148156723Y-62474285D01*
X148156723Y-62474285D02*
X147966247Y-62521904D01*
X147966247Y-62521904D02*
X147585295Y-62521904D01*
X147585295Y-62521904D02*
X147490057Y-62474285D01*
X147490057Y-62474285D02*
X147442438Y-62426666D01*
X147442438Y-62426666D02*
X147394819Y-62331428D01*
X147394819Y-62331428D02*
X147394819Y-62140952D01*
X147394819Y-62140952D02*
X147442438Y-62045714D01*
X147442438Y-62045714D02*
X147490057Y-61998095D01*
X147490057Y-61998095D02*
X147585295Y-61950476D01*
X147585295Y-61950476D02*
X147823390Y-61950476D01*
X147823390Y-61950476D02*
X147918628Y-61998095D01*
X147918628Y-61998095D02*
X147966247Y-62045714D01*
X147966247Y-62045714D02*
X148013866Y-62140952D01*
X148013866Y-62140952D02*
X148013866Y-62331428D01*
X148013866Y-62331428D02*
X147966247Y-62426666D01*
X147966247Y-62426666D02*
X147918628Y-62474285D01*
X147918628Y-62474285D02*
X147823390Y-62521904D01*
X220028143Y-65560365D02*
X219028143Y-65560365D01*
X219028143Y-65560365D02*
X219028143Y-65798460D01*
X219028143Y-65798460D02*
X219075762Y-65941317D01*
X219075762Y-65941317D02*
X219171000Y-66036555D01*
X219171000Y-66036555D02*
X219266238Y-66084174D01*
X219266238Y-66084174D02*
X219456714Y-66131793D01*
X219456714Y-66131793D02*
X219599571Y-66131793D01*
X219599571Y-66131793D02*
X219790047Y-66084174D01*
X219790047Y-66084174D02*
X219885285Y-66036555D01*
X219885285Y-66036555D02*
X219980524Y-65941317D01*
X219980524Y-65941317D02*
X220028143Y-65798460D01*
X220028143Y-65798460D02*
X220028143Y-65560365D01*
X220028143Y-67084174D02*
X220028143Y-66512746D01*
X220028143Y-66798460D02*
X219028143Y-66798460D01*
X219028143Y-66798460D02*
X219171000Y-66703222D01*
X219171000Y-66703222D02*
X219266238Y-66607984D01*
X219266238Y-66607984D02*
X219313857Y-66512746D01*
X219028143Y-67988936D02*
X219028143Y-67512746D01*
X219028143Y-67512746D02*
X219504333Y-67465127D01*
X219504333Y-67465127D02*
X219456714Y-67512746D01*
X219456714Y-67512746D02*
X219409095Y-67607984D01*
X219409095Y-67607984D02*
X219409095Y-67846079D01*
X219409095Y-67846079D02*
X219456714Y-67941317D01*
X219456714Y-67941317D02*
X219504333Y-67988936D01*
X219504333Y-67988936D02*
X219599571Y-68036555D01*
X219599571Y-68036555D02*
X219837666Y-68036555D01*
X219837666Y-68036555D02*
X219932904Y-67988936D01*
X219932904Y-67988936D02*
X219980524Y-67941317D01*
X219980524Y-67941317D02*
X220028143Y-67846079D01*
X220028143Y-67846079D02*
X220028143Y-67607984D01*
X220028143Y-67607984D02*
X219980524Y-67512746D01*
X219980524Y-67512746D02*
X219932904Y-67465127D01*
X119234819Y-86645714D02*
X118234819Y-86645714D01*
X118234819Y-86645714D02*
X118234819Y-86883809D01*
X118234819Y-86883809D02*
X118282438Y-87026666D01*
X118282438Y-87026666D02*
X118377676Y-87121904D01*
X118377676Y-87121904D02*
X118472914Y-87169523D01*
X118472914Y-87169523D02*
X118663390Y-87217142D01*
X118663390Y-87217142D02*
X118806247Y-87217142D01*
X118806247Y-87217142D02*
X118996723Y-87169523D01*
X118996723Y-87169523D02*
X119091961Y-87121904D01*
X119091961Y-87121904D02*
X119187200Y-87026666D01*
X119187200Y-87026666D02*
X119234819Y-86883809D01*
X119234819Y-86883809D02*
X119234819Y-86645714D01*
X118234819Y-87550476D02*
X118234819Y-88169523D01*
X118234819Y-88169523D02*
X118615771Y-87836190D01*
X118615771Y-87836190D02*
X118615771Y-87979047D01*
X118615771Y-87979047D02*
X118663390Y-88074285D01*
X118663390Y-88074285D02*
X118711009Y-88121904D01*
X118711009Y-88121904D02*
X118806247Y-88169523D01*
X118806247Y-88169523D02*
X119044342Y-88169523D01*
X119044342Y-88169523D02*
X119139580Y-88121904D01*
X119139580Y-88121904D02*
X119187200Y-88074285D01*
X119187200Y-88074285D02*
X119234819Y-87979047D01*
X119234819Y-87979047D02*
X119234819Y-87693333D01*
X119234819Y-87693333D02*
X119187200Y-87598095D01*
X119187200Y-87598095D02*
X119139580Y-87550476D01*
X118234819Y-88788571D02*
X118234819Y-88883809D01*
X118234819Y-88883809D02*
X118282438Y-88979047D01*
X118282438Y-88979047D02*
X118330057Y-89026666D01*
X118330057Y-89026666D02*
X118425295Y-89074285D01*
X118425295Y-89074285D02*
X118615771Y-89121904D01*
X118615771Y-89121904D02*
X118853866Y-89121904D01*
X118853866Y-89121904D02*
X119044342Y-89074285D01*
X119044342Y-89074285D02*
X119139580Y-89026666D01*
X119139580Y-89026666D02*
X119187200Y-88979047D01*
X119187200Y-88979047D02*
X119234819Y-88883809D01*
X119234819Y-88883809D02*
X119234819Y-88788571D01*
X119234819Y-88788571D02*
X119187200Y-88693333D01*
X119187200Y-88693333D02*
X119139580Y-88645714D01*
X119139580Y-88645714D02*
X119044342Y-88598095D01*
X119044342Y-88598095D02*
X118853866Y-88550476D01*
X118853866Y-88550476D02*
X118615771Y-88550476D01*
X118615771Y-88550476D02*
X118425295Y-88598095D01*
X118425295Y-88598095D02*
X118330057Y-88645714D01*
X118330057Y-88645714D02*
X118282438Y-88693333D01*
X118282438Y-88693333D02*
X118234819Y-88788571D01*
X190229819Y-80536905D02*
X189229819Y-80536905D01*
X189229819Y-80536905D02*
X189229819Y-80775000D01*
X189229819Y-80775000D02*
X189277438Y-80917857D01*
X189277438Y-80917857D02*
X189372676Y-81013095D01*
X189372676Y-81013095D02*
X189467914Y-81060714D01*
X189467914Y-81060714D02*
X189658390Y-81108333D01*
X189658390Y-81108333D02*
X189801247Y-81108333D01*
X189801247Y-81108333D02*
X189991723Y-81060714D01*
X189991723Y-81060714D02*
X190086961Y-81013095D01*
X190086961Y-81013095D02*
X190182200Y-80917857D01*
X190182200Y-80917857D02*
X190229819Y-80775000D01*
X190229819Y-80775000D02*
X190229819Y-80536905D01*
X189229819Y-81441667D02*
X189229819Y-82108333D01*
X189229819Y-82108333D02*
X190229819Y-81679762D01*
X220092996Y-81113922D02*
X219092996Y-81113922D01*
X219092996Y-81113922D02*
X219092996Y-81352017D01*
X219092996Y-81352017D02*
X219140615Y-81494874D01*
X219140615Y-81494874D02*
X219235853Y-81590112D01*
X219235853Y-81590112D02*
X219331091Y-81637731D01*
X219331091Y-81637731D02*
X219521567Y-81685350D01*
X219521567Y-81685350D02*
X219664424Y-81685350D01*
X219664424Y-81685350D02*
X219854900Y-81637731D01*
X219854900Y-81637731D02*
X219950138Y-81590112D01*
X219950138Y-81590112D02*
X220045377Y-81494874D01*
X220045377Y-81494874D02*
X220092996Y-81352017D01*
X220092996Y-81352017D02*
X220092996Y-81113922D01*
X220092996Y-82637731D02*
X220092996Y-82066303D01*
X220092996Y-82352017D02*
X219092996Y-82352017D01*
X219092996Y-82352017D02*
X219235853Y-82256779D01*
X219235853Y-82256779D02*
X219331091Y-82161541D01*
X219331091Y-82161541D02*
X219378710Y-82066303D01*
X219092996Y-83494874D02*
X219092996Y-83304398D01*
X219092996Y-83304398D02*
X219140615Y-83209160D01*
X219140615Y-83209160D02*
X219188234Y-83161541D01*
X219188234Y-83161541D02*
X219331091Y-83066303D01*
X219331091Y-83066303D02*
X219521567Y-83018684D01*
X219521567Y-83018684D02*
X219902519Y-83018684D01*
X219902519Y-83018684D02*
X219997757Y-83066303D01*
X219997757Y-83066303D02*
X220045377Y-83113922D01*
X220045377Y-83113922D02*
X220092996Y-83209160D01*
X220092996Y-83209160D02*
X220092996Y-83399636D01*
X220092996Y-83399636D02*
X220045377Y-83494874D01*
X220045377Y-83494874D02*
X219997757Y-83542493D01*
X219997757Y-83542493D02*
X219902519Y-83590112D01*
X219902519Y-83590112D02*
X219664424Y-83590112D01*
X219664424Y-83590112D02*
X219569186Y-83542493D01*
X219569186Y-83542493D02*
X219521567Y-83494874D01*
X219521567Y-83494874D02*
X219473948Y-83399636D01*
X219473948Y-83399636D02*
X219473948Y-83209160D01*
X219473948Y-83209160D02*
X219521567Y-83113922D01*
X219521567Y-83113922D02*
X219569186Y-83066303D01*
X219569186Y-83066303D02*
X219664424Y-83018684D01*
X205154819Y-56835714D02*
X204154819Y-56835714D01*
X204154819Y-56835714D02*
X204154819Y-57073809D01*
X204154819Y-57073809D02*
X204202438Y-57216666D01*
X204202438Y-57216666D02*
X204297676Y-57311904D01*
X204297676Y-57311904D02*
X204392914Y-57359523D01*
X204392914Y-57359523D02*
X204583390Y-57407142D01*
X204583390Y-57407142D02*
X204726247Y-57407142D01*
X204726247Y-57407142D02*
X204916723Y-57359523D01*
X204916723Y-57359523D02*
X205011961Y-57311904D01*
X205011961Y-57311904D02*
X205107200Y-57216666D01*
X205107200Y-57216666D02*
X205154819Y-57073809D01*
X205154819Y-57073809D02*
X205154819Y-56835714D01*
X205154819Y-58359523D02*
X205154819Y-57788095D01*
X205154819Y-58073809D02*
X204154819Y-58073809D01*
X204154819Y-58073809D02*
X204297676Y-57978571D01*
X204297676Y-57978571D02*
X204392914Y-57883333D01*
X204392914Y-57883333D02*
X204440533Y-57788095D01*
X204154819Y-58978571D02*
X204154819Y-59073809D01*
X204154819Y-59073809D02*
X204202438Y-59169047D01*
X204202438Y-59169047D02*
X204250057Y-59216666D01*
X204250057Y-59216666D02*
X204345295Y-59264285D01*
X204345295Y-59264285D02*
X204535771Y-59311904D01*
X204535771Y-59311904D02*
X204773866Y-59311904D01*
X204773866Y-59311904D02*
X204964342Y-59264285D01*
X204964342Y-59264285D02*
X205059580Y-59216666D01*
X205059580Y-59216666D02*
X205107200Y-59169047D01*
X205107200Y-59169047D02*
X205154819Y-59073809D01*
X205154819Y-59073809D02*
X205154819Y-58978571D01*
X205154819Y-58978571D02*
X205107200Y-58883333D01*
X205107200Y-58883333D02*
X205059580Y-58835714D01*
X205059580Y-58835714D02*
X204964342Y-58788095D01*
X204964342Y-58788095D02*
X204773866Y-58740476D01*
X204773866Y-58740476D02*
X204535771Y-58740476D01*
X204535771Y-58740476D02*
X204345295Y-58788095D01*
X204345295Y-58788095D02*
X204250057Y-58835714D01*
X204250057Y-58835714D02*
X204202438Y-58883333D01*
X204202438Y-58883333D02*
X204154819Y-58978571D01*
X119424819Y-71225714D02*
X118424819Y-71225714D01*
X118424819Y-71225714D02*
X118424819Y-71463809D01*
X118424819Y-71463809D02*
X118472438Y-71606666D01*
X118472438Y-71606666D02*
X118567676Y-71701904D01*
X118567676Y-71701904D02*
X118662914Y-71749523D01*
X118662914Y-71749523D02*
X118853390Y-71797142D01*
X118853390Y-71797142D02*
X118996247Y-71797142D01*
X118996247Y-71797142D02*
X119186723Y-71749523D01*
X119186723Y-71749523D02*
X119281961Y-71701904D01*
X119281961Y-71701904D02*
X119377200Y-71606666D01*
X119377200Y-71606666D02*
X119424819Y-71463809D01*
X119424819Y-71463809D02*
X119424819Y-71225714D01*
X118520057Y-72178095D02*
X118472438Y-72225714D01*
X118472438Y-72225714D02*
X118424819Y-72320952D01*
X118424819Y-72320952D02*
X118424819Y-72559047D01*
X118424819Y-72559047D02*
X118472438Y-72654285D01*
X118472438Y-72654285D02*
X118520057Y-72701904D01*
X118520057Y-72701904D02*
X118615295Y-72749523D01*
X118615295Y-72749523D02*
X118710533Y-72749523D01*
X118710533Y-72749523D02*
X118853390Y-72701904D01*
X118853390Y-72701904D02*
X119424819Y-72130476D01*
X119424819Y-72130476D02*
X119424819Y-72749523D01*
X119424819Y-73225714D02*
X119424819Y-73416190D01*
X119424819Y-73416190D02*
X119377200Y-73511428D01*
X119377200Y-73511428D02*
X119329580Y-73559047D01*
X119329580Y-73559047D02*
X119186723Y-73654285D01*
X119186723Y-73654285D02*
X118996247Y-73701904D01*
X118996247Y-73701904D02*
X118615295Y-73701904D01*
X118615295Y-73701904D02*
X118520057Y-73654285D01*
X118520057Y-73654285D02*
X118472438Y-73606666D01*
X118472438Y-73606666D02*
X118424819Y-73511428D01*
X118424819Y-73511428D02*
X118424819Y-73320952D01*
X118424819Y-73320952D02*
X118472438Y-73225714D01*
X118472438Y-73225714D02*
X118520057Y-73178095D01*
X118520057Y-73178095D02*
X118615295Y-73130476D01*
X118615295Y-73130476D02*
X118853390Y-73130476D01*
X118853390Y-73130476D02*
X118948628Y-73178095D01*
X118948628Y-73178095D02*
X118996247Y-73225714D01*
X118996247Y-73225714D02*
X119043866Y-73320952D01*
X119043866Y-73320952D02*
X119043866Y-73511428D01*
X119043866Y-73511428D02*
X118996247Y-73606666D01*
X118996247Y-73606666D02*
X118948628Y-73654285D01*
X118948628Y-73654285D02*
X118853390Y-73701904D01*
X190004819Y-95736905D02*
X189004819Y-95736905D01*
X189004819Y-95736905D02*
X189004819Y-95975000D01*
X189004819Y-95975000D02*
X189052438Y-96117857D01*
X189052438Y-96117857D02*
X189147676Y-96213095D01*
X189147676Y-96213095D02*
X189242914Y-96260714D01*
X189242914Y-96260714D02*
X189433390Y-96308333D01*
X189433390Y-96308333D02*
X189576247Y-96308333D01*
X189576247Y-96308333D02*
X189766723Y-96260714D01*
X189766723Y-96260714D02*
X189861961Y-96213095D01*
X189861961Y-96213095D02*
X189957200Y-96117857D01*
X189957200Y-96117857D02*
X190004819Y-95975000D01*
X190004819Y-95975000D02*
X190004819Y-95736905D01*
X189433390Y-96879762D02*
X189385771Y-96784524D01*
X189385771Y-96784524D02*
X189338152Y-96736905D01*
X189338152Y-96736905D02*
X189242914Y-96689286D01*
X189242914Y-96689286D02*
X189195295Y-96689286D01*
X189195295Y-96689286D02*
X189100057Y-96736905D01*
X189100057Y-96736905D02*
X189052438Y-96784524D01*
X189052438Y-96784524D02*
X189004819Y-96879762D01*
X189004819Y-96879762D02*
X189004819Y-97070238D01*
X189004819Y-97070238D02*
X189052438Y-97165476D01*
X189052438Y-97165476D02*
X189100057Y-97213095D01*
X189100057Y-97213095D02*
X189195295Y-97260714D01*
X189195295Y-97260714D02*
X189242914Y-97260714D01*
X189242914Y-97260714D02*
X189338152Y-97213095D01*
X189338152Y-97213095D02*
X189385771Y-97165476D01*
X189385771Y-97165476D02*
X189433390Y-97070238D01*
X189433390Y-97070238D02*
X189433390Y-96879762D01*
X189433390Y-96879762D02*
X189481009Y-96784524D01*
X189481009Y-96784524D02*
X189528628Y-96736905D01*
X189528628Y-96736905D02*
X189623866Y-96689286D01*
X189623866Y-96689286D02*
X189814342Y-96689286D01*
X189814342Y-96689286D02*
X189909580Y-96736905D01*
X189909580Y-96736905D02*
X189957200Y-96784524D01*
X189957200Y-96784524D02*
X190004819Y-96879762D01*
X190004819Y-96879762D02*
X190004819Y-97070238D01*
X190004819Y-97070238D02*
X189957200Y-97165476D01*
X189957200Y-97165476D02*
X189909580Y-97213095D01*
X189909580Y-97213095D02*
X189814342Y-97260714D01*
X189814342Y-97260714D02*
X189623866Y-97260714D01*
X189623866Y-97260714D02*
X189528628Y-97213095D01*
X189528628Y-97213095D02*
X189481009Y-97165476D01*
X189481009Y-97165476D02*
X189433390Y-97070238D01*
X148414819Y-90905714D02*
X147414819Y-90905714D01*
X147414819Y-90905714D02*
X147414819Y-91143809D01*
X147414819Y-91143809D02*
X147462438Y-91286666D01*
X147462438Y-91286666D02*
X147557676Y-91381904D01*
X147557676Y-91381904D02*
X147652914Y-91429523D01*
X147652914Y-91429523D02*
X147843390Y-91477142D01*
X147843390Y-91477142D02*
X147986247Y-91477142D01*
X147986247Y-91477142D02*
X148176723Y-91429523D01*
X148176723Y-91429523D02*
X148271961Y-91381904D01*
X148271961Y-91381904D02*
X148367200Y-91286666D01*
X148367200Y-91286666D02*
X148414819Y-91143809D01*
X148414819Y-91143809D02*
X148414819Y-90905714D01*
X147510057Y-91858095D02*
X147462438Y-91905714D01*
X147462438Y-91905714D02*
X147414819Y-92000952D01*
X147414819Y-92000952D02*
X147414819Y-92239047D01*
X147414819Y-92239047D02*
X147462438Y-92334285D01*
X147462438Y-92334285D02*
X147510057Y-92381904D01*
X147510057Y-92381904D02*
X147605295Y-92429523D01*
X147605295Y-92429523D02*
X147700533Y-92429523D01*
X147700533Y-92429523D02*
X147843390Y-92381904D01*
X147843390Y-92381904D02*
X148414819Y-91810476D01*
X148414819Y-91810476D02*
X148414819Y-92429523D01*
X148414819Y-93381904D02*
X148414819Y-92810476D01*
X148414819Y-93096190D02*
X147414819Y-93096190D01*
X147414819Y-93096190D02*
X147557676Y-93000952D01*
X147557676Y-93000952D02*
X147652914Y-92905714D01*
X147652914Y-92905714D02*
X147700533Y-92810476D01*
X221744819Y-93895714D02*
X220744819Y-93895714D01*
X220744819Y-93895714D02*
X220744819Y-94133809D01*
X220744819Y-94133809D02*
X220792438Y-94276666D01*
X220792438Y-94276666D02*
X220887676Y-94371904D01*
X220887676Y-94371904D02*
X220982914Y-94419523D01*
X220982914Y-94419523D02*
X221173390Y-94467142D01*
X221173390Y-94467142D02*
X221316247Y-94467142D01*
X221316247Y-94467142D02*
X221506723Y-94419523D01*
X221506723Y-94419523D02*
X221601961Y-94371904D01*
X221601961Y-94371904D02*
X221697200Y-94276666D01*
X221697200Y-94276666D02*
X221744819Y-94133809D01*
X221744819Y-94133809D02*
X221744819Y-93895714D01*
X221744819Y-95419523D02*
X221744819Y-94848095D01*
X221744819Y-95133809D02*
X220744819Y-95133809D01*
X220744819Y-95133809D02*
X220887676Y-95038571D01*
X220887676Y-95038571D02*
X220982914Y-94943333D01*
X220982914Y-94943333D02*
X221030533Y-94848095D01*
X220744819Y-95752857D02*
X220744819Y-96419523D01*
X220744819Y-96419523D02*
X221744819Y-95990952D01*
X238488095Y-89856009D02*
X238345238Y-89903628D01*
X238345238Y-89903628D02*
X238297619Y-89951247D01*
X238297619Y-89951247D02*
X238250000Y-90046485D01*
X238250000Y-90046485D02*
X238250000Y-90189342D01*
X238250000Y-90189342D02*
X238297619Y-90284580D01*
X238297619Y-90284580D02*
X238345238Y-90332200D01*
X238345238Y-90332200D02*
X238440476Y-90379819D01*
X238440476Y-90379819D02*
X238821428Y-90379819D01*
X238821428Y-90379819D02*
X238821428Y-89379819D01*
X238821428Y-89379819D02*
X238488095Y-89379819D01*
X238488095Y-89379819D02*
X238392857Y-89427438D01*
X238392857Y-89427438D02*
X238345238Y-89475057D01*
X238345238Y-89475057D02*
X238297619Y-89570295D01*
X238297619Y-89570295D02*
X238297619Y-89665533D01*
X238297619Y-89665533D02*
X238345238Y-89760771D01*
X238345238Y-89760771D02*
X238392857Y-89808390D01*
X238392857Y-89808390D02*
X238488095Y-89856009D01*
X238488095Y-89856009D02*
X238821428Y-89856009D01*
X237869047Y-90094104D02*
X237392857Y-90094104D01*
X237964285Y-90379819D02*
X237630952Y-89379819D01*
X237630952Y-89379819D02*
X237297619Y-90379819D01*
X237107142Y-89379819D02*
X236535714Y-89379819D01*
X236821428Y-90379819D02*
X236821428Y-89379819D01*
X235440475Y-89998866D02*
X234678571Y-89998866D01*
X237604819Y-100635714D02*
X236604819Y-100635714D01*
X236604819Y-100635714D02*
X236604819Y-100873809D01*
X236604819Y-100873809D02*
X236652438Y-101016666D01*
X236652438Y-101016666D02*
X236747676Y-101111904D01*
X236747676Y-101111904D02*
X236842914Y-101159523D01*
X236842914Y-101159523D02*
X237033390Y-101207142D01*
X237033390Y-101207142D02*
X237176247Y-101207142D01*
X237176247Y-101207142D02*
X237366723Y-101159523D01*
X237366723Y-101159523D02*
X237461961Y-101111904D01*
X237461961Y-101111904D02*
X237557200Y-101016666D01*
X237557200Y-101016666D02*
X237604819Y-100873809D01*
X237604819Y-100873809D02*
X237604819Y-100635714D01*
X237604819Y-102159523D02*
X237604819Y-101588095D01*
X237604819Y-101873809D02*
X236604819Y-101873809D01*
X236604819Y-101873809D02*
X236747676Y-101778571D01*
X236747676Y-101778571D02*
X236842914Y-101683333D01*
X236842914Y-101683333D02*
X236890533Y-101588095D01*
X236604819Y-102492857D02*
X236604819Y-103111904D01*
X236604819Y-103111904D02*
X236985771Y-102778571D01*
X236985771Y-102778571D02*
X236985771Y-102921428D01*
X236985771Y-102921428D02*
X237033390Y-103016666D01*
X237033390Y-103016666D02*
X237081009Y-103064285D01*
X237081009Y-103064285D02*
X237176247Y-103111904D01*
X237176247Y-103111904D02*
X237414342Y-103111904D01*
X237414342Y-103111904D02*
X237509580Y-103064285D01*
X237509580Y-103064285D02*
X237557200Y-103016666D01*
X237557200Y-103016666D02*
X237604819Y-102921428D01*
X237604819Y-102921428D02*
X237604819Y-102635714D01*
X237604819Y-102635714D02*
X237557200Y-102540476D01*
X237557200Y-102540476D02*
X237509580Y-102492857D01*
X133679819Y-64560714D02*
X132679819Y-64560714D01*
X132679819Y-64560714D02*
X132679819Y-64798809D01*
X132679819Y-64798809D02*
X132727438Y-64941666D01*
X132727438Y-64941666D02*
X132822676Y-65036904D01*
X132822676Y-65036904D02*
X132917914Y-65084523D01*
X132917914Y-65084523D02*
X133108390Y-65132142D01*
X133108390Y-65132142D02*
X133251247Y-65132142D01*
X133251247Y-65132142D02*
X133441723Y-65084523D01*
X133441723Y-65084523D02*
X133536961Y-65036904D01*
X133536961Y-65036904D02*
X133632200Y-64941666D01*
X133632200Y-64941666D02*
X133679819Y-64798809D01*
X133679819Y-64798809D02*
X133679819Y-64560714D01*
X132775057Y-65513095D02*
X132727438Y-65560714D01*
X132727438Y-65560714D02*
X132679819Y-65655952D01*
X132679819Y-65655952D02*
X132679819Y-65894047D01*
X132679819Y-65894047D02*
X132727438Y-65989285D01*
X132727438Y-65989285D02*
X132775057Y-66036904D01*
X132775057Y-66036904D02*
X132870295Y-66084523D01*
X132870295Y-66084523D02*
X132965533Y-66084523D01*
X132965533Y-66084523D02*
X133108390Y-66036904D01*
X133108390Y-66036904D02*
X133679819Y-65465476D01*
X133679819Y-65465476D02*
X133679819Y-66084523D01*
X133013152Y-66941666D02*
X133679819Y-66941666D01*
X132632200Y-66703571D02*
X133346485Y-66465476D01*
X133346485Y-66465476D02*
X133346485Y-67084523D01*
X102359819Y-78105714D02*
X101359819Y-78105714D01*
X101359819Y-78105714D02*
X101359819Y-78343809D01*
X101359819Y-78343809D02*
X101407438Y-78486666D01*
X101407438Y-78486666D02*
X101502676Y-78581904D01*
X101502676Y-78581904D02*
X101597914Y-78629523D01*
X101597914Y-78629523D02*
X101788390Y-78677142D01*
X101788390Y-78677142D02*
X101931247Y-78677142D01*
X101931247Y-78677142D02*
X102121723Y-78629523D01*
X102121723Y-78629523D02*
X102216961Y-78581904D01*
X102216961Y-78581904D02*
X102312200Y-78486666D01*
X102312200Y-78486666D02*
X102359819Y-78343809D01*
X102359819Y-78343809D02*
X102359819Y-78105714D01*
X101359819Y-79010476D02*
X101359819Y-79629523D01*
X101359819Y-79629523D02*
X101740771Y-79296190D01*
X101740771Y-79296190D02*
X101740771Y-79439047D01*
X101740771Y-79439047D02*
X101788390Y-79534285D01*
X101788390Y-79534285D02*
X101836009Y-79581904D01*
X101836009Y-79581904D02*
X101931247Y-79629523D01*
X101931247Y-79629523D02*
X102169342Y-79629523D01*
X102169342Y-79629523D02*
X102264580Y-79581904D01*
X102264580Y-79581904D02*
X102312200Y-79534285D01*
X102312200Y-79534285D02*
X102359819Y-79439047D01*
X102359819Y-79439047D02*
X102359819Y-79153333D01*
X102359819Y-79153333D02*
X102312200Y-79058095D01*
X102312200Y-79058095D02*
X102264580Y-79010476D01*
X101693152Y-80486666D02*
X102359819Y-80486666D01*
X101312200Y-80248571D02*
X102026485Y-80010476D01*
X102026485Y-80010476D02*
X102026485Y-80629523D01*
X119414819Y-55305714D02*
X118414819Y-55305714D01*
X118414819Y-55305714D02*
X118414819Y-55543809D01*
X118414819Y-55543809D02*
X118462438Y-55686666D01*
X118462438Y-55686666D02*
X118557676Y-55781904D01*
X118557676Y-55781904D02*
X118652914Y-55829523D01*
X118652914Y-55829523D02*
X118843390Y-55877142D01*
X118843390Y-55877142D02*
X118986247Y-55877142D01*
X118986247Y-55877142D02*
X119176723Y-55829523D01*
X119176723Y-55829523D02*
X119271961Y-55781904D01*
X119271961Y-55781904D02*
X119367200Y-55686666D01*
X119367200Y-55686666D02*
X119414819Y-55543809D01*
X119414819Y-55543809D02*
X119414819Y-55305714D01*
X118510057Y-56258095D02*
X118462438Y-56305714D01*
X118462438Y-56305714D02*
X118414819Y-56400952D01*
X118414819Y-56400952D02*
X118414819Y-56639047D01*
X118414819Y-56639047D02*
X118462438Y-56734285D01*
X118462438Y-56734285D02*
X118510057Y-56781904D01*
X118510057Y-56781904D02*
X118605295Y-56829523D01*
X118605295Y-56829523D02*
X118700533Y-56829523D01*
X118700533Y-56829523D02*
X118843390Y-56781904D01*
X118843390Y-56781904D02*
X119414819Y-56210476D01*
X119414819Y-56210476D02*
X119414819Y-56829523D01*
X118843390Y-57400952D02*
X118795771Y-57305714D01*
X118795771Y-57305714D02*
X118748152Y-57258095D01*
X118748152Y-57258095D02*
X118652914Y-57210476D01*
X118652914Y-57210476D02*
X118605295Y-57210476D01*
X118605295Y-57210476D02*
X118510057Y-57258095D01*
X118510057Y-57258095D02*
X118462438Y-57305714D01*
X118462438Y-57305714D02*
X118414819Y-57400952D01*
X118414819Y-57400952D02*
X118414819Y-57591428D01*
X118414819Y-57591428D02*
X118462438Y-57686666D01*
X118462438Y-57686666D02*
X118510057Y-57734285D01*
X118510057Y-57734285D02*
X118605295Y-57781904D01*
X118605295Y-57781904D02*
X118652914Y-57781904D01*
X118652914Y-57781904D02*
X118748152Y-57734285D01*
X118748152Y-57734285D02*
X118795771Y-57686666D01*
X118795771Y-57686666D02*
X118843390Y-57591428D01*
X118843390Y-57591428D02*
X118843390Y-57400952D01*
X118843390Y-57400952D02*
X118891009Y-57305714D01*
X118891009Y-57305714D02*
X118938628Y-57258095D01*
X118938628Y-57258095D02*
X119033866Y-57210476D01*
X119033866Y-57210476D02*
X119224342Y-57210476D01*
X119224342Y-57210476D02*
X119319580Y-57258095D01*
X119319580Y-57258095D02*
X119367200Y-57305714D01*
X119367200Y-57305714D02*
X119414819Y-57400952D01*
X119414819Y-57400952D02*
X119414819Y-57591428D01*
X119414819Y-57591428D02*
X119367200Y-57686666D01*
X119367200Y-57686666D02*
X119319580Y-57734285D01*
X119319580Y-57734285D02*
X119224342Y-57781904D01*
X119224342Y-57781904D02*
X119033866Y-57781904D01*
X119033866Y-57781904D02*
X118938628Y-57734285D01*
X118938628Y-57734285D02*
X118891009Y-57686666D01*
X118891009Y-57686666D02*
X118843390Y-57591428D01*
X234463095Y-89931009D02*
X234320238Y-89978628D01*
X234320238Y-89978628D02*
X234272619Y-90026247D01*
X234272619Y-90026247D02*
X234225000Y-90121485D01*
X234225000Y-90121485D02*
X234225000Y-90264342D01*
X234225000Y-90264342D02*
X234272619Y-90359580D01*
X234272619Y-90359580D02*
X234320238Y-90407200D01*
X234320238Y-90407200D02*
X234415476Y-90454819D01*
X234415476Y-90454819D02*
X234796428Y-90454819D01*
X234796428Y-90454819D02*
X234796428Y-89454819D01*
X234796428Y-89454819D02*
X234463095Y-89454819D01*
X234463095Y-89454819D02*
X234367857Y-89502438D01*
X234367857Y-89502438D02*
X234320238Y-89550057D01*
X234320238Y-89550057D02*
X234272619Y-89645295D01*
X234272619Y-89645295D02*
X234272619Y-89740533D01*
X234272619Y-89740533D02*
X234320238Y-89835771D01*
X234320238Y-89835771D02*
X234367857Y-89883390D01*
X234367857Y-89883390D02*
X234463095Y-89931009D01*
X234463095Y-89931009D02*
X234796428Y-89931009D01*
X233844047Y-90169104D02*
X233367857Y-90169104D01*
X233939285Y-90454819D02*
X233605952Y-89454819D01*
X233605952Y-89454819D02*
X233272619Y-90454819D01*
X233082142Y-89454819D02*
X232510714Y-89454819D01*
X232796428Y-90454819D02*
X232796428Y-89454819D01*
X231415475Y-90073866D02*
X230653571Y-90073866D01*
X231034523Y-90454819D02*
X231034523Y-89692914D01*
X250954819Y-110455714D02*
X249954819Y-110455714D01*
X249954819Y-110455714D02*
X249954819Y-110693809D01*
X249954819Y-110693809D02*
X250002438Y-110836666D01*
X250002438Y-110836666D02*
X250097676Y-110931904D01*
X250097676Y-110931904D02*
X250192914Y-110979523D01*
X250192914Y-110979523D02*
X250383390Y-111027142D01*
X250383390Y-111027142D02*
X250526247Y-111027142D01*
X250526247Y-111027142D02*
X250716723Y-110979523D01*
X250716723Y-110979523D02*
X250811961Y-110931904D01*
X250811961Y-110931904D02*
X250907200Y-110836666D01*
X250907200Y-110836666D02*
X250954819Y-110693809D01*
X250954819Y-110693809D02*
X250954819Y-110455714D01*
X250954819Y-111979523D02*
X250954819Y-111408095D01*
X250954819Y-111693809D02*
X249954819Y-111693809D01*
X249954819Y-111693809D02*
X250097676Y-111598571D01*
X250097676Y-111598571D02*
X250192914Y-111503333D01*
X250192914Y-111503333D02*
X250240533Y-111408095D01*
X250383390Y-112550952D02*
X250335771Y-112455714D01*
X250335771Y-112455714D02*
X250288152Y-112408095D01*
X250288152Y-112408095D02*
X250192914Y-112360476D01*
X250192914Y-112360476D02*
X250145295Y-112360476D01*
X250145295Y-112360476D02*
X250050057Y-112408095D01*
X250050057Y-112408095D02*
X250002438Y-112455714D01*
X250002438Y-112455714D02*
X249954819Y-112550952D01*
X249954819Y-112550952D02*
X249954819Y-112741428D01*
X249954819Y-112741428D02*
X250002438Y-112836666D01*
X250002438Y-112836666D02*
X250050057Y-112884285D01*
X250050057Y-112884285D02*
X250145295Y-112931904D01*
X250145295Y-112931904D02*
X250192914Y-112931904D01*
X250192914Y-112931904D02*
X250288152Y-112884285D01*
X250288152Y-112884285D02*
X250335771Y-112836666D01*
X250335771Y-112836666D02*
X250383390Y-112741428D01*
X250383390Y-112741428D02*
X250383390Y-112550952D01*
X250383390Y-112550952D02*
X250431009Y-112455714D01*
X250431009Y-112455714D02*
X250478628Y-112408095D01*
X250478628Y-112408095D02*
X250573866Y-112360476D01*
X250573866Y-112360476D02*
X250764342Y-112360476D01*
X250764342Y-112360476D02*
X250859580Y-112408095D01*
X250859580Y-112408095D02*
X250907200Y-112455714D01*
X250907200Y-112455714D02*
X250954819Y-112550952D01*
X250954819Y-112550952D02*
X250954819Y-112741428D01*
X250954819Y-112741428D02*
X250907200Y-112836666D01*
X250907200Y-112836666D02*
X250859580Y-112884285D01*
X250859580Y-112884285D02*
X250764342Y-112931904D01*
X250764342Y-112931904D02*
X250573866Y-112931904D01*
X250573866Y-112931904D02*
X250478628Y-112884285D01*
X250478628Y-112884285D02*
X250431009Y-112836666D01*
X250431009Y-112836666D02*
X250383390Y-112741428D01*
X205154819Y-41461905D02*
X204154819Y-41461905D01*
X204154819Y-41461905D02*
X204154819Y-41700000D01*
X204154819Y-41700000D02*
X204202438Y-41842857D01*
X204202438Y-41842857D02*
X204297676Y-41938095D01*
X204297676Y-41938095D02*
X204392914Y-41985714D01*
X204392914Y-41985714D02*
X204583390Y-42033333D01*
X204583390Y-42033333D02*
X204726247Y-42033333D01*
X204726247Y-42033333D02*
X204916723Y-41985714D01*
X204916723Y-41985714D02*
X205011961Y-41938095D01*
X205011961Y-41938095D02*
X205107200Y-41842857D01*
X205107200Y-41842857D02*
X205154819Y-41700000D01*
X205154819Y-41700000D02*
X205154819Y-41461905D01*
X205154819Y-42509524D02*
X205154819Y-42700000D01*
X205154819Y-42700000D02*
X205107200Y-42795238D01*
X205107200Y-42795238D02*
X205059580Y-42842857D01*
X205059580Y-42842857D02*
X204916723Y-42938095D01*
X204916723Y-42938095D02*
X204726247Y-42985714D01*
X204726247Y-42985714D02*
X204345295Y-42985714D01*
X204345295Y-42985714D02*
X204250057Y-42938095D01*
X204250057Y-42938095D02*
X204202438Y-42890476D01*
X204202438Y-42890476D02*
X204154819Y-42795238D01*
X204154819Y-42795238D02*
X204154819Y-42604762D01*
X204154819Y-42604762D02*
X204202438Y-42509524D01*
X204202438Y-42509524D02*
X204250057Y-42461905D01*
X204250057Y-42461905D02*
X204345295Y-42414286D01*
X204345295Y-42414286D02*
X204583390Y-42414286D01*
X204583390Y-42414286D02*
X204678628Y-42461905D01*
X204678628Y-42461905D02*
X204726247Y-42509524D01*
X204726247Y-42509524D02*
X204773866Y-42604762D01*
X204773866Y-42604762D02*
X204773866Y-42795238D01*
X204773866Y-42795238D02*
X204726247Y-42890476D01*
X204726247Y-42890476D02*
X204678628Y-42938095D01*
X204678628Y-42938095D02*
X204583390Y-42985714D01*
X102754819Y-95110714D02*
X101754819Y-95110714D01*
X101754819Y-95110714D02*
X101754819Y-95348809D01*
X101754819Y-95348809D02*
X101802438Y-95491666D01*
X101802438Y-95491666D02*
X101897676Y-95586904D01*
X101897676Y-95586904D02*
X101992914Y-95634523D01*
X101992914Y-95634523D02*
X102183390Y-95682142D01*
X102183390Y-95682142D02*
X102326247Y-95682142D01*
X102326247Y-95682142D02*
X102516723Y-95634523D01*
X102516723Y-95634523D02*
X102611961Y-95586904D01*
X102611961Y-95586904D02*
X102707200Y-95491666D01*
X102707200Y-95491666D02*
X102754819Y-95348809D01*
X102754819Y-95348809D02*
X102754819Y-95110714D01*
X101754819Y-96015476D02*
X101754819Y-96634523D01*
X101754819Y-96634523D02*
X102135771Y-96301190D01*
X102135771Y-96301190D02*
X102135771Y-96444047D01*
X102135771Y-96444047D02*
X102183390Y-96539285D01*
X102183390Y-96539285D02*
X102231009Y-96586904D01*
X102231009Y-96586904D02*
X102326247Y-96634523D01*
X102326247Y-96634523D02*
X102564342Y-96634523D01*
X102564342Y-96634523D02*
X102659580Y-96586904D01*
X102659580Y-96586904D02*
X102707200Y-96539285D01*
X102707200Y-96539285D02*
X102754819Y-96444047D01*
X102754819Y-96444047D02*
X102754819Y-96158333D01*
X102754819Y-96158333D02*
X102707200Y-96063095D01*
X102707200Y-96063095D02*
X102659580Y-96015476D01*
X101754819Y-97539285D02*
X101754819Y-97063095D01*
X101754819Y-97063095D02*
X102231009Y-97015476D01*
X102231009Y-97015476D02*
X102183390Y-97063095D01*
X102183390Y-97063095D02*
X102135771Y-97158333D01*
X102135771Y-97158333D02*
X102135771Y-97396428D01*
X102135771Y-97396428D02*
X102183390Y-97491666D01*
X102183390Y-97491666D02*
X102231009Y-97539285D01*
X102231009Y-97539285D02*
X102326247Y-97586904D01*
X102326247Y-97586904D02*
X102564342Y-97586904D01*
X102564342Y-97586904D02*
X102659580Y-97539285D01*
X102659580Y-97539285D02*
X102707200Y-97491666D01*
X102707200Y-97491666D02*
X102754819Y-97396428D01*
X102754819Y-97396428D02*
X102754819Y-97158333D01*
X102754819Y-97158333D02*
X102707200Y-97063095D01*
X102707200Y-97063095D02*
X102659580Y-97015476D01*
X205254819Y-72107778D02*
X204254819Y-72107778D01*
X204254819Y-72107778D02*
X204254819Y-72345873D01*
X204254819Y-72345873D02*
X204302438Y-72488730D01*
X204302438Y-72488730D02*
X204397676Y-72583968D01*
X204397676Y-72583968D02*
X204492914Y-72631587D01*
X204492914Y-72631587D02*
X204683390Y-72679206D01*
X204683390Y-72679206D02*
X204826247Y-72679206D01*
X204826247Y-72679206D02*
X205016723Y-72631587D01*
X205016723Y-72631587D02*
X205111961Y-72583968D01*
X205111961Y-72583968D02*
X205207200Y-72488730D01*
X205207200Y-72488730D02*
X205254819Y-72345873D01*
X205254819Y-72345873D02*
X205254819Y-72107778D01*
X205254819Y-73631587D02*
X205254819Y-73060159D01*
X205254819Y-73345873D02*
X204254819Y-73345873D01*
X204254819Y-73345873D02*
X204397676Y-73250635D01*
X204397676Y-73250635D02*
X204492914Y-73155397D01*
X204492914Y-73155397D02*
X204540533Y-73060159D01*
X205254819Y-74583968D02*
X205254819Y-74012540D01*
X205254819Y-74298254D02*
X204254819Y-74298254D01*
X204254819Y-74298254D02*
X204397676Y-74203016D01*
X204397676Y-74203016D02*
X204492914Y-74107778D01*
X204492914Y-74107778D02*
X204540533Y-74012540D01*
X134584819Y-46315714D02*
X133584819Y-46315714D01*
X133584819Y-46315714D02*
X133584819Y-46553809D01*
X133584819Y-46553809D02*
X133632438Y-46696666D01*
X133632438Y-46696666D02*
X133727676Y-46791904D01*
X133727676Y-46791904D02*
X133822914Y-46839523D01*
X133822914Y-46839523D02*
X134013390Y-46887142D01*
X134013390Y-46887142D02*
X134156247Y-46887142D01*
X134156247Y-46887142D02*
X134346723Y-46839523D01*
X134346723Y-46839523D02*
X134441961Y-46791904D01*
X134441961Y-46791904D02*
X134537200Y-46696666D01*
X134537200Y-46696666D02*
X134584819Y-46553809D01*
X134584819Y-46553809D02*
X134584819Y-46315714D01*
X133680057Y-47268095D02*
X133632438Y-47315714D01*
X133632438Y-47315714D02*
X133584819Y-47410952D01*
X133584819Y-47410952D02*
X133584819Y-47649047D01*
X133584819Y-47649047D02*
X133632438Y-47744285D01*
X133632438Y-47744285D02*
X133680057Y-47791904D01*
X133680057Y-47791904D02*
X133775295Y-47839523D01*
X133775295Y-47839523D02*
X133870533Y-47839523D01*
X133870533Y-47839523D02*
X134013390Y-47791904D01*
X134013390Y-47791904D02*
X134584819Y-47220476D01*
X134584819Y-47220476D02*
X134584819Y-47839523D01*
X133584819Y-48172857D02*
X133584819Y-48791904D01*
X133584819Y-48791904D02*
X133965771Y-48458571D01*
X133965771Y-48458571D02*
X133965771Y-48601428D01*
X133965771Y-48601428D02*
X134013390Y-48696666D01*
X134013390Y-48696666D02*
X134061009Y-48744285D01*
X134061009Y-48744285D02*
X134156247Y-48791904D01*
X134156247Y-48791904D02*
X134394342Y-48791904D01*
X134394342Y-48791904D02*
X134489580Y-48744285D01*
X134489580Y-48744285D02*
X134537200Y-48696666D01*
X134537200Y-48696666D02*
X134584819Y-48601428D01*
X134584819Y-48601428D02*
X134584819Y-48315714D01*
X134584819Y-48315714D02*
X134537200Y-48220476D01*
X134537200Y-48220476D02*
X134489580Y-48172857D01*
X148594819Y-106255714D02*
X147594819Y-106255714D01*
X147594819Y-106255714D02*
X147594819Y-106493809D01*
X147594819Y-106493809D02*
X147642438Y-106636666D01*
X147642438Y-106636666D02*
X147737676Y-106731904D01*
X147737676Y-106731904D02*
X147832914Y-106779523D01*
X147832914Y-106779523D02*
X148023390Y-106827142D01*
X148023390Y-106827142D02*
X148166247Y-106827142D01*
X148166247Y-106827142D02*
X148356723Y-106779523D01*
X148356723Y-106779523D02*
X148451961Y-106731904D01*
X148451961Y-106731904D02*
X148547200Y-106636666D01*
X148547200Y-106636666D02*
X148594819Y-106493809D01*
X148594819Y-106493809D02*
X148594819Y-106255714D01*
X147690057Y-107208095D02*
X147642438Y-107255714D01*
X147642438Y-107255714D02*
X147594819Y-107350952D01*
X147594819Y-107350952D02*
X147594819Y-107589047D01*
X147594819Y-107589047D02*
X147642438Y-107684285D01*
X147642438Y-107684285D02*
X147690057Y-107731904D01*
X147690057Y-107731904D02*
X147785295Y-107779523D01*
X147785295Y-107779523D02*
X147880533Y-107779523D01*
X147880533Y-107779523D02*
X148023390Y-107731904D01*
X148023390Y-107731904D02*
X148594819Y-107160476D01*
X148594819Y-107160476D02*
X148594819Y-107779523D01*
X147690057Y-108160476D02*
X147642438Y-108208095D01*
X147642438Y-108208095D02*
X147594819Y-108303333D01*
X147594819Y-108303333D02*
X147594819Y-108541428D01*
X147594819Y-108541428D02*
X147642438Y-108636666D01*
X147642438Y-108636666D02*
X147690057Y-108684285D01*
X147690057Y-108684285D02*
X147785295Y-108731904D01*
X147785295Y-108731904D02*
X147880533Y-108731904D01*
X147880533Y-108731904D02*
X148023390Y-108684285D01*
X148023390Y-108684285D02*
X148594819Y-108112857D01*
X148594819Y-108112857D02*
X148594819Y-108731904D01*
X175504819Y-72311905D02*
X174504819Y-72311905D01*
X174504819Y-72311905D02*
X174504819Y-72550000D01*
X174504819Y-72550000D02*
X174552438Y-72692857D01*
X174552438Y-72692857D02*
X174647676Y-72788095D01*
X174647676Y-72788095D02*
X174742914Y-72835714D01*
X174742914Y-72835714D02*
X174933390Y-72883333D01*
X174933390Y-72883333D02*
X175076247Y-72883333D01*
X175076247Y-72883333D02*
X175266723Y-72835714D01*
X175266723Y-72835714D02*
X175361961Y-72788095D01*
X175361961Y-72788095D02*
X175457200Y-72692857D01*
X175457200Y-72692857D02*
X175504819Y-72550000D01*
X175504819Y-72550000D02*
X175504819Y-72311905D01*
X174600057Y-73264286D02*
X174552438Y-73311905D01*
X174552438Y-73311905D02*
X174504819Y-73407143D01*
X174504819Y-73407143D02*
X174504819Y-73645238D01*
X174504819Y-73645238D02*
X174552438Y-73740476D01*
X174552438Y-73740476D02*
X174600057Y-73788095D01*
X174600057Y-73788095D02*
X174695295Y-73835714D01*
X174695295Y-73835714D02*
X174790533Y-73835714D01*
X174790533Y-73835714D02*
X174933390Y-73788095D01*
X174933390Y-73788095D02*
X175504819Y-73216667D01*
X175504819Y-73216667D02*
X175504819Y-73835714D01*
X190404819Y-49386905D02*
X189404819Y-49386905D01*
X189404819Y-49386905D02*
X189404819Y-49625000D01*
X189404819Y-49625000D02*
X189452438Y-49767857D01*
X189452438Y-49767857D02*
X189547676Y-49863095D01*
X189547676Y-49863095D02*
X189642914Y-49910714D01*
X189642914Y-49910714D02*
X189833390Y-49958333D01*
X189833390Y-49958333D02*
X189976247Y-49958333D01*
X189976247Y-49958333D02*
X190166723Y-49910714D01*
X190166723Y-49910714D02*
X190261961Y-49863095D01*
X190261961Y-49863095D02*
X190357200Y-49767857D01*
X190357200Y-49767857D02*
X190404819Y-49625000D01*
X190404819Y-49625000D02*
X190404819Y-49386905D01*
X189404819Y-50863095D02*
X189404819Y-50386905D01*
X189404819Y-50386905D02*
X189881009Y-50339286D01*
X189881009Y-50339286D02*
X189833390Y-50386905D01*
X189833390Y-50386905D02*
X189785771Y-50482143D01*
X189785771Y-50482143D02*
X189785771Y-50720238D01*
X189785771Y-50720238D02*
X189833390Y-50815476D01*
X189833390Y-50815476D02*
X189881009Y-50863095D01*
X189881009Y-50863095D02*
X189976247Y-50910714D01*
X189976247Y-50910714D02*
X190214342Y-50910714D01*
X190214342Y-50910714D02*
X190309580Y-50863095D01*
X190309580Y-50863095D02*
X190357200Y-50815476D01*
X190357200Y-50815476D02*
X190404819Y-50720238D01*
X190404819Y-50720238D02*
X190404819Y-50482143D01*
X190404819Y-50482143D02*
X190357200Y-50386905D01*
X190357200Y-50386905D02*
X190309580Y-50339286D01*
X102489819Y-47595714D02*
X101489819Y-47595714D01*
X101489819Y-47595714D02*
X101489819Y-47833809D01*
X101489819Y-47833809D02*
X101537438Y-47976666D01*
X101537438Y-47976666D02*
X101632676Y-48071904D01*
X101632676Y-48071904D02*
X101727914Y-48119523D01*
X101727914Y-48119523D02*
X101918390Y-48167142D01*
X101918390Y-48167142D02*
X102061247Y-48167142D01*
X102061247Y-48167142D02*
X102251723Y-48119523D01*
X102251723Y-48119523D02*
X102346961Y-48071904D01*
X102346961Y-48071904D02*
X102442200Y-47976666D01*
X102442200Y-47976666D02*
X102489819Y-47833809D01*
X102489819Y-47833809D02*
X102489819Y-47595714D01*
X101489819Y-48500476D02*
X101489819Y-49119523D01*
X101489819Y-49119523D02*
X101870771Y-48786190D01*
X101870771Y-48786190D02*
X101870771Y-48929047D01*
X101870771Y-48929047D02*
X101918390Y-49024285D01*
X101918390Y-49024285D02*
X101966009Y-49071904D01*
X101966009Y-49071904D02*
X102061247Y-49119523D01*
X102061247Y-49119523D02*
X102299342Y-49119523D01*
X102299342Y-49119523D02*
X102394580Y-49071904D01*
X102394580Y-49071904D02*
X102442200Y-49024285D01*
X102442200Y-49024285D02*
X102489819Y-48929047D01*
X102489819Y-48929047D02*
X102489819Y-48643333D01*
X102489819Y-48643333D02*
X102442200Y-48548095D01*
X102442200Y-48548095D02*
X102394580Y-48500476D01*
X101585057Y-49500476D02*
X101537438Y-49548095D01*
X101537438Y-49548095D02*
X101489819Y-49643333D01*
X101489819Y-49643333D02*
X101489819Y-49881428D01*
X101489819Y-49881428D02*
X101537438Y-49976666D01*
X101537438Y-49976666D02*
X101585057Y-50024285D01*
X101585057Y-50024285D02*
X101680295Y-50071904D01*
X101680295Y-50071904D02*
X101775533Y-50071904D01*
X101775533Y-50071904D02*
X101918390Y-50024285D01*
X101918390Y-50024285D02*
X102489819Y-49452857D01*
X102489819Y-49452857D02*
X102489819Y-50071904D01*
X68141666Y-88956009D02*
X67998809Y-89003628D01*
X67998809Y-89003628D02*
X67951190Y-89051247D01*
X67951190Y-89051247D02*
X67903571Y-89146485D01*
X67903571Y-89146485D02*
X67903571Y-89289342D01*
X67903571Y-89289342D02*
X67951190Y-89384580D01*
X67951190Y-89384580D02*
X67998809Y-89432200D01*
X67998809Y-89432200D02*
X68094047Y-89479819D01*
X68094047Y-89479819D02*
X68474999Y-89479819D01*
X68474999Y-89479819D02*
X68474999Y-88479819D01*
X68474999Y-88479819D02*
X68141666Y-88479819D01*
X68141666Y-88479819D02*
X68046428Y-88527438D01*
X68046428Y-88527438D02*
X67998809Y-88575057D01*
X67998809Y-88575057D02*
X67951190Y-88670295D01*
X67951190Y-88670295D02*
X67951190Y-88765533D01*
X67951190Y-88765533D02*
X67998809Y-88860771D01*
X67998809Y-88860771D02*
X68046428Y-88908390D01*
X68046428Y-88908390D02*
X68141666Y-88956009D01*
X68141666Y-88956009D02*
X68474999Y-88956009D01*
X67046428Y-89479819D02*
X67046428Y-88956009D01*
X67046428Y-88956009D02*
X67094047Y-88860771D01*
X67094047Y-88860771D02*
X67189285Y-88813152D01*
X67189285Y-88813152D02*
X67379761Y-88813152D01*
X67379761Y-88813152D02*
X67474999Y-88860771D01*
X67046428Y-89432200D02*
X67141666Y-89479819D01*
X67141666Y-89479819D02*
X67379761Y-89479819D01*
X67379761Y-89479819D02*
X67474999Y-89432200D01*
X67474999Y-89432200D02*
X67522618Y-89336961D01*
X67522618Y-89336961D02*
X67522618Y-89241723D01*
X67522618Y-89241723D02*
X67474999Y-89146485D01*
X67474999Y-89146485D02*
X67379761Y-89098866D01*
X67379761Y-89098866D02*
X67141666Y-89098866D01*
X67141666Y-89098866D02*
X67046428Y-89051247D01*
X66713094Y-88813152D02*
X66332142Y-88813152D01*
X66570237Y-88479819D02*
X66570237Y-89336961D01*
X66570237Y-89336961D02*
X66522618Y-89432200D01*
X66522618Y-89432200D02*
X66427380Y-89479819D01*
X66427380Y-89479819D02*
X66332142Y-89479819D01*
X65236903Y-89098866D02*
X64474999Y-89098866D01*
X64855951Y-89479819D02*
X64855951Y-88717914D01*
X220254819Y-49153214D02*
X219254819Y-49153214D01*
X219254819Y-49153214D02*
X219254819Y-49391309D01*
X219254819Y-49391309D02*
X219302438Y-49534166D01*
X219302438Y-49534166D02*
X219397676Y-49629404D01*
X219397676Y-49629404D02*
X219492914Y-49677023D01*
X219492914Y-49677023D02*
X219683390Y-49724642D01*
X219683390Y-49724642D02*
X219826247Y-49724642D01*
X219826247Y-49724642D02*
X220016723Y-49677023D01*
X220016723Y-49677023D02*
X220111961Y-49629404D01*
X220111961Y-49629404D02*
X220207200Y-49534166D01*
X220207200Y-49534166D02*
X220254819Y-49391309D01*
X220254819Y-49391309D02*
X220254819Y-49153214D01*
X220254819Y-50677023D02*
X220254819Y-50105595D01*
X220254819Y-50391309D02*
X219254819Y-50391309D01*
X219254819Y-50391309D02*
X219397676Y-50296071D01*
X219397676Y-50296071D02*
X219492914Y-50200833D01*
X219492914Y-50200833D02*
X219540533Y-50105595D01*
X219588152Y-51534166D02*
X220254819Y-51534166D01*
X219207200Y-51296071D02*
X219921485Y-51057976D01*
X219921485Y-51057976D02*
X219921485Y-51677023D01*
D12*
%TO.C,SW28*%
X105248890Y-48682927D02*
X106185890Y-47745927D01*
X106185890Y-47745927D02*
X108932890Y-47745927D01*
X106185890Y-52537927D02*
X105164890Y-51516927D01*
X108832890Y-52537927D02*
X106185890Y-52537927D01*
X108932890Y-47745927D02*
X109335890Y-47825927D01*
X109335890Y-47825927D02*
X109677890Y-48054927D01*
X109394890Y-52642927D02*
X108832890Y-52537927D01*
X109677890Y-48054927D02*
X110210890Y-48587927D01*
X109873890Y-52941927D02*
X109394890Y-52642927D01*
X110210890Y-48587927D02*
X110210890Y-48809927D01*
X110210890Y-48809927D02*
X110297890Y-49247927D01*
X110211890Y-53394927D02*
X109873890Y-52941927D01*
X110297890Y-49247927D02*
X110541890Y-49614927D01*
X110365890Y-53952927D02*
X110211890Y-53394927D01*
X110447890Y-54250927D02*
X110365890Y-53952927D01*
X110541890Y-49614927D02*
X110908890Y-49858927D01*
X110640890Y-54508927D02*
X110447890Y-54250927D01*
X110908890Y-49858927D02*
X111346890Y-49945927D01*
X110914890Y-54678927D02*
X110640890Y-54508927D01*
X111224890Y-54737927D02*
X110914890Y-54678927D01*
X111346890Y-49945927D02*
X114146890Y-49945927D01*
X114146890Y-49945927D02*
X114473890Y-50010927D01*
X114473890Y-50010927D02*
X114756890Y-50199927D01*
X114756890Y-50199927D02*
X114945890Y-50482927D01*
X114945890Y-50482927D02*
X115030890Y-50909927D01*
X114947890Y-53795927D02*
X115310890Y-53795927D01*
X115310890Y-53795927D02*
X115310890Y-54737927D01*
X115310890Y-54737927D02*
X111224890Y-54737927D01*
%TO.C,SW25*%
X120759000Y-72216000D02*
X121696000Y-71279000D01*
X121696000Y-71279000D02*
X124443000Y-71279000D01*
X121696000Y-76071000D02*
X120675000Y-75050000D01*
X124343000Y-76071000D02*
X121696000Y-76071000D01*
X124443000Y-71279000D02*
X124846000Y-71359000D01*
X124846000Y-71359000D02*
X125188000Y-71588000D01*
X124905000Y-76176000D02*
X124343000Y-76071000D01*
X125188000Y-71588000D02*
X125721000Y-72121000D01*
X125384000Y-76475000D02*
X124905000Y-76176000D01*
X125721000Y-72121000D02*
X125721000Y-72343000D01*
X125721000Y-72343000D02*
X125808000Y-72781000D01*
X125722000Y-76928000D02*
X125384000Y-76475000D01*
X125808000Y-72781000D02*
X126052000Y-73148000D01*
X125876000Y-77486000D02*
X125722000Y-76928000D01*
X125958000Y-77784000D02*
X125876000Y-77486000D01*
X126052000Y-73148000D02*
X126419000Y-73392000D01*
X126151000Y-78042000D02*
X125958000Y-77784000D01*
X126419000Y-73392000D02*
X126857000Y-73479000D01*
X126425000Y-78212000D02*
X126151000Y-78042000D01*
X126735000Y-78271000D02*
X126425000Y-78212000D01*
X126857000Y-73479000D02*
X129657000Y-73479000D01*
X129657000Y-73479000D02*
X129984000Y-73544000D01*
X129984000Y-73544000D02*
X130267000Y-73733000D01*
X130267000Y-73733000D02*
X130456000Y-74016000D01*
X130456000Y-74016000D02*
X130541000Y-74443000D01*
X130458000Y-77329000D02*
X130821000Y-77329000D01*
X130821000Y-77329000D02*
X130821000Y-78271000D01*
X130821000Y-78271000D02*
X126735000Y-78271000D01*
%TO.C,SW19*%
X136254000Y-50161000D02*
X137191000Y-49224000D01*
X137191000Y-49224000D02*
X139938000Y-49224000D01*
X137191000Y-54016000D02*
X136170000Y-52995000D01*
X139838000Y-54016000D02*
X137191000Y-54016000D01*
X139938000Y-49224000D02*
X140341000Y-49304000D01*
X140341000Y-49304000D02*
X140683000Y-49533000D01*
X140400000Y-54121000D02*
X139838000Y-54016000D01*
X140683000Y-49533000D02*
X141216000Y-50066000D01*
X140879000Y-54420000D02*
X140400000Y-54121000D01*
X141216000Y-50066000D02*
X141216000Y-50288000D01*
X141216000Y-50288000D02*
X141303000Y-50726000D01*
X141217000Y-54873000D02*
X140879000Y-54420000D01*
X141303000Y-50726000D02*
X141547000Y-51093000D01*
X141371000Y-55431000D02*
X141217000Y-54873000D01*
X141453000Y-55729000D02*
X141371000Y-55431000D01*
X141547000Y-51093000D02*
X141914000Y-51337000D01*
X141646000Y-55987000D02*
X141453000Y-55729000D01*
X141914000Y-51337000D02*
X142352000Y-51424000D01*
X141920000Y-56157000D02*
X141646000Y-55987000D01*
X142230000Y-56216000D02*
X141920000Y-56157000D01*
X142352000Y-51424000D02*
X145152000Y-51424000D01*
X145152000Y-51424000D02*
X145479000Y-51489000D01*
X145479000Y-51489000D02*
X145762000Y-51678000D01*
X145762000Y-51678000D02*
X145951000Y-51961000D01*
X145951000Y-51961000D02*
X146036000Y-52388000D01*
X145953000Y-55274000D02*
X146316000Y-55274000D01*
X146316000Y-55274000D02*
X146316000Y-56216000D01*
X146316000Y-56216000D02*
X142230000Y-56216000D01*
%TO.C,SW16*%
X207959000Y-70616000D02*
X208896000Y-69679000D01*
X208896000Y-69679000D02*
X211643000Y-69679000D01*
X208896000Y-74471000D02*
X207875000Y-73450000D01*
X211543000Y-74471000D02*
X208896000Y-74471000D01*
X211643000Y-69679000D02*
X212046000Y-69759000D01*
X212046000Y-69759000D02*
X212388000Y-69988000D01*
X212105000Y-74576000D02*
X211543000Y-74471000D01*
X212388000Y-69988000D02*
X212921000Y-70521000D01*
X212584000Y-74875000D02*
X212105000Y-74576000D01*
X212921000Y-70521000D02*
X212921000Y-70743000D01*
X212921000Y-70743000D02*
X213008000Y-71181000D01*
X212922000Y-75328000D02*
X212584000Y-74875000D01*
X213008000Y-71181000D02*
X213252000Y-71548000D01*
X213076000Y-75886000D02*
X212922000Y-75328000D01*
X213158000Y-76184000D02*
X213076000Y-75886000D01*
X213252000Y-71548000D02*
X213619000Y-71792000D01*
X213351000Y-76442000D02*
X213158000Y-76184000D01*
X213619000Y-71792000D02*
X214057000Y-71879000D01*
X213625000Y-76612000D02*
X213351000Y-76442000D01*
X213935000Y-76671000D02*
X213625000Y-76612000D01*
X214057000Y-71879000D02*
X216857000Y-71879000D01*
X216857000Y-71879000D02*
X217184000Y-71944000D01*
X217184000Y-71944000D02*
X217467000Y-72133000D01*
X217467000Y-72133000D02*
X217656000Y-72416000D01*
X217656000Y-72416000D02*
X217741000Y-72843000D01*
X217658000Y-75729000D02*
X218021000Y-75729000D01*
X218021000Y-75729000D02*
X218021000Y-76671000D01*
X218021000Y-76671000D02*
X213935000Y-76671000D01*
%TO.C,SW29*%
X105248890Y-64182927D02*
X106185890Y-63245927D01*
X106185890Y-63245927D02*
X108932890Y-63245927D01*
X106185890Y-68037927D02*
X105164890Y-67016927D01*
X108832890Y-68037927D02*
X106185890Y-68037927D01*
X108932890Y-63245927D02*
X109335890Y-63325927D01*
X109335890Y-63325927D02*
X109677890Y-63554927D01*
X109394890Y-68142927D02*
X108832890Y-68037927D01*
X109677890Y-63554927D02*
X110210890Y-64087927D01*
X109873890Y-68441927D02*
X109394890Y-68142927D01*
X110210890Y-64087927D02*
X110210890Y-64309927D01*
X110210890Y-64309927D02*
X110297890Y-64747927D01*
X110211890Y-68894927D02*
X109873890Y-68441927D01*
X110297890Y-64747927D02*
X110541890Y-65114927D01*
X110365890Y-69452927D02*
X110211890Y-68894927D01*
X110447890Y-69750927D02*
X110365890Y-69452927D01*
X110541890Y-65114927D02*
X110908890Y-65358927D01*
X110640890Y-70008927D02*
X110447890Y-69750927D01*
X110908890Y-65358927D02*
X111346890Y-65445927D01*
X110914890Y-70178927D02*
X110640890Y-70008927D01*
X111224890Y-70237927D02*
X110914890Y-70178927D01*
X111346890Y-65445927D02*
X114146890Y-65445927D01*
X114146890Y-65445927D02*
X114473890Y-65510927D01*
X114473890Y-65510927D02*
X114756890Y-65699927D01*
X114756890Y-65699927D02*
X114945890Y-65982927D01*
X114945890Y-65982927D02*
X115030890Y-66409927D01*
X114947890Y-69295927D02*
X115310890Y-69295927D01*
X115310890Y-69295927D02*
X115310890Y-70237927D01*
X115310890Y-70237927D02*
X111224890Y-70237927D01*
%TO.C,SW7*%
X176959000Y-72141000D02*
X177896000Y-71204000D01*
X177896000Y-71204000D02*
X180643000Y-71204000D01*
X177896000Y-75996000D02*
X176875000Y-74975000D01*
X180543000Y-75996000D02*
X177896000Y-75996000D01*
X180643000Y-71204000D02*
X181046000Y-71284000D01*
X181046000Y-71284000D02*
X181388000Y-71513000D01*
X181105000Y-76101000D02*
X180543000Y-75996000D01*
X181388000Y-71513000D02*
X181921000Y-72046000D01*
X181584000Y-76400000D02*
X181105000Y-76101000D01*
X181921000Y-72046000D02*
X181921000Y-72268000D01*
X181921000Y-72268000D02*
X182008000Y-72706000D01*
X181922000Y-76853000D02*
X181584000Y-76400000D01*
X182008000Y-72706000D02*
X182252000Y-73073000D01*
X182076000Y-77411000D02*
X181922000Y-76853000D01*
X182158000Y-77709000D02*
X182076000Y-77411000D01*
X182252000Y-73073000D02*
X182619000Y-73317000D01*
X182351000Y-77967000D02*
X182158000Y-77709000D01*
X182619000Y-73317000D02*
X183057000Y-73404000D01*
X182625000Y-78137000D02*
X182351000Y-77967000D01*
X182935000Y-78196000D02*
X182625000Y-78137000D01*
X183057000Y-73404000D02*
X185857000Y-73404000D01*
X185857000Y-73404000D02*
X186184000Y-73469000D01*
X186184000Y-73469000D02*
X186467000Y-73658000D01*
X186467000Y-73658000D02*
X186656000Y-73941000D01*
X186656000Y-73941000D02*
X186741000Y-74368000D01*
X186658000Y-77254000D02*
X187021000Y-77254000D01*
X187021000Y-77254000D02*
X187021000Y-78196000D01*
X187021000Y-78196000D02*
X182935000Y-78196000D01*
%TO.C,SW31*%
X53733177Y-112217322D02*
X54142662Y-110957059D01*
X54142662Y-110957059D02*
X56590256Y-109709948D01*
X56318183Y-115226763D02*
X54944941Y-114780569D01*
X56590256Y-109709948D02*
X56985650Y-109598270D01*
X56985650Y-109598270D02*
X57394338Y-109647046D01*
X57394338Y-109647046D02*
X58111222Y-109879975D01*
X58111222Y-109879975D02*
X58212008Y-110077779D01*
X58212008Y-110077779D02*
X58488373Y-110428542D01*
X58488373Y-110428542D02*
X58872393Y-110644768D01*
X58676677Y-114025050D02*
X56318183Y-115226763D01*
X58872393Y-110644768D02*
X59310166Y-110695559D01*
X59225092Y-113863463D02*
X58676677Y-114025050D01*
X59310166Y-110695559D02*
X59739924Y-110574229D01*
X59739924Y-110574229D02*
X62234744Y-109303055D01*
X59787627Y-113912412D02*
X59225092Y-113863463D01*
X60294445Y-114162590D02*
X59787627Y-113912412D01*
X60684987Y-114589857D02*
X60294445Y-114162590D01*
X60893340Y-114818149D02*
X60684987Y-114589857D01*
X61182432Y-114960409D02*
X60893340Y-114818149D01*
X61503747Y-114987487D02*
X61182432Y-114960409D01*
X61806744Y-114899319D02*
X61503747Y-114987487D01*
X62234744Y-109303055D02*
X62555611Y-109212516D01*
X62555611Y-109212516D02*
X62893570Y-109252437D01*
X62893570Y-109252437D02*
X63190450Y-109418788D01*
X63190450Y-109418788D02*
X63460039Y-109760658D01*
X64696302Y-112369784D02*
X65019738Y-112204986D01*
X65019738Y-112204986D02*
X65447397Y-113044314D01*
X65447397Y-113044314D02*
X61806744Y-114899319D01*
%TO.C,SW1*%
X161409000Y-50066000D02*
X162346000Y-49129000D01*
X162346000Y-49129000D02*
X165093000Y-49129000D01*
X162346000Y-53921000D02*
X161325000Y-52900000D01*
X164993000Y-53921000D02*
X162346000Y-53921000D01*
X165093000Y-49129000D02*
X165496000Y-49209000D01*
X165496000Y-49209000D02*
X165838000Y-49438000D01*
X165555000Y-54026000D02*
X164993000Y-53921000D01*
X165838000Y-49438000D02*
X166371000Y-49971000D01*
X166034000Y-54325000D02*
X165555000Y-54026000D01*
X166371000Y-49971000D02*
X166371000Y-50193000D01*
X166371000Y-50193000D02*
X166458000Y-50631000D01*
X166372000Y-54778000D02*
X166034000Y-54325000D01*
X166458000Y-50631000D02*
X166702000Y-50998000D01*
X166526000Y-55336000D02*
X166372000Y-54778000D01*
X166608000Y-55634000D02*
X166526000Y-55336000D01*
X166702000Y-50998000D02*
X167069000Y-51242000D01*
X166801000Y-55892000D02*
X166608000Y-55634000D01*
X167069000Y-51242000D02*
X167507000Y-51329000D01*
X167075000Y-56062000D02*
X166801000Y-55892000D01*
X167385000Y-56121000D02*
X167075000Y-56062000D01*
X167507000Y-51329000D02*
X170307000Y-51329000D01*
X170307000Y-51329000D02*
X170634000Y-51394000D01*
X170634000Y-51394000D02*
X170917000Y-51583000D01*
X170917000Y-51583000D02*
X171106000Y-51866000D01*
X171106000Y-51866000D02*
X171191000Y-52293000D01*
X171108000Y-55179000D02*
X171471000Y-55179000D01*
X171471000Y-55179000D02*
X171471000Y-56121000D01*
X171471000Y-56121000D02*
X167385000Y-56121000D01*
%TO.C,SW3*%
X161459000Y-81091000D02*
X162396000Y-80154000D01*
X162396000Y-80154000D02*
X165143000Y-80154000D01*
X162396000Y-84946000D02*
X161375000Y-83925000D01*
X165043000Y-84946000D02*
X162396000Y-84946000D01*
X165143000Y-80154000D02*
X165546000Y-80234000D01*
X165546000Y-80234000D02*
X165888000Y-80463000D01*
X165605000Y-85051000D02*
X165043000Y-84946000D01*
X165888000Y-80463000D02*
X166421000Y-80996000D01*
X166084000Y-85350000D02*
X165605000Y-85051000D01*
X166421000Y-80996000D02*
X166421000Y-81218000D01*
X166421000Y-81218000D02*
X166508000Y-81656000D01*
X166422000Y-85803000D02*
X166084000Y-85350000D01*
X166508000Y-81656000D02*
X166752000Y-82023000D01*
X166576000Y-86361000D02*
X166422000Y-85803000D01*
X166658000Y-86659000D02*
X166576000Y-86361000D01*
X166752000Y-82023000D02*
X167119000Y-82267000D01*
X166851000Y-86917000D02*
X166658000Y-86659000D01*
X167119000Y-82267000D02*
X167557000Y-82354000D01*
X167125000Y-87087000D02*
X166851000Y-86917000D01*
X167435000Y-87146000D02*
X167125000Y-87087000D01*
X167557000Y-82354000D02*
X170357000Y-82354000D01*
X170357000Y-82354000D02*
X170684000Y-82419000D01*
X170684000Y-82419000D02*
X170967000Y-82608000D01*
X170967000Y-82608000D02*
X171156000Y-82891000D01*
X171156000Y-82891000D02*
X171241000Y-83318000D01*
X171158000Y-86204000D02*
X171521000Y-86204000D01*
X171521000Y-86204000D02*
X171521000Y-87146000D01*
X171521000Y-87146000D02*
X167435000Y-87146000D01*
%TO.C,SW6*%
X176959000Y-56641000D02*
X177896000Y-55704000D01*
X177896000Y-55704000D02*
X180643000Y-55704000D01*
X177896000Y-60496000D02*
X176875000Y-59475000D01*
X180543000Y-60496000D02*
X177896000Y-60496000D01*
X180643000Y-55704000D02*
X181046000Y-55784000D01*
X181046000Y-55784000D02*
X181388000Y-56013000D01*
X181105000Y-60601000D02*
X180543000Y-60496000D01*
X181388000Y-56013000D02*
X181921000Y-56546000D01*
X181584000Y-60900000D02*
X181105000Y-60601000D01*
X181921000Y-56546000D02*
X181921000Y-56768000D01*
X181921000Y-56768000D02*
X182008000Y-57206000D01*
X181922000Y-61353000D02*
X181584000Y-60900000D01*
X182008000Y-57206000D02*
X182252000Y-57573000D01*
X182076000Y-61911000D02*
X181922000Y-61353000D01*
X182158000Y-62209000D02*
X182076000Y-61911000D01*
X182252000Y-57573000D02*
X182619000Y-57817000D01*
X182351000Y-62467000D02*
X182158000Y-62209000D01*
X182619000Y-57817000D02*
X183057000Y-57904000D01*
X182625000Y-62637000D02*
X182351000Y-62467000D01*
X182935000Y-62696000D02*
X182625000Y-62637000D01*
X183057000Y-57904000D02*
X185857000Y-57904000D01*
X185857000Y-57904000D02*
X186184000Y-57969000D01*
X186184000Y-57969000D02*
X186467000Y-58158000D01*
X186467000Y-58158000D02*
X186656000Y-58441000D01*
X186656000Y-58441000D02*
X186741000Y-58868000D01*
X186658000Y-61754000D02*
X187021000Y-61754000D01*
X187021000Y-61754000D02*
X187021000Y-62696000D01*
X187021000Y-62696000D02*
X182935000Y-62696000D01*
%TO.C,SW23*%
X120759000Y-41196000D02*
X121696000Y-40259000D01*
X121696000Y-40259000D02*
X124443000Y-40259000D01*
X121696000Y-45051000D02*
X120675000Y-44030000D01*
X124343000Y-45051000D02*
X121696000Y-45051000D01*
X124443000Y-40259000D02*
X124846000Y-40339000D01*
X124846000Y-40339000D02*
X125188000Y-40568000D01*
X124905000Y-45156000D02*
X124343000Y-45051000D01*
X125188000Y-40568000D02*
X125721000Y-41101000D01*
X125384000Y-45455000D02*
X124905000Y-45156000D01*
X125721000Y-41101000D02*
X125721000Y-41323000D01*
X125721000Y-41323000D02*
X125808000Y-41761000D01*
X125722000Y-45908000D02*
X125384000Y-45455000D01*
X125808000Y-41761000D02*
X126052000Y-42128000D01*
X125876000Y-46466000D02*
X125722000Y-45908000D01*
X125958000Y-46764000D02*
X125876000Y-46466000D01*
X126052000Y-42128000D02*
X126419000Y-42372000D01*
X126151000Y-47022000D02*
X125958000Y-46764000D01*
X126419000Y-42372000D02*
X126857000Y-42459000D01*
X126425000Y-47192000D02*
X126151000Y-47022000D01*
X126735000Y-47251000D02*
X126425000Y-47192000D01*
X126857000Y-42459000D02*
X129657000Y-42459000D01*
X129657000Y-42459000D02*
X129984000Y-42524000D01*
X129984000Y-42524000D02*
X130267000Y-42713000D01*
X130267000Y-42713000D02*
X130456000Y-42996000D01*
X130456000Y-42996000D02*
X130541000Y-43423000D01*
X130458000Y-46309000D02*
X130821000Y-46309000D01*
X130821000Y-46309000D02*
X130821000Y-47251000D01*
X130821000Y-47251000D02*
X126735000Y-47251000D01*
%TO.C,SW17*%
X207974000Y-86116000D02*
X208911000Y-85179000D01*
X208911000Y-85179000D02*
X211658000Y-85179000D01*
X208911000Y-89971000D02*
X207890000Y-88950000D01*
X211558000Y-89971000D02*
X208911000Y-89971000D01*
X211658000Y-85179000D02*
X212061000Y-85259000D01*
X212061000Y-85259000D02*
X212403000Y-85488000D01*
X212120000Y-90076000D02*
X211558000Y-89971000D01*
X212403000Y-85488000D02*
X212936000Y-86021000D01*
X212599000Y-90375000D02*
X212120000Y-90076000D01*
X212936000Y-86021000D02*
X212936000Y-86243000D01*
X212936000Y-86243000D02*
X213023000Y-86681000D01*
X212937000Y-90828000D02*
X212599000Y-90375000D01*
X213023000Y-86681000D02*
X213267000Y-87048000D01*
X213091000Y-91386000D02*
X212937000Y-90828000D01*
X213173000Y-91684000D02*
X213091000Y-91386000D01*
X213267000Y-87048000D02*
X213634000Y-87292000D01*
X213366000Y-91942000D02*
X213173000Y-91684000D01*
X213634000Y-87292000D02*
X214072000Y-87379000D01*
X213640000Y-92112000D02*
X213366000Y-91942000D01*
X213950000Y-92171000D02*
X213640000Y-92112000D01*
X214072000Y-87379000D02*
X216872000Y-87379000D01*
X216872000Y-87379000D02*
X217199000Y-87444000D01*
X217199000Y-87444000D02*
X217482000Y-87633000D01*
X217482000Y-87633000D02*
X217671000Y-87916000D01*
X217671000Y-87916000D02*
X217756000Y-88343000D01*
X217673000Y-91229000D02*
X218036000Y-91229000D01*
X218036000Y-91229000D02*
X218036000Y-92171000D01*
X218036000Y-92171000D02*
X213950000Y-92171000D01*
%TO.C,SW13*%
X227691239Y-104034306D02*
X226969283Y-102783842D01*
X227783914Y-100068149D02*
X228931499Y-99405590D01*
X228931499Y-99405590D02*
X231584898Y-100116566D01*
X230248044Y-104719400D02*
X227691239Y-104034306D01*
X230763719Y-104966279D02*
X230248044Y-104719400D01*
X231149010Y-105379065D02*
X230763719Y-104966279D01*
X231358248Y-105904110D02*
X231149010Y-105379065D01*
X231362580Y-106482955D02*
X231358248Y-105904110D01*
X231364657Y-106792024D02*
X231362580Y-106482955D01*
X231484306Y-107091185D02*
X231364657Y-106792024D01*
X231584898Y-100116566D02*
X231953460Y-100298144D01*
X231704970Y-107326309D02*
X231484306Y-107091185D01*
X231953460Y-100298144D02*
X232224537Y-100607857D01*
X231989137Y-107463532D02*
X231704970Y-107326309D01*
X232224537Y-100607857D02*
X232601425Y-101260646D01*
X232514640Y-101920674D02*
X232655340Y-102338321D01*
X232543966Y-101475081D02*
X232514640Y-101920674D01*
X232601425Y-101260646D02*
X232543966Y-101475081D01*
X232655340Y-102338321D02*
X232946682Y-102668993D01*
X232946682Y-102668993D02*
X233347241Y-102866392D01*
X233347241Y-102866392D02*
X236051833Y-103591085D01*
X235829086Y-107517213D02*
X236179717Y-107611165D01*
X235935910Y-108521067D02*
X231989137Y-107463532D01*
X236051833Y-103591085D02*
X236350868Y-103738504D01*
X236179717Y-107611165D02*
X235935910Y-108521067D01*
X236350868Y-103738504D02*
X236575308Y-103994310D01*
X236575308Y-103994310D02*
X236684622Y-104316584D01*
X236684622Y-104316584D02*
X236656210Y-104751033D01*
%TO.C,SW24*%
X120759000Y-56706000D02*
X121696000Y-55769000D01*
X121696000Y-55769000D02*
X124443000Y-55769000D01*
X121696000Y-60561000D02*
X120675000Y-59540000D01*
X124343000Y-60561000D02*
X121696000Y-60561000D01*
X124443000Y-55769000D02*
X124846000Y-55849000D01*
X124846000Y-55849000D02*
X125188000Y-56078000D01*
X124905000Y-60666000D02*
X124343000Y-60561000D01*
X125188000Y-56078000D02*
X125721000Y-56611000D01*
X125384000Y-60965000D02*
X124905000Y-60666000D01*
X125721000Y-56611000D02*
X125721000Y-56833000D01*
X125721000Y-56833000D02*
X125808000Y-57271000D01*
X125722000Y-61418000D02*
X125384000Y-60965000D01*
X125808000Y-57271000D02*
X126052000Y-57638000D01*
X125876000Y-61976000D02*
X125722000Y-61418000D01*
X125958000Y-62274000D02*
X125876000Y-61976000D01*
X126052000Y-57638000D02*
X126419000Y-57882000D01*
X126151000Y-62532000D02*
X125958000Y-62274000D01*
X126419000Y-57882000D02*
X126857000Y-57969000D01*
X126425000Y-62702000D02*
X126151000Y-62532000D01*
X126735000Y-62761000D02*
X126425000Y-62702000D01*
X126857000Y-57969000D02*
X129657000Y-57969000D01*
X129657000Y-57969000D02*
X129984000Y-58034000D01*
X129984000Y-58034000D02*
X130267000Y-58223000D01*
X130267000Y-58223000D02*
X130456000Y-58506000D01*
X130456000Y-58506000D02*
X130541000Y-58933000D01*
X130458000Y-61819000D02*
X130821000Y-61819000D01*
X130821000Y-61819000D02*
X130821000Y-62761000D01*
X130821000Y-62761000D02*
X126735000Y-62761000D01*
%TO.C,SW11*%
X192459000Y-64166000D02*
X193396000Y-63229000D01*
X193396000Y-63229000D02*
X196143000Y-63229000D01*
X193396000Y-68021000D02*
X192375000Y-67000000D01*
X196043000Y-68021000D02*
X193396000Y-68021000D01*
X196143000Y-63229000D02*
X196546000Y-63309000D01*
X196546000Y-63309000D02*
X196888000Y-63538000D01*
X196605000Y-68126000D02*
X196043000Y-68021000D01*
X196888000Y-63538000D02*
X197421000Y-64071000D01*
X197084000Y-68425000D02*
X196605000Y-68126000D01*
X197421000Y-64071000D02*
X197421000Y-64293000D01*
X197421000Y-64293000D02*
X197508000Y-64731000D01*
X197422000Y-68878000D02*
X197084000Y-68425000D01*
X197508000Y-64731000D02*
X197752000Y-65098000D01*
X197576000Y-69436000D02*
X197422000Y-68878000D01*
X197658000Y-69734000D02*
X197576000Y-69436000D01*
X197752000Y-65098000D02*
X198119000Y-65342000D01*
X197851000Y-69992000D02*
X197658000Y-69734000D01*
X198119000Y-65342000D02*
X198557000Y-65429000D01*
X198125000Y-70162000D02*
X197851000Y-69992000D01*
X198435000Y-70221000D02*
X198125000Y-70162000D01*
X198557000Y-65429000D02*
X201357000Y-65429000D01*
X201357000Y-65429000D02*
X201684000Y-65494000D01*
X201684000Y-65494000D02*
X201967000Y-65683000D01*
X201967000Y-65683000D02*
X202156000Y-65966000D01*
X202156000Y-65966000D02*
X202241000Y-66393000D01*
X202158000Y-69279000D02*
X202521000Y-69279000D01*
X202521000Y-69279000D02*
X202521000Y-70221000D01*
X202521000Y-70221000D02*
X198435000Y-70221000D01*
%TO.C,SW15*%
X207984000Y-55116000D02*
X208921000Y-54179000D01*
X208921000Y-54179000D02*
X211668000Y-54179000D01*
X208921000Y-58971000D02*
X207900000Y-57950000D01*
X211568000Y-58971000D02*
X208921000Y-58971000D01*
X211668000Y-54179000D02*
X212071000Y-54259000D01*
X212071000Y-54259000D02*
X212413000Y-54488000D01*
X212130000Y-59076000D02*
X211568000Y-58971000D01*
X212413000Y-54488000D02*
X212946000Y-55021000D01*
X212609000Y-59375000D02*
X212130000Y-59076000D01*
X212946000Y-55021000D02*
X212946000Y-55243000D01*
X212946000Y-55243000D02*
X213033000Y-55681000D01*
X212947000Y-59828000D02*
X212609000Y-59375000D01*
X213033000Y-55681000D02*
X213277000Y-56048000D01*
X213101000Y-60386000D02*
X212947000Y-59828000D01*
X213183000Y-60684000D02*
X213101000Y-60386000D01*
X213277000Y-56048000D02*
X213644000Y-56292000D01*
X213376000Y-60942000D02*
X213183000Y-60684000D01*
X213644000Y-56292000D02*
X214082000Y-56379000D01*
X213650000Y-61112000D02*
X213376000Y-60942000D01*
X213960000Y-61171000D02*
X213650000Y-61112000D01*
X214082000Y-56379000D02*
X216882000Y-56379000D01*
X216882000Y-56379000D02*
X217209000Y-56444000D01*
X217209000Y-56444000D02*
X217492000Y-56633000D01*
X217492000Y-56633000D02*
X217681000Y-56916000D01*
X217681000Y-56916000D02*
X217766000Y-57343000D01*
X217683000Y-60229000D02*
X218046000Y-60229000D01*
X218046000Y-60229000D02*
X218046000Y-61171000D01*
X218046000Y-61171000D02*
X213960000Y-61171000D01*
%TO.C,SW21*%
X136254000Y-81181000D02*
X137191000Y-80244000D01*
X137191000Y-80244000D02*
X139938000Y-80244000D01*
X137191000Y-85036000D02*
X136170000Y-84015000D01*
X139838000Y-85036000D02*
X137191000Y-85036000D01*
X139938000Y-80244000D02*
X140341000Y-80324000D01*
X140341000Y-80324000D02*
X140683000Y-80553000D01*
X140400000Y-85141000D02*
X139838000Y-85036000D01*
X140683000Y-80553000D02*
X141216000Y-81086000D01*
X140879000Y-85440000D02*
X140400000Y-85141000D01*
X141216000Y-81086000D02*
X141216000Y-81308000D01*
X141216000Y-81308000D02*
X141303000Y-81746000D01*
X141217000Y-85893000D02*
X140879000Y-85440000D01*
X141303000Y-81746000D02*
X141547000Y-82113000D01*
X141371000Y-86451000D02*
X141217000Y-85893000D01*
X141453000Y-86749000D02*
X141371000Y-86451000D01*
X141547000Y-82113000D02*
X141914000Y-82357000D01*
X141646000Y-87007000D02*
X141453000Y-86749000D01*
X141914000Y-82357000D02*
X142352000Y-82444000D01*
X141920000Y-87177000D02*
X141646000Y-87007000D01*
X142230000Y-87236000D02*
X141920000Y-87177000D01*
X142352000Y-82444000D02*
X145152000Y-82444000D01*
X145152000Y-82444000D02*
X145479000Y-82509000D01*
X145479000Y-82509000D02*
X145762000Y-82698000D01*
X145762000Y-82698000D02*
X145951000Y-82981000D01*
X145951000Y-82981000D02*
X146036000Y-83408000D01*
X145953000Y-86294000D02*
X146316000Y-86294000D01*
X146316000Y-86294000D02*
X146316000Y-87236000D01*
X146316000Y-87236000D02*
X142230000Y-87236000D01*
%TO.C,SW18*%
X243495684Y-114011911D02*
X243049490Y-112638669D01*
X244410944Y-110151692D02*
X245671206Y-109742208D01*
X245671206Y-109742208D02*
X248118801Y-110989320D01*
X245854178Y-115213624D02*
X243495684Y-114011911D01*
X246307255Y-115562322D02*
X245854178Y-115213624D01*
X246515469Y-117473113D02*
X246577694Y-117170365D01*
X246570301Y-117790612D02*
X246515469Y-117473113D01*
X246577694Y-117170365D02*
X246693806Y-116603269D01*
X246598303Y-116046194D02*
X246307255Y-115562322D01*
X246693806Y-116603269D02*
X246598303Y-116046194D01*
X246737260Y-118066477D02*
X246570301Y-117790612D01*
X246986686Y-118259783D02*
X246737260Y-118066477D01*
X248118801Y-110989320D02*
X248441557Y-111243558D01*
X248441557Y-111243558D02*
X248642318Y-111602863D01*
X248642318Y-111602863D02*
X248875247Y-112319747D01*
X248653131Y-112947308D02*
X248703922Y-113385081D01*
X248703922Y-113385081D02*
X248920148Y-113769102D01*
X248774461Y-112517550D02*
X248653131Y-112947308D01*
X248875247Y-112319747D02*
X248774461Y-112517550D01*
X248920148Y-113769102D02*
X249270912Y-114045467D01*
X249270912Y-114045467D02*
X251765730Y-115316640D01*
X250627339Y-120114789D02*
X246986686Y-118259783D01*
X250731563Y-119110662D02*
X251054998Y-119275460D01*
X251054998Y-119275460D02*
X250627339Y-120114789D01*
X251765730Y-115316640D02*
X252027580Y-115523011D01*
X252027580Y-115523011D02*
X252193930Y-115819890D01*
X252193930Y-115819890D02*
X252233851Y-116157849D01*
X252233851Y-116157849D02*
X252115733Y-116576898D01*
%TO.C,SW12*%
X192459000Y-79666000D02*
X193396000Y-78729000D01*
X193396000Y-78729000D02*
X196143000Y-78729000D01*
X193396000Y-83521000D02*
X192375000Y-82500000D01*
X196043000Y-83521000D02*
X193396000Y-83521000D01*
X196143000Y-78729000D02*
X196546000Y-78809000D01*
X196546000Y-78809000D02*
X196888000Y-79038000D01*
X196605000Y-83626000D02*
X196043000Y-83521000D01*
X196888000Y-79038000D02*
X197421000Y-79571000D01*
X197084000Y-83925000D02*
X196605000Y-83626000D01*
X197421000Y-79571000D02*
X197421000Y-79793000D01*
X197421000Y-79793000D02*
X197508000Y-80231000D01*
X197422000Y-84378000D02*
X197084000Y-83925000D01*
X197508000Y-80231000D02*
X197752000Y-80598000D01*
X197576000Y-84936000D02*
X197422000Y-84378000D01*
X197658000Y-85234000D02*
X197576000Y-84936000D01*
X197752000Y-80598000D02*
X198119000Y-80842000D01*
X197851000Y-85492000D02*
X197658000Y-85234000D01*
X198119000Y-80842000D02*
X198557000Y-80929000D01*
X198125000Y-85662000D02*
X197851000Y-85492000D01*
X198435000Y-85721000D02*
X198125000Y-85662000D01*
X198557000Y-80929000D02*
X201357000Y-80929000D01*
X201357000Y-80929000D02*
X201684000Y-80994000D01*
X201684000Y-80994000D02*
X201967000Y-81183000D01*
X201967000Y-81183000D02*
X202156000Y-81466000D01*
X202156000Y-81466000D02*
X202241000Y-81893000D01*
X202158000Y-84779000D02*
X202521000Y-84779000D01*
X202521000Y-84779000D02*
X202521000Y-85721000D01*
X202521000Y-85721000D02*
X198435000Y-85721000D01*
%TO.C,SW35*%
X89684000Y-86192001D02*
X90621001Y-85255001D01*
X90621000Y-90047001D02*
X89600000Y-89026001D01*
X90621001Y-85255001D02*
X93368000Y-85255002D01*
X93268000Y-90047001D02*
X90621000Y-90047001D01*
X93368000Y-85255002D02*
X93771000Y-85335001D01*
X93771000Y-85335001D02*
X94112999Y-85564001D01*
X93830000Y-90152001D02*
X93268000Y-90047001D01*
X94112999Y-85564001D02*
X94646000Y-86097001D01*
X94309000Y-90451000D02*
X93830000Y-90152001D01*
X94646000Y-86097001D02*
X94646000Y-86319001D01*
X94646000Y-86319001D02*
X94733000Y-86757001D01*
X94647000Y-90904001D02*
X94309000Y-90451000D01*
X94733000Y-86757001D02*
X94977000Y-87124001D01*
X94801000Y-91462001D02*
X94647000Y-90904001D01*
X94883001Y-91760001D02*
X94801000Y-91462001D01*
X94977000Y-87124001D02*
X95344000Y-87368001D01*
X95076000Y-92018001D02*
X94883001Y-91760001D01*
X95344000Y-87368001D02*
X95782000Y-87455001D01*
X95350000Y-92188001D02*
X95076000Y-92018001D01*
X95660000Y-92247001D02*
X95350000Y-92188001D01*
X95782000Y-87455001D02*
X98582001Y-87455001D01*
X98582001Y-87455001D02*
X98909000Y-87520001D01*
X98909000Y-87520001D02*
X99192000Y-87709001D01*
X99192000Y-87709001D02*
X99381000Y-87992001D01*
X99381000Y-87992001D02*
X99466000Y-88419001D01*
X99383000Y-91305001D02*
X99746000Y-91305001D01*
X99746000Y-91305001D02*
X99746000Y-92247001D01*
X99746000Y-92247001D02*
X95660000Y-92247001D01*
%TO.C,SW10*%
X192459000Y-48641000D02*
X193396000Y-47704000D01*
X193396000Y-47704000D02*
X196143000Y-47704000D01*
X193396000Y-52496000D02*
X192375000Y-51475000D01*
X196043000Y-52496000D02*
X193396000Y-52496000D01*
X196143000Y-47704000D02*
X196546000Y-47784000D01*
X196546000Y-47784000D02*
X196888000Y-48013000D01*
X196605000Y-52601000D02*
X196043000Y-52496000D01*
X196888000Y-48013000D02*
X197421000Y-48546000D01*
X197084000Y-52900000D02*
X196605000Y-52601000D01*
X197421000Y-48546000D02*
X197421000Y-48768000D01*
X197421000Y-48768000D02*
X197508000Y-49206000D01*
X197422000Y-53353000D02*
X197084000Y-52900000D01*
X197508000Y-49206000D02*
X197752000Y-49573000D01*
X197576000Y-53911000D02*
X197422000Y-53353000D01*
X197658000Y-54209000D02*
X197576000Y-53911000D01*
X197752000Y-49573000D02*
X198119000Y-49817000D01*
X197851000Y-54467000D02*
X197658000Y-54209000D01*
X198119000Y-49817000D02*
X198557000Y-49904000D01*
X198125000Y-54637000D02*
X197851000Y-54467000D01*
X198435000Y-54696000D02*
X198125000Y-54637000D01*
X198557000Y-49904000D02*
X201357000Y-49904000D01*
X201357000Y-49904000D02*
X201684000Y-49969000D01*
X201684000Y-49969000D02*
X201967000Y-50158000D01*
X201967000Y-50158000D02*
X202156000Y-50441000D01*
X202156000Y-50441000D02*
X202241000Y-50868000D01*
X202158000Y-53754000D02*
X202521000Y-53754000D01*
X202521000Y-53754000D02*
X202521000Y-54696000D01*
X202521000Y-54696000D02*
X198435000Y-54696000D01*
%TO.C,SW32*%
X89709000Y-39641000D02*
X90646000Y-38704000D01*
X90646000Y-38704000D02*
X93393000Y-38704000D01*
X90646000Y-43496000D02*
X89625000Y-42475000D01*
X93293000Y-43496000D02*
X90646000Y-43496000D01*
X93393000Y-38704000D02*
X93796000Y-38784000D01*
X93796000Y-38784000D02*
X94138000Y-39013000D01*
X93855000Y-43601000D02*
X93293000Y-43496000D01*
X94138000Y-39013000D02*
X94671000Y-39546000D01*
X94334000Y-43900000D02*
X93855000Y-43601000D01*
X94671000Y-39546000D02*
X94671000Y-39768000D01*
X94671000Y-39768000D02*
X94758000Y-40206000D01*
X94672000Y-44353000D02*
X94334000Y-43900000D01*
X94758000Y-40206000D02*
X95002000Y-40573000D01*
X94826000Y-44911000D02*
X94672000Y-44353000D01*
X94908000Y-45209000D02*
X94826000Y-44911000D01*
X95002000Y-40573000D02*
X95369000Y-40817000D01*
X95101000Y-45467000D02*
X94908000Y-45209000D01*
X95369000Y-40817000D02*
X95807000Y-40904000D01*
X95375000Y-45637000D02*
X95101000Y-45467000D01*
X95685000Y-45696000D02*
X95375000Y-45637000D01*
X95807000Y-40904000D02*
X98607000Y-40904000D01*
X98607000Y-40904000D02*
X98934000Y-40969000D01*
X98934000Y-40969000D02*
X99217000Y-41158000D01*
X99217000Y-41158000D02*
X99406000Y-41441000D01*
X99406000Y-41441000D02*
X99491000Y-41868000D01*
X99408000Y-44754000D02*
X99771000Y-44754000D01*
X99771000Y-44754000D02*
X99771000Y-45696000D01*
X99771000Y-45696000D02*
X95685000Y-45696000D01*
%TO.C,SW2*%
X161409000Y-65566000D02*
X162346000Y-64629000D01*
X162346000Y-64629000D02*
X165093000Y-64629000D01*
X162346000Y-69421000D02*
X161325000Y-68400000D01*
X164993000Y-69421000D02*
X162346000Y-69421000D01*
X165093000Y-64629000D02*
X165496000Y-64709000D01*
X165496000Y-64709000D02*
X165838000Y-64938000D01*
X165555000Y-69526000D02*
X164993000Y-69421000D01*
X165838000Y-64938000D02*
X166371000Y-65471000D01*
X166034000Y-69825000D02*
X165555000Y-69526000D01*
X166371000Y-65471000D02*
X166371000Y-65693000D01*
X166371000Y-65693000D02*
X166458000Y-66131000D01*
X166372000Y-70278000D02*
X166034000Y-69825000D01*
X166458000Y-66131000D02*
X166702000Y-66498000D01*
X166526000Y-70836000D02*
X166372000Y-70278000D01*
X166608000Y-71134000D02*
X166526000Y-70836000D01*
X166702000Y-66498000D02*
X167069000Y-66742000D01*
X166801000Y-71392000D02*
X166608000Y-71134000D01*
X167069000Y-66742000D02*
X167507000Y-66829000D01*
X167075000Y-71562000D02*
X166801000Y-71392000D01*
X167385000Y-71621000D02*
X167075000Y-71562000D01*
X167507000Y-66829000D02*
X170307000Y-66829000D01*
X170307000Y-66829000D02*
X170634000Y-66894000D01*
X170634000Y-66894000D02*
X170917000Y-67083000D01*
X170917000Y-67083000D02*
X171106000Y-67366000D01*
X171106000Y-67366000D02*
X171191000Y-67793000D01*
X171108000Y-70679000D02*
X171471000Y-70679000D01*
X171471000Y-70679000D02*
X171471000Y-71621000D01*
X171471000Y-71621000D02*
X167385000Y-71621000D01*
%TO.C,SW26*%
X120759000Y-87716000D02*
X121696000Y-86779000D01*
X121696000Y-86779000D02*
X124443000Y-86779000D01*
X121696000Y-91571000D02*
X120675000Y-90550000D01*
X124343000Y-91571000D02*
X121696000Y-91571000D01*
X124443000Y-86779000D02*
X124846000Y-86859000D01*
X124846000Y-86859000D02*
X125188000Y-87088000D01*
X124905000Y-91676000D02*
X124343000Y-91571000D01*
X125188000Y-87088000D02*
X125721000Y-87621000D01*
X125384000Y-91975000D02*
X124905000Y-91676000D01*
X125721000Y-87621000D02*
X125721000Y-87843000D01*
X125721000Y-87843000D02*
X125808000Y-88281000D01*
X125722000Y-92428000D02*
X125384000Y-91975000D01*
X125808000Y-88281000D02*
X126052000Y-88648000D01*
X125876000Y-92986000D02*
X125722000Y-92428000D01*
X125958000Y-93284000D02*
X125876000Y-92986000D01*
X126052000Y-88648000D02*
X126419000Y-88892000D01*
X126151000Y-93542000D02*
X125958000Y-93284000D01*
X126419000Y-88892000D02*
X126857000Y-88979000D01*
X126425000Y-93712000D02*
X126151000Y-93542000D01*
X126735000Y-93771000D02*
X126425000Y-93712000D01*
X126857000Y-88979000D02*
X129657000Y-88979000D01*
X129657000Y-88979000D02*
X129984000Y-89044000D01*
X129984000Y-89044000D02*
X130267000Y-89233000D01*
X130267000Y-89233000D02*
X130456000Y-89516000D01*
X130456000Y-89516000D02*
X130541000Y-89943000D01*
X130458000Y-92829000D02*
X130821000Y-92829000D01*
X130821000Y-92829000D02*
X130821000Y-93771000D01*
X130821000Y-93771000D02*
X126735000Y-93771000D01*
%TO.C,SW30*%
X105248890Y-79682927D02*
X106185890Y-78745927D01*
X106185890Y-78745927D02*
X108932890Y-78745927D01*
X106185890Y-83537927D02*
X105164890Y-82516927D01*
X108832890Y-83537927D02*
X106185890Y-83537927D01*
X108932890Y-78745927D02*
X109335890Y-78825927D01*
X109335890Y-78825927D02*
X109677890Y-79054927D01*
X109394890Y-83642927D02*
X108832890Y-83537927D01*
X109677890Y-79054927D02*
X110210890Y-79587927D01*
X109873890Y-83941927D02*
X109394890Y-83642927D01*
X110210890Y-79587927D02*
X110210890Y-79809927D01*
X110210890Y-79809927D02*
X110297890Y-80247927D01*
X110211890Y-84394927D02*
X109873890Y-83941927D01*
X110297890Y-80247927D02*
X110541890Y-80614927D01*
X110365890Y-84952927D02*
X110211890Y-84394927D01*
X110447890Y-85250927D02*
X110365890Y-84952927D01*
X110541890Y-80614927D02*
X110908890Y-80858927D01*
X110640890Y-85508927D02*
X110447890Y-85250927D01*
X110908890Y-80858927D02*
X111346890Y-80945927D01*
X110914890Y-85678927D02*
X110640890Y-85508927D01*
X111224890Y-85737927D02*
X110914890Y-85678927D01*
X111346890Y-80945927D02*
X114146890Y-80945927D01*
X114146890Y-80945927D02*
X114473890Y-81010927D01*
X114473890Y-81010927D02*
X114756890Y-81199927D01*
X114756890Y-81199927D02*
X114945890Y-81482927D01*
X114945890Y-81482927D02*
X115030890Y-81909927D01*
X114947890Y-84795927D02*
X115310890Y-84795927D01*
X115310890Y-84795927D02*
X115310890Y-85737927D01*
X115310890Y-85737927D02*
X111224890Y-85737927D01*
%TO.C,SW22*%
X136254000Y-96681000D02*
X137191000Y-95744000D01*
X137191000Y-95744000D02*
X139938000Y-95744000D01*
X137191000Y-100536000D02*
X136170000Y-99515000D01*
X139838000Y-100536000D02*
X137191000Y-100536000D01*
X139938000Y-95744000D02*
X140341000Y-95824000D01*
X140341000Y-95824000D02*
X140683000Y-96053000D01*
X140400000Y-100641000D02*
X139838000Y-100536000D01*
X140683000Y-96053000D02*
X141216000Y-96586000D01*
X140879000Y-100940000D02*
X140400000Y-100641000D01*
X141216000Y-96586000D02*
X141216000Y-96808000D01*
X141216000Y-96808000D02*
X141303000Y-97246000D01*
X141217000Y-101393000D02*
X140879000Y-100940000D01*
X141303000Y-97246000D02*
X141547000Y-97613000D01*
X141371000Y-101951000D02*
X141217000Y-101393000D01*
X141453000Y-102249000D02*
X141371000Y-101951000D01*
X141547000Y-97613000D02*
X141914000Y-97857000D01*
X141646000Y-102507000D02*
X141453000Y-102249000D01*
X141914000Y-97857000D02*
X142352000Y-97944000D01*
X141920000Y-102677000D02*
X141646000Y-102507000D01*
X142230000Y-102736000D02*
X141920000Y-102677000D01*
X142352000Y-97944000D02*
X145152000Y-97944000D01*
X145152000Y-97944000D02*
X145479000Y-98009000D01*
X145479000Y-98009000D02*
X145762000Y-98198000D01*
X145762000Y-98198000D02*
X145951000Y-98481000D01*
X145951000Y-98481000D02*
X146036000Y-98908000D01*
X145953000Y-101794000D02*
X146316000Y-101794000D01*
X146316000Y-101794000D02*
X146316000Y-102736000D01*
X146316000Y-102736000D02*
X142230000Y-102736000D01*
%TO.C,SW4*%
X161459000Y-96591000D02*
X162396000Y-95654000D01*
X162396000Y-95654000D02*
X165143000Y-95654000D01*
X162396000Y-100446000D02*
X161375000Y-99425000D01*
X165043000Y-100446000D02*
X162396000Y-100446000D01*
X165143000Y-95654000D02*
X165546000Y-95734000D01*
X165546000Y-95734000D02*
X165888000Y-95963000D01*
X165605000Y-100551000D02*
X165043000Y-100446000D01*
X165888000Y-95963000D02*
X166421000Y-96496000D01*
X166084000Y-100850000D02*
X165605000Y-100551000D01*
X166421000Y-96496000D02*
X166421000Y-96718000D01*
X166421000Y-96718000D02*
X166508000Y-97156000D01*
X166422000Y-101303000D02*
X166084000Y-100850000D01*
X166508000Y-97156000D02*
X166752000Y-97523000D01*
X166576000Y-101861000D02*
X166422000Y-101303000D01*
X166658000Y-102159000D02*
X166576000Y-101861000D01*
X166752000Y-97523000D02*
X167119000Y-97767000D01*
X166851000Y-102417000D02*
X166658000Y-102159000D01*
X167119000Y-97767000D02*
X167557000Y-97854000D01*
X167125000Y-102587000D02*
X166851000Y-102417000D01*
X167435000Y-102646000D02*
X167125000Y-102587000D01*
X167557000Y-97854000D02*
X170357000Y-97854000D01*
X170357000Y-97854000D02*
X170684000Y-97919000D01*
X170684000Y-97919000D02*
X170967000Y-98108000D01*
X170967000Y-98108000D02*
X171156000Y-98391000D01*
X171156000Y-98391000D02*
X171241000Y-98818000D01*
X171158000Y-101704000D02*
X171521000Y-101704000D01*
X171521000Y-101704000D02*
X171521000Y-102646000D01*
X171521000Y-102646000D02*
X167435000Y-102646000D01*
%TO.C,SW27*%
X105248890Y-33183927D02*
X106185890Y-32246927D01*
X106185890Y-32246927D02*
X108932890Y-32246927D01*
X106185890Y-37038927D02*
X105164890Y-36017927D01*
X108832890Y-37038927D02*
X106185890Y-37038927D01*
X108932890Y-32246927D02*
X109335890Y-32326927D01*
X109335890Y-32326927D02*
X109677890Y-32555927D01*
X109394890Y-37143927D02*
X108832890Y-37038927D01*
X109677890Y-32555927D02*
X110210890Y-33088927D01*
X109873890Y-37442927D02*
X109394890Y-37143927D01*
X110210890Y-33088927D02*
X110210890Y-33310927D01*
X110210890Y-33310927D02*
X110297890Y-33748927D01*
X110211890Y-37895927D02*
X109873890Y-37442927D01*
X110297890Y-33748927D02*
X110541890Y-34115927D01*
X110365890Y-38453927D02*
X110211890Y-37895927D01*
X110447890Y-38751927D02*
X110365890Y-38453927D01*
X110541890Y-34115927D02*
X110908890Y-34359927D01*
X110640890Y-39009927D02*
X110447890Y-38751927D01*
X110908890Y-34359927D02*
X111346890Y-34446927D01*
X110914890Y-39179927D02*
X110640890Y-39009927D01*
X111224890Y-39238927D02*
X110914890Y-39179927D01*
X111346890Y-34446927D02*
X114146890Y-34446927D01*
X114146890Y-34446927D02*
X114473890Y-34511927D01*
X114473890Y-34511927D02*
X114756890Y-34700927D01*
X114756890Y-34700927D02*
X114945890Y-34983927D01*
X114945890Y-34983927D02*
X115030890Y-35410927D01*
X114947890Y-38296927D02*
X115310890Y-38296927D01*
X115310890Y-38296927D02*
X115310890Y-39238927D01*
X115310890Y-39238927D02*
X111224890Y-39238927D01*
%TO.C,SW5*%
X176959000Y-41091000D02*
X177896000Y-40154000D01*
X177896000Y-40154000D02*
X180643000Y-40154000D01*
X177896000Y-44946000D02*
X176875000Y-43925000D01*
X180543000Y-44946000D02*
X177896000Y-44946000D01*
X180643000Y-40154000D02*
X181046000Y-40234000D01*
X181046000Y-40234000D02*
X181388000Y-40463000D01*
X181105000Y-45051000D02*
X180543000Y-44946000D01*
X181388000Y-40463000D02*
X181921000Y-40996000D01*
X181584000Y-45350000D02*
X181105000Y-45051000D01*
X181921000Y-40996000D02*
X181921000Y-41218000D01*
X181921000Y-41218000D02*
X182008000Y-41656000D01*
X181922000Y-45803000D02*
X181584000Y-45350000D01*
X182008000Y-41656000D02*
X182252000Y-42023000D01*
X182076000Y-46361000D02*
X181922000Y-45803000D01*
X182158000Y-46659000D02*
X182076000Y-46361000D01*
X182252000Y-42023000D02*
X182619000Y-42267000D01*
X182351000Y-46917000D02*
X182158000Y-46659000D01*
X182619000Y-42267000D02*
X183057000Y-42354000D01*
X182625000Y-47087000D02*
X182351000Y-46917000D01*
X182935000Y-47146000D02*
X182625000Y-47087000D01*
X183057000Y-42354000D02*
X185857000Y-42354000D01*
X185857000Y-42354000D02*
X186184000Y-42419000D01*
X186184000Y-42419000D02*
X186467000Y-42608000D01*
X186467000Y-42608000D02*
X186656000Y-42891000D01*
X186656000Y-42891000D02*
X186741000Y-43318000D01*
X186658000Y-46204000D02*
X187021000Y-46204000D01*
X187021000Y-46204000D02*
X187021000Y-47146000D01*
X187021000Y-47146000D02*
X182935000Y-47146000D01*
%TO.C,SW8*%
X176959000Y-87685285D02*
X177896000Y-86748285D01*
X177896000Y-86748285D02*
X180643000Y-86748285D01*
X177896000Y-91540285D02*
X176875000Y-90519285D01*
X180543000Y-91540285D02*
X177896000Y-91540285D01*
X180643000Y-86748285D02*
X181046000Y-86828285D01*
X181046000Y-86828285D02*
X181388000Y-87057285D01*
X181105000Y-91645285D02*
X180543000Y-91540285D01*
X181388000Y-87057285D02*
X181921000Y-87590285D01*
X181584000Y-91944285D02*
X181105000Y-91645285D01*
X181921000Y-87590285D02*
X181921000Y-87812285D01*
X181921000Y-87812285D02*
X182008000Y-88250285D01*
X181922000Y-92397285D02*
X181584000Y-91944285D01*
X182008000Y-88250285D02*
X182252000Y-88617285D01*
X182076000Y-92955285D02*
X181922000Y-92397285D01*
X182158000Y-93253285D02*
X182076000Y-92955285D01*
X182252000Y-88617285D02*
X182619000Y-88861285D01*
X182351000Y-93511285D02*
X182158000Y-93253285D01*
X182619000Y-88861285D02*
X183057000Y-88948285D01*
X182625000Y-93681285D02*
X182351000Y-93511285D01*
X182935000Y-93740285D02*
X182625000Y-93681285D01*
X183057000Y-88948285D02*
X185857000Y-88948285D01*
X185857000Y-88948285D02*
X186184000Y-89013285D01*
X186184000Y-89013285D02*
X186467000Y-89202285D01*
X186467000Y-89202285D02*
X186656000Y-89485285D01*
X186656000Y-89485285D02*
X186741000Y-89912285D01*
X186658000Y-92798285D02*
X187021000Y-92798285D01*
X187021000Y-92798285D02*
X187021000Y-93740285D01*
X187021000Y-93740285D02*
X182935000Y-93740285D01*
%TO.C,SW34*%
X89709000Y-70651000D02*
X90646000Y-69714000D01*
X90646000Y-69714000D02*
X93393000Y-69714000D01*
X90646000Y-74506000D02*
X89625000Y-73485000D01*
X93293000Y-74506000D02*
X90646000Y-74506000D01*
X93393000Y-69714000D02*
X93796000Y-69794000D01*
X93796000Y-69794000D02*
X94138000Y-70023000D01*
X93855000Y-74611000D02*
X93293000Y-74506000D01*
X94138000Y-70023000D02*
X94671000Y-70556000D01*
X94334000Y-74910000D02*
X93855000Y-74611000D01*
X94671000Y-70556000D02*
X94671000Y-70778000D01*
X94671000Y-70778000D02*
X94758000Y-71216000D01*
X94672000Y-75363000D02*
X94334000Y-74910000D01*
X94758000Y-71216000D02*
X95002000Y-71583000D01*
X94826000Y-75921000D02*
X94672000Y-75363000D01*
X94908000Y-76219000D02*
X94826000Y-75921000D01*
X95002000Y-71583000D02*
X95369000Y-71827000D01*
X95101000Y-76477000D02*
X94908000Y-76219000D01*
X95369000Y-71827000D02*
X95807000Y-71914000D01*
X95375000Y-76647000D02*
X95101000Y-76477000D01*
X95685000Y-76706000D02*
X95375000Y-76647000D01*
X95807000Y-71914000D02*
X98607000Y-71914000D01*
X98607000Y-71914000D02*
X98934000Y-71979000D01*
X98934000Y-71979000D02*
X99217000Y-72168000D01*
X99217000Y-72168000D02*
X99406000Y-72451000D01*
X99406000Y-72451000D02*
X99491000Y-72878000D01*
X99408000Y-75764000D02*
X99771000Y-75764000D01*
X99771000Y-75764000D02*
X99771000Y-76706000D01*
X99771000Y-76706000D02*
X95685000Y-76706000D01*
%TO.C,SW14*%
X207974000Y-39591000D02*
X208911000Y-38654000D01*
X208911000Y-38654000D02*
X211658000Y-38654000D01*
X208911000Y-43446000D02*
X207890000Y-42425000D01*
X211558000Y-43446000D02*
X208911000Y-43446000D01*
X211658000Y-38654000D02*
X212061000Y-38734000D01*
X212061000Y-38734000D02*
X212403000Y-38963000D01*
X212120000Y-43551000D02*
X211558000Y-43446000D01*
X212403000Y-38963000D02*
X212936000Y-39496000D01*
X212599000Y-43850000D02*
X212120000Y-43551000D01*
X212936000Y-39496000D02*
X212936000Y-39718000D01*
X212936000Y-39718000D02*
X213023000Y-40156000D01*
X212937000Y-44303000D02*
X212599000Y-43850000D01*
X213023000Y-40156000D02*
X213267000Y-40523000D01*
X213091000Y-44861000D02*
X212937000Y-44303000D01*
X213173000Y-45159000D02*
X213091000Y-44861000D01*
X213267000Y-40523000D02*
X213634000Y-40767000D01*
X213366000Y-45417000D02*
X213173000Y-45159000D01*
X213634000Y-40767000D02*
X214072000Y-40854000D01*
X213640000Y-45587000D02*
X213366000Y-45417000D01*
X213950000Y-45646000D02*
X213640000Y-45587000D01*
X214072000Y-40854000D02*
X216872000Y-40854000D01*
X216872000Y-40854000D02*
X217199000Y-40919000D01*
X217199000Y-40919000D02*
X217482000Y-41108000D01*
X217482000Y-41108000D02*
X217671000Y-41391000D01*
X217671000Y-41391000D02*
X217756000Y-41818000D01*
X217673000Y-44704000D02*
X218036000Y-44704000D01*
X218036000Y-44704000D02*
X218036000Y-45646000D01*
X218036000Y-45646000D02*
X213950000Y-45646000D01*
%TO.C,SW9*%
X192459000Y-33141000D02*
X193396000Y-32204000D01*
X193396000Y-32204000D02*
X196143000Y-32204000D01*
X193396000Y-36996000D02*
X192375000Y-35975000D01*
X196043000Y-36996000D02*
X193396000Y-36996000D01*
X196143000Y-32204000D02*
X196546000Y-32284000D01*
X196546000Y-32284000D02*
X196888000Y-32513000D01*
X196605000Y-37101000D02*
X196043000Y-36996000D01*
X196888000Y-32513000D02*
X197421000Y-33046000D01*
X197084000Y-37400000D02*
X196605000Y-37101000D01*
X197421000Y-33046000D02*
X197421000Y-33268000D01*
X197421000Y-33268000D02*
X197508000Y-33706000D01*
X197422000Y-37853000D02*
X197084000Y-37400000D01*
X197508000Y-33706000D02*
X197752000Y-34073000D01*
X197576000Y-38411000D02*
X197422000Y-37853000D01*
X197658000Y-38709000D02*
X197576000Y-38411000D01*
X197752000Y-34073000D02*
X198119000Y-34317000D01*
X197851000Y-38967000D02*
X197658000Y-38709000D01*
X198119000Y-34317000D02*
X198557000Y-34404000D01*
X198125000Y-39137000D02*
X197851000Y-38967000D01*
X198435000Y-39196000D02*
X198125000Y-39137000D01*
X198557000Y-34404000D02*
X201357000Y-34404000D01*
X201357000Y-34404000D02*
X201684000Y-34469000D01*
X201684000Y-34469000D02*
X201967000Y-34658000D01*
X201967000Y-34658000D02*
X202156000Y-34941000D01*
X202156000Y-34941000D02*
X202241000Y-35368000D01*
X202158000Y-38254000D02*
X202521000Y-38254000D01*
X202521000Y-38254000D02*
X202521000Y-39196000D01*
X202521000Y-39196000D02*
X198435000Y-39196000D01*
%TO.C,SW36*%
X70148733Y-101368762D02*
X70811292Y-100221176D01*
X70811292Y-100221176D02*
X73464690Y-99510201D01*
X72051553Y-104849893D02*
X70801088Y-104127937D01*
X73464690Y-99510201D02*
X73874664Y-99483170D01*
X73874664Y-99483170D02*
X74264280Y-99615851D01*
X74264280Y-99615851D02*
X74917069Y-99992739D01*
X74608358Y-104164799D02*
X72051553Y-104849893D01*
X74917069Y-99992739D02*
X74974527Y-100207175D01*
X74974527Y-100207175D02*
X75171925Y-100607733D01*
X75171925Y-100607733D02*
X75502598Y-100899076D01*
X75178385Y-104120765D02*
X74608358Y-104164799D01*
X75502598Y-100899076D02*
X75920244Y-101039775D01*
X75718450Y-104285602D02*
X75178385Y-104120765D01*
X75920244Y-101039775D02*
X76365837Y-101010448D01*
X76162178Y-104635686D02*
X75718450Y-104285602D01*
X76365837Y-101010448D02*
X79070429Y-100285755D01*
X76455352Y-105134814D02*
X76162178Y-104635686D01*
X76611686Y-105401437D02*
X76455352Y-105134814D01*
X76864885Y-105600694D02*
X76611686Y-105401437D01*
X77173548Y-105693985D02*
X76864885Y-105600694D01*
X77488255Y-105670741D02*
X77173548Y-105693985D01*
X79070429Y-100285755D02*
X79403110Y-100263906D01*
X79403110Y-100263906D02*
X79725384Y-100373220D01*
X79725384Y-100373220D02*
X79981190Y-100597661D01*
X79981190Y-100597661D02*
X80173809Y-100988111D01*
X80840589Y-103797255D02*
X81191220Y-103703304D01*
X81191220Y-103703304D02*
X81435028Y-104613206D01*
X81435028Y-104613206D02*
X77488255Y-105670741D01*
%TO.C,SW33*%
X89710236Y-55142007D02*
X90647236Y-54205007D01*
X90647236Y-54205007D02*
X93394236Y-54205007D01*
X90647236Y-58997007D02*
X89626236Y-57976007D01*
X93294236Y-58997007D02*
X90647236Y-58997007D01*
X93394236Y-54205007D02*
X93797236Y-54285007D01*
X93797236Y-54285007D02*
X94139236Y-54514007D01*
X93856236Y-59102007D02*
X93294236Y-58997007D01*
X94139236Y-54514007D02*
X94672236Y-55047007D01*
X94335236Y-59401007D02*
X93856236Y-59102007D01*
X94672236Y-55047007D02*
X94672236Y-55269007D01*
X94672236Y-55269007D02*
X94759236Y-55707007D01*
X94673236Y-59854007D02*
X94335236Y-59401007D01*
X94759236Y-55707007D02*
X95003236Y-56074007D01*
X94827236Y-60412007D02*
X94673236Y-59854007D01*
X94909236Y-60710007D02*
X94827236Y-60412007D01*
X95003236Y-56074007D02*
X95370236Y-56318007D01*
X95102236Y-60968007D02*
X94909236Y-60710007D01*
X95370236Y-56318007D02*
X95808236Y-56405007D01*
X95376236Y-61138007D02*
X95102236Y-60968007D01*
X95686236Y-61197007D02*
X95376236Y-61138007D01*
X95808236Y-56405007D02*
X98608236Y-56405007D01*
X98608236Y-56405007D02*
X98935236Y-56470007D01*
X98935236Y-56470007D02*
X99218236Y-56659007D01*
X99218236Y-56659007D02*
X99407236Y-56942007D01*
X99407236Y-56942007D02*
X99492236Y-57369007D01*
X99409236Y-60255007D02*
X99772236Y-60255007D01*
X99772236Y-60255007D02*
X99772236Y-61197007D01*
X99772236Y-61197007D02*
X95686236Y-61197007D01*
%TO.C,SW20*%
X136259522Y-65673816D02*
X137196522Y-64736816D01*
X137196522Y-64736816D02*
X139943522Y-64736816D01*
X137196522Y-69528816D02*
X136175522Y-68507816D01*
X139843522Y-69528816D02*
X137196522Y-69528816D01*
X139943522Y-64736816D02*
X140346522Y-64816816D01*
X140346522Y-64816816D02*
X140688522Y-65045816D01*
X140405522Y-69633816D02*
X139843522Y-69528816D01*
X140688522Y-65045816D02*
X141221522Y-65578816D01*
X140884522Y-69932816D02*
X140405522Y-69633816D01*
X141221522Y-65578816D02*
X141221522Y-65800816D01*
X141221522Y-65800816D02*
X141308522Y-66238816D01*
X141222522Y-70385816D02*
X140884522Y-69932816D01*
X141308522Y-66238816D02*
X141552522Y-66605816D01*
X141376522Y-70943816D02*
X141222522Y-70385816D01*
X141458522Y-71241816D02*
X141376522Y-70943816D01*
X141552522Y-66605816D02*
X141919522Y-66849816D01*
X141651522Y-71499816D02*
X141458522Y-71241816D01*
X141919522Y-66849816D02*
X142357522Y-66936816D01*
X141925522Y-71669816D02*
X141651522Y-71499816D01*
X142235522Y-71728816D02*
X141925522Y-71669816D01*
X142357522Y-66936816D02*
X145157522Y-66936816D01*
X145157522Y-66936816D02*
X145484522Y-67001816D01*
X145484522Y-67001816D02*
X145767522Y-67190816D01*
X145767522Y-67190816D02*
X145956522Y-67473816D01*
X145956522Y-67473816D02*
X146041522Y-67900816D01*
X145958522Y-70786816D02*
X146321522Y-70786816D01*
X146321522Y-70786816D02*
X146321522Y-71728816D01*
X146321522Y-71728816D02*
X142235522Y-71728816D01*
%TO.C,D6*%
X186600000Y-68610000D02*
X186600000Y-64600000D01*
X188600000Y-68610000D02*
X186600000Y-68610000D01*
X188600000Y-68610000D02*
X188600000Y-64600000D01*
%TO.C,D20*%
X145180000Y-78337500D02*
X145180000Y-74327500D01*
X147180000Y-78337500D02*
X145180000Y-78337500D01*
X147180000Y-78337500D02*
X147180000Y-74327500D01*
%TO.C,Bat  -*%
X71550000Y-86900000D02*
G75*
G02*
X69150000Y-86900000I-1200000J0D01*
G01*
X69150000Y-86900000D02*
G75*
G02*
X71550000Y-86900000I1200000J0D01*
G01*
%TO.C,D26*%
X130375000Y-98735000D02*
X130375000Y-94725000D01*
X132375000Y-98735000D02*
X130375000Y-98735000D01*
X132375000Y-98735000D02*
X132375000Y-94725000D01*
%TO.C,D1*%
X171350000Y-61360000D02*
X171350000Y-57350000D01*
X173350000Y-61360000D02*
X171350000Y-61360000D01*
X173350000Y-61360000D02*
X173350000Y-57350000D01*
%TO.C,D31*%
X58025000Y-102415000D02*
X58025000Y-106425000D01*
X58025000Y-102415000D02*
X60025000Y-102415000D01*
X60025000Y-102415000D02*
X60025000Y-106425000D01*
%TO.C,D33*%
X99305000Y-66450000D02*
X99305000Y-62440000D01*
X101305000Y-66450000D02*
X99305000Y-66450000D01*
X101305000Y-66450000D02*
X101305000Y-62440000D01*
%TO.C,D27*%
X115770000Y-43850000D02*
X115770000Y-39840000D01*
X117770000Y-43850000D02*
X115770000Y-43850000D01*
X117770000Y-43850000D02*
X117770000Y-39840000D01*
%TO.C,D12*%
X201600000Y-91210000D02*
X201600000Y-87200000D01*
X203600000Y-91210000D02*
X201600000Y-91210000D01*
X203600000Y-91210000D02*
X203600000Y-87200000D01*
%TO.C,D25*%
X130250000Y-83385000D02*
X130250000Y-79375000D01*
X132250000Y-83385000D02*
X130250000Y-83385000D01*
X132250000Y-83385000D02*
X132250000Y-79375000D01*
%TO.C,D3*%
X171950000Y-91110000D02*
X171950000Y-87100000D01*
X173950000Y-91110000D02*
X171950000Y-91110000D01*
X173950000Y-91110000D02*
X173950000Y-87100000D01*
%TO.C,D4*%
X171922439Y-106560000D02*
X171922439Y-102550000D01*
X173922439Y-106560000D02*
X171922439Y-106560000D01*
X173922439Y-106560000D02*
X173922439Y-102550000D01*
%TO.C,D36*%
X80700000Y-95390000D02*
X80700000Y-99400000D01*
X80700000Y-95390000D02*
X82700000Y-95390000D01*
X82700000Y-95390000D02*
X82700000Y-99400000D01*
%TO.C,D19*%
X144940000Y-63620000D02*
X144940000Y-59610000D01*
X146940000Y-63620000D02*
X144940000Y-63620000D01*
X146940000Y-63620000D02*
X146940000Y-59610000D01*
%TO.C,D15*%
X216573324Y-69134651D02*
X216573324Y-65124651D01*
X218573324Y-69134651D02*
X216573324Y-69134651D01*
X218573324Y-69134651D02*
X218573324Y-65124651D01*
%TO.C,D30*%
X115780000Y-90220000D02*
X115780000Y-86210000D01*
X117780000Y-90220000D02*
X115780000Y-90220000D01*
X117780000Y-90220000D02*
X117780000Y-86210000D01*
D13*
%TO.C,G\u002A\u002A\u002A*%
G36*
X137932451Y-69628754D02*
G01*
X138143171Y-69737042D01*
X138215992Y-69867434D01*
X138266910Y-70168532D01*
X138249114Y-70512821D01*
X138160985Y-70803381D01*
X138151661Y-70819616D01*
X137947656Y-70976582D01*
X137673153Y-71001303D01*
X137429809Y-70882744D01*
X137397962Y-70840136D01*
X137323802Y-70591837D01*
X137304389Y-70260239D01*
X137339725Y-69942816D01*
X137429809Y-69737042D01*
X137538454Y-69665872D01*
X137786490Y-69607340D01*
X137932451Y-69628754D01*
G37*
G36*
X122872302Y-58872350D02*
G01*
X122924788Y-59206160D01*
X122923416Y-59267636D01*
X122880160Y-59562729D01*
X122795086Y-59749978D01*
X122737669Y-59820092D01*
X122744846Y-59879680D01*
X122767796Y-59932686D01*
X122705128Y-60102371D01*
X122591260Y-60233342D01*
X122404091Y-60290469D01*
X122295117Y-60220853D01*
X122226506Y-60024029D01*
X122190448Y-59656502D01*
X122188150Y-59610651D01*
X122189285Y-59249819D01*
X122246238Y-59023607D01*
X122375572Y-58860827D01*
X122509009Y-58761564D01*
X122727421Y-58720197D01*
X122872302Y-58872350D01*
G37*
G36*
X131315459Y-62646937D02*
G01*
X131395245Y-62743935D01*
X131418949Y-62857557D01*
X131530352Y-63065219D01*
X131545349Y-63088736D01*
X131632361Y-63336613D01*
X131676202Y-63654434D01*
X131670185Y-63949979D01*
X131607625Y-64131027D01*
X131552446Y-64166007D01*
X131315531Y-64199428D01*
X131025936Y-64158308D01*
X130787980Y-64052625D01*
X130671394Y-63936723D01*
X130616083Y-63695201D01*
X130764396Y-63398809D01*
X130867934Y-63186094D01*
X130923086Y-62877887D01*
X130928203Y-62751656D01*
X130991224Y-62611845D01*
X131166278Y-62601311D01*
X131315459Y-62646937D01*
G37*
G36*
X129879943Y-75382550D02*
G01*
X129886486Y-75385513D01*
X130186822Y-75503466D01*
X130434469Y-75572749D01*
X130608295Y-75678085D01*
X130755247Y-75931368D01*
X130755840Y-75933153D01*
X130866113Y-76190408D01*
X131051030Y-76552326D01*
X131270885Y-76941152D01*
X131539277Y-77469650D01*
X131682598Y-78010421D01*
X131638946Y-78476156D01*
X131409469Y-78882947D01*
X131376692Y-78923976D01*
X131207983Y-79216873D01*
X131139256Y-79485708D01*
X131126309Y-79606156D01*
X131012147Y-79753693D01*
X130802175Y-79729295D01*
X130523302Y-79530984D01*
X130452368Y-79467437D01*
X130275378Y-79366722D01*
X130143442Y-79422899D01*
X130047512Y-79500325D01*
X129871482Y-79538275D01*
X129632076Y-79453810D01*
X129280207Y-79236321D01*
X129203032Y-79182588D01*
X128784528Y-78803619D01*
X128522654Y-78353996D01*
X128376840Y-77767765D01*
X128314040Y-77191196D01*
X128320908Y-76477487D01*
X128437770Y-75915436D01*
X128658366Y-75514981D01*
X128976435Y-75286058D01*
X129385714Y-75238602D01*
X129879943Y-75382550D01*
G37*
G36*
X125178551Y-49113664D02*
G01*
X125323328Y-49138399D01*
X125769604Y-49271353D01*
X126163787Y-49464783D01*
X126451953Y-49688035D01*
X126580178Y-49910453D01*
X126582415Y-49996055D01*
X126488662Y-50134333D01*
X126283079Y-50132242D01*
X126008553Y-49984244D01*
X125804728Y-49859814D01*
X125420965Y-49719976D01*
X125041866Y-49668883D01*
X124753498Y-49724356D01*
X124494449Y-49954651D01*
X124284701Y-50389925D01*
X124159028Y-51016617D01*
X124116098Y-51839146D01*
X124119739Y-52344229D01*
X124141887Y-52710639D01*
X124195161Y-52990623D01*
X124292155Y-53249717D01*
X124445458Y-53553457D01*
X124544777Y-53745179D01*
X124681970Y-54069184D01*
X124727689Y-54333963D01*
X124701700Y-54621938D01*
X124692965Y-54669395D01*
X124579520Y-55076141D01*
X124424207Y-55445657D01*
X124409188Y-55474307D01*
X124255238Y-55835264D01*
X124154848Y-56181593D01*
X124121498Y-56326651D01*
X124027091Y-56486959D01*
X123858520Y-56507819D01*
X123699184Y-56451294D01*
X123607651Y-56278902D01*
X123653371Y-55977703D01*
X123835895Y-55528231D01*
X124019681Y-55118144D01*
X124148629Y-54725438D01*
X124170991Y-54396982D01*
X124089291Y-54065768D01*
X123906051Y-53664786D01*
X123794453Y-53437618D01*
X123677636Y-53145844D01*
X123611515Y-52853977D01*
X123581917Y-52490041D01*
X123574668Y-51982063D01*
X123577119Y-51720876D01*
X123629848Y-50961666D01*
X123759735Y-50358672D01*
X123977975Y-49872815D01*
X124295765Y-49465014D01*
X124481850Y-49280415D01*
X124683546Y-49131927D01*
X124887333Y-49087665D01*
X125178551Y-49113664D01*
G37*
G36*
X112899895Y-70868891D02*
G01*
X112905227Y-70874093D01*
X113046968Y-71111776D01*
X113088462Y-71385694D01*
X113027816Y-71552871D01*
X113013471Y-71592416D01*
X112993361Y-71633700D01*
X112982607Y-71714999D01*
X112965215Y-71846476D01*
X112967940Y-72156515D01*
X112934291Y-72542998D01*
X112764789Y-72956440D01*
X112489017Y-73267654D01*
X112143272Y-73420989D01*
X111488911Y-73478047D01*
X110511380Y-73427106D01*
X110148268Y-73361458D01*
X109844948Y-73223764D01*
X109551340Y-72968683D01*
X109440867Y-72848576D01*
X109189949Y-72522977D01*
X109021558Y-72231875D01*
X108972772Y-72081630D01*
X108909355Y-71714999D01*
X109414150Y-71714999D01*
X109468192Y-71769042D01*
X109522235Y-71714999D01*
X109468192Y-71660957D01*
X109414150Y-71714999D01*
X108909355Y-71714999D01*
X108905647Y-71693564D01*
X108875105Y-71245700D01*
X108875527Y-71228616D01*
X112119588Y-71228616D01*
X112131417Y-71321527D01*
X112224363Y-71552871D01*
X112242009Y-71579901D01*
X112314446Y-71660471D01*
X112329138Y-71552871D01*
X112317309Y-71459960D01*
X112224363Y-71228616D01*
X112206717Y-71201586D01*
X112134279Y-71121016D01*
X112119588Y-71228616D01*
X108875527Y-71228616D01*
X108885420Y-70828119D01*
X108940865Y-70530905D01*
X108945792Y-70523890D01*
X111490860Y-70523890D01*
X111503795Y-70652162D01*
X111536305Y-70669072D01*
X111575852Y-70580105D01*
X111568052Y-70522886D01*
X111503795Y-70508049D01*
X111490860Y-70523890D01*
X108945792Y-70523890D01*
X109077694Y-70336083D01*
X109397195Y-70167286D01*
X109895311Y-70074553D01*
X110585267Y-70054051D01*
X110776144Y-70056106D01*
X111192157Y-70050127D01*
X111505017Y-70031002D01*
X111658281Y-70001494D01*
X111710120Y-69998512D01*
X111910708Y-70089135D01*
X112204253Y-70284238D01*
X112548176Y-70554072D01*
X112577260Y-70580105D01*
X112899895Y-70868891D01*
G37*
G36*
X137226651Y-47816643D02*
G01*
X137234012Y-47817332D01*
X137633662Y-47869411D01*
X137955787Y-47937606D01*
X138131261Y-48007344D01*
X138142900Y-48015645D01*
X138339151Y-48084881D01*
X138676857Y-48153281D01*
X139090293Y-48207152D01*
X139183198Y-48217465D01*
X139722131Y-48319082D01*
X140256554Y-48480469D01*
X140744781Y-48682225D01*
X141145127Y-48904952D01*
X141415904Y-49129251D01*
X141515426Y-49335722D01*
X141514199Y-49372012D01*
X141430127Y-49589405D01*
X141260469Y-49656466D01*
X141070756Y-49542696D01*
X140999489Y-49468952D01*
X140660984Y-49237687D01*
X140200721Y-49026215D01*
X139689559Y-48863462D01*
X139198360Y-48778355D01*
X138777350Y-48718750D01*
X138248670Y-48603412D01*
X137750102Y-48459893D01*
X137543189Y-48391246D01*
X137209309Y-48291309D01*
X136994718Y-48257393D01*
X136841640Y-48284446D01*
X136692297Y-48367419D01*
X136491635Y-48532346D01*
X136150062Y-48917421D01*
X135784808Y-49425283D01*
X135425119Y-50007470D01*
X135100241Y-50615518D01*
X134839423Y-51200962D01*
X134671909Y-51715339D01*
X134641834Y-51876472D01*
X134593448Y-52270199D01*
X134551321Y-52766641D01*
X134522102Y-53295657D01*
X134513924Y-53516779D01*
X134506406Y-53975463D01*
X134526650Y-54342017D01*
X134585439Y-54690527D01*
X134693554Y-55095080D01*
X134861775Y-55629762D01*
X134995627Y-56061589D01*
X135125607Y-56523432D01*
X135213923Y-56888545D01*
X135246490Y-57103003D01*
X135240595Y-57165710D01*
X135131418Y-57453237D01*
X134922235Y-57755507D01*
X134828538Y-57865406D01*
X134663370Y-58080042D01*
X134597980Y-58199155D01*
X134565633Y-58276807D01*
X134438048Y-58491729D01*
X134246703Y-58779355D01*
X134101781Y-58989963D01*
X133907869Y-59278010D01*
X133787341Y-59465109D01*
X133754663Y-59519528D01*
X133433570Y-60059367D01*
X133210612Y-60447530D01*
X133070406Y-60712991D01*
X132997564Y-60884724D01*
X132976703Y-60991702D01*
X132962742Y-61071042D01*
X132841597Y-61213204D01*
X132798844Y-61229062D01*
X132529674Y-61276058D01*
X132310587Y-61241517D01*
X132220107Y-61135282D01*
X132224607Y-61104732D01*
X132319744Y-60881945D01*
X132534745Y-60493946D01*
X132864694Y-59948921D01*
X133304680Y-59255054D01*
X133849788Y-58420531D01*
X133956071Y-58260016D01*
X134269114Y-57785302D01*
X134482476Y-57435979D01*
X134607144Y-57166318D01*
X134654104Y-56930590D01*
X134634344Y-56683068D01*
X134558848Y-56378022D01*
X134438605Y-55969724D01*
X134366454Y-55725372D01*
X134231776Y-55281237D01*
X134118879Y-54923767D01*
X134046661Y-54713530D01*
X133998756Y-54491473D01*
X133966483Y-54093197D01*
X133957253Y-53601134D01*
X133970635Y-53079625D01*
X134006197Y-52593012D01*
X134063507Y-52205637D01*
X134088928Y-52086989D01*
X134165502Y-51724847D01*
X134222461Y-51449042D01*
X134323711Y-51097257D01*
X134497178Y-50641982D01*
X134708076Y-50164822D01*
X134922703Y-49741932D01*
X135107359Y-49449467D01*
X135128140Y-49423030D01*
X135335367Y-49161268D01*
X135615571Y-48809318D01*
X135914285Y-48435613D01*
X136466720Y-47746015D01*
X137226651Y-47816643D01*
G37*
G36*
X141524620Y-59434484D02*
G01*
X141523138Y-59981386D01*
X141522075Y-60373907D01*
X141650745Y-61445053D01*
X141911236Y-62636608D01*
X141952801Y-62796944D01*
X142096900Y-63376723D01*
X142219804Y-63906995D01*
X142309593Y-64334751D01*
X142354347Y-64606984D01*
X142358362Y-64646958D01*
X142367579Y-64926397D01*
X142304802Y-65074275D01*
X142142222Y-65163559D01*
X142048593Y-65215384D01*
X141812400Y-65426233D01*
X141584117Y-65713527D01*
X141483274Y-65851509D01*
X141224911Y-66125410D01*
X140985541Y-66291845D01*
X140893660Y-66346597D01*
X140644164Y-66556173D01*
X140331307Y-66864395D01*
X139998863Y-67223134D01*
X139690605Y-67584262D01*
X139450308Y-67899650D01*
X139321746Y-68121169D01*
X139284615Y-68199475D01*
X139132640Y-68303063D01*
X138945990Y-68219584D01*
X138759362Y-67959042D01*
X138581507Y-67607765D01*
X139210807Y-67048690D01*
X139427950Y-66855770D01*
X139646291Y-66659720D01*
X139827230Y-66490963D01*
X140007919Y-66312594D01*
X140225505Y-66087708D01*
X140517140Y-65779399D01*
X140919973Y-65350761D01*
X141090653Y-65168589D01*
X141381464Y-64849751D01*
X141550432Y-64639067D01*
X141616972Y-64503339D01*
X141600497Y-64409367D01*
X141520422Y-64323952D01*
X141415426Y-64201236D01*
X141308319Y-63997033D01*
X141189864Y-63681042D01*
X141047745Y-63220291D01*
X140869643Y-62581808D01*
X140832777Y-62453032D01*
X140720008Y-62116258D01*
X140618223Y-61879254D01*
X140611089Y-61863963D01*
X140564105Y-61649723D01*
X140521354Y-61274832D01*
X140487296Y-60787566D01*
X140466392Y-60236202D01*
X140462137Y-60048186D01*
X140866916Y-60048186D01*
X140879682Y-60382866D01*
X140918394Y-60645186D01*
X140975001Y-60744361D01*
X140975711Y-60744346D01*
X141030879Y-60642085D01*
X141068913Y-60371935D01*
X141083086Y-59981386D01*
X141072091Y-59603139D01*
X141035152Y-59345945D01*
X140975001Y-59285212D01*
X140923280Y-59402619D01*
X140882529Y-59679225D01*
X140866916Y-60048186D01*
X140462137Y-60048186D01*
X140439977Y-59069042D01*
X140975001Y-59069042D01*
X141029043Y-59123084D01*
X141083086Y-59069042D01*
X141029043Y-59014999D01*
X140975001Y-59069042D01*
X140439977Y-59069042D01*
X140434099Y-58809320D01*
X141109869Y-57915334D01*
X141329682Y-57629450D01*
X141659955Y-57243166D01*
X141963626Y-56984160D01*
X142288684Y-56833941D01*
X142683119Y-56774021D01*
X143194920Y-56785910D01*
X143872078Y-56851119D01*
X145136278Y-56990775D01*
X146088774Y-57945031D01*
X146391388Y-58250161D01*
X146691588Y-58565852D01*
X146878908Y-58793327D01*
X146977738Y-58968782D01*
X147012471Y-59128414D01*
X147007498Y-59308420D01*
X146994921Y-59411648D01*
X146896177Y-59668085D01*
X146734437Y-59731905D01*
X146535566Y-59603987D01*
X146325424Y-59285212D01*
X146263939Y-59162763D01*
X146142218Y-58923139D01*
X146080905Y-58806719D01*
X146030532Y-58822216D01*
X145908153Y-58958338D01*
X145851653Y-59023924D01*
X145687749Y-59089231D01*
X145563709Y-58970139D01*
X145514575Y-58690494D01*
X145514548Y-58683173D01*
X145480830Y-58476455D01*
X145362612Y-58299000D01*
X145129200Y-58128149D01*
X144749901Y-57941243D01*
X144194020Y-57715624D01*
X143522256Y-57494476D01*
X142939522Y-57398348D01*
X142494810Y-57449907D01*
X142178137Y-57648820D01*
X141920936Y-57996063D01*
X141657776Y-58638098D01*
X141585722Y-59069042D01*
X141524620Y-59434484D01*
G37*
G36*
X110804784Y-65886919D02*
G01*
X111864572Y-66126361D01*
X112854871Y-66567145D01*
X113790640Y-67214093D01*
X113912820Y-67315741D01*
X114476702Y-67830856D01*
X114908722Y-68332296D01*
X115261423Y-68888949D01*
X115587349Y-69569703D01*
X115713300Y-69866040D01*
X115814063Y-70132824D01*
X115881696Y-70382874D01*
X115922809Y-70662768D01*
X115944013Y-71019090D01*
X115951916Y-71498420D01*
X115953131Y-72147340D01*
X115952672Y-72359523D01*
X115939329Y-73131034D01*
X115904740Y-73747900D01*
X115845143Y-74259287D01*
X115756777Y-74714361D01*
X115680773Y-75031001D01*
X115595918Y-75323709D01*
X115512375Y-75479331D01*
X115403680Y-75541044D01*
X115243373Y-75552020D01*
X115013239Y-75504696D01*
X114923394Y-75364424D01*
X115027758Y-75168318D01*
X115049893Y-75137476D01*
X115135665Y-74911887D01*
X115232724Y-74535707D01*
X115332147Y-74058482D01*
X115425010Y-73529755D01*
X115502389Y-72999072D01*
X115555361Y-72515978D01*
X115575001Y-72130017D01*
X115570447Y-71901066D01*
X115422174Y-70809742D01*
X115073843Y-69771880D01*
X114537927Y-68817127D01*
X113826899Y-67975130D01*
X113257623Y-67466080D01*
X112507783Y-66955288D01*
X111719821Y-66614782D01*
X110844584Y-66424753D01*
X109832918Y-66365389D01*
X109713597Y-66365608D01*
X109210024Y-66378819D01*
X108832717Y-66421377D01*
X108506850Y-66505743D01*
X108157599Y-66644379D01*
X107861580Y-66784730D01*
X107469625Y-66997034D01*
X107178596Y-67184804D01*
X107109978Y-67235361D01*
X106877343Y-67385304D01*
X106733000Y-67445637D01*
X106673429Y-67468851D01*
X106486390Y-67621250D01*
X106238642Y-67874747D01*
X105973395Y-68180892D01*
X105733856Y-68491233D01*
X105563236Y-68757319D01*
X105342828Y-69211411D01*
X105180160Y-69682642D01*
X105079046Y-70206233D01*
X105018414Y-70863653D01*
X105008916Y-71488890D01*
X105103017Y-72279317D01*
X105318445Y-72929733D01*
X105648981Y-73423396D01*
X106088404Y-73743567D01*
X106213030Y-73788931D01*
X106551922Y-73883304D01*
X107029987Y-73998266D01*
X107602620Y-74123292D01*
X108225214Y-74247853D01*
X108652270Y-74329871D01*
X109764608Y-74549218D01*
X110696495Y-74742975D01*
X111472655Y-74916596D01*
X112117816Y-75075535D01*
X112656703Y-75225245D01*
X113096872Y-75355537D01*
X113799977Y-75559667D01*
X114333709Y-75707691D01*
X114722145Y-75805891D01*
X114989363Y-75860544D01*
X115159439Y-75877931D01*
X115439342Y-75918850D01*
X115631081Y-76053439D01*
X115642575Y-76258286D01*
X115617781Y-76310381D01*
X115519491Y-76388113D01*
X115321304Y-76406412D01*
X114966949Y-76374999D01*
X114721401Y-76340067D01*
X114384346Y-76271671D01*
X114173415Y-76202415D01*
X113970701Y-76121788D01*
X113671377Y-76045686D01*
X113476802Y-76002561D01*
X113111908Y-75904739D01*
X112710746Y-75784109D01*
X112409885Y-75692108D01*
X111997605Y-75576275D01*
X111683937Y-75499673D01*
X111649373Y-75492520D01*
X111266243Y-75410964D01*
X110873299Y-75324466D01*
X110697442Y-75285616D01*
X110086377Y-75157407D01*
X109406649Y-75022390D01*
X108765639Y-74902085D01*
X108681239Y-74886442D01*
X108245276Y-74797392D01*
X107846916Y-74705538D01*
X107633067Y-74654615D01*
X107205181Y-74560684D01*
X106766065Y-74471415D01*
X106352081Y-74377632D01*
X105763754Y-74162088D01*
X105322502Y-73854282D01*
X104986572Y-73420778D01*
X104714212Y-72828137D01*
X104644798Y-72613309D01*
X104589480Y-72334044D01*
X104561066Y-71984875D01*
X104555973Y-71517246D01*
X104570618Y-70882605D01*
X104583880Y-70500117D01*
X104609622Y-70001834D01*
X104647403Y-69637415D01*
X104706030Y-69355322D01*
X104794308Y-69104020D01*
X104921044Y-68831973D01*
X105138234Y-68427587D01*
X105506904Y-67893330D01*
X105959745Y-67426522D01*
X106556883Y-66958294D01*
X107102489Y-66597997D01*
X107885348Y-66202589D01*
X108681731Y-65961089D01*
X109556904Y-65849372D01*
X109660546Y-65843996D01*
X110804784Y-65886919D01*
G37*
G36*
X112272705Y-56870364D02*
G01*
X112870642Y-56914372D01*
X113305214Y-56985317D01*
X113306351Y-56985603D01*
X113496341Y-57034997D01*
X113610126Y-57073914D01*
X113627767Y-57105676D01*
X113529321Y-57133604D01*
X113294848Y-57161023D01*
X112904406Y-57191253D01*
X112338055Y-57227617D01*
X111575852Y-57273438D01*
X111423437Y-57282734D01*
X110687006Y-57333307D01*
X109986364Y-57390013D01*
X109366540Y-57448661D01*
X108872565Y-57505062D01*
X108549469Y-57555025D01*
X108129503Y-57636696D01*
X107564420Y-57739650D01*
X107036278Y-57829682D01*
X106988056Y-57837584D01*
X106201608Y-57988027D01*
X105357095Y-58191719D01*
X104408297Y-58460781D01*
X103308998Y-58807337D01*
X103257964Y-58824013D01*
X102765076Y-58982747D01*
X102350842Y-59112138D01*
X102057427Y-59199256D01*
X101926998Y-59231169D01*
X101919702Y-59232001D01*
X101764192Y-59280392D01*
X101454041Y-59392161D01*
X101029208Y-59551734D01*
X100529652Y-59743538D01*
X99995331Y-59952000D01*
X99466206Y-60161547D01*
X98982233Y-60356607D01*
X98583373Y-60521605D01*
X98309583Y-60640970D01*
X98167167Y-60705214D01*
X97914137Y-60810764D01*
X97783433Y-60852446D01*
X97780767Y-60852620D01*
X97641225Y-60901144D01*
X97346694Y-61024029D01*
X96935232Y-61204184D01*
X96444893Y-61424521D01*
X95913733Y-61667950D01*
X95379809Y-61917382D01*
X94881175Y-62155728D01*
X94387170Y-62406522D01*
X93494103Y-62902003D01*
X92555697Y-63466144D01*
X91645420Y-64054156D01*
X90836744Y-64621252D01*
X90099760Y-65201111D01*
X89269252Y-65935558D01*
X88472586Y-66720895D01*
X87734161Y-67528752D01*
X87078380Y-68330759D01*
X86529644Y-69098546D01*
X86112354Y-69803742D01*
X85850912Y-70417978D01*
X85820420Y-70512000D01*
X85717040Y-70792642D01*
X85637043Y-70958403D01*
X85570190Y-71079666D01*
X85438264Y-71403631D01*
X85285759Y-71845114D01*
X85129838Y-72347829D01*
X84987660Y-72855494D01*
X84876387Y-73311822D01*
X84813179Y-73660531D01*
X84802500Y-73740265D01*
X84744463Y-74091108D01*
X84670118Y-74471169D01*
X84612125Y-74761702D01*
X84527639Y-75223375D01*
X84448743Y-75689802D01*
X84440989Y-75744022D01*
X84408944Y-76113387D01*
X84382522Y-76656216D01*
X84361771Y-77337525D01*
X84346737Y-78122329D01*
X84337467Y-78975647D01*
X84334005Y-79862494D01*
X84336400Y-80747887D01*
X84344697Y-81596842D01*
X84358942Y-82374376D01*
X84379182Y-83045506D01*
X84405464Y-83575247D01*
X84437833Y-83928616D01*
X84481561Y-84243623D01*
X84574285Y-84924609D01*
X84660339Y-85572945D01*
X84733834Y-86143279D01*
X84788881Y-86590265D01*
X84819593Y-86868552D01*
X84957664Y-88164713D01*
X85126646Y-89365247D01*
X85341788Y-90575850D01*
X85381492Y-90780119D01*
X85436505Y-91058642D01*
X85481812Y-91272495D01*
X85537271Y-91513348D01*
X85622737Y-91872871D01*
X85681986Y-92122616D01*
X85837457Y-92794813D01*
X85943613Y-93288569D01*
X86004838Y-93627208D01*
X86025521Y-93834056D01*
X86010048Y-93932438D01*
X85904043Y-94019197D01*
X85708831Y-94005012D01*
X85544545Y-93845425D01*
X85512235Y-93755003D01*
X85436276Y-93463095D01*
X85335493Y-93020047D01*
X85217307Y-92463473D01*
X85089139Y-91830991D01*
X84958411Y-91160215D01*
X84832543Y-90488761D01*
X84718956Y-89854245D01*
X84625072Y-89294282D01*
X84558312Y-88846488D01*
X84536955Y-88687452D01*
X84457005Y-88098579D01*
X84367568Y-87447005D01*
X84284292Y-86846914D01*
X84238248Y-86515754D01*
X84131913Y-85725481D01*
X84046963Y-85034251D01*
X83981026Y-84402664D01*
X83931735Y-83791320D01*
X83896720Y-83160820D01*
X83873610Y-82471764D01*
X83860037Y-81684751D01*
X83853631Y-80760381D01*
X83852022Y-79659254D01*
X83852038Y-79411150D01*
X83853082Y-78421949D01*
X83857501Y-77608749D01*
X83867697Y-76938711D01*
X83886069Y-76378993D01*
X83915020Y-75896757D01*
X83956951Y-75459163D01*
X84014262Y-75033370D01*
X84089356Y-74586539D01*
X84184633Y-74085830D01*
X84302494Y-73498403D01*
X84310790Y-73457515D01*
X84404809Y-73012657D01*
X84496489Y-72633185D01*
X84602368Y-72265884D01*
X84738979Y-71857541D01*
X84922860Y-71354941D01*
X85170545Y-70704869D01*
X85173129Y-70698152D01*
X85551168Y-69795154D01*
X85947194Y-69029983D01*
X86405490Y-68326448D01*
X86970340Y-67608361D01*
X87426306Y-67079374D01*
X88200235Y-66245007D01*
X88994946Y-65478117D01*
X89868149Y-64724365D01*
X90877554Y-63929413D01*
X90948241Y-63876259D01*
X91655156Y-63388608D01*
X92516478Y-62856581D01*
X93487625Y-62303914D01*
X94524016Y-61754343D01*
X95581069Y-61231603D01*
X96614201Y-60759430D01*
X97578831Y-60361562D01*
X97766430Y-60288259D01*
X98228062Y-60103658D01*
X98763757Y-59885614D01*
X99291927Y-59667197D01*
X99674184Y-59512807D01*
X100445232Y-59221031D01*
X101326130Y-58906358D01*
X102255075Y-58590124D01*
X103170264Y-58293666D01*
X104009895Y-58038322D01*
X104147496Y-57998198D01*
X104796111Y-57809001D01*
X105308938Y-57661744D01*
X105729655Y-57547060D01*
X106101941Y-57455584D01*
X106469474Y-57377949D01*
X106875933Y-57304788D01*
X107364994Y-57226736D01*
X107980337Y-57134425D01*
X108765639Y-57018489D01*
X109268742Y-56956244D01*
X110009420Y-56896234D01*
X110791022Y-56861668D01*
X111562474Y-56852921D01*
X112272705Y-56870364D01*
G37*
G36*
X137829798Y-79247307D02*
G01*
X138023924Y-79870689D01*
X138226242Y-80558780D01*
X138421674Y-81261569D01*
X138595147Y-81929042D01*
X138626856Y-82056331D01*
X138745501Y-82529375D01*
X138852025Y-82949646D01*
X138926554Y-83238603D01*
X138968848Y-83436436D01*
X139023102Y-84061840D01*
X138999032Y-84807113D01*
X138897358Y-85613739D01*
X138839072Y-85924829D01*
X138757114Y-86223277D01*
X138657719Y-86390967D01*
X138519060Y-86477751D01*
X138364445Y-86581504D01*
X138272873Y-86776996D01*
X138264538Y-86863353D01*
X138176944Y-87187525D01*
X138014325Y-87615991D01*
X137802112Y-88090298D01*
X137565736Y-88551997D01*
X137330628Y-88942635D01*
X137288727Y-89008232D01*
X137142867Y-89303347D01*
X137083937Y-89540795D01*
X137050496Y-89645727D01*
X136906230Y-89870606D01*
X136685679Y-90143781D01*
X136430216Y-90421138D01*
X136181214Y-90658564D01*
X135980048Y-90811945D01*
X135868091Y-90837167D01*
X135853887Y-90830786D01*
X135761988Y-90913642D01*
X135647643Y-91131615D01*
X135461526Y-91443853D01*
X135087584Y-91852995D01*
X134601916Y-92246019D01*
X134055977Y-92576224D01*
X133861889Y-92663431D01*
X133229338Y-92856332D01*
X132439470Y-92997579D01*
X131531537Y-93081300D01*
X130544788Y-93101621D01*
X129760494Y-93090829D01*
X128385133Y-93069027D01*
X127212482Y-93046046D01*
X126233637Y-93021566D01*
X125439692Y-92995271D01*
X124821740Y-92966841D01*
X124370878Y-92935960D01*
X124078198Y-92902308D01*
X123934795Y-92865568D01*
X123846232Y-92834697D01*
X123549798Y-92781606D01*
X123130756Y-92738893D01*
X122649578Y-92713704D01*
X121591703Y-92683510D01*
X121377373Y-93169893D01*
X121312487Y-93312666D01*
X121144900Y-93651712D01*
X121004676Y-93899467D01*
X120812076Y-94093610D01*
X120618705Y-94131176D01*
X120484487Y-93997652D01*
X120484076Y-93899334D01*
X120556895Y-93643639D01*
X120696855Y-93323933D01*
X120804650Y-93106488D01*
X120911637Y-92875603D01*
X120945041Y-92779734D01*
X120933797Y-92776883D01*
X120773381Y-92757782D01*
X120464793Y-92728486D01*
X120060533Y-92694080D01*
X119963946Y-92686048D01*
X119298221Y-92616708D01*
X118680738Y-92521109D01*
X118049096Y-92386161D01*
X117340892Y-92198773D01*
X116493724Y-91945856D01*
X116111307Y-91829285D01*
X115625531Y-91683590D01*
X115142660Y-91540647D01*
X114591167Y-91363410D01*
X113986475Y-91123428D01*
X113384105Y-90826301D01*
X112743605Y-90449837D01*
X112024520Y-89971840D01*
X111186400Y-89370118D01*
X111173746Y-89360773D01*
X110774577Y-89044586D01*
X110332796Y-88660936D01*
X109877940Y-88239552D01*
X109439549Y-87810167D01*
X109047159Y-87402509D01*
X108730309Y-87046311D01*
X108518538Y-86771303D01*
X108441384Y-86607215D01*
X108434469Y-86554591D01*
X108349564Y-86468616D01*
X108279618Y-86444685D01*
X108065959Y-86327789D01*
X107782117Y-86146328D01*
X107735595Y-86115364D01*
X107289579Y-85891137D01*
X106847129Y-85822072D01*
X106556691Y-85805540D01*
X106420614Y-85740502D01*
X106387767Y-85599727D01*
X106396326Y-85510582D01*
X106453211Y-85440543D01*
X106600473Y-85406109D01*
X106879958Y-85398910D01*
X107333512Y-85410578D01*
X107567037Y-85419168D01*
X107938492Y-85442397D01*
X108151857Y-85479581D01*
X108246982Y-85540296D01*
X108263717Y-85634119D01*
X108336435Y-85813083D01*
X108560951Y-85988171D01*
X108575140Y-85995654D01*
X108786498Y-86148926D01*
X108873724Y-86292726D01*
X108888655Y-86380965D01*
X108953217Y-86502065D01*
X109092489Y-86682423D01*
X109331500Y-86954239D01*
X109695277Y-87349713D01*
X110330775Y-87983549D01*
X111290773Y-88800569D01*
X112331267Y-89551812D01*
X113405376Y-90206770D01*
X114466220Y-90734933D01*
X115466916Y-91105790D01*
X115591791Y-91143005D01*
X115950610Y-91252985D01*
X116223512Y-91340670D01*
X116278055Y-91357619D01*
X116546196Y-91431888D01*
X116961396Y-91540654D01*
X117478185Y-91672127D01*
X118051091Y-91814517D01*
X118090523Y-91824197D01*
X118709064Y-91971690D01*
X119202821Y-92074397D01*
X119639975Y-92140401D01*
X120088709Y-92177790D01*
X120617205Y-92194650D01*
X121293645Y-92199065D01*
X121311965Y-92199095D01*
X122054439Y-92212662D01*
X122799443Y-92247465D01*
X123474127Y-92299095D01*
X124005639Y-92363147D01*
X124244951Y-92394628D01*
X124793064Y-92443862D01*
X125489312Y-92487392D01*
X126297300Y-92524563D01*
X127180631Y-92554721D01*
X128102910Y-92577211D01*
X129027742Y-92591378D01*
X129918729Y-92596568D01*
X130739477Y-92592125D01*
X131453589Y-92577395D01*
X132024670Y-92551723D01*
X132416324Y-92514455D01*
X132893494Y-92422925D01*
X133696570Y-92161205D01*
X134365083Y-91793758D01*
X134874752Y-91335521D01*
X135201294Y-90801430D01*
X135254180Y-90681571D01*
X135392822Y-90451171D01*
X135508984Y-90359680D01*
X135515621Y-90359519D01*
X135724142Y-90271564D01*
X135995833Y-90058535D01*
X136277569Y-89773863D01*
X136516227Y-89470979D01*
X136658683Y-89203315D01*
X136705151Y-89078648D01*
X136878771Y-88705628D01*
X137086432Y-88338764D01*
X137170279Y-88190025D01*
X137352750Y-87797167D01*
X137547968Y-87308637D01*
X137725884Y-86796894D01*
X137845588Y-86435815D01*
X137998551Y-86038166D01*
X138118327Y-85824621D01*
X138212797Y-85778704D01*
X138261534Y-85779623D01*
X138330066Y-85676877D01*
X138384818Y-85416500D01*
X138433779Y-84969227D01*
X138468058Y-84229943D01*
X138417653Y-83537993D01*
X138270193Y-82793722D01*
X138239840Y-82668827D01*
X138146885Y-82280498D01*
X138051240Y-81874999D01*
X138027208Y-81774078D01*
X137903045Y-81293118D01*
X137760880Y-80791538D01*
X137615204Y-80315302D01*
X137480506Y-79910374D01*
X137371276Y-79622719D01*
X137302005Y-79498300D01*
X137255590Y-79490056D01*
X137158169Y-79591573D01*
X137154194Y-79599936D01*
X137020800Y-79729940D01*
X136754003Y-79918360D01*
X136406752Y-80127438D01*
X136385051Y-80139620D01*
X136023455Y-80355767D01*
X135729379Y-80554209D01*
X135564671Y-80693383D01*
X135279976Y-80907359D01*
X134812780Y-81092748D01*
X134208563Y-81237562D01*
X133506308Y-81337803D01*
X132744999Y-81389473D01*
X131963619Y-81388575D01*
X131201151Y-81331111D01*
X130496577Y-81213084D01*
X130230066Y-81145685D01*
X129632204Y-80917381D01*
X129051191Y-80562216D01*
X128926883Y-80474072D01*
X128171795Y-79956371D01*
X127536074Y-79560407D01*
X126982035Y-79268179D01*
X126471995Y-79061684D01*
X125968267Y-78922920D01*
X125433167Y-78833886D01*
X124763316Y-78706043D01*
X124221946Y-78483625D01*
X123853757Y-78159868D01*
X123643288Y-77720778D01*
X123575077Y-77152365D01*
X123576575Y-77116067D01*
X124113724Y-77116067D01*
X124115386Y-77232937D01*
X124150490Y-77540431D01*
X124253444Y-77776363D01*
X124453385Y-77961778D01*
X124779449Y-78117721D01*
X125260774Y-78265235D01*
X125926495Y-78425365D01*
X126246255Y-78499846D01*
X126852449Y-78663506D01*
X127358730Y-78847417D01*
X127830716Y-79082142D01*
X128334023Y-79398242D01*
X128934267Y-79826280D01*
X129122664Y-79961810D01*
X129590496Y-80269017D01*
X129986390Y-80487297D01*
X130264596Y-80590370D01*
X130301714Y-80597420D01*
X130595494Y-80677398D01*
X130790329Y-80769383D01*
X130891197Y-80810880D01*
X131190575Y-80861051D01*
X131621847Y-80894863D01*
X132134544Y-80911048D01*
X132678199Y-80908344D01*
X133202341Y-80885485D01*
X133656502Y-80841207D01*
X133964761Y-80787921D01*
X134826820Y-80510687D01*
X135570746Y-80068537D01*
X135695568Y-79977174D01*
X136008220Y-79765446D01*
X136354363Y-79545694D01*
X136385824Y-79526332D01*
X136682927Y-79317883D01*
X136828755Y-79137358D01*
X136867363Y-78932060D01*
X136857505Y-78810510D01*
X136767841Y-78504643D01*
X136615790Y-78226760D01*
X136439587Y-78037447D01*
X136277466Y-77997292D01*
X136165572Y-77987664D01*
X135909555Y-77845408D01*
X135567261Y-77568988D01*
X135277784Y-77321573D01*
X134819547Y-76959429D01*
X134386911Y-76645014D01*
X134214353Y-76530631D01*
X133831302Y-76291660D01*
X133401068Y-76037161D01*
X132962328Y-75788393D01*
X132553760Y-75566615D01*
X132214040Y-75393085D01*
X131981845Y-75289061D01*
X131895852Y-75275804D01*
X131853415Y-75294474D01*
X131694052Y-75235456D01*
X131584522Y-75207054D01*
X131275662Y-75168953D01*
X130812234Y-75131859D01*
X130227909Y-75096778D01*
X129556362Y-75064717D01*
X128831264Y-75036684D01*
X128086289Y-75013685D01*
X127355109Y-74996727D01*
X126671398Y-74986818D01*
X126068827Y-74984964D01*
X125581071Y-74992172D01*
X125241801Y-75009449D01*
X125084690Y-75037803D01*
X125077294Y-75042631D01*
X124902180Y-75236000D01*
X124694695Y-75571971D01*
X124483472Y-75989252D01*
X124297146Y-76426555D01*
X124164352Y-76822589D01*
X124113724Y-77116067D01*
X123576575Y-77116067D01*
X123578347Y-77073138D01*
X123655216Y-76676955D01*
X123814038Y-76198217D01*
X124028009Y-75695395D01*
X124270321Y-75226961D01*
X124514169Y-74851388D01*
X124732748Y-74627147D01*
X124778821Y-74599938D01*
X124900789Y-74552249D01*
X125077161Y-74517760D01*
X125334881Y-74495364D01*
X125700893Y-74483956D01*
X126202143Y-74482429D01*
X126865575Y-74489677D01*
X127718132Y-74504594D01*
X127902309Y-74508201D01*
X128960846Y-74532788D01*
X129834555Y-74562696D01*
X130550531Y-74601614D01*
X131135872Y-74653235D01*
X131617675Y-74721249D01*
X132023037Y-74809347D01*
X132379055Y-74921220D01*
X132712826Y-75060560D01*
X133051448Y-75231056D01*
X133078501Y-75245582D01*
X133606265Y-75543193D01*
X134179590Y-75887083D01*
X134679043Y-76205729D01*
X134844195Y-76313683D01*
X135161155Y-76505831D01*
X135380626Y-76617364D01*
X135462661Y-76626815D01*
X135484298Y-76562390D01*
X135625772Y-76526447D01*
X135844779Y-76596876D01*
X136077184Y-76759797D01*
X136170749Y-76840352D01*
X136303516Y-76902408D01*
X136310245Y-76807447D01*
X136179586Y-76575857D01*
X136166817Y-76556554D01*
X136047037Y-76352102D01*
X135856363Y-76006710D01*
X135618306Y-75563511D01*
X135356377Y-75065637D01*
X135350078Y-75053550D01*
X135055477Y-74503134D01*
X134751475Y-73959781D01*
X134473535Y-73485534D01*
X134257118Y-73142436D01*
X133999982Y-72753869D01*
X133680223Y-72255977D01*
X133390383Y-71791372D01*
X132949108Y-71101447D01*
X131878067Y-69629018D01*
X130669458Y-68201500D01*
X129357342Y-66852647D01*
X127975775Y-65616213D01*
X126558819Y-64525950D01*
X125140533Y-63615612D01*
X124162393Y-63057609D01*
X123284554Y-62567483D01*
X122542685Y-62166907D01*
X121912450Y-61843051D01*
X121369513Y-61583082D01*
X120889540Y-61374168D01*
X120591608Y-61251281D01*
X120135071Y-61061338D01*
X119757753Y-60902417D01*
X119520107Y-60799871D01*
X119461684Y-60774412D01*
X119052990Y-60613264D01*
X118512838Y-60418463D01*
X117905294Y-60211409D01*
X117294428Y-60013500D01*
X116744309Y-59846134D01*
X116319005Y-59730712D01*
X116036448Y-59668389D01*
X115520506Y-59570428D01*
X114930045Y-59471100D01*
X114322402Y-59378958D01*
X113754915Y-59302555D01*
X113284922Y-59250441D01*
X112969761Y-59231169D01*
X112875011Y-59228592D01*
X112700723Y-59178553D01*
X112676903Y-59042020D01*
X112762310Y-58911346D01*
X112982063Y-58813303D01*
X113073426Y-58806665D01*
X113408579Y-58816595D01*
X113887140Y-58855977D01*
X114461215Y-58919240D01*
X115082906Y-59000812D01*
X115704318Y-59095123D01*
X116277554Y-59196603D01*
X116684334Y-59287497D01*
X117482020Y-59511819D01*
X118396844Y-59813857D01*
X119383946Y-60176812D01*
X120398466Y-60583885D01*
X121395544Y-61018277D01*
X122330320Y-61463190D01*
X122795691Y-61700724D01*
X123492046Y-62070160D01*
X124215126Y-62467426D01*
X124933735Y-62874257D01*
X125616679Y-63272390D01*
X126232763Y-63643561D01*
X126750792Y-63969504D01*
X127139572Y-64231956D01*
X127367907Y-64412652D01*
X127398942Y-64441821D01*
X127588046Y-64611926D01*
X127894315Y-64882347D01*
X128282906Y-65222423D01*
X128718971Y-65601490D01*
X128835952Y-65703244D01*
X129805737Y-66582895D01*
X130687554Y-67457752D01*
X131509511Y-68362041D01*
X132299716Y-69329984D01*
X133086277Y-70395805D01*
X133897302Y-71593728D01*
X134760900Y-72957978D01*
X134998381Y-73353626D01*
X135319827Y-73912673D01*
X135664015Y-74531481D01*
X136014797Y-75179060D01*
X136356024Y-75824422D01*
X136671549Y-76436579D01*
X136945222Y-76984544D01*
X137160896Y-77437326D01*
X137302422Y-77763939D01*
X137353651Y-77933394D01*
X137359892Y-77962428D01*
X137424783Y-78144372D01*
X137537306Y-78419777D01*
X137658938Y-78738646D01*
X137723906Y-78932060D01*
X137829798Y-79247307D01*
G37*
D12*
%TO.C,D7*%
X186775000Y-83635000D02*
X186775000Y-79625000D01*
X188775000Y-83635000D02*
X186775000Y-83635000D01*
X188775000Y-83635000D02*
X188775000Y-79625000D01*
%TO.C,D16*%
X216638177Y-84688208D02*
X216638177Y-80678208D01*
X218638177Y-84688208D02*
X216638177Y-84688208D01*
X218638177Y-84688208D02*
X218638177Y-80678208D01*
%TO.C,D10*%
X201700000Y-60410000D02*
X201700000Y-56400000D01*
X203700000Y-60410000D02*
X201700000Y-60410000D01*
X203700000Y-60410000D02*
X203700000Y-56400000D01*
%TO.C,D29*%
X115970000Y-74800000D02*
X115970000Y-70790000D01*
X117970000Y-74800000D02*
X115970000Y-74800000D01*
X117970000Y-74800000D02*
X117970000Y-70790000D01*
%TO.C,D8*%
X186550000Y-98835000D02*
X186550000Y-94825000D01*
X188550000Y-98835000D02*
X186550000Y-98835000D01*
X188550000Y-98835000D02*
X188550000Y-94825000D01*
%TO.C,D21*%
X144960000Y-94480000D02*
X144960000Y-90470000D01*
X146960000Y-94480000D02*
X144960000Y-94480000D01*
X146960000Y-94480000D02*
X146960000Y-90470000D01*
%TO.C,D17*%
X218290000Y-97470000D02*
X218290000Y-93460000D01*
X220290000Y-97470000D02*
X218290000Y-97470000D01*
X220290000Y-97470000D02*
X220290000Y-93460000D01*
%TO.C,BAT -*%
X237975000Y-87625000D02*
G75*
G02*
X235575000Y-87625000I-1200000J0D01*
G01*
X235575000Y-87625000D02*
G75*
G02*
X237975000Y-87625000I1200000J0D01*
G01*
%TO.C,D13*%
X238150000Y-99490000D02*
X238150000Y-103500000D01*
X238150000Y-99490000D02*
X240150000Y-99490000D01*
X240150000Y-99490000D02*
X240150000Y-103500000D01*
%TO.C,D24*%
X130225000Y-68135000D02*
X130225000Y-64125000D01*
X132225000Y-68135000D02*
X130225000Y-68135000D01*
X132225000Y-68135000D02*
X132225000Y-64125000D01*
%TO.C,D34*%
X98905000Y-81680000D02*
X98905000Y-77670000D01*
X100905000Y-81680000D02*
X98905000Y-81680000D01*
X100905000Y-81680000D02*
X100905000Y-77670000D01*
%TO.C,D28*%
X115960000Y-58880000D02*
X115960000Y-54870000D01*
X117960000Y-58880000D02*
X115960000Y-58880000D01*
X117960000Y-58880000D02*
X117960000Y-54870000D01*
%TO.C,BAT +*%
X233925000Y-87625000D02*
G75*
G02*
X231525000Y-87625000I-1200000J0D01*
G01*
X231525000Y-87625000D02*
G75*
G02*
X233925000Y-87625000I1200000J0D01*
G01*
%TO.C,D18*%
X251500000Y-109310000D02*
X251500000Y-113320000D01*
X251500000Y-109310000D02*
X253500000Y-109310000D01*
X253500000Y-109310000D02*
X253500000Y-113320000D01*
%TO.C,D9*%
X201700000Y-44560000D02*
X201700000Y-40550000D01*
X203700000Y-44560000D02*
X201700000Y-44560000D01*
X203700000Y-44560000D02*
X203700000Y-40550000D01*
%TO.C,D35*%
X99300000Y-98685000D02*
X99300000Y-94675000D01*
X101300000Y-98685000D02*
X99300000Y-98685000D01*
X101300000Y-98685000D02*
X101300000Y-94675000D01*
%TO.C,D11*%
X201800000Y-75682064D02*
X201800000Y-71672064D01*
X203800000Y-75682064D02*
X201800000Y-75682064D01*
X203800000Y-75682064D02*
X203800000Y-71672064D01*
%TO.C,D23*%
X131130000Y-49890000D02*
X131130000Y-45880000D01*
X133130000Y-49890000D02*
X131130000Y-49890000D01*
X133130000Y-49890000D02*
X133130000Y-45880000D01*
%TO.C,D22*%
X145140000Y-109830000D02*
X145140000Y-105820000D01*
X147140000Y-109830000D02*
X145140000Y-109830000D01*
X147140000Y-109830000D02*
X147140000Y-105820000D01*
%TO.C,D2*%
X172050000Y-75410000D02*
X172050000Y-71400000D01*
X174050000Y-75410000D02*
X172050000Y-75410000D01*
X174050000Y-75410000D02*
X174050000Y-71400000D01*
%TO.C,D5*%
X186950000Y-52485000D02*
X186950000Y-48475000D01*
X188950000Y-52485000D02*
X186950000Y-52485000D01*
X188950000Y-52485000D02*
X188950000Y-48475000D01*
%TO.C,D32*%
X99035000Y-51170000D02*
X99035000Y-47160000D01*
X101035000Y-51170000D02*
X99035000Y-51170000D01*
X101035000Y-51170000D02*
X101035000Y-47160000D01*
%TO.C,Bat +*%
X67650000Y-86850000D02*
G75*
G02*
X65250000Y-86850000I-1200000J0D01*
G01*
X65250000Y-86850000D02*
G75*
G02*
X67650000Y-86850000I1200000J0D01*
G01*
D13*
%TO.C,G\u002A\u002A\u002A*%
G36*
X209632451Y-69884039D02*
G01*
X209843171Y-69992327D01*
X209915992Y-70122719D01*
X209966910Y-70423817D01*
X209949114Y-70768106D01*
X209860985Y-71058666D01*
X209851661Y-71074901D01*
X209647656Y-71231867D01*
X209373153Y-71256588D01*
X209129809Y-71138029D01*
X209097962Y-71095421D01*
X209023802Y-70847122D01*
X209004389Y-70515524D01*
X209039725Y-70198101D01*
X209129809Y-69992327D01*
X209238454Y-69921157D01*
X209486490Y-69862625D01*
X209632451Y-69884039D01*
G37*
G36*
X194572302Y-59127635D02*
G01*
X194624788Y-59461445D01*
X194623416Y-59522921D01*
X194580160Y-59818014D01*
X194495086Y-60005263D01*
X194437669Y-60075377D01*
X194444846Y-60134965D01*
X194467796Y-60187971D01*
X194405128Y-60357656D01*
X194291260Y-60488627D01*
X194104091Y-60545754D01*
X193995117Y-60476138D01*
X193926506Y-60279314D01*
X193890448Y-59911787D01*
X193888150Y-59865936D01*
X193889285Y-59505104D01*
X193946238Y-59278892D01*
X194075572Y-59116112D01*
X194209009Y-59016849D01*
X194427421Y-58975482D01*
X194572302Y-59127635D01*
G37*
G36*
X203015459Y-62902222D02*
G01*
X203095245Y-62999220D01*
X203118949Y-63112842D01*
X203230352Y-63320504D01*
X203245349Y-63344021D01*
X203332361Y-63591898D01*
X203376202Y-63909719D01*
X203370185Y-64205264D01*
X203307625Y-64386312D01*
X203252446Y-64421292D01*
X203015531Y-64454713D01*
X202725936Y-64413593D01*
X202487980Y-64307910D01*
X202371394Y-64192008D01*
X202316083Y-63950486D01*
X202464396Y-63654094D01*
X202567934Y-63441379D01*
X202623086Y-63133172D01*
X202628203Y-63006941D01*
X202691224Y-62867130D01*
X202866278Y-62856596D01*
X203015459Y-62902222D01*
G37*
G36*
X201579943Y-75637835D02*
G01*
X201586486Y-75640798D01*
X201886822Y-75758751D01*
X202134469Y-75828034D01*
X202308295Y-75933370D01*
X202455247Y-76186653D01*
X202455840Y-76188438D01*
X202566113Y-76445693D01*
X202751030Y-76807611D01*
X202970885Y-77196437D01*
X203239277Y-77724935D01*
X203382598Y-78265706D01*
X203338946Y-78731441D01*
X203109469Y-79138232D01*
X203076692Y-79179261D01*
X202907983Y-79472158D01*
X202839256Y-79740993D01*
X202826309Y-79861441D01*
X202712147Y-80008978D01*
X202502175Y-79984580D01*
X202223302Y-79786269D01*
X202152368Y-79722722D01*
X201975378Y-79622007D01*
X201843442Y-79678184D01*
X201747512Y-79755610D01*
X201571482Y-79793560D01*
X201332076Y-79709095D01*
X200980207Y-79491606D01*
X200903032Y-79437873D01*
X200484528Y-79058904D01*
X200222654Y-78609281D01*
X200076840Y-78023050D01*
X200014040Y-77446481D01*
X200020908Y-76732772D01*
X200137770Y-76170721D01*
X200358366Y-75770266D01*
X200676435Y-75541343D01*
X201085714Y-75493887D01*
X201579943Y-75637835D01*
G37*
G36*
X196878551Y-49368949D02*
G01*
X197023328Y-49393684D01*
X197469604Y-49526638D01*
X197863787Y-49720068D01*
X198151953Y-49943320D01*
X198280178Y-50165738D01*
X198282415Y-50251340D01*
X198188662Y-50389618D01*
X197983079Y-50387527D01*
X197708553Y-50239529D01*
X197504728Y-50115099D01*
X197120965Y-49975261D01*
X196741866Y-49924168D01*
X196453498Y-49979641D01*
X196194449Y-50209936D01*
X195984701Y-50645210D01*
X195859028Y-51271902D01*
X195816098Y-52094431D01*
X195819739Y-52599514D01*
X195841887Y-52965924D01*
X195895161Y-53245908D01*
X195992155Y-53505002D01*
X196145458Y-53808742D01*
X196244777Y-54000464D01*
X196381970Y-54324469D01*
X196427689Y-54589248D01*
X196401700Y-54877223D01*
X196392965Y-54924680D01*
X196279520Y-55331426D01*
X196124207Y-55700942D01*
X196109188Y-55729592D01*
X195955238Y-56090549D01*
X195854848Y-56436878D01*
X195821498Y-56581936D01*
X195727091Y-56742244D01*
X195558520Y-56763104D01*
X195399184Y-56706579D01*
X195307651Y-56534187D01*
X195353371Y-56232988D01*
X195535895Y-55783516D01*
X195719681Y-55373429D01*
X195848629Y-54980723D01*
X195870991Y-54652267D01*
X195789291Y-54321053D01*
X195606051Y-53920071D01*
X195494453Y-53692903D01*
X195377636Y-53401129D01*
X195311515Y-53109262D01*
X195281917Y-52745326D01*
X195274668Y-52237348D01*
X195277119Y-51976161D01*
X195329848Y-51216951D01*
X195459735Y-50613957D01*
X195677975Y-50128100D01*
X195995765Y-49720299D01*
X196181850Y-49535700D01*
X196383546Y-49387212D01*
X196587333Y-49342950D01*
X196878551Y-49368949D01*
G37*
G36*
X184599895Y-71124176D02*
G01*
X184605227Y-71129378D01*
X184746968Y-71367061D01*
X184788462Y-71640979D01*
X184727816Y-71808156D01*
X184713471Y-71847701D01*
X184693361Y-71888985D01*
X184682607Y-71970284D01*
X184665215Y-72101761D01*
X184667940Y-72411800D01*
X184634291Y-72798283D01*
X184464789Y-73211725D01*
X184189017Y-73522939D01*
X183843272Y-73676274D01*
X183188911Y-73733332D01*
X182211380Y-73682391D01*
X181848268Y-73616743D01*
X181544948Y-73479049D01*
X181251340Y-73223968D01*
X181140867Y-73103861D01*
X180889949Y-72778262D01*
X180721558Y-72487160D01*
X180672772Y-72336915D01*
X180609355Y-71970284D01*
X181114150Y-71970284D01*
X181168192Y-72024327D01*
X181222235Y-71970284D01*
X181168192Y-71916242D01*
X181114150Y-71970284D01*
X180609355Y-71970284D01*
X180605647Y-71948849D01*
X180575105Y-71500985D01*
X180575527Y-71483901D01*
X183819588Y-71483901D01*
X183831417Y-71576812D01*
X183924363Y-71808156D01*
X183942009Y-71835186D01*
X184014446Y-71915756D01*
X184029138Y-71808156D01*
X184017309Y-71715245D01*
X183924363Y-71483901D01*
X183906717Y-71456871D01*
X183834279Y-71376301D01*
X183819588Y-71483901D01*
X180575527Y-71483901D01*
X180585420Y-71083404D01*
X180640865Y-70786190D01*
X180645792Y-70779175D01*
X183190860Y-70779175D01*
X183203795Y-70907447D01*
X183236305Y-70924357D01*
X183275852Y-70835390D01*
X183268052Y-70778171D01*
X183203795Y-70763334D01*
X183190860Y-70779175D01*
X180645792Y-70779175D01*
X180777694Y-70591368D01*
X181097195Y-70422571D01*
X181595311Y-70329838D01*
X182285267Y-70309336D01*
X182476144Y-70311391D01*
X182892157Y-70305412D01*
X183205017Y-70286287D01*
X183358281Y-70256779D01*
X183410120Y-70253797D01*
X183610708Y-70344420D01*
X183904253Y-70539523D01*
X184248176Y-70809357D01*
X184277260Y-70835390D01*
X184599895Y-71124176D01*
G37*
G36*
X208926651Y-48071928D02*
G01*
X208934012Y-48072617D01*
X209333662Y-48124696D01*
X209655787Y-48192891D01*
X209831261Y-48262629D01*
X209842900Y-48270930D01*
X210039151Y-48340166D01*
X210376857Y-48408566D01*
X210790293Y-48462437D01*
X210883198Y-48472750D01*
X211422131Y-48574367D01*
X211956554Y-48735754D01*
X212444781Y-48937510D01*
X212845127Y-49160237D01*
X213115904Y-49384536D01*
X213215426Y-49591007D01*
X213214199Y-49627297D01*
X213130127Y-49844690D01*
X212960469Y-49911751D01*
X212770756Y-49797981D01*
X212699489Y-49724237D01*
X212360984Y-49492972D01*
X211900721Y-49281500D01*
X211389559Y-49118747D01*
X210898360Y-49033640D01*
X210477350Y-48974035D01*
X209948670Y-48858697D01*
X209450102Y-48715178D01*
X209243189Y-48646531D01*
X208909309Y-48546594D01*
X208694718Y-48512678D01*
X208541640Y-48539731D01*
X208392297Y-48622704D01*
X208191635Y-48787631D01*
X207850062Y-49172706D01*
X207484808Y-49680568D01*
X207125119Y-50262755D01*
X206800241Y-50870803D01*
X206539423Y-51456247D01*
X206371909Y-51970624D01*
X206341834Y-52131757D01*
X206293448Y-52525484D01*
X206251321Y-53021926D01*
X206222102Y-53550942D01*
X206213924Y-53772064D01*
X206206406Y-54230748D01*
X206226650Y-54597302D01*
X206285439Y-54945812D01*
X206393554Y-55350365D01*
X206561775Y-55885047D01*
X206695627Y-56316874D01*
X206825607Y-56778717D01*
X206913923Y-57143830D01*
X206946490Y-57358288D01*
X206940595Y-57420995D01*
X206831418Y-57708522D01*
X206622235Y-58010792D01*
X206528538Y-58120691D01*
X206363370Y-58335327D01*
X206297980Y-58454440D01*
X206265633Y-58532092D01*
X206138048Y-58747014D01*
X205946703Y-59034640D01*
X205801781Y-59245248D01*
X205607869Y-59533295D01*
X205487341Y-59720394D01*
X205454663Y-59774813D01*
X205133570Y-60314652D01*
X204910612Y-60702815D01*
X204770406Y-60968276D01*
X204697564Y-61140009D01*
X204676703Y-61246987D01*
X204662742Y-61326327D01*
X204541597Y-61468489D01*
X204498844Y-61484347D01*
X204229674Y-61531343D01*
X204010587Y-61496802D01*
X203920107Y-61390567D01*
X203924607Y-61360017D01*
X204019744Y-61137230D01*
X204234745Y-60749231D01*
X204564694Y-60204206D01*
X205004680Y-59510339D01*
X205549788Y-58675816D01*
X205656071Y-58515301D01*
X205969114Y-58040587D01*
X206182476Y-57691264D01*
X206307144Y-57421603D01*
X206354104Y-57185875D01*
X206334344Y-56938353D01*
X206258848Y-56633307D01*
X206138605Y-56225009D01*
X206066454Y-55980657D01*
X205931776Y-55536522D01*
X205818879Y-55179052D01*
X205746661Y-54968815D01*
X205698756Y-54746758D01*
X205666483Y-54348482D01*
X205657253Y-53856419D01*
X205670635Y-53334910D01*
X205706197Y-52848297D01*
X205763507Y-52460922D01*
X205788928Y-52342274D01*
X205865502Y-51980132D01*
X205922461Y-51704327D01*
X206023711Y-51352542D01*
X206197178Y-50897267D01*
X206408076Y-50420107D01*
X206622703Y-49997217D01*
X206807359Y-49704752D01*
X206828140Y-49678315D01*
X207035367Y-49416553D01*
X207315571Y-49064603D01*
X207614285Y-48690898D01*
X208166720Y-48001300D01*
X208926651Y-48071928D01*
G37*
G36*
X213224620Y-59689769D02*
G01*
X213223138Y-60236671D01*
X213222075Y-60629192D01*
X213350745Y-61700338D01*
X213611236Y-62891893D01*
X213652801Y-63052229D01*
X213796900Y-63632008D01*
X213919804Y-64162280D01*
X214009593Y-64590036D01*
X214054347Y-64862269D01*
X214058362Y-64902243D01*
X214067579Y-65181682D01*
X214004802Y-65329560D01*
X213842222Y-65418844D01*
X213748593Y-65470669D01*
X213512400Y-65681518D01*
X213284117Y-65968812D01*
X213183274Y-66106794D01*
X212924911Y-66380695D01*
X212685541Y-66547130D01*
X212593660Y-66601882D01*
X212344164Y-66811458D01*
X212031307Y-67119680D01*
X211698863Y-67478419D01*
X211390605Y-67839547D01*
X211150308Y-68154935D01*
X211021746Y-68376454D01*
X210984615Y-68454760D01*
X210832640Y-68558348D01*
X210645990Y-68474869D01*
X210459362Y-68214327D01*
X210281507Y-67863050D01*
X210910807Y-67303975D01*
X211127950Y-67111055D01*
X211346291Y-66915005D01*
X211527230Y-66746248D01*
X211707919Y-66567879D01*
X211925505Y-66342993D01*
X212217140Y-66034684D01*
X212619973Y-65606046D01*
X212790653Y-65423874D01*
X213081464Y-65105036D01*
X213250432Y-64894352D01*
X213316972Y-64758624D01*
X213300497Y-64664652D01*
X213220422Y-64579237D01*
X213115426Y-64456521D01*
X213008319Y-64252318D01*
X212889864Y-63936327D01*
X212747745Y-63475576D01*
X212569643Y-62837093D01*
X212532777Y-62708317D01*
X212420008Y-62371543D01*
X212318223Y-62134539D01*
X212311089Y-62119248D01*
X212264105Y-61905008D01*
X212221354Y-61530117D01*
X212187296Y-61042851D01*
X212166392Y-60491487D01*
X212162137Y-60303471D01*
X212566916Y-60303471D01*
X212579682Y-60638151D01*
X212618394Y-60900471D01*
X212675001Y-60999646D01*
X212675711Y-60999631D01*
X212730879Y-60897370D01*
X212768913Y-60627220D01*
X212783086Y-60236671D01*
X212772091Y-59858424D01*
X212735152Y-59601230D01*
X212675001Y-59540497D01*
X212623280Y-59657904D01*
X212582529Y-59934510D01*
X212566916Y-60303471D01*
X212162137Y-60303471D01*
X212139977Y-59324327D01*
X212675001Y-59324327D01*
X212729043Y-59378369D01*
X212783086Y-59324327D01*
X212729043Y-59270284D01*
X212675001Y-59324327D01*
X212139977Y-59324327D01*
X212134099Y-59064605D01*
X212809869Y-58170619D01*
X213029682Y-57884735D01*
X213359955Y-57498451D01*
X213663626Y-57239445D01*
X213988684Y-57089226D01*
X214383119Y-57029306D01*
X214894920Y-57041195D01*
X215572078Y-57106404D01*
X216836278Y-57246060D01*
X217788774Y-58200316D01*
X218091388Y-58505446D01*
X218391588Y-58821137D01*
X218578908Y-59048612D01*
X218677738Y-59224067D01*
X218712471Y-59383699D01*
X218707498Y-59563705D01*
X218694921Y-59666933D01*
X218596177Y-59923370D01*
X218434437Y-59987190D01*
X218235566Y-59859272D01*
X218025424Y-59540497D01*
X217963939Y-59418048D01*
X217842218Y-59178424D01*
X217780905Y-59062004D01*
X217730532Y-59077501D01*
X217608153Y-59213623D01*
X217551653Y-59279209D01*
X217387749Y-59344516D01*
X217263709Y-59225424D01*
X217214575Y-58945779D01*
X217214548Y-58938458D01*
X217180830Y-58731740D01*
X217062612Y-58554285D01*
X216829200Y-58383434D01*
X216449901Y-58196528D01*
X215894020Y-57970909D01*
X215222256Y-57749761D01*
X214639522Y-57653633D01*
X214194810Y-57705192D01*
X213878137Y-57904105D01*
X213620936Y-58251348D01*
X213357776Y-58893383D01*
X213285722Y-59324327D01*
X213224620Y-59689769D01*
G37*
G36*
X182504784Y-66142204D02*
G01*
X183564572Y-66381646D01*
X184554871Y-66822430D01*
X185490640Y-67469378D01*
X185612820Y-67571026D01*
X186176702Y-68086141D01*
X186608722Y-68587581D01*
X186961423Y-69144234D01*
X187287349Y-69824988D01*
X187413300Y-70121325D01*
X187514063Y-70388109D01*
X187581696Y-70638159D01*
X187622809Y-70918053D01*
X187644013Y-71274375D01*
X187651916Y-71753705D01*
X187653131Y-72402625D01*
X187652672Y-72614808D01*
X187639329Y-73386319D01*
X187604740Y-74003185D01*
X187545143Y-74514572D01*
X187456777Y-74969646D01*
X187380773Y-75286286D01*
X187295918Y-75578994D01*
X187212375Y-75734616D01*
X187103680Y-75796329D01*
X186943373Y-75807305D01*
X186713239Y-75759981D01*
X186623394Y-75619709D01*
X186727758Y-75423603D01*
X186749893Y-75392761D01*
X186835665Y-75167172D01*
X186932724Y-74790992D01*
X187032147Y-74313767D01*
X187125010Y-73785040D01*
X187202389Y-73254357D01*
X187255361Y-72771263D01*
X187275001Y-72385302D01*
X187270447Y-72156351D01*
X187122174Y-71065027D01*
X186773843Y-70027165D01*
X186237927Y-69072412D01*
X185526899Y-68230415D01*
X184957623Y-67721365D01*
X184207783Y-67210573D01*
X183419821Y-66870067D01*
X182544584Y-66680038D01*
X181532918Y-66620674D01*
X181413597Y-66620893D01*
X180910024Y-66634104D01*
X180532717Y-66676662D01*
X180206850Y-66761028D01*
X179857599Y-66899664D01*
X179561580Y-67040015D01*
X179169625Y-67252319D01*
X178878596Y-67440089D01*
X178809978Y-67490646D01*
X178577343Y-67640589D01*
X178433000Y-67700922D01*
X178373429Y-67724136D01*
X178186390Y-67876535D01*
X177938642Y-68130032D01*
X177673395Y-68436177D01*
X177433856Y-68746518D01*
X177263236Y-69012604D01*
X177042828Y-69466696D01*
X176880160Y-69937927D01*
X176779046Y-70461518D01*
X176718414Y-71118938D01*
X176708916Y-71744175D01*
X176803017Y-72534602D01*
X177018445Y-73185018D01*
X177348981Y-73678681D01*
X177788404Y-73998852D01*
X177913030Y-74044216D01*
X178251922Y-74138589D01*
X178729987Y-74253551D01*
X179302620Y-74378577D01*
X179925214Y-74503138D01*
X180352270Y-74585156D01*
X181464608Y-74804503D01*
X182396495Y-74998260D01*
X183172655Y-75171881D01*
X183817816Y-75330820D01*
X184356703Y-75480530D01*
X184796872Y-75610822D01*
X185499977Y-75814952D01*
X186033709Y-75962976D01*
X186422145Y-76061176D01*
X186689363Y-76115829D01*
X186859439Y-76133216D01*
X187139342Y-76174135D01*
X187331081Y-76308724D01*
X187342575Y-76513571D01*
X187317781Y-76565666D01*
X187219491Y-76643398D01*
X187021304Y-76661697D01*
X186666949Y-76630284D01*
X186421401Y-76595352D01*
X186084346Y-76526956D01*
X185873415Y-76457700D01*
X185670701Y-76377073D01*
X185371377Y-76300971D01*
X185176802Y-76257846D01*
X184811908Y-76160024D01*
X184410746Y-76039394D01*
X184109885Y-75947393D01*
X183697605Y-75831560D01*
X183383937Y-75754958D01*
X183349373Y-75747805D01*
X182966243Y-75666249D01*
X182573299Y-75579751D01*
X182397442Y-75540901D01*
X181786377Y-75412692D01*
X181106649Y-75277675D01*
X180465639Y-75157370D01*
X180381239Y-75141727D01*
X179945276Y-75052677D01*
X179546916Y-74960823D01*
X179333067Y-74909900D01*
X178905181Y-74815969D01*
X178466065Y-74726700D01*
X178052081Y-74632917D01*
X177463754Y-74417373D01*
X177022502Y-74109567D01*
X176686572Y-73676063D01*
X176414212Y-73083422D01*
X176344798Y-72868594D01*
X176289480Y-72589329D01*
X176261066Y-72240160D01*
X176255973Y-71772531D01*
X176270618Y-71137890D01*
X176283880Y-70755402D01*
X176309622Y-70257119D01*
X176347403Y-69892700D01*
X176406030Y-69610607D01*
X176494308Y-69359305D01*
X176621044Y-69087258D01*
X176838234Y-68682872D01*
X177206904Y-68148615D01*
X177659745Y-67681807D01*
X178256883Y-67213579D01*
X178802489Y-66853282D01*
X179585348Y-66457874D01*
X180381731Y-66216374D01*
X181256904Y-66104657D01*
X181360546Y-66099281D01*
X182504784Y-66142204D01*
G37*
G36*
X183972705Y-57125649D02*
G01*
X184570642Y-57169657D01*
X185005214Y-57240602D01*
X185006351Y-57240888D01*
X185196341Y-57290282D01*
X185310126Y-57329199D01*
X185327767Y-57360961D01*
X185229321Y-57388889D01*
X184994848Y-57416308D01*
X184604406Y-57446538D01*
X184038055Y-57482902D01*
X183275852Y-57528723D01*
X183123437Y-57538019D01*
X182387006Y-57588592D01*
X181686364Y-57645298D01*
X181066540Y-57703946D01*
X180572565Y-57760347D01*
X180249469Y-57810310D01*
X179829503Y-57891981D01*
X179264420Y-57994935D01*
X178736278Y-58084967D01*
X178688056Y-58092869D01*
X177901608Y-58243312D01*
X177057095Y-58447004D01*
X176108297Y-58716066D01*
X175008998Y-59062622D01*
X174957964Y-59079298D01*
X174465076Y-59238032D01*
X174050842Y-59367423D01*
X173757427Y-59454541D01*
X173626998Y-59486454D01*
X173619702Y-59487286D01*
X173464192Y-59535677D01*
X173154041Y-59647446D01*
X172729208Y-59807019D01*
X172229652Y-59998823D01*
X171695331Y-60207285D01*
X171166206Y-60416832D01*
X170682233Y-60611892D01*
X170283373Y-60776890D01*
X170009583Y-60896255D01*
X169867167Y-60960499D01*
X169614137Y-61066049D01*
X169483433Y-61107731D01*
X169480767Y-61107905D01*
X169341225Y-61156429D01*
X169046694Y-61279314D01*
X168635232Y-61459469D01*
X168144893Y-61679806D01*
X167613733Y-61923235D01*
X167079809Y-62172667D01*
X166581175Y-62411013D01*
X166087170Y-62661807D01*
X165194103Y-63157288D01*
X164255697Y-63721429D01*
X163345420Y-64309441D01*
X162536744Y-64876537D01*
X161799760Y-65456396D01*
X160969252Y-66190843D01*
X160172586Y-66976180D01*
X159434161Y-67784037D01*
X158778380Y-68586044D01*
X158229644Y-69353831D01*
X157812354Y-70059027D01*
X157550912Y-70673263D01*
X157520420Y-70767285D01*
X157417040Y-71047927D01*
X157337043Y-71213688D01*
X157270190Y-71334951D01*
X157138264Y-71658916D01*
X156985759Y-72100399D01*
X156829838Y-72603114D01*
X156687660Y-73110779D01*
X156576387Y-73567107D01*
X156513179Y-73915816D01*
X156502500Y-73995550D01*
X156444463Y-74346393D01*
X156370118Y-74726454D01*
X156312125Y-75016987D01*
X156227639Y-75478660D01*
X156148743Y-75945087D01*
X156140989Y-75999307D01*
X156108944Y-76368672D01*
X156082522Y-76911501D01*
X156061771Y-77592810D01*
X156046737Y-78377614D01*
X156037467Y-79230932D01*
X156034005Y-80117779D01*
X156036400Y-81003172D01*
X156044697Y-81852127D01*
X156058942Y-82629661D01*
X156079182Y-83300791D01*
X156105464Y-83830532D01*
X156137833Y-84183901D01*
X156181561Y-84498908D01*
X156274285Y-85179894D01*
X156360339Y-85828230D01*
X156433834Y-86398564D01*
X156488881Y-86845550D01*
X156519593Y-87123837D01*
X156657664Y-88419998D01*
X156826646Y-89620532D01*
X157041788Y-90831135D01*
X157081492Y-91035404D01*
X157136505Y-91313927D01*
X157181812Y-91527780D01*
X157237271Y-91768633D01*
X157322737Y-92128156D01*
X157381986Y-92377901D01*
X157537457Y-93050098D01*
X157643613Y-93543854D01*
X157704838Y-93882493D01*
X157725521Y-94089341D01*
X157710048Y-94187723D01*
X157604043Y-94274482D01*
X157408831Y-94260297D01*
X157244545Y-94100710D01*
X157212235Y-94010288D01*
X157136276Y-93718380D01*
X157035493Y-93275332D01*
X156917307Y-92718758D01*
X156789139Y-92086276D01*
X156658411Y-91415500D01*
X156532543Y-90744046D01*
X156418956Y-90109530D01*
X156325072Y-89549567D01*
X156258312Y-89101773D01*
X156236955Y-88942737D01*
X156157005Y-88353864D01*
X156067568Y-87702290D01*
X155984292Y-87102199D01*
X155938248Y-86771039D01*
X155831913Y-85980766D01*
X155746963Y-85289536D01*
X155681026Y-84657949D01*
X155631735Y-84046605D01*
X155596720Y-83416105D01*
X155573610Y-82727049D01*
X155560037Y-81940036D01*
X155553631Y-81015666D01*
X155552022Y-79914539D01*
X155552038Y-79666435D01*
X155553082Y-78677234D01*
X155557501Y-77864034D01*
X155567697Y-77193996D01*
X155586069Y-76634278D01*
X155615020Y-76152042D01*
X155656951Y-75714448D01*
X155714262Y-75288655D01*
X155789356Y-74841824D01*
X155884633Y-74341115D01*
X156002494Y-73753688D01*
X156010790Y-73712800D01*
X156104809Y-73267942D01*
X156196489Y-72888470D01*
X156302368Y-72521169D01*
X156438979Y-72112826D01*
X156622860Y-71610226D01*
X156870545Y-70960154D01*
X156873129Y-70953437D01*
X157251168Y-70050439D01*
X157647194Y-69285268D01*
X158105490Y-68581733D01*
X158670340Y-67863646D01*
X159126306Y-67334659D01*
X159900235Y-66500292D01*
X160694946Y-65733402D01*
X161568149Y-64979650D01*
X162577554Y-64184698D01*
X162648241Y-64131544D01*
X163355156Y-63643893D01*
X164216478Y-63111866D01*
X165187625Y-62559199D01*
X166224016Y-62009628D01*
X167281069Y-61486888D01*
X168314201Y-61014715D01*
X169278831Y-60616847D01*
X169466430Y-60543544D01*
X169928062Y-60358943D01*
X170463757Y-60140899D01*
X170991927Y-59922482D01*
X171374184Y-59768092D01*
X172145232Y-59476316D01*
X173026130Y-59161643D01*
X173955075Y-58845409D01*
X174870264Y-58548951D01*
X175709895Y-58293607D01*
X175847496Y-58253483D01*
X176496111Y-58064286D01*
X177008938Y-57917029D01*
X177429655Y-57802345D01*
X177801941Y-57710869D01*
X178169474Y-57633234D01*
X178575933Y-57560073D01*
X179064994Y-57482021D01*
X179680337Y-57389710D01*
X180465639Y-57273774D01*
X180968742Y-57211529D01*
X181709420Y-57151519D01*
X182491022Y-57116953D01*
X183262474Y-57108206D01*
X183972705Y-57125649D01*
G37*
G36*
X209529798Y-79502592D02*
G01*
X209723924Y-80125974D01*
X209926242Y-80814065D01*
X210121674Y-81516854D01*
X210295147Y-82184327D01*
X210326856Y-82311616D01*
X210445501Y-82784660D01*
X210552025Y-83204931D01*
X210626554Y-83493888D01*
X210668848Y-83691721D01*
X210723102Y-84317125D01*
X210699032Y-85062398D01*
X210597358Y-85869024D01*
X210539072Y-86180114D01*
X210457114Y-86478562D01*
X210357719Y-86646252D01*
X210219060Y-86733036D01*
X210064445Y-86836789D01*
X209972873Y-87032281D01*
X209964538Y-87118638D01*
X209876944Y-87442810D01*
X209714325Y-87871276D01*
X209502112Y-88345583D01*
X209265736Y-88807282D01*
X209030628Y-89197920D01*
X208988727Y-89263517D01*
X208842867Y-89558632D01*
X208783937Y-89796080D01*
X208750496Y-89901012D01*
X208606230Y-90125891D01*
X208385679Y-90399066D01*
X208130216Y-90676423D01*
X207881214Y-90913849D01*
X207680048Y-91067230D01*
X207568091Y-91092452D01*
X207553887Y-91086071D01*
X207461988Y-91168927D01*
X207347643Y-91386900D01*
X207161526Y-91699138D01*
X206787584Y-92108280D01*
X206301916Y-92501304D01*
X205755977Y-92831509D01*
X205561889Y-92918716D01*
X204929338Y-93111617D01*
X204139470Y-93252864D01*
X203231537Y-93336585D01*
X202244788Y-93356906D01*
X201460494Y-93346114D01*
X200085133Y-93324312D01*
X198912482Y-93301331D01*
X197933637Y-93276851D01*
X197139692Y-93250556D01*
X196521740Y-93222126D01*
X196070878Y-93191245D01*
X195778198Y-93157593D01*
X195634795Y-93120853D01*
X195546232Y-93089982D01*
X195249798Y-93036891D01*
X194830756Y-92994178D01*
X194349578Y-92968989D01*
X193291703Y-92938795D01*
X193077373Y-93425178D01*
X193012487Y-93567951D01*
X192844900Y-93906997D01*
X192704676Y-94154752D01*
X192512076Y-94348895D01*
X192318705Y-94386461D01*
X192184487Y-94252937D01*
X192184076Y-94154619D01*
X192256895Y-93898924D01*
X192396855Y-93579218D01*
X192504650Y-93361773D01*
X192611637Y-93130888D01*
X192645041Y-93035019D01*
X192633797Y-93032168D01*
X192473381Y-93013067D01*
X192164793Y-92983771D01*
X191760533Y-92949365D01*
X191663946Y-92941333D01*
X190998221Y-92871993D01*
X190380738Y-92776394D01*
X189749096Y-92641446D01*
X189040892Y-92454058D01*
X188193724Y-92201141D01*
X187811307Y-92084570D01*
X187325531Y-91938875D01*
X186842660Y-91795932D01*
X186291167Y-91618695D01*
X185686475Y-91378713D01*
X185084105Y-91081586D01*
X184443605Y-90705122D01*
X183724520Y-90227125D01*
X182886400Y-89625403D01*
X182873746Y-89616058D01*
X182474577Y-89299871D01*
X182032796Y-88916221D01*
X181577940Y-88494837D01*
X181139549Y-88065452D01*
X180747159Y-87657794D01*
X180430309Y-87301596D01*
X180218538Y-87026588D01*
X180141384Y-86862500D01*
X180134469Y-86809876D01*
X180049564Y-86723901D01*
X179979618Y-86699970D01*
X179765959Y-86583074D01*
X179482117Y-86401613D01*
X179435595Y-86370649D01*
X178989579Y-86146422D01*
X178547129Y-86077357D01*
X178256691Y-86060825D01*
X178120614Y-85995787D01*
X178087767Y-85855012D01*
X178096326Y-85765867D01*
X178153211Y-85695828D01*
X178300473Y-85661394D01*
X178579958Y-85654195D01*
X179033512Y-85665863D01*
X179267037Y-85674453D01*
X179638492Y-85697682D01*
X179851857Y-85734866D01*
X179946982Y-85795581D01*
X179963717Y-85889404D01*
X180036435Y-86068368D01*
X180260951Y-86243456D01*
X180275140Y-86250939D01*
X180486498Y-86404211D01*
X180573724Y-86548011D01*
X180588655Y-86636250D01*
X180653217Y-86757350D01*
X180792489Y-86937708D01*
X181031500Y-87209524D01*
X181395277Y-87604998D01*
X182030775Y-88238834D01*
X182990773Y-89055854D01*
X184031267Y-89807097D01*
X185105376Y-90462055D01*
X186166220Y-90990218D01*
X187166916Y-91361075D01*
X187291791Y-91398290D01*
X187650610Y-91508270D01*
X187923512Y-91595955D01*
X187978055Y-91612904D01*
X188246196Y-91687173D01*
X188661396Y-91795939D01*
X189178185Y-91927412D01*
X189751091Y-92069802D01*
X189790523Y-92079482D01*
X190409064Y-92226975D01*
X190902821Y-92329682D01*
X191339975Y-92395686D01*
X191788709Y-92433075D01*
X192317205Y-92449935D01*
X192993645Y-92454350D01*
X193011965Y-92454380D01*
X193754439Y-92467947D01*
X194499443Y-92502750D01*
X195174127Y-92554380D01*
X195705639Y-92618432D01*
X195944951Y-92649913D01*
X196493064Y-92699147D01*
X197189312Y-92742677D01*
X197997300Y-92779848D01*
X198880631Y-92810006D01*
X199802910Y-92832496D01*
X200727742Y-92846663D01*
X201618729Y-92851853D01*
X202439477Y-92847410D01*
X203153589Y-92832680D01*
X203724670Y-92807008D01*
X204116324Y-92769740D01*
X204593494Y-92678210D01*
X205396570Y-92416490D01*
X206065083Y-92049043D01*
X206574752Y-91590806D01*
X206901294Y-91056715D01*
X206954180Y-90936856D01*
X207092822Y-90706456D01*
X207208984Y-90614965D01*
X207215621Y-90614804D01*
X207424142Y-90526849D01*
X207695833Y-90313820D01*
X207977569Y-90029148D01*
X208216227Y-89726264D01*
X208358683Y-89458600D01*
X208405151Y-89333933D01*
X208578771Y-88960913D01*
X208786432Y-88594049D01*
X208870279Y-88445310D01*
X209052750Y-88052452D01*
X209247968Y-87563922D01*
X209425884Y-87052179D01*
X209545588Y-86691100D01*
X209698551Y-86293451D01*
X209818327Y-86079906D01*
X209912797Y-86033989D01*
X209961534Y-86034908D01*
X210030066Y-85932162D01*
X210084818Y-85671785D01*
X210133779Y-85224512D01*
X210168058Y-84485228D01*
X210117653Y-83793278D01*
X209970193Y-83049007D01*
X209939840Y-82924112D01*
X209846885Y-82535783D01*
X209751240Y-82130284D01*
X209727208Y-82029363D01*
X209603045Y-81548403D01*
X209460880Y-81046823D01*
X209315204Y-80570587D01*
X209180506Y-80165659D01*
X209071276Y-79878004D01*
X209002005Y-79753585D01*
X208955590Y-79745341D01*
X208858169Y-79846858D01*
X208854194Y-79855221D01*
X208720800Y-79985225D01*
X208454003Y-80173645D01*
X208106752Y-80382723D01*
X208085051Y-80394905D01*
X207723455Y-80611052D01*
X207429379Y-80809494D01*
X207264671Y-80948668D01*
X206979976Y-81162644D01*
X206512780Y-81348033D01*
X205908563Y-81492847D01*
X205206308Y-81593088D01*
X204444999Y-81644758D01*
X203663619Y-81643860D01*
X202901151Y-81586396D01*
X202196577Y-81468369D01*
X201930066Y-81400970D01*
X201332204Y-81172666D01*
X200751191Y-80817501D01*
X200626883Y-80729357D01*
X199871795Y-80211656D01*
X199236074Y-79815692D01*
X198682035Y-79523464D01*
X198171995Y-79316969D01*
X197668267Y-79178205D01*
X197133167Y-79089171D01*
X196463316Y-78961328D01*
X195921946Y-78738910D01*
X195553757Y-78415153D01*
X195343288Y-77976063D01*
X195275077Y-77407650D01*
X195276575Y-77371352D01*
X195813724Y-77371352D01*
X195815386Y-77488222D01*
X195850490Y-77795716D01*
X195953444Y-78031648D01*
X196153385Y-78217063D01*
X196479449Y-78373006D01*
X196960774Y-78520520D01*
X197626495Y-78680650D01*
X197946255Y-78755131D01*
X198552449Y-78918791D01*
X199058730Y-79102702D01*
X199530716Y-79337427D01*
X200034023Y-79653527D01*
X200634267Y-80081565D01*
X200822664Y-80217095D01*
X201290496Y-80524302D01*
X201686390Y-80742582D01*
X201964596Y-80845655D01*
X202001714Y-80852705D01*
X202295494Y-80932683D01*
X202490329Y-81024668D01*
X202591197Y-81066165D01*
X202890575Y-81116336D01*
X203321847Y-81150148D01*
X203834544Y-81166333D01*
X204378199Y-81163629D01*
X204902341Y-81140770D01*
X205356502Y-81096492D01*
X205664761Y-81043206D01*
X206526820Y-80765972D01*
X207270746Y-80323822D01*
X207395568Y-80232459D01*
X207708220Y-80020731D01*
X208054363Y-79800979D01*
X208085824Y-79781617D01*
X208382927Y-79573168D01*
X208528755Y-79392643D01*
X208567363Y-79187345D01*
X208557505Y-79065795D01*
X208467841Y-78759928D01*
X208315790Y-78482045D01*
X208139587Y-78292732D01*
X207977466Y-78252577D01*
X207865572Y-78242949D01*
X207609555Y-78100693D01*
X207267261Y-77824273D01*
X206977784Y-77576858D01*
X206519547Y-77214714D01*
X206086911Y-76900299D01*
X205914353Y-76785916D01*
X205531302Y-76546945D01*
X205101068Y-76292446D01*
X204662328Y-76043678D01*
X204253760Y-75821900D01*
X203914040Y-75648370D01*
X203681845Y-75544346D01*
X203595852Y-75531089D01*
X203553415Y-75549759D01*
X203394052Y-75490741D01*
X203284522Y-75462339D01*
X202975662Y-75424238D01*
X202512234Y-75387144D01*
X201927909Y-75352063D01*
X201256362Y-75320002D01*
X200531264Y-75291969D01*
X199786289Y-75268970D01*
X199055109Y-75252012D01*
X198371398Y-75242103D01*
X197768827Y-75240249D01*
X197281071Y-75247457D01*
X196941801Y-75264734D01*
X196784690Y-75293088D01*
X196777294Y-75297916D01*
X196602180Y-75491285D01*
X196394695Y-75827256D01*
X196183472Y-76244537D01*
X195997146Y-76681840D01*
X195864352Y-77077874D01*
X195813724Y-77371352D01*
X195276575Y-77371352D01*
X195278347Y-77328423D01*
X195355216Y-76932240D01*
X195514038Y-76453502D01*
X195728009Y-75950680D01*
X195970321Y-75482246D01*
X196214169Y-75106673D01*
X196432748Y-74882432D01*
X196478821Y-74855223D01*
X196600789Y-74807534D01*
X196777161Y-74773045D01*
X197034881Y-74750649D01*
X197400893Y-74739241D01*
X197902143Y-74737714D01*
X198565575Y-74744962D01*
X199418132Y-74759879D01*
X199602309Y-74763486D01*
X200660846Y-74788073D01*
X201534555Y-74817981D01*
X202250531Y-74856899D01*
X202835872Y-74908520D01*
X203317675Y-74976534D01*
X203723037Y-75064632D01*
X204079055Y-75176505D01*
X204412826Y-75315845D01*
X204751448Y-75486341D01*
X204778501Y-75500867D01*
X205306265Y-75798478D01*
X205879590Y-76142368D01*
X206379043Y-76461014D01*
X206544195Y-76568968D01*
X206861155Y-76761116D01*
X207080626Y-76872649D01*
X207162661Y-76882100D01*
X207184298Y-76817675D01*
X207325772Y-76781732D01*
X207544779Y-76852161D01*
X207777184Y-77015082D01*
X207870749Y-77095637D01*
X208003516Y-77157693D01*
X208010245Y-77062732D01*
X207879586Y-76831142D01*
X207866817Y-76811839D01*
X207747037Y-76607387D01*
X207556363Y-76261995D01*
X207318306Y-75818796D01*
X207056377Y-75320922D01*
X207050078Y-75308835D01*
X206755477Y-74758419D01*
X206451475Y-74215066D01*
X206173535Y-73740819D01*
X205957118Y-73397721D01*
X205699982Y-73009154D01*
X205380223Y-72511262D01*
X205090383Y-72046657D01*
X204649108Y-71356732D01*
X203578067Y-69884303D01*
X202369458Y-68456785D01*
X201057342Y-67107932D01*
X199675775Y-65871498D01*
X198258819Y-64781235D01*
X196840533Y-63870897D01*
X195862393Y-63312894D01*
X194984554Y-62822768D01*
X194242685Y-62422192D01*
X193612450Y-62098336D01*
X193069513Y-61838367D01*
X192589540Y-61629453D01*
X192291608Y-61506566D01*
X191835071Y-61316623D01*
X191457753Y-61157702D01*
X191220107Y-61055156D01*
X191161684Y-61029697D01*
X190752990Y-60868549D01*
X190212838Y-60673748D01*
X189605294Y-60466694D01*
X188994428Y-60268785D01*
X188444309Y-60101419D01*
X188019005Y-59985997D01*
X187736448Y-59923674D01*
X187220506Y-59825713D01*
X186630045Y-59726385D01*
X186022402Y-59634243D01*
X185454915Y-59557840D01*
X184984922Y-59505726D01*
X184669761Y-59486454D01*
X184575011Y-59483877D01*
X184400723Y-59433838D01*
X184376903Y-59297305D01*
X184462310Y-59166631D01*
X184682063Y-59068588D01*
X184773426Y-59061950D01*
X185108579Y-59071880D01*
X185587140Y-59111262D01*
X186161215Y-59174525D01*
X186782906Y-59256097D01*
X187404318Y-59350408D01*
X187977554Y-59451888D01*
X188384334Y-59542782D01*
X189182020Y-59767104D01*
X190096844Y-60069142D01*
X191083946Y-60432097D01*
X192098466Y-60839170D01*
X193095544Y-61273562D01*
X194030320Y-61718475D01*
X194495691Y-61956009D01*
X195192046Y-62325445D01*
X195915126Y-62722711D01*
X196633735Y-63129542D01*
X197316679Y-63527675D01*
X197932763Y-63898846D01*
X198450792Y-64224789D01*
X198839572Y-64487241D01*
X199067907Y-64667937D01*
X199098942Y-64697106D01*
X199288046Y-64867211D01*
X199594315Y-65137632D01*
X199982906Y-65477708D01*
X200418971Y-65856775D01*
X200535952Y-65958529D01*
X201505737Y-66838180D01*
X202387554Y-67713037D01*
X203209511Y-68617326D01*
X203999716Y-69585269D01*
X204786277Y-70651090D01*
X205597302Y-71849013D01*
X206460900Y-73213263D01*
X206698381Y-73608911D01*
X207019827Y-74167958D01*
X207364015Y-74786766D01*
X207714797Y-75434345D01*
X208056024Y-76079707D01*
X208371549Y-76691864D01*
X208645222Y-77239829D01*
X208860896Y-77692611D01*
X209002422Y-78019224D01*
X209053651Y-78188679D01*
X209059892Y-78217713D01*
X209124783Y-78399657D01*
X209237306Y-78675062D01*
X209358938Y-78993931D01*
X209423906Y-79187345D01*
X209529798Y-79502592D01*
G37*
D12*
%TO.C,D14*%
X216800000Y-52727500D02*
X216800000Y-48717500D01*
X218800000Y-52727500D02*
X216800000Y-52727500D01*
X218800000Y-52727500D02*
X218800000Y-48717500D01*
%TD*%
M02*
