0
SECTION
2
HEADER
9
$INSUNITS
70
4
0
ENDSEC
0
SECTION
2
TABLES
0
TABLE
2
LTYPE
0
LTYPE
72
65
70
64
2
CONTINUOUS
3
______
73
0
40
0
0
ENDTAB
0
TABLE
2
LAYER
0
ENDTAB
0
ENDSEC
0
SECTION
2
ENTITIES
0
LINE
8
0
10
137.5
20
-161
11
162.5
21
-161
0
ARC
8
0
10
162.5
20
-160
40
1
50
270
51
360
0
LINE
8
0
10
163.5
20
-160
11
163.5
21
-157
0
LINE
8
0
10
136.5
20
-160
11
136.5
21
-89
0
ARC
8
0
10
137.5
20
-160
40
1
50
180
51
270
0
LINE
8
0
10
173.5
20
-153
11
173.5
21
-153.5
0
LINE
8
0
10
173
20
-154
11
166.5
21
-154
0
LINE
8
0
10
145.5
20
-88
11
137.5
21
-88
0
ARC
8
0
10
137.5
20
-89
40
1
50
90
51
180
0
LINE
8
0
10
173.5
20
-153
11
181.5
21
-153
0
ARC
8
0
10
181.5
20
-152
40
1
50
270
51
360
0
LINE
8
0
10
182.5
20
-152
11
182.5
21
-150
0
LINE
8
0
10
146
20
-87
11
152.5
21
-87
0
LINE
8
0
10
145.5
20
-88
11
145.5
21
-87.5
0
LINE
8
0
10
156.5
20
-80
11
171.5
21
-80
0
ARC
8
0
10
156.5
20
-81
40
1
50
90
51
180
0
LINE
8
0
10
155.5
20
-81
11
155.5
21
-84
0
LINE
8
0
10
185.5
20
-147
11
190.5
21
-147
0
LINE
8
0
10
201.5
20
-76
11
201.5
21
-75
0
ARC
8
0
10
200.5
20
-75
40
1
50
0
51
90
0
LINE
8
0
10
200.5
20
-74
11
175.5
21
-74
0
ARC
8
0
10
175.5
20
-75
40
1
50
90
51
180
0
LINE
8
0
10
174.5
20
-75
11
174.5
21
-77
0
LINE
8
0
10
194.5
20
-152
11
208.8461463
21
-152
0
LINE
8
0
10
220.5
20
-135.5683113
11
220.5
21
-80
0
LINE
8
0
10
193.5
20
-150
11
193.5
21
-151
0
ARC
8
0
10
194.5
20
-151
40
1
50
180
51
270
0
ARC
8
0
10
219.5
20
-80
40
1
50
0
51
90
0
LINE
8
0
10
204.5
20
-79
11
219.5
21
-79
0
LINE
8
0
10
212.0789177
20
-158.389946
11
228.8867244
21
-162.8935843
0
LINE
8
0
10
242.439063
20
-145.5406272
11
242.6281891
21
-144.8347988
0
ARC
8
0
10
241.6622633
20
-144.5759798
40
1
50
345
51
75
0
LINE
8
0
10
241.9210823
20
-143.610054
11
222.7235429
21
-138.4660888
0
LINE
8
0
10
211.7439238
20
-155.776457
11
211.3718109
21
-157.1652012
0
ARC
8
0
10
212.3377367
20
-157.4240202
40
1
50
165
51
255
0
LINE
8
0
10
229.6000511
20
-166.3569454
11
251.8752142
21
-177.7067079
0
ARC
8
0
10
252.3292047
20
-176.8157014
40
1
50
243
51
333.0000071
0
LINE
8
0
10
253.2202112
20
-177.2696918
11
262.3000212
21
-159.4495614
0
ARC
8
0
10
261.4090146
20
-158.9955709
40
1
50
333
51
63
0
LINE
8
0
10
261.8630051
20
-158.1045644
11
243.9748689
21
-148.9901038
0
LINE
8
0
10
229.518912
20
-164.3135005
11
229.163035
21
-165.0119484
0
ARC
8
0
10
230.0540416
20
-165.4659389
40
1
50
153
51
243
0
LINE
8
0
10
418.9630562
20
-161
11
443.9630562
21
-161
0
ARC
8
0
10
443.9630562
20
-160
40
1
50
270
51
360
0
LINE
8
0
10
444.9630562
20
-160
11
444.9630562
21
-89
0
LINE
8
0
10
417.9630562
20
-157
11
417.9630562
21
-160
0
ARC
8
0
10
418.9630562
20
-160
40
1
50
180
51
270
0
LINE
8
0
10
414.9630562
20
-154
11
407.9630562
21
-154
0
LINE
8
0
10
407.9630562
20
-154
11
407.9630562
21
-153.5
0
ARC
8
0
10
443.9630562
20
-89
40
1
50
0
51
90
0
LINE
8
0
10
443.9630562
20
-88
11
436.4630562
21
-88
0
LINE
8
0
10
399.9630562
20
-153
11
407.4630562
21
-153
0
LINE
8
0
10
398.9630562
20
-150
11
398.9630562
21
-152
0
ARC
8
0
10
399.9630562
20
-152
40
1
50
180
51
270
0
LINE
8
0
10
428.9630562
20
-87
11
435.9630562
21
-87
0
LINE
8
0
10
435.9630562
20
-87
11
435.9630562
21
-87.5
0
LINE
8
0
10
425.9630562
20
-84
11
425.9630562
21
-81
0
ARC
8
0
10
424.9630562
20
-81
40
1
50
0
51
90
0
LINE
8
0
10
409.9630562
20
-80
11
424.9630562
21
-80
0
LINE
8
0
10
390.9630562
20
-147
11
395.9630562
21
-147
0
LINE
8
0
10
406.9630562
20
-77
11
406.9630562
21
-75
0
ARC
8
0
10
405.9630562
20
-75
40
1
50
0
51
90
0
LINE
8
0
10
405.9630562
20
-74
11
380.9630562
21
-74
0
ARC
8
0
10
380.9630562
20
-75
40
1
50
90
51
180
0
LINE
8
0
10
379.9630562
20
-75
11
379.9630562
21
-76
0
LINE
8
0
10
372.6169099
20
-152
11
386.9630562
21
-152
0
ARC
8
0
10
386.9630562
20
-151
40
1
50
270
51
360
0
LINE
8
0
10
387.9630562
20
-151
11
387.9630562
21
-150
0
LINE
8
0
10
360.9630562
20
-135.5683113
11
360.9630562
21
-80
0
LINE
8
0
10
361.9630562
20
-79
11
376.9630562
21
-79
0
ARC
8
0
10
361.9630562
20
-80
40
1
50
90
51
180
0
LINE
8
0
10
352.5763318
20
-162.8935843
11
369.3841385
21
-158.389946
0
ARC
8
0
10
369.1253195
20
-157.4240202
40
1
50
285
51
15
0
LINE
8
0
10
370.0912453
20
-157.1652012
11
369.7191324
21
-155.776457
0
LINE
8
0
10
358.7395133
20
-138.4660888
11
339.5419739
21
-143.610054
0
ARC
8
0
10
339.8007929
20
-144.5759798
40
1
50
105
51
195
0
LINE
8
0
10
338.8348671
20
-144.8347988
11
339.0239932
21
-145.5406272
0
LINE
8
0
10
329.587842
20
-177.7067079
11
351.8630051
21
-166.3569454
0
ARC
8
0
10
351.4090146
20
-165.4659389
40
1
50
297
51
27
0
LINE
8
0
10
352.3000212
20
-165.0119484
11
351.9441442
21
-164.3135005
0
LINE
8
0
10
337.4881873
20
-148.9901038
11
319.6000511
21
-158.1045644
0
ARC
8
0
10
320.0540416
20
-158.9955709
40
1
50
117
51
207
0
LINE
8
0
10
319.163035
20
-159.4495614
11
328.242845
21
-177.2696918
0
ARC
8
0
10
329.1338515
20
-176.8157014
40
1
50
206.9999929
51
297
0
ARC
8
0
10
428.9630562
20
-84
40
3
50
180
51
270
0
ARC
8
0
10
409.9630562
20
-77
40
3
50
180
51
270
0
ARC
8
0
10
376.9630562
20
-76
40
3
50
270
51
0
0
ARC
8
0
10
357.9630562
20
-135.5683113
40
3
50
284.9999995
51
0
0
ARC
8
0
10
336.1262157
20
-146.3170842
40
3
50
297.0000006
51
14.9999979
0
ARC
8
0
10
372.6169099
20
-155
40
3
50
90
51
194.9999979
0
ARC
8
0
10
390.9630562
20
-150
40
3
50
90
51
180
0
ARC
8
0
10
395.9630562
20
-150
40
3
50
0
51
90
0
ARC
8
0
10
414.9630562
20
-157
40
3
50
0
51
90
0
ARC
8
0
10
166.5
20
-157
40
3
50
90
51
180
0
ARC
8
0
10
185.5
20
-150
40
3
50
90
51
180
0
ARC
8
0
10
190.5
20
-150
40
3
50
0
51
90
0
ARC
8
0
10
208.8461463
20
-155
40
3
50
345.0000021
51
90
0
ARC
8
0
10
245.3368405
20
-146.3170842
40
3
50
165.0000021
51
242.9999994
0
ARC
8
0
10
223.5
20
-135.5683113
40
3
50
180
51
255.0000005
0
ARC
8
0
10
204.5
20
-76
40
3
50
180
51
270
0
ARC
8
0
10
171.5
20
-77
40
3
50
270
51
0
0
ARC
8
0
10
152.5
20
-84
40
3
50
270
51
0
0
ARC
8
0
10
358.4806943
20
-137.500163
40
1
50
284.9999979
51
284.9999999
0
ARC
8
0
10
352.8351508
20
-163.8595101
40
1
50
104.9999979
51
206.9999929
0
ARC
8
0
10
228.6279054
20
-163.8595101
40
1
50
333.0000071
51
75.0000021
0
ARC
8
0
10
222.9823619
20
-137.500163
40
1
50
255.0000001
51
255.0000021
0
ARC
8
0
10
173
20
-153.5
40
0.5
50
270
51
0
0
ARC
8
0
10
229.0734087
20
-164.0865053
40
0.5
50
332.9999994
51
333.0000071
0
ARC
8
0
10
252.774708
20
-177.0426966
40
0.5
50
332.9999994
51
333.0000071
0
ARC
8
0
10
222.8529524
20
-137.9831259
40
0.5
50
255.0000005
51
255.0000021
0
ARC
8
0
10
146
20
-87.5
40
0.5
50
90
51
180
0
ARC
8
0
10
436.4630562
20
-87.5
40
0.5
50
180
51
270
0
ARC
8
0
10
358.6101038
20
-137.9831259
40
0.5
50
284.9999979
51
284.9999995
0
ARC
8
0
10
328.6883482
20
-177.0426966
40
0.5
50
206.9999929
51
207.0000006
0
ARC
8
0
10
352.3896475
20
-164.0865053
40
0.5
50
206.9999929
51
207.0000006
0
ARC
8
0
10
407.4630562
20
-153.5
40
0.5
50
0
51
90
0
ENDSEC
0
EOF