  0
SECTION
  2
HEADER
  9
$ANGBASE
  50
0.0
  9
$ANGDIR
  70
1
  9
$MEASUREMENT
  70
1
  0
ENDSEC
  0
SECTION
  2
TABLES
  0
TABLE
  2
LTYPE
  70
4
  0
LTYPE
  5
40F
  2
CONTINUOUS
  70
0
  3
Solid line
  72
65
  73
0
  40
0.0
  0
LTYPE
  5
410
  2
DASHDOT
 70
0
  3
Dash Dot ____ _ ____ _
 72
65
 73
4
 40
2.0
 49
1.25
 49
-0.25
 49
0.25
 49
-0.25
  0
LTYPE
  5
411
  2
DASHED
 70
0
  3
Dashed __ __ __ __ __
 72
65
 73
2
 40
0.75
 49
0.5
 49
-0.25
  0
LTYPE
  5
43B
  2
DOTTED
 70
0
  3
Dotted .  .  .  .
 72
65
 73
2
 40
0.2
 49
0.0
 49
-0.2
  0
ENDTAB
  0
TABLE
  2
STYLE
  70
4
  0
STYLE
  2
KICAD
  70
0
  40
0
  41
1
  42
1
  50
0
  71
0
  3
isocp.shx
  0
STYLE
  2
KICADB
  70
0
  40
0
  41
1
  42
1
  50
0
  71
0
  3
isocp.shx
  0
STYLE
  2
KICADI
  70
0
  40
0
  41
1
  42
1
  50
15
  71
0
  3
isocp.shx
  0
STYLE
  2
KICADBI
  70
0
  40
0
  41
1
  42
1
  50
15
  71
0
  3
isocp.shx
  0
ENDTAB
  0
TABLE
  2
LAYER
  70
1
  0
LAYER
  2
BLACK
  70
0
  62
7
  6
CONTINUOUS
  0
ENDTAB
  0
ENDSEC
  0
SECTION
  2
ENTITIES
0
LINE
8
BLACK
6
CONTINUOUS
10
120.1595669999999956
20
-28.9769030000000001
11
120.1730969999999985
21
-28.9904329999999995
0
LINE
8
BLACK
6
CONTINUOUS
10
120.1730969999999985
20
-28.9904329999999995
11
120.1749999999999972
21
-29.
0
LINE
8
BLACK
6
CONTINUOUS
10
120.1749999999999972
20
-29.
11
120.1749999999999972
21
-37.8249999999999957
0
LINE
8
BLACK
6
CONTINUOUS
10
120.1749999999999972
20
-37.8249999999999957
11
150.
21
-37.8249999999999957
0
LINE
8
BLACK
6
CONTINUOUS
10
150.
20
-37.8249999999999957
11
150.0095670000000041
21
-37.8269030000000015
0
LINE
8
BLACK
6
CONTINUOUS
10
150.0095670000000041
20
-37.8269030000000015
11
150.023097000000007
21
-37.8404329999999973
0
LINE
8
BLACK
6
CONTINUOUS
10
150.023097000000007
20
-37.8404329999999973
11
150.0250000000000057
21
-37.8500000000000014
0
LINE
8
BLACK
6
CONTINUOUS
10
150.0250000000000057
20
-37.8500000000000014
11
150.0250000000000057
21
-57.6699999999999946
0
LINE
8
BLACK
6
CONTINUOUS
10
150.0250000000000057
20
-57.6699999999999946
11
150.024501999999984
21
-57.6725019999999944
0
LINE
8
BLACK
6
CONTINUOUS
10
150.024501999999984
20
-57.6725019999999944
11
150.0250000000000057
21
-57.6750109999999978
0
LINE
8
BLACK
6
CONTINUOUS
10
150.0250000000000057
20
-57.6750109999999978
11
150.014993000000004
21
-81.4466319999999939
0
LINE
8
BLACK
6
CONTINUOUS
10
150.014993000000004
20
-81.4466319999999939
11
150.0150209999999902
21
-106.5600000000000023
0
LINE
8
BLACK
6
CONTINUOUS
10
150.0150209999999902
20
-106.5600000000000023
11
150.0149999999999864
21
-106.560104999999993
0
LINE
8
BLACK
6
CONTINUOUS
10
150.0149999999999864
20
-106.560104999999993
11
150.0149999999999864
21
-118.9200000000000017
0
LINE
8
BLACK
6
CONTINUOUS
10
150.0149999999999864
20
-118.9200000000000017
11
150.0130969999999877
21
-118.9295669999999916
0
LINE
8
BLACK
6
CONTINUOUS
10
150.0130969999999877
20
-118.9295669999999916
11
150.0130939999999953
21
-118.9295690000000008
0
LINE
8
BLACK
6
CONTINUOUS
10
150.0130939999999953
20
-118.9295690000000008
11
150.0130939999999953
21
-118.9295749999999998
0
LINE
8
BLACK
6
CONTINUOUS
10
150.0130939999999953
20
-118.9295749999999998
11
150.0055749999999932
21
-118.9370879999999886
0
LINE
8
BLACK
6
CONTINUOUS
10
150.0055749999999932
20
-118.9370879999999886
11
149.9995669999999848
21
-118.9430969999999945
0
LINE
8
BLACK
6
CONTINUOUS
10
149.9995669999999848
20
-118.9430969999999945
11
149.9995629999999949
21
-118.9430969999999945
0
LINE
8
BLACK
6
CONTINUOUS
10
149.9995629999999949
20
-118.9430969999999945
11
149.9995600000000024
21
-118.9431000000000012
0
LINE
8
BLACK
6
CONTINUOUS
10
149.9995600000000024
20
-118.9431000000000012
11
149.9899920000000009
21
-118.9449999999999932
0
LINE
8
BLACK
6
CONTINUOUS
10
149.9899920000000009
20
-118.9449999999999932
11
120.1499919999999975
21
-118.9349999999999881
0
LINE
8
BLACK
6
CONTINUOUS
10
120.1499919999999975
20
-118.9349999999999881
11
120.1404399999999981
21
-118.9330969999999894
0
LINE
8
BLACK
6
CONTINUOUS
10
120.1404399999999981
20
-118.9330969999999894
11
120.1404330000000016
21
-118.9330969999999894
0
LINE
8
BLACK
6
CONTINUOUS
10
120.1404330000000016
20
-118.9330969999999894
11
120.1404309999999924
21
-118.9330949999999945
0
LINE
8
BLACK
6
CONTINUOUS
10
120.1404309999999924
20
-118.9330949999999945
11
120.1404249999999934
21
-118.933093999999997
0
LINE
8
BLACK
6
CONTINUOUS
10
120.1404249999999934
20
-118.933093999999997
11
120.1336620000000011
21
-118.9263259999999889
0
LINE
8
BLACK
6
CONTINUOUS
10
120.1336620000000011
20
-118.9263259999999889
11
120.1269029999999987
21
-118.9195670000000007
0
LINE
8
BLACK
6
CONTINUOUS
10
120.1269029999999987
20
-118.9195670000000007
11
120.1269009999999895
21
-118.9195599999999899
0
LINE
8
BLACK
6
CONTINUOUS
10
120.1269009999999895
20
-118.9195599999999899
11
120.126899999999992
21
-118.9195589999999925
0
LINE
8
BLACK
6
CONTINUOUS
10
120.126899999999992
20
-118.9195589999999925
11
120.126899999999992
21
-118.9195509999999985
0
LINE
8
BLACK
6
CONTINUOUS
10
120.126899999999992
20
-118.9195509999999985
11
120.125
21
-118.9099999999999966
0
LINE
8
BLACK
6
CONTINUOUS
10
120.125
20
-118.9099999999999966
11
120.125
21
-105.1550000000000011
0
LINE
8
BLACK
6
CONTINUOUS
10
120.125
20
-105.1550000000000011
11
85.0249999999999915
21
-105.1550000000000011
0
LINE
8
BLACK
6
CONTINUOUS
10
85.0249999999999915
20
-105.1550000000000011
11
85.0249999999999915
21
-129.9099999999999966
0
LINE
8
BLACK
6
CONTINUOUS
10
85.0249999999999915
20
-129.9099999999999966
11
85.0230969999999928
21
-129.9195670000000007
0
LINE
8
BLACK
6
CONTINUOUS
10
85.0230969999999928
20
-129.9195670000000007
11
85.0095669999999899
21
-129.9330970000000036
0
LINE
8
BLACK
6
CONTINUOUS
10
85.0095669999999899
20
-129.9330970000000036
11
85.
21
-129.9350000000000023
0
LINE
8
BLACK
6
CONTINUOUS
10
85.
20
-129.9350000000000023
11
47.4600000000000009
21
-129.9350000000000023
0
LINE
8
BLACK
6
CONTINUOUS
10
47.4600000000000009
20
-129.9350000000000023
11
47.4504329999999968
21
-129.9330970000000036
0
LINE
8
BLACK
6
CONTINUOUS
10
47.4504329999999968
20
-129.9330970000000036
11
47.4504279999999952
21
-129.9330919999999878
0
LINE
8
BLACK
6
CONTINUOUS
10
47.4504279999999952
20
-129.9330919999999878
11
47.4504179999999991
21
-129.9330919999999878
0
LINE
8
BLACK
6
CONTINUOUS
10
47.4504179999999991
20
-129.9330919999999878
11
47.4407579999999953
21
-129.923421999999988
0
LINE
8
BLACK
6
CONTINUOUS
10
47.4407579999999953
20
-129.923421999999988
11
47.4369030000000009
21
-129.9195670000000007
0
LINE
8
BLACK
6
CONTINUOUS
10
47.4369030000000009
20
-129.9195670000000007
11
47.4369030000000009
21
-129.9195629999999824
0
LINE
8
BLACK
6
CONTINUOUS
10
47.4369030000000009
20
-129.9195629999999824
11
47.4368949999999998
21
-129.9195550000000026
0
LINE
8
BLACK
6
CONTINUOUS
10
47.4368949999999998
20
-129.9195550000000026
11
47.4349969999999956
21
-129.909987000000001
0
LINE
8
BLACK
6
CONTINUOUS
10
47.4349969999999956
20
-129.909987000000001
11
47.4500049999999973
21
-99.9900189999999895
0
LINE
8
BLACK
6
CONTINUOUS
10
47.4500049999999973
20
-99.9900189999999895
11
47.451907999999996
21
-99.9804759999999959
0
LINE
8
BLACK
6
CONTINUOUS
10
47.451907999999996
20
-99.9804759999999959
11
47.451907999999996
21
-99.9804329999999908
0
LINE
8
BLACK
6
CONTINUOUS
10
47.451907999999996
20
-99.9804329999999908
11
47.4654379999999989
21
-99.9669030000000021
0
LINE
8
BLACK
6
CONTINUOUS
10
47.4654379999999989
20
-99.9669030000000021
11
47.4750049999999959
21
-99.9649999999999892
0
LINE
8
BLACK
6
CONTINUOUS
10
47.4750049999999959
20
-99.9649999999999892
11
54.9749999999999943
21
-99.9649999999999892
0
LINE
8
BLACK
6
CONTINUOUS
10
54.9749999999999943
20
-99.9649999999999892
11
54.9749999999999943
21
-73.
0
LINE
8
BLACK
6
CONTINUOUS
10
54.9749999999999943
20
-73.
11
54.9769030000000001
21
-72.9904329999999959
0
LINE
8
BLACK
6
CONTINUOUS
10
54.9769030000000001
20
-72.9904329999999959
11
54.9904329999999959
21
-72.976902999999993
0
LINE
8
BLACK
6
CONTINUOUS
10
54.9904329999999959
20
-72.976902999999993
11
55.
21
-72.9749999999999943
0
LINE
8
BLACK
6
CONTINUOUS
10
55.
20
-72.9749999999999943
11
81.9749999999999943
21
-72.9749999999999943
0
LINE
8
BLACK
6
CONTINUOUS
10
81.9749999999999943
20
-72.9749999999999943
11
81.9749999999999943
21
-34.
0
LINE
8
BLACK
6
CONTINUOUS
10
81.9749999999999943
20
-34.
11
81.9749999999999943
21
-29.
0
LINE
8
BLACK
6
CONTINUOUS
10
81.9749999999999943
20
-29.
11
81.976902999999993
21
-28.9904329999999995
0
LINE
8
BLACK
6
CONTINUOUS
10
81.976902999999993
20
-28.9904329999999995
11
81.9904329999999959
21
-28.9769030000000001
0
LINE
8
BLACK
6
CONTINUOUS
10
81.9904329999999959
20
-28.9769030000000001
11
82.
21
-28.9749999999999979
0
LINE
8
BLACK
6
CONTINUOUS
10
82.
20
-28.9749999999999979
11
120.1499999999999915
21
-28.9749999999999979
0
LINE
8
BLACK
6
CONTINUOUS
10
120.1499999999999915
20
-28.9749999999999979
11
120.1595669999999956
21
-28.9769030000000001
0
LINE
8
BLACK
6
CONTINUOUS
10
82.0249999999999915
20
-29.0249999999999986
11
82.0249999999999915
21
-34.
0
LINE
8
BLACK
6
CONTINUOUS
10
82.0249999999999915
20
-34.
11
82.0249999999999915
21
-73.
0
LINE
8
BLACK
6
CONTINUOUS
10
82.0249999999999915
20
-73.
11
82.0230969999999928
21
-73.0095669999999899
0
LINE
8
BLACK
6
CONTINUOUS
10
82.0230969999999928
20
-73.0095669999999899
11
82.0095669999999899
21
-73.0230969999999928
0
LINE
8
BLACK
6
CONTINUOUS
10
82.0095669999999899
20
-73.0230969999999928
11
82.
21
-73.0249999999999915
0
LINE
8
BLACK
6
CONTINUOUS
10
82.
20
-73.0249999999999915
11
55.0249999999999986
21
-73.0249999999999915
0
LINE
8
BLACK
6
CONTINUOUS
10
55.0249999999999986
20
-73.0249999999999915
11
55.0249999999999986
21
-99.9899999999999949
0
LINE
8
BLACK
6
CONTINUOUS
10
55.0249999999999986
20
-99.9899999999999949
11
55.0231239999999957
21
-99.9994310000000013
0
LINE
8
BLACK
6
CONTINUOUS
10
55.0231239999999957
20
-99.9994310000000013
11
55.0231239999999957
21
-99.999566999999999
0
LINE
8
BLACK
6
CONTINUOUS
10
55.0231239999999957
20
-99.999566999999999
11
55.0095939999999999
21
-100.0130970000000019
0
LINE
8
BLACK
6
CONTINUOUS
10
55.0095939999999999
20
-100.0130970000000019
11
55.0000269999999958
21
-100.0150000000000006
0
LINE
8
BLACK
6
CONTINUOUS
10
55.0000269999999958
20
-100.0150000000000006
11
47.4999919999999989
21
-100.0150000000000006
0
LINE
8
BLACK
6
CONTINUOUS
10
47.4999919999999989
20
-100.0150000000000006
11
47.4850099999999955
21
-129.8849999999999909
0
LINE
8
BLACK
6
CONTINUOUS
10
47.4850099999999955
20
-129.8849999999999909
11
84.9749999999999943
21
-129.8849999999999909
0
LINE
8
BLACK
6
CONTINUOUS
10
84.9749999999999943
20
-129.8849999999999909
11
84.9749999999999943
21
-105.1299999999999955
0
LINE
8
BLACK
6
CONTINUOUS
10
84.9749999999999943
20
-105.1299999999999955
11
84.976902999999993
21
-105.1204329999999914
0
LINE
8
BLACK
6
CONTINUOUS
10
84.976902999999993
20
-105.1204329999999914
11
84.9904329999999959
21
-105.1069029999999884
0
LINE
8
BLACK
6
CONTINUOUS
10
84.9904329999999959
20
-105.1069029999999884
11
85.
21
-105.1049999999999898
0
LINE
8
BLACK
6
CONTINUOUS
10
85.
20
-105.1049999999999898
11
120.1499999999999915
21
-105.1049999999999898
0
LINE
8
BLACK
6
CONTINUOUS
10
120.1499999999999915
20
-105.1049999999999898
11
120.1595669999999956
21
-105.1069029999999884
0
LINE
8
BLACK
6
CONTINUOUS
10
120.1595669999999956
20
-105.1069029999999884
11
120.1730969999999985
21
-105.1204329999999914
0
LINE
8
BLACK
6
CONTINUOUS
10
120.1730969999999985
20
-105.1204329999999914
11
120.1749999999999972
21
-105.1299999999999955
0
LINE
8
BLACK
6
CONTINUOUS
10
120.1749999999999972
20
-105.1299999999999955
11
120.1749999999999972
21
-118.8850079999999991
0
LINE
8
BLACK
6
CONTINUOUS
10
120.1749999999999972
20
-118.8850079999999991
11
149.9650000000000034
21
-118.8949909999999903
0
LINE
8
BLACK
6
CONTINUOUS
10
149.9650000000000034
20
-118.8949909999999903
11
149.9650000000000034
21
-106.5600000000000023
0
LINE
8
BLACK
6
CONTINUOUS
10
149.9650000000000034
20
-106.5600000000000023
11
149.9650199999999813
21
-106.5598939999999999
0
LINE
8
BLACK
6
CONTINUOUS
10
149.9650199999999813
20
-106.5598939999999999
11
149.9649929999999927
21
-81.4466319999999939
0
LINE
8
BLACK
6
CONTINUOUS
10
149.9649929999999927
20
-81.4466319999999939
11
149.9649939999999901
21
-81.4466259999999949
0
LINE
8
BLACK
6
CONTINUOUS
10
149.9649939999999901
20
-81.4466259999999949
11
149.9649929999999927
21
-81.4466209999999933
0
LINE
8
BLACK
6
CONTINUOUS
10
149.9649929999999927
20
-81.4466209999999933
11
149.9749999999999943
21
-57.674989999999994
0
LINE
8
BLACK
6
CONTINUOUS
10
149.9749999999999943
20
-57.674989999999994
11
149.9754959999999926
21
-57.6724969999999999
0
LINE
8
BLACK
6
CONTINUOUS
10
149.9754959999999926
20
-57.6724969999999999
11
149.9749999999999943
21
-57.6699999999999946
0
LINE
8
BLACK
6
CONTINUOUS
10
149.9749999999999943
20
-57.6699999999999946
11
149.9749999999999943
21
-37.875
0
LINE
8
BLACK
6
CONTINUOUS
10
149.9749999999999943
20
-37.875
11
120.1499999999999915
21
-37.875
0
LINE
8
BLACK
6
CONTINUOUS
10
120.1499999999999915
20
-37.875
11
120.1404330000000016
21
-37.8730970000000013
0
LINE
8
BLACK
6
CONTINUOUS
10
120.1404330000000016
20
-37.8730970000000013
11
120.1269029999999987
21
-37.8595669999999984
0
LINE
8
BLACK
6
CONTINUOUS
10
120.1269029999999987
20
-37.8595669999999984
11
120.125
21
-37.8500000000000014
0
LINE
8
BLACK
6
CONTINUOUS
10
120.125
20
-37.8500000000000014
11
120.125
21
-29.0249999999999986
0
LINE
8
BLACK
6
CONTINUOUS
10
120.125
20
-29.0249999999999986
11
82.0249999999999915
21
-29.0249999999999986
  0
ENDSEC
  0
EOF
