  0
SECTION
  2
HEADER
  9
$ANGBASE
  50
0.0
  9
$ANGDIR
  70
1
  9
$MEASUREMENT
  70
1
  0
ENDSEC
  0
SECTION
  2
TABLES
  0
TABLE
  2
LTYPE
  70
4
  0
LTYPE
  5
40F
  2
CONTINUOUS
  70
0
  3
Solid line
  72
65
  73
0
  40
0.0
  0
LTYPE
  5
410
  2
DASHDOT
 70
0
  3
Dash Dot ____ _ ____ _
 72
65
 73
4
 40
2.0
 49
1.25
 49
-0.25
 49
0.25
 49
-0.25
  0
LTYPE
  5
411
  2
DASHED
 70
0
  3
Dashed __ __ __ __ __
 72
65
 73
2
 40
0.75
 49
0.5
 49
-0.25
  0
LTYPE
  5
43B
  2
DOTTED
 70
0
  3
Dotted .  .  .  .
 72
65
 73
2
 40
0.2
 49
0.0
 49
-0.2
  0
ENDTAB
  0
TABLE
  2
STYLE
  70
4
  0
STYLE
  2
KICAD
  70
0
  40
0
  41
1
  42
1
  50
0
  71
0
  3
isocp.shx
  0
STYLE
  2
KICADB
  70
0
  40
0
  41
1
  42
1
  50
0
  71
0
  3
isocp.shx
  0
STYLE
  2
KICADI
  70
0
  40
0
  41
1
  42
1
  50
15
  71
0
  3
isocp.shx
  0
STYLE
  2
KICADBI
  70
0
  40
0
  41
1
  42
1
  50
15
  71
0
  3
isocp.shx
  0
ENDTAB
  0
TABLE
  2
LAYER
  70
1
  0
LAYER
  2
BLACK
  70
0
  62
7
  6
CONTINUOUS
  0
ENDTAB
  0
ENDSEC
  0
SECTION
  2
ENTITIES
0
LINE
8
BLACK
6
CONTINUOUS
10
220.809566999999987
20
-28.9718029999999978
11
220.82309699999999
21
-28.9853329999999971
0
LINE
8
BLACK
6
CONTINUOUS
10
220.82309699999999
20
-28.9853329999999971
11
220.8249999999999886
21
-28.9948999999999977
0
LINE
8
BLACK
6
CONTINUOUS
10
220.8249999999999886
20
-28.9948999999999977
11
220.8249999999999886
21
-33.9750000000000014
0
LINE
8
BLACK
6
CONTINUOUS
10
220.8249999999999886
20
-33.9750000000000014
11
220.8249999999999886
21
-72.9698999999999955
0
LINE
8
BLACK
6
CONTINUOUS
10
220.8249999999999886
20
-72.9698999999999955
11
246.9800139999999828
21
-72.9698999999999955
0
LINE
8
BLACK
6
CONTINUOUS
10
246.9800139999999828
20
-72.9698999999999955
11
246.9895809999999869
21
-72.9718029999999942
0
LINE
8
BLACK
6
CONTINUOUS
10
246.9895809999999869
20
-72.9718029999999942
11
247.0031109999999899
21
-72.9853329999999971
0
LINE
8
BLACK
6
CONTINUOUS
10
247.0031109999999899
20
-72.9853329999999971
11
247.0050139999999885
21
-72.9949000000000012
0
LINE
8
BLACK
6
CONTINUOUS
10
247.0050139999999885
20
-72.9949000000000012
11
247.0050139999999885
21
-99.9698999999999955
0
LINE
8
BLACK
6
CONTINUOUS
10
247.0050139999999885
20
-99.9698999999999955
11
254.9749999999999943
21
-99.9698999999999955
0
LINE
8
BLACK
6
CONTINUOUS
10
254.9749999999999943
20
-99.9698999999999955
11
254.9845259999999882
21
-99.9717950000000002
0
LINE
8
BLACK
6
CONTINUOUS
10
254.9845259999999882
20
-99.9717950000000002
11
254.9845479999999895
21
-99.9717950000000002
0
LINE
8
BLACK
6
CONTINUOUS
10
254.9845479999999895
20
-99.9717950000000002
11
254.9845529999999769
21
-99.9718000000000018
0
LINE
8
BLACK
6
CONTINUOUS
10
254.9845529999999769
20
-99.9718000000000018
11
254.9845669999999984
21
-99.9718029999999942
0
LINE
8
BLACK
6
CONTINUOUS
10
254.9845669999999984
20
-99.9718029999999942
11
254.9913179999999784
21
-99.9785539999999884
0
LINE
8
BLACK
6
CONTINUOUS
10
254.9913179999999784
20
-99.9785539999999884
11
254.9980889999999931
21
-99.9853140000000025
0
LINE
8
BLACK
6
CONTINUOUS
10
254.9980889999999931
20
-99.9853140000000025
11
254.9980909999999881
21
-99.9853269999999981
0
LINE
8
BLACK
6
CONTINUOUS
10
254.9980909999999881
20
-99.9853269999999981
11
254.9980970000000013
21
-99.9853329999999971
0
LINE
8
BLACK
6
CONTINUOUS
10
254.9980970000000013
20
-99.9853329999999971
11
254.9980970000000013
21
-99.9853519999999918
0
LINE
8
BLACK
6
CONTINUOUS
10
254.9980970000000013
20
-99.9853519999999918
11
255.
21
-99.9948789999999974
0
LINE
8
BLACK
6
CONTINUOUS
10
255.
20
-99.9948789999999974
11
255.0249999999999773
21
-129.904878999999994
0
LINE
8
BLACK
6
CONTINUOUS
10
255.0249999999999773
20
-129.904878999999994
11
255.0231049999999868
21
-129.9144469999999956
0
LINE
8
BLACK
6
CONTINUOUS
10
255.0231049999999868
20
-129.9144469999999956
11
255.0230969999999786
21
-129.9144550000000038
0
LINE
8
BLACK
6
CONTINUOUS
10
255.0230969999999786
20
-129.9144550000000038
11
255.0230969999999786
21
-129.9144670000000019
0
LINE
8
BLACK
6
CONTINUOUS
10
255.0230969999999786
20
-129.9144670000000019
11
255.0160509999999761
21
-129.921512000000007
0
LINE
8
BLACK
6
CONTINUOUS
10
255.0160509999999761
20
-129.921512000000007
11
255.0095859999999846
21
-129.9279889999999966
0
LINE
8
BLACK
6
CONTINUOUS
10
255.0095859999999846
20
-129.9279889999999966
11
255.0095739999999864
21
-129.9279889999999966
0
LINE
8
BLACK
6
CONTINUOUS
10
255.0095739999999864
20
-129.9279889999999966
11
255.0095669999999757
21
-129.9279970000000048
0
LINE
8
BLACK
6
CONTINUOUS
10
255.0095669999999757
20
-129.9279970000000048
11
255.
21
-129.9299000000000035
0
LINE
8
BLACK
6
CONTINUOUS
10
255.
20
-129.9299000000000035
11
216.9800139999999828
21
-129.9299000000000035
0
LINE
8
BLACK
6
CONTINUOUS
10
216.9800139999999828
20
-129.9299000000000035
11
216.9704469999999787
21
-129.9279970000000048
0
LINE
8
BLACK
6
CONTINUOUS
10
216.9704469999999787
20
-129.9279970000000048
11
216.9569170000000042
21
-129.9144670000000019
0
LINE
8
BLACK
6
CONTINUOUS
10
216.9569170000000042
20
-129.9144670000000019
11
216.9550139999999772
21
-129.9048999999999978
0
LINE
8
BLACK
6
CONTINUOUS
10
216.9550139999999772
20
-129.9048999999999978
11
216.9550139999999772
21
-105.1649889999999914
0
LINE
8
BLACK
6
CONTINUOUS
10
216.9550139999999772
20
-105.1649889999999914
11
181.8550139999999828
21
-105.1499099999999913
0
LINE
8
BLACK
6
CONTINUOUS
10
181.8550139999999828
20
-105.1499099999999913
11
181.8550139999999828
21
-118.9048999999999978
0
LINE
8
BLACK
6
CONTINUOUS
10
181.8550139999999828
20
-118.9048999999999978
11
181.853114000000005
21
-118.9144459999999981
0
LINE
8
BLACK
6
CONTINUOUS
10
181.853114000000005
20
-118.9144459999999981
11
181.8531150000000025
21
-118.9144589999999937
0
LINE
8
BLACK
6
CONTINUOUS
10
181.8531150000000025
20
-118.9144589999999937
11
181.8531109999999842
21
-118.9144620000000003
0
LINE
8
BLACK
6
CONTINUOUS
10
181.8531109999999842
20
-118.9144620000000003
11
181.8531109999999842
21
-118.9144669999999877
0
LINE
8
BLACK
6
CONTINUOUS
10
181.8531109999999842
20
-118.9144669999999877
11
181.8471030000000042
21
-118.9204739999999987
0
LINE
8
BLACK
6
CONTINUOUS
10
181.8471030000000042
20
-118.9204739999999987
11
181.8395889999999895
21
-118.9279939999999982
0
LINE
8
BLACK
6
CONTINUOUS
10
181.8395889999999895
20
-118.9279939999999982
11
181.8395819999999787
21
-118.9279949999999957
0
LINE
8
BLACK
6
CONTINUOUS
10
181.8395819999999787
20
-118.9279949999999957
11
181.8395809999999813
21
-118.9279969999999906
0
LINE
8
BLACK
6
CONTINUOUS
10
181.8395809999999813
20
-118.9279969999999906
11
181.8395739999999989
21
-118.9279969999999906
0
LINE
8
BLACK
6
CONTINUOUS
10
181.8395739999999989
20
-118.9279969999999906
11
181.8300229999999829
21
-118.9298999999999893
0
LINE
8
BLACK
6
CONTINUOUS
10
181.8300229999999829
20
-118.9298999999999893
11
151.990021999999982
21
-118.9398999999999944
0
LINE
8
BLACK
6
CONTINUOUS
10
151.990021999999982
20
-118.9398999999999944
11
151.9804550000000063
21
-118.9379999999999882
0
LINE
8
BLACK
6
CONTINUOUS
10
151.9804550000000063
20
-118.9379999999999882
11
151.9804519999999854
21
-118.9379969999999958
0
LINE
8
BLACK
6
CONTINUOUS
10
151.9804519999999854
20
-118.9379969999999958
11
151.9804469999999981
21
-118.9379969999999958
0
LINE
8
BLACK
6
CONTINUOUS
10
151.9804469999999981
20
-118.9379969999999958
11
151.973686999999984
21
-118.9312369999999959
0
LINE
8
BLACK
6
CONTINUOUS
10
151.973686999999984
20
-118.9312369999999959
11
151.9669199999999876
21
-118.924475000000001
0
LINE
8
BLACK
6
CONTINUOUS
10
151.9669199999999876
20
-118.924475000000001
11
151.9669189999999901
21
-118.9244689999999878
0
LINE
8
BLACK
6
CONTINUOUS
10
151.9669189999999901
20
-118.9244689999999878
11
151.9669169999999951
21
-118.9244669999999928
0
LINE
8
BLACK
6
CONTINUOUS
10
151.9669169999999951
20
-118.9244669999999928
11
151.9650139999999965
21
-118.9148999999999887
0
LINE
8
BLACK
6
CONTINUOUS
10
151.9650139999999965
20
-118.9148999999999887
11
151.9650139999999965
21
-106.5548999999999893
0
LINE
8
BLACK
6
CONTINUOUS
10
151.9650139999999965
20
-106.5548999999999893
11
151.9650139999999965
21
-106.5548979999999943
0
LINE
8
BLACK
6
CONTINUOUS
10
151.9650139999999965
20
-106.5548979999999943
11
151.9650139999999965
21
-106.5548959999999994
0
LINE
8
BLACK
6
CONTINUOUS
10
151.9650139999999965
20
-106.5548959999999994
11
151.9749999999999943
21
-37.8448959999999985
0
LINE
8
BLACK
6
CONTINUOUS
10
151.9749999999999943
20
-37.8448959999999985
11
151.9769039999999904
21
-37.8353290000000015
0
LINE
8
BLACK
6
CONTINUOUS
10
151.9769039999999904
20
-37.8353290000000015
11
151.9870530000000031
21
-37.8251829999999956
0
LINE
8
BLACK
6
CONTINUOUS
10
151.9870530000000031
20
-37.8251829999999956
11
151.9904329999999959
21
-37.8218029999999956
0
LINE
8
BLACK
6
CONTINUOUS
10
151.9904329999999959
20
-37.8218029999999956
11
151.9904339999999934
21
-37.8218019999999981
0
LINE
8
BLACK
6
CONTINUOUS
10
151.9904339999999934
20
-37.8218019999999981
11
151.9904359999999883
21
-37.8218010000000007
0
LINE
8
BLACK
6
CONTINUOUS
10
151.9904359999999883
20
-37.8218010000000007
11
151.9904429999999991
21
-37.8218010000000007
0
LINE
8
BLACK
6
CONTINUOUS
10
151.9904429999999991
20
-37.8218010000000007
11
152.
21
-37.819899999999997
0
LINE
8
BLACK
6
CONTINUOUS
10
152.
20
-37.819899999999997
11
181.8050139999999999
21
-37.819899999999997
0
LINE
8
BLACK
6
CONTINUOUS
10
181.8050139999999999
20
-37.819899999999997
11
181.8050139999999999
21
-28.9948999999999977
0
LINE
8
BLACK
6
CONTINUOUS
10
181.8050139999999999
20
-28.9948999999999977
11
181.8069169999999986
21
-28.9853329999999971
0
LINE
8
BLACK
6
CONTINUOUS
10
181.8069169999999986
20
-28.9853329999999971
11
181.8204470000000015
21
-28.9718029999999978
0
LINE
8
BLACK
6
CONTINUOUS
10
181.8204470000000015
20
-28.9718029999999978
11
181.8300140000000056
21
-28.9698999999999991
0
LINE
8
BLACK
6
CONTINUOUS
10
181.8300140000000056
20
-28.9698999999999991
11
220.7999999999999829
21
-28.9698999999999991
0
LINE
8
BLACK
6
CONTINUOUS
10
220.7999999999999829
20
-28.9698999999999991
11
220.809566999999987
21
-28.9718029999999978
0
LINE
8
BLACK
6
CONTINUOUS
10
181.8550139999999828
20
-29.0198999999999998
11
181.8550139999999828
21
-37.8448999999999955
0
LINE
8
BLACK
6
CONTINUOUS
10
181.8550139999999828
20
-37.8448999999999955
11
181.8531109999999842
21
-37.8544669999999996
0
LINE
8
BLACK
6
CONTINUOUS
10
181.8531109999999842
20
-37.8544669999999996
11
181.8395809999999813
21
-37.8679969999999955
0
LINE
8
BLACK
6
CONTINUOUS
10
181.8395809999999813
20
-37.8679969999999955
11
181.8300140000000056
21
-37.8699000000000012
0
LINE
8
BLACK
6
CONTINUOUS
10
181.8300140000000056
20
-37.8699000000000012
11
152.0249959999999874
21
-37.8699000000000012
0
LINE
8
BLACK
6
CONTINUOUS
10
152.0249959999999874
20
-37.8699000000000012
11
152.0150139999999794
21
-106.5548999999999893
0
LINE
8
BLACK
6
CONTINUOUS
10
152.0150139999999794
20
-106.5548999999999893
11
152.0150139999999794
21
-118.8898909999999915
0
LINE
8
BLACK
6
CONTINUOUS
10
152.0150139999999794
20
-118.8898909999999915
11
181.8050139999999999
21
-118.8799080000000004
0
LINE
8
BLACK
6
CONTINUOUS
10
181.8050139999999999
20
-118.8799080000000004
11
181.8050139999999999
21
-105.1248999999999967
0
LINE
8
BLACK
6
CONTINUOUS
10
181.8050139999999999
20
-105.1248999999999967
11
181.8069169999999986
21
-105.1153329999999926
0
LINE
8
BLACK
6
CONTINUOUS
10
181.8069169999999986
20
-105.1153329999999926
11
181.806919999999991
21
-105.1153289999999885
0
LINE
8
BLACK
6
CONTINUOUS
10
181.806919999999991
20
-105.1153289999999885
11
181.8069209999999885
21
-105.1153229999999894
0
LINE
8
BLACK
6
CONTINUOUS
10
181.8069209999999885
20
-105.1153229999999894
11
181.8136889999999823
21
-105.1085609999999946
0
LINE
8
BLACK
6
CONTINUOUS
10
181.8136889999999823
20
-105.1085609999999946
11
181.8204470000000015
21
-105.1018029999999897
0
LINE
8
BLACK
6
CONTINUOUS
10
181.8204470000000015
20
-105.1018029999999897
11
181.8204529999999863
21
-105.1018029999999897
0
LINE
8
BLACK
6
CONTINUOUS
10
181.8204529999999863
20
-105.1018029999999897
11
181.8204570000000047
21
-105.1017989999999998
0
LINE
8
BLACK
6
CONTINUOUS
10
181.8204570000000047
20
-105.1017989999999998
11
181.8300249999999778
21
-105.099899999999991
0
LINE
8
BLACK
6
CONTINUOUS
10
181.8300249999999778
20
-105.099899999999991
11
216.980023999999986
21
-105.1149999999999949
0
LINE
8
BLACK
6
CONTINUOUS
10
216.980023999999986
20
-105.1149999999999949
11
216.9895709999999838
21
-105.1169029999999935
0
LINE
8
BLACK
6
CONTINUOUS
10
216.9895709999999838
20
-105.1169029999999935
11
216.9895809999999869
21
-105.1169029999999935
0
LINE
8
BLACK
6
CONTINUOUS
10
216.9895809999999869
20
-105.1169029999999935
11
216.9895829999999819
21
-105.1169049999999885
0
LINE
8
BLACK
6
CONTINUOUS
10
216.9895829999999819
20
-105.1169049999999885
11
216.9895909999999901
21
-105.1169069999999977
0
LINE
8
BLACK
6
CONTINUOUS
10
216.9895909999999901
20
-105.1169069999999977
11
216.9963529999999992
21
-105.1236749999999915
0
LINE
8
BLACK
6
CONTINUOUS
10
216.9963529999999992
20
-105.1236749999999915
11
217.0031109999999899
21
-105.1304329999999965
0
LINE
8
BLACK
6
CONTINUOUS
10
217.0031109999999899
20
-105.1304329999999965
11
217.0031119999999873
21
-105.130439999999993
0
LINE
8
BLACK
6
CONTINUOUS
10
217.0031119999999873
20
-105.130439999999993
11
217.0031149999999798
21
-105.1304429999999996
0
LINE
8
BLACK
6
CONTINUOUS
10
217.0031149999999798
20
-105.1304429999999996
11
217.0031139999999823
21
-105.1304529999999886
0
LINE
8
BLACK
6
CONTINUOUS
10
217.0031139999999823
20
-105.1304529999999886
11
217.0050139999999885
21
-105.1400000000000006
0
LINE
8
BLACK
6
CONTINUOUS
10
217.0050139999999885
20
-105.1400000000000006
11
217.0050139999999885
21
-129.8798999999999921
0
LINE
8
BLACK
6
CONTINUOUS
10
217.0050139999999885
20
-129.8798999999999921
11
254.9749789999999905
21
-129.8798999999999921
0
LINE
8
BLACK
6
CONTINUOUS
10
254.9749789999999905
20
-129.8798999999999921
11
254.9500209999999925
21
-100.0198999999999927
0
LINE
8
BLACK
6
CONTINUOUS
10
254.9500209999999925
20
-100.0198999999999927
11
246.9800139999999828
21
-100.0198999999999927
0
LINE
8
BLACK
6
CONTINUOUS
10
246.9800139999999828
20
-100.0198999999999927
11
246.9704469999999787
21
-100.017996999999994
0
LINE
8
BLACK
6
CONTINUOUS
10
246.9704469999999787
20
-100.017996999999994
11
246.9569169999999758
21
-100.0044669999999911
0
LINE
8
BLACK
6
CONTINUOUS
10
246.9569169999999758
20
-100.0044669999999911
11
246.9550139999999772
21
-99.9949000000000012
0
LINE
8
BLACK
6
CONTINUOUS
10
246.9550139999999772
20
-99.9949000000000012
11
246.9550139999999772
21
-73.0198999999999927
0
LINE
8
BLACK
6
CONTINUOUS
10
246.9550139999999772
20
-73.0198999999999927
11
220.8127639999999872
21
-73.0198999999999927
0
LINE
8
BLACK
6
CONTINUOUS
10
220.8127639999999872
20
-73.0198999999999927
11
220.809566999999987
21
-73.0230969999999928
0
LINE
8
BLACK
6
CONTINUOUS
10
220.809566999999987
20
-73.0230969999999928
11
220.7904329999999788
21
-73.0230969999999928
0
LINE
8
BLACK
6
CONTINUOUS
10
220.7904329999999788
20
-73.0230969999999928
11
220.7769029999999759
21
-73.0095669999999899
0
LINE
8
BLACK
6
CONTINUOUS
10
220.7769029999999759
20
-73.0095669999999899
11
220.7749999999999773
21
-73.
0
LINE
8
BLACK
6
CONTINUOUS
10
220.7749999999999773
20
-73.
11
220.7749999999999773
21
-33.9750000000000014
0
LINE
8
BLACK
6
CONTINUOUS
10
220.7749999999999773
20
-33.9750000000000014
11
220.7749999999999773
21
-29.0198999999999998
0
LINE
8
BLACK
6
CONTINUOUS
10
220.7749999999999773
20
-29.0198999999999998
11
181.8550139999999828
21
-29.0198999999999998
  0
ENDSEC
  0
EOF
